<?xml version="1.0" standalone="no"?>
<!DOCTYPE svg PUBLIC "-//W3C//DTD SVG 20010904//EN"
 "http://www.w3.org/TR/2001/REC-SVG-20010904/DTD/svg10.dtd">
<svg version="1.0" xmlns="http://www.w3.org/2000/svg"
 width="40.000000pt" height="40.000000pt" viewBox="0 0 40.000000 40.000000"
 preserveAspectRatio="xMidYMid meet">

<g transform="translate(0.000000,40.000000) scale(0.100000,-0.100000)"
fill="#000000" stroke="none">
<path d="M95 345 c-45 -44 -26 -94 46 -124 27 -11 52 -27 55 -35 3 -9 10 -16
16 -16 5 0 -10 27 -33 60 -23 33 -39 63 -35 67 8 8 12 4 70 -77 45 -63 46 -63
46 -32 0 47 18 39 25 -11 10 -65 3 -98 -26 -119 -36 -27 -74 -15 -106 33 -27
42 -25 61 4 38 17 -13 17 -13 0 13 -20 33 -5 48 17 16 22 -31 20 -9 -2 24
l-18 28 -21 -40 -21 -39 28 -40 c49 -67 89 -78 134 -36 22 20 26 32 26 77 0
29 -3 63 -6 76 -8 26 -44 31 -44 5 -1 -15 -4 -14 -20 6 -15 18 -19 32 -14 61
5 33 2 43 -19 64 -33 33 -71 33 -102 1z m90 -10 c26 -25 32 -50 15 -60 -6 -3
-10 4 -10 17 0 30 -17 48 -46 48 -48 0 -59 -64 -14 -87 23 -12 23 -13 4 -13
-24 0 -38 14 -48 47 -5 17 -1 29 18 48 31 31 50 32 81 0z m-14 -22 c13 -15 12
-15 -9 -4 -18 9 -23 9 -26 -1 -3 -7 -6 -20 -9 -28 -4 -12 -6 -12 -12 3 -8 19
10 47 30 47 7 0 19 -7 26 -17z"/>
</g>
</svg>
