<?xml version="1.0" standalone="no"?>
<!DOCTYPE svg PUBLIC "-//W3C//DTD SVG 20010904//EN"
 "http://www.w3.org/TR/2001/REC-SVG-20010904/DTD/svg10.dtd">
<svg version="1.0" xmlns="http://www.w3.org/2000/svg"
 width="928.000000pt" height="928.000000pt" viewBox="0 0 928.000000 928.000000"
 preserveAspectRatio="xMidYMid meet">

<g transform="translate(0.000000,928.000000) scale(0.100000,-0.100000)"
fill="#000000" stroke="none">
<path d="M3492 9119 c-809 -62 -1515 -656 -1716 -1444 -44 -173 -59 -294 -58
-495 0 -194 17 -333 63 -500 122 -450 406 -844 801 -1109 174 -116 467 -237
683 -280 144 -29 342 -44 480 -38 118 6 345 43 436 71 l47 14 31 -43 31 -43
-68 -17 c-109 -27 -197 -79 -287 -170 -133 -132 -181 -258 -172 -450 4 -100
16 -156 51 -236 6 -13 -1 -17 -36 -22 -55 -8 -177 -57 -231 -94 -74 -49 -156
-144 -197 -225 -77 -153 -89 -320 -36 -477 14 -41 23 -78 20 -83 -3 -4 -16 -8
-29 -8 -36 0 -147 -43 -211 -81 -120 -72 -233 -226 -269 -366 -20 -75 -19
-229 1 -306 8 -33 28 -86 44 -116 28 -57 1035 -1467 1139 -1596 244 -304 591
-543 971 -669 704 -235 1438 -102 2025 365 76 60 259 244 324 327 268 336 427
746 461 1189 14 174 15 159 -86 1183 -174 1779 -158 1636 -194 1731 -65 176
-233 326 -416 373 -92 24 -245 21 -325 -5 -114 -37 -180 -78 -260 -158 -55
-56 -86 -96 -112 -151 -73 -150 -79 -218 -47 -530 11 -106 19 -195 17 -196 -3
-3 -1119 1553 -1130 1576 -7 13 7 42 54 116 355 559 397 1286 108 1880 -101
208 -207 354 -383 529 -322 321 -733 511 -1201 555 -121 11 -170 11 -323 -1z
m449 -338 c653 -118 1159 -613 1300 -1271 19 -89 23 -136 23 -310 1 -238 -12
-326 -75 -515 -41 -122 -128 -314 -153 -334 -11 -9 -37 20 -130 149 l-116 161
40 117 c58 171 73 276 67 452 -5 154 -21 245 -63 369 -104 300 -334 562 -619
704 -357 177 -755 178 -1110 2 -351 -173 -599 -500 -676 -890 -18 -92 -18
-358 0 -450 51 -263 176 -492 366 -674 241 -229 525 -343 860 -345 l140 0 115
-161 c63 -88 115 -162 115 -164 0 -10 -124 -30 -245 -41 -206 -17 -424 9 -635
75 -119 38 -348 156 -450 232 -318 237 -542 586 -627 977 -19 87 -22 132 -23
326 0 213 2 232 29 345 93 395 302 717 621 958 160 121 424 238 635 283 182
38 420 40 611 5z m-38 -700 c249 -65 476 -257 592 -504 62 -131 79 -211 79
-392 1 -98 -3 -167 -10 -178 -9 -16 -35 15 -184 225 -189 264 -272 355 -367
406 -178 94 -407 94 -586 0 -36 -19 -94 -64 -138 -108 -119 -119 -179 -261
-179 -427 0 -182 33 -253 267 -578 131 -181 176 -251 164 -253 -25 -4 -207 45
-266 72 -468 214 -675 768 -460 1232 64 140 161 261 278 350 79 60 242 138
332 160 145 35 330 33 478 -5z m-79 -711 c30 -12 72 -38 93 -59 21 -20 265
-354 543 -742 538 -751 1970 -2746 2003 -2791 27 -36 75 -58 129 -58 62 0 108
28 137 84 l24 47 -52 512 c-28 282 -51 533 -51 558 0 131 97 248 230 278 140
31 303 -68 340 -209 5 -19 64 -584 131 -1255 132 -1328 139 -1432 105 -1640
-68 -416 -252 -768 -547 -1049 -434 -412 -1022 -582 -1613 -465 -222 44 -455
143 -662 280 -130 87 -363 313 -435 424 -26 39 -266 376 -534 750 -269 374
-497 700 -508 725 -13 29 -20 67 -20 110 -1 109 52 198 153 258 40 24 55 27
135 27 149 0 165 -13 388 -324 94 -131 173 -231 191 -242 18 -11 50 -19 74
-19 96 0 162 64 162 157 0 61 20 31 -333 521 -136 189 -257 362 -269 385 -32
60 -32 194 0 254 29 55 82 106 140 135 61 30 188 32 242 4 63 -33 99 -77 367
-450 165 -229 278 -375 297 -387 69 -42 174 -16 216 53 22 37 27 116 9 150 -6
12 -183 260 -393 552 -209 292 -392 553 -406 581 -20 39 -25 65 -25 120 1 255
299 385 483 211 18 -17 196 -258 395 -534 198 -277 375 -514 391 -527 48 -36
102 -40 156 -13 66 34 93 79 88 149 -4 55 -8 61 -258 410 -139 195 -521 728
-848 1184 -328 457 -691 963 -807 1125 -117 162 -221 311 -231 330 -14 26 -19
56 -19 120 0 77 3 90 31 140 33 58 104 121 158 138 53 17 141 14 200 -8z"/>
</g>
</svg>
