<svg version="1.1" id="Layer_1" xmlns="http://www.w3.org/2000/svg" xmlns:xlink="http://www.w3.org/1999/xlink" x="0px" y="0px"
	 width="100%" viewBox="0 0 1143 266" enable-background="new 0 0 1143 266" xml:space="preserve">
<path fill="#121111" opacity="1.000000" stroke="none" 
	d="
M772.000000,267.000000 
	C514.666687,267.000000 257.833344,267.000000 1.000000,267.000000 
	C1.000000,178.333328 1.000000,89.666664 1.000000,1.000000 
	C382.000000,1.000000 763.000000,1.000000 1144.000000,1.000000 
	C1144.000000,89.666664 1144.000000,178.333328 1144.000000,267.000000 
	C1020.166687,267.000000 896.333313,267.000000 772.000000,267.000000 
M181.772385,240.281540 
	C198.813370,228.926346 207.607819,212.716553 206.554596,192.549774 
	C205.401184,170.465256 202.429230,148.469238 200.014084,126.460518 
	C199.128693,118.392075 191.725021,112.362709 184.147858,112.846245 
	C175.238480,113.414795 168.818100,120.046387 168.882095,128.751968 
	C168.904694,131.824860 169.210968,134.895691 169.452637,139.095779 
	C167.878204,137.162384 166.936050,136.119324 166.119919,134.985535 
	C158.440552,124.317314 150.911606,113.537140 143.037643,103.014977 
	C140.767120,99.980827 140.909073,97.936699 142.791855,94.748184 
	C156.205902,72.031433 149.491730,43.484512 127.372528,28.155952 
	C106.642540,13.790114 77.104958,18.238924 60.867298,38.172653 
	C47.722538,54.309479 46.025368,77.742744 56.741005,95.145714 
	C68.209869,113.771973 90.210159,123.275299 110.853355,118.588081 
	C112.377747,118.241951 114.012512,118.381935 115.154198,118.319923 
	C111.397308,121.660004 106.652046,124.225525 104.575996,128.189117 
	C102.496422,132.159454 103.082069,137.525787 102.443588,142.736786 
	C92.294785,146.285751 89.229904,152.087311 91.275200,165.315353 
	C77.687309,168.943695 74.590004,182.438477 82.813927,192.597916 
	C91.563591,203.406860 99.161240,215.147003 107.287430,226.462219 
	C124.509613,250.443054 157.764969,256.851379 181.772385,240.281540 
M250.343979,150.521271 
	C251.049240,145.277130 254.514008,149.059204 256.592560,148.200989 
	C259.959808,161.270126 263.228973,173.958649 266.521698,186.738464 
	C271.794891,186.738464 276.845459,186.738464 282.246216,186.738464 
	C278.622284,173.938065 275.161743,161.460892 271.510681,149.039734 
	C270.807495,146.647461 271.474365,145.562256 273.037537,143.616913 
	C275.937866,140.007477 279.356476,135.619614 279.663391,131.347855 
	C280.542603,119.109795 280.419769,106.745049 279.802368,94.474823 
	C279.435089,87.175217 275.337494,80.902878 267.703613,79.801079 
	C257.159058,78.279182 246.407257,78.193291 235.623352,77.484428 
	C235.623352,114.779701 235.623352,150.704361 235.623352,186.732574 
	C240.602142,186.732574 245.326691,186.732574 250.342072,186.732574 
	C250.342072,174.810806 250.342072,163.164597 250.343979,150.521271 
M724.469849,86.591354 
	C724.429321,113.417519 724.428406,140.243835 724.321289,167.069733 
	C724.293396,174.056122 720.398804,177.072922 713.686523,175.788818 
	C708.385742,174.774719 707.509094,171.002762 707.509705,166.470306 
	C707.513428,138.978256 707.472717,111.486198 707.447388,83.994148 
	C707.445618,82.091385 707.447205,80.188629 707.447205,78.468994 
	C702.119629,78.468994 697.547546,78.468994 692.994080,78.468994 
	C692.994080,109.147453 692.793396,139.464523 693.102966,169.776382 
	C693.211304,180.383133 698.703491,186.140030 709.075134,187.596161 
	C713.637878,188.236755 718.444092,188.227509 723.005127,187.573975 
	C732.994446,186.142624 737.844910,180.674973 738.886108,170.618362 
	C739.091553,168.633972 739.122070,166.624847 739.123718,164.627014 
	C739.146484,137.301224 739.154785,109.975433 739.145020,82.649635 
	C739.144531,81.217896 738.950073,79.786217 738.827759,78.105560 
	C736.167847,78.105560 733.860107,78.105560 731.552368,78.105560 
	C729.288025,78.105560 727.023743,78.105560 724.445984,78.105560 
	C724.445984,81.015381 724.445984,83.320801 724.469849,86.591354 
M863.333252,166.220322 
	C863.169800,170.358337 862.760925,174.326660 857.775818,175.651321 
	C851.167603,177.407272 846.386536,174.194809 846.106262,167.327652 
	C845.830750,160.576309 846.046204,153.804932 846.046204,147.275513 
	C840.999817,147.275513 836.603149,147.275513 832.029419,147.275513 
	C832.029419,154.802002 831.672791,161.972763 832.112000,169.094406 
	C832.791687,180.114075 837.650696,186.023361 847.647827,187.454163 
	C852.821655,188.194626 858.284485,187.827087 863.503784,187.123032 
	C871.141296,186.092743 876.125000,181.120071 876.854431,173.646072 
	C877.786560,164.095154 878.046692,154.374756 877.421631,144.804123 
	C876.758362,134.650528 870.579163,128.574020 860.397766,126.789696 
	C858.110413,126.388824 855.892517,125.605698 853.614990,125.131454 
	C849.496277,124.273865 847.029907,121.768326 846.798035,117.638306 
	C846.416138,110.835976 846.038757,104.000458 846.308228,97.204659 
	C846.534546,91.495453 849.630676,89.113190 855.084106,89.271523 
	C860.512146,89.429115 863.018494,91.896622 863.182434,97.810600 
	C863.360962,104.250114 863.223022,110.698395 863.223022,117.228828 
	C868.305664,117.228828 872.840881,117.228828 877.830078,117.228828 
	C877.830078,111.832573 877.892517,106.846970 877.802429,101.864120 
	C877.760437,99.540176 877.520569,97.208130 877.203003,94.902809 
	C875.582031,83.134834 869.994751,77.837006 858.146973,77.192490 
	C854.522278,76.995308 850.800232,77.222092 847.220398,77.829796 
	C837.831848,79.423546 833.053650,84.237091 832.126953,93.735123 
	C831.401062,101.174652 831.034058,108.732063 831.457031,116.183205 
	C832.279602,130.674927 836.587952,135.400513 850.665833,138.905731 
	C852.117920,139.267288 853.556946,139.712097 855.028870,139.957397 
	C860.340271,140.842560 862.723267,144.315079 863.018005,149.317291 
	C863.331055,154.629639 863.301941,159.962143 863.333252,166.220322 
M1025.821167,179.095383 
	C1026.280884,181.565948 1026.740601,184.036499 1027.240234,186.721939 
	C1031.685425,186.721939 1036.412842,186.721939 1041.082031,186.721939 
	C1041.082031,150.394379 1041.082031,114.348854 1041.082031,78.470932 
	C1036.099121,78.470932 1031.523804,78.470932 1026.504395,78.470932 
	C1026.504395,90.227005 1026.504395,101.626648 1026.504395,113.026299 
	C1024.567383,112.623634 1023.534851,111.763618 1022.828125,110.689293 
	C1019.030701,104.916893 1013.636902,103.443054 1007.162354,104.628159 
	C1000.574707,105.833969 996.178284,110.029770 996.024902,116.350571 
	C995.541199,136.279007 995.843750,156.226700 995.878662,176.166885 
	C995.880127,176.972809 996.197449,177.797440 996.463928,178.580582 
	C998.517151,184.614151 1002.742493,187.401596 1009.122314,188.113510 
	C1016.820740,188.972580 1020.986816,184.306656 1025.821167,179.095383 
M642.316040,183.198074 
	C649.436279,189.067703 657.852051,188.667679 666.129578,187.570007 
	C674.661011,186.438644 678.747986,182.351471 680.198242,173.727539 
	C681.090881,168.418869 680.926331,162.932388 681.249451,157.299011 
	C675.977600,157.299011 671.536560,157.299011 666.930664,157.299011 
	C666.665527,162.176605 666.568420,166.979401 666.096497,171.745071 
	C665.674438,176.007874 662.475464,176.997650 658.845215,176.875534 
	C655.230103,176.753952 652.032166,175.608765 651.928345,171.307739 
	C651.752014,164.006653 651.879822,156.698227 651.879822,148.769775 
	C661.353699,148.769775 671.077271,148.769775 681.187744,148.769775 
	C681.187744,143.160995 681.221741,138.170547 681.176453,133.180817 
	C681.143188,129.516434 681.145264,125.843201 680.888062,122.191078 
	C680.220886,112.720482 676.049622,106.892288 668.118042,105.314438 
	C663.773743,104.450218 659.138916,104.135834 654.745300,104.605164 
	C642.809387,105.880188 637.359924,111.433640 637.022217,123.409355 
	C636.585876,138.883865 636.585693,154.393295 637.162292,169.859192 
	C637.323608,174.184128 640.178528,178.408630 642.316040,183.198074 
M300.769623,107.057373 
	C294.713165,110.444550 292.411255,116.277107 292.260864,122.540527 
	C291.877533,138.509613 291.833130,154.502594 292.276276,170.468719 
	C292.479767,177.801605 295.556946,184.455627 303.457367,186.503204 
	C313.109375,189.004730 322.896057,189.956207 331.383453,182.823746 
	C332.481049,181.901367 333.295135,180.481659 333.879883,179.135651 
	C336.958496,172.049179 336.368347,164.677155 336.035095,157.407303 
	C330.940796,157.407303 326.523560,157.407303 322.207245,157.407303 
	C321.905487,162.510269 321.873535,167.336884 321.263306,172.089249 
	C320.719971,176.320496 317.314697,177.038971 313.739502,176.871262 
	C310.265594,176.708328 307.265198,175.353912 307.129517,171.478500 
	C306.870117,164.067459 307.054169,156.640900 307.054169,148.719971 
	C316.835632,148.719971 326.389465,148.719971 336.007812,148.719971 
	C336.007812,139.240158 336.312500,130.251587 335.920685,121.293472 
	C335.541840,112.630913 331.353699,107.276718 323.950745,105.421494 
	C316.378845,103.523926 308.794861,103.536247 300.769623,107.057373 
M525.980957,141.500641 
	C525.643066,134.368835 525.748047,127.180984 524.854492,120.119507 
	C523.753845,111.422112 519.268250,106.425964 511.733887,105.219467 
	C507.034851,104.467003 502.099091,104.237747 497.379547,104.762581 
	C486.756866,105.943832 481.821594,110.108643 480.986969,120.777519 
	C479.874573,134.997437 479.969757,149.337753 480.089996,163.621780 
	C480.250763,182.722275 487.043274,188.825409 506.255005,188.009369 
	C517.717957,187.522461 523.732483,182.681808 524.929993,171.373062 
	C525.941711,161.818802 525.680542,152.129745 525.980957,141.500641 
M947.484375,187.434570 
	C951.385925,187.192123 955.673035,187.872482 959.080811,186.448410 
	C962.508850,185.015869 965.062012,181.489792 968.707642,178.251129 
	C968.707642,181.767899 968.707642,184.188034 968.707642,186.686600 
	C973.764526,186.686600 978.479492,186.686600 983.180908,186.686600 
	C983.180908,159.454239 983.180908,132.542725 983.180908,105.544533 
	C978.291138,105.544533 973.711060,105.544533 968.744873,105.544533 
	C968.744873,107.631561 968.744873,109.437798 968.744873,111.244041 
	C968.744873,129.399185 968.748718,147.554321 968.742920,165.709473 
	C968.740723,172.631210 964.731506,177.033066 958.418518,177.075699 
	C953.215332,177.110840 951.743591,174.843384 951.740540,166.707626 
	C951.733643,148.052795 951.738403,129.397964 951.738403,110.743141 
	C951.738403,108.996582 951.738342,107.250031 951.738342,105.580643 
	C946.335754,105.580643 941.745972,105.580643 937.048035,105.580643 
	C937.048035,128.206619 936.894592,150.515701 937.143738,172.820312 
	C937.216248,179.311157 939.839355,184.843689 947.484375,187.434570 
M422.432129,148.500366 
	C422.281647,138.183167 422.435669,127.849365 421.874512,117.554543 
	C421.494965,110.591354 417.654175,106.440826 411.712189,104.904488 
	C404.475311,103.033348 399.415558,104.769829 395.009674,110.514557 
	C394.133911,111.656441 392.967255,112.575218 391.174408,114.349136 
	C390.822388,110.555199 390.587799,108.027351 390.356934,105.539345 
	C385.343781,105.539345 380.749969,105.539345 375.961304,105.539345 
	C375.961304,132.722229 375.961304,159.627380 375.961304,186.760742 
	C380.829620,186.760742 385.558197,186.760742 390.718536,186.760742 
	C390.718536,184.894821 390.718506,183.269012 390.718536,181.643204 
	C390.719177,162.662430 390.687531,143.681580 390.741333,124.700958 
	C390.756348,119.404953 395.306580,115.259079 400.843292,115.235954 
	C405.565002,115.216232 407.640503,117.845421 407.711578,124.169693 
	C407.778961,130.162872 407.728333,136.157379 407.728485,142.151306 
	C407.728851,156.937759 407.728607,171.724213 407.728607,186.704605 
	C412.732971,186.704605 417.432098,186.704605 422.432068,186.704605 
	C422.432068,174.103271 422.432068,161.801834 422.432129,148.500366 
M1094.128784,186.664169 
	C1099.407104,187.089874 1104.706055,188.036469 1109.959473,187.829453 
	C1119.932495,187.436432 1125.074463,182.673401 1127.013428,172.864197 
	C1127.559082,170.104599 1127.953003,167.266144 1127.975342,164.460358 
	C1128.073364,152.141708 1128.154663,139.819565 1127.969971,127.502785 
	C1127.706665,109.951630 1119.532593,102.746567 1102.020386,104.324188 
	C1100.861938,104.428558 1099.713379,104.648994 1098.562012,104.827736 
	C1089.288330,106.267540 1083.725098,110.605232 1083.319946,119.865562 
	C1082.550781,137.442215 1082.765625,155.088318 1083.318970,172.682083 
	C1083.511597,178.802170 1086.940308,184.076263 1094.128784,186.664169 
M581.719788,119.460785 
	C581.625732,137.087265 581.163208,154.723175 581.613953,172.335709 
	C581.801453,179.660400 586.078674,185.373810 593.795776,186.919174 
	C603.216125,188.805618 612.755432,189.836227 620.629700,182.434570 
	C622.124939,181.029114 623.444336,178.849319 623.739441,176.862579 
	C624.695068,170.430939 625.136169,163.922852 625.783081,157.367340 
	C620.058044,157.367340 615.629944,157.367340 610.794312,157.367340 
	C610.794312,161.595505 610.999573,165.577286 610.744690,169.529388 
	C610.389771,175.031601 608.291626,176.966599 603.385559,176.917572 
	C598.149719,176.865265 595.996155,174.783020 595.962341,169.126007 
	C595.870605,153.801956 595.874573,138.476715 595.955078,123.152557 
	C595.984497,117.551407 597.796143,115.769646 602.948853,115.632698 
	C608.431091,115.486984 610.447693,117.233040 610.787354,122.958900 
	C611.020081,126.882042 610.831909,130.830139 610.831909,134.736328 
	C615.963196,134.736328 620.519836,134.736328 625.321899,134.736328 
	C625.321899,132.261475 625.267944,130.097672 625.330444,127.937233 
	C625.830017,110.666397 619.407654,102.806740 598.795532,104.509743 
	C598.299377,104.550735 597.812805,104.697624 597.317139,104.756310 
	C588.906555,105.752266 583.588928,110.177979 581.719788,119.460785 
M458.841248,77.085762 
	C454.303741,78.891319 448.891083,79.692230 445.416901,82.718498 
	C438.852722,88.436340 441.194977,97.171165 440.468506,104.981712 
	C438.025909,105.157188 435.763489,105.319725 433.272949,105.498650 
	C433.272949,109.270493 433.272949,112.828789 433.272949,116.675522 
	C435.851837,116.812714 438.221100,116.938759 441.014435,117.087364 
	C441.014435,140.695679 441.014435,163.745956 441.014435,186.750610 
	C446.068665,186.750610 450.653015,186.750610 455.524994,186.750610 
	C455.524994,163.436920 455.524994,140.378403 455.524994,116.812431 
	C460.203827,116.812431 464.608917,116.812431 469.118408,116.812431 
	C469.118408,112.721283 469.118408,109.145287 469.118408,105.053703 
	C464.402466,105.053703 459.999359,105.053703 454.634674,105.053703 
	C455.522675,99.906929 454.795441,93.733238 457.458130,91.355194 
	C460.687286,88.471214 466.779266,88.792725 471.860962,87.677147 
	C471.860962,84.834923 471.860962,81.412956 471.860962,77.041954 
	C467.669556,77.041954 463.713684,77.041954 458.841248,77.085762 
M912.059875,97.461586 
	C912.059875,92.512856 912.059875,87.564133 912.059875,82.408684 
	C906.978333,82.408684 902.245728,82.408684 897.085571,82.408684 
	C897.085571,90.069817 897.085571,97.491898 897.085571,105.009438 
	C894.604004,105.223221 892.537354,105.401268 890.598877,105.568260 
	C890.598877,109.541489 890.598877,113.096306 890.598877,116.698471 
	C892.917786,116.812332 894.838562,116.906639 896.992798,117.012421 
	C896.992798,119.022224 896.991943,120.670692 896.992920,122.319160 
	C897.002747,138.135284 896.906860,153.952530 897.072388,169.767029 
	C897.143494,176.560028 898.991516,182.802948 905.918030,185.798080 
	C912.330078,188.570770 919.090759,188.514633 925.896118,187.580505 
	C925.896118,183.782089 925.896118,180.391357 925.896118,176.970612 
	C924.563416,176.970612 923.576538,176.947540 922.591003,176.974213 
	C912.970703,177.234741 911.851501,176.183746 911.844360,166.746628 
	C911.833557,152.595291 911.841187,138.443954 911.840942,124.292625 
	C911.840942,121.869476 911.840942,119.446327 911.840942,116.598862 
	C916.583313,116.598862 920.663391,116.598862 924.572754,116.598862 
	C924.572754,112.597870 924.572754,109.040916 924.572754,105.166458 
	C920.259155,105.166458 916.325928,105.166458 912.049133,105.166458 
	C912.049133,102.708145 912.049133,100.579010 912.059875,97.461586 
M751.754639,121.499886 
	C751.754639,143.234009 751.754639,164.968140 751.754639,186.667450 
	C757.025879,186.667450 761.740417,186.667450 766.322327,186.667450 
	C766.322327,150.315475 766.322327,114.308632 766.322327,78.371201 
	C761.314819,78.371201 756.714661,78.371201 751.754639,78.371201 
	C751.754639,92.593529 751.754639,106.546707 751.754639,121.499886 
M549.158203,105.246819 
	C545.718323,105.246819 542.278442,105.246819 538.729248,105.246819 
	C538.729248,132.824097 538.729248,159.818710 538.729248,186.837280 
	C543.718933,186.837280 548.340332,186.837280 553.130859,186.837280 
	C553.210999,185.526184 553.341003,184.382462 553.341797,183.238647 
	C553.354675,164.934448 553.311890,146.630127 553.370239,128.326111 
	C553.393921,120.881004 556.828979,117.352951 564.248901,116.954269 
	C566.667480,116.824318 569.098938,116.933846 571.537598,116.933846 
	C571.537598,112.576927 571.537598,108.998383 571.537598,105.487892 
	C563.220825,103.587547 557.491699,106.197296 554.254150,114.720749 
	C553.349182,112.150986 553.740662,110.032097 553.207703,108.179146 
	C552.867920,106.997971 551.158325,106.210869 549.158203,105.246819 
M1054.159546,109.767334 
	C1054.159546,135.353622 1054.159546,160.939926 1054.159546,186.747192 
	C1059.294067,186.747192 1064.005737,186.747192 1068.628296,186.747192 
	C1068.628296,159.480469 1068.628296,132.477051 1068.628296,105.258934 
	C1064.606201,105.258934 1060.952026,105.413620 1057.318115,105.209679 
	C1054.443359,105.048340 1053.893799,106.477837 1054.159546,109.767334 
M362.940796,186.261780 
	C362.940796,159.373871 362.940796,132.485962 362.940796,105.523003 
	C357.818085,105.523003 353.239136,105.523003 348.487396,105.523003 
	C348.487396,132.789291 348.487396,159.789307 348.487396,186.940613 
	C353.294861,186.940613 357.775757,186.940613 362.940796,186.261780 
M784.593872,130.158188 
	C782.162781,130.158188 779.731750,130.158188 777.270020,130.158188 
	C777.270020,134.859344 777.270020,138.935410 777.270020,143.082382 
	C791.913147,143.082382 806.307556,143.082382 820.659729,143.082382 
	C820.659729,138.714218 820.659729,134.627838 820.659729,130.158188 
	C808.775757,130.158188 797.172607,130.158188 784.593872,130.158188 
M1070.185181,80.663445 
	C1069.332642,79.811630 1068.515747,78.269569 1067.621582,78.223373 
	C1062.873291,77.978043 1058.105713,78.108025 1053.246948,78.108025 
	C1053.246948,82.768974 1053.246948,86.958008 1053.246948,91.227249 
	C1058.973755,91.227249 1064.391846,91.227249 1070.187134,91.227249 
	C1070.187134,87.876068 1070.187134,84.749619 1070.185181,80.663445 
M358.338623,91.455917 
	C360.135498,91.455917 361.932343,91.455917 363.880554,91.455917 
	C363.880554,86.836243 363.880554,82.636528 363.880554,78.324509 
	C358.178040,78.324509 352.784332,78.324509 347.227661,78.324509 
	C347.227661,82.738892 347.227661,86.930771 347.227661,91.455872 
	C350.806000,91.455872 354.100586,91.455872 358.338623,91.455917 
z"/>
<path fill="#F9F9F9" opacity="1.000000" stroke="none" 
	d="
M181.481903,240.500809 
	C157.764969,256.851379 124.509613,250.443054 107.287430,226.462219 
	C99.161240,215.147003 91.563591,203.406860 82.813927,192.597916 
	C74.590004,182.438477 77.687309,168.943695 91.275200,165.315353 
	C89.229904,152.087311 92.294785,146.285751 102.443588,142.736786 
	C103.082069,137.525787 102.496422,132.159454 104.575996,128.189117 
	C106.652046,124.225525 111.397308,121.660004 115.154198,118.319923 
	C114.012512,118.381935 112.377747,118.241951 110.853355,118.588081 
	C90.210159,123.275299 68.209869,113.771973 56.741005,95.145714 
	C46.025368,77.742744 47.722538,54.309479 60.867298,38.172653 
	C77.104958,18.238924 106.642540,13.790114 127.372528,28.155952 
	C149.491730,43.484512 156.205902,72.031433 142.791855,94.748184 
	C140.909073,97.936699 140.767120,99.980827 143.037643,103.014977 
	C150.911606,113.537140 158.440552,124.317314 166.119919,134.985535 
	C166.936050,136.119324 167.878204,137.162384 169.452637,139.095779 
	C169.210968,134.895691 168.904694,131.824860 168.882095,128.751968 
	C168.818100,120.046387 175.238480,113.414795 184.147858,112.846245 
	C191.725021,112.362709 199.128693,118.392075 200.014084,126.460518 
	C202.429230,148.469238 205.401184,170.465256 206.554596,192.549774 
	C207.607819,212.716553 198.813370,228.926346 181.481903,240.500809 
M118.218102,108.249718 
	C128.115891,122.040009 138.010864,135.832321 147.914001,149.618774 
	C149.732941,152.150970 151.749619,154.978836 148.268066,157.361328 
	C144.799316,159.735062 142.872253,156.730743 141.097733,154.258606 
	C136.051834,147.229111 131.041153,140.174286 125.982712,133.153870 
	C122.149948,127.834511 118.072166,126.432266 114.365662,129.082275 
	C110.125343,132.113937 109.906723,136.252396 113.759010,141.643295 
	C119.467529,149.631836 125.193710,157.607819 130.936234,165.571930 
	C132.639832,167.934601 133.784729,170.499390 130.933914,172.539764 
	C128.185104,174.507126 125.998405,172.919312 124.269737,170.468689 
	C120.624832,165.301498 116.973953,160.136749 113.220261,155.048645 
	C109.895355,150.541779 105.226021,149.497177 101.651199,152.292282 
	C98.188103,155.000015 97.974548,159.290756 101.159546,163.805908 
	C105.379440,169.788132 109.667534,175.722229 113.889267,181.703171 
	C115.522484,184.016937 116.059547,186.798492 113.190216,188.040878 
	C111.704147,188.684326 108.701210,187.735062 107.392029,186.465454 
	C104.922287,184.070435 103.208817,180.903381 101.132332,178.093201 
	C97.669678,173.407059 93.351730,172.269196 89.752281,175.045486 
	C86.001671,177.938370 85.716911,182.209961 89.076599,186.909073 
	C97.109184,198.144012 105.395050,209.204376 113.191628,220.600021 
	C124.941116,237.773285 146.096893,245.353058 165.835907,239.048660 
	C185.979446,232.615067 199.290146,214.198822 198.188004,193.261810 
	C197.488403,179.971619 195.875656,166.727905 194.602463,153.470078 
	C193.806717,145.184113 192.932007,136.904877 191.994263,128.633774 
	C191.427368,123.633667 188.078506,120.621971 183.816437,121.044701 
	C179.604752,121.462433 176.863831,125.078667 177.087097,130.010468 
	C177.147186,131.337616 177.398926,132.655182 177.537170,133.979813 
	C178.228455,140.603134 179.127991,147.216858 179.449524,153.858398 
	C179.533279,155.588562 178.210342,158.081543 176.767441,158.946884 
	C175.803925,159.524765 173.370682,158.034607 171.816956,157.100891 
	C170.900787,156.550293 170.418167,155.278839 169.739578,154.332275 
	C149.571976,126.201408 129.408951,98.067261 109.232521,69.942726 
	C105.330132,64.503067 101.151894,63.099163 97.166084,65.810074 
	C93.083527,68.586784 92.996529,72.892822 96.934341,78.403633 
	C103.899940,88.151680 110.875404,97.892662 118.218102,108.249718 
M102.851433,101.922112 
	C87.841064,101.859772 76.335938,95.715179 70.090630,81.784592 
	C64.444359,69.190178 68.527054,53.705433 78.993279,45.085747 
	C89.970398,36.045311 105.432686,35.049194 117.126915,42.629086 
	C128.874802,50.243759 134.892441,64.862831 130.478241,78.336922 
	C128.328659,84.898438 132.325684,87.433762 135.194702,91.592133 
	C146.144226,70.808578 141.750854,49.175125 124.354256,36.313240 
	C107.383530,23.766216 84.901726,25.537643 69.774467,40.613792 
	C56.015396,54.326378 54.091419,77.728447 65.439751,93.338638 
	C76.010902,107.879761 96.788780,115.643692 108.912529,109.416412 
	C107.137680,106.986099 105.380974,104.580612 102.851433,101.922112 
M76.849297,76.302979 
	C79.929733,85.902168 86.600929,91.237167 97.289902,93.368217 
	C94.357994,89.257545 91.939629,85.939117 89.596947,82.568085 
	C83.817207,74.251213 84.720848,64.475128 91.696747,59.447716 
	C99.530510,53.802052 108.871841,55.649075 115.193764,64.126266 
	C117.648308,67.417610 120.038223,70.757164 123.112732,74.973137 
	C123.293152,71.933044 123.658020,69.960068 123.484909,68.035477 
	C122.198174,53.729664 109.933868,44.092197 95.662582,46.070602 
	C82.438232,47.903877 73.846085,61.172947 76.849297,76.302979 
z"/>
<path fill="#F9F9F9" opacity="1.000000" stroke="none" 
	d="
M250.343018,151.019836 
	C250.342072,163.164597 250.342072,174.810806 250.342072,186.732574 
	C245.326691,186.732574 240.602142,186.732574 235.623352,186.732574 
	C235.623352,150.704361 235.623352,114.779701 235.623352,77.484428 
	C246.407257,78.193291 257.159058,78.279182 267.703613,79.801079 
	C275.337494,80.902878 279.435089,87.175217 279.802368,94.474823 
	C280.419769,106.745049 280.542603,119.109795 279.663391,131.347855 
	C279.356476,135.619614 275.937866,140.007477 273.037537,143.616913 
	C271.474365,145.562256 270.807495,146.647461 271.510681,149.039734 
	C275.161743,161.460892 278.622284,173.938065 282.246216,186.738464 
	C276.845459,186.738464 271.794891,186.738464 266.521698,186.738464 
	C263.228973,173.958649 259.959808,161.270126 256.592560,148.200989 
	C254.514008,149.059204 251.049240,145.277130 250.343018,151.019836 
M260.364136,134.201584 
	C264.711060,133.000443 265.771484,129.552643 265.851166,125.708176 
	C266.006317,118.221115 266.072845,110.727493 265.946198,103.240471 
	C265.764130,92.474480 261.189087,89.196503 250.723175,91.982307 
	C250.723175,106.214439 250.723175,120.413429 250.723175,134.960129 
	C253.956818,134.761612 256.761169,134.589447 260.364136,134.201584 
z"/>
<path fill="#FBFBFB" opacity="1.000000" stroke="none" 
	d="
M724.457886,86.108788 
	C724.445984,83.320801 724.445984,81.015381 724.445984,78.105560 
	C727.023743,78.105560 729.288025,78.105560 731.552368,78.105560 
	C733.860107,78.105560 736.167847,78.105560 738.827759,78.105560 
	C738.950073,79.786217 739.144531,81.217896 739.145020,82.649635 
	C739.154785,109.975433 739.146484,137.301224 739.123718,164.627014 
	C739.122070,166.624847 739.091553,168.633972 738.886108,170.618362 
	C737.844910,180.674973 732.994446,186.142624 723.005127,187.573975 
	C718.444092,188.227509 713.637878,188.236755 709.075134,187.596161 
	C698.703491,186.140030 693.211304,180.383133 693.102966,169.776382 
	C692.793396,139.464523 692.994080,109.147453 692.994080,78.468994 
	C697.547546,78.468994 702.119629,78.468994 707.447205,78.468994 
	C707.447205,80.188629 707.445618,82.091385 707.447388,83.994148 
	C707.472717,111.486198 707.513428,138.978256 707.509705,166.470306 
	C707.509094,171.002762 708.385742,174.774719 713.686523,175.788818 
	C720.398804,177.072922 724.293396,174.056122 724.321289,167.069733 
	C724.428406,140.243835 724.429321,113.417519 724.457886,86.108788 
z"/>
<path fill="#FAFAFA" opacity="1.000000" stroke="none" 
	d="
M863.377747,165.753082 
	C863.301941,159.962143 863.331055,154.629639 863.018005,149.317291 
	C862.723267,144.315079 860.340271,140.842560 855.028870,139.957397 
	C853.556946,139.712097 852.117920,139.267288 850.665833,138.905731 
	C836.587952,135.400513 832.279602,130.674927 831.457031,116.183205 
	C831.034058,108.732063 831.401062,101.174652 832.126953,93.735123 
	C833.053650,84.237091 837.831848,79.423546 847.220398,77.829796 
	C850.800232,77.222092 854.522278,76.995308 858.146973,77.192490 
	C869.994751,77.837006 875.582031,83.134834 877.203003,94.902809 
	C877.520569,97.208130 877.760437,99.540176 877.802429,101.864120 
	C877.892517,106.846970 877.830078,111.832573 877.830078,117.228828 
	C872.840881,117.228828 868.305664,117.228828 863.223022,117.228828 
	C863.223022,110.698395 863.360962,104.250114 863.182434,97.810600 
	C863.018494,91.896622 860.512146,89.429115 855.084106,89.271523 
	C849.630676,89.113190 846.534546,91.495453 846.308228,97.204659 
	C846.038757,104.000458 846.416138,110.835976 846.798035,117.638306 
	C847.029907,121.768326 849.496277,124.273865 853.614990,125.131454 
	C855.892517,125.605698 858.110413,126.388824 860.397766,126.789696 
	C870.579163,128.574020 876.758362,134.650528 877.421631,144.804123 
	C878.046692,154.374756 877.786560,164.095154 876.854431,173.646072 
	C876.125000,181.120071 871.141296,186.092743 863.503784,187.123032 
	C858.284485,187.827087 852.821655,188.194626 847.647827,187.454163 
	C837.650696,186.023361 832.791687,180.114075 832.112000,169.094406 
	C831.672791,161.972763 832.029419,154.802002 832.029419,147.275513 
	C836.603149,147.275513 840.999817,147.275513 846.046204,147.275513 
	C846.046204,153.804932 845.830750,160.576309 846.106262,167.327652 
	C846.386536,174.194809 851.167603,177.407272 857.775818,175.651321 
	C862.760925,174.326660 863.169800,170.358337 863.377747,165.753082 
z"/>
<path fill="#FDFDFD" opacity="1.000000" stroke="none" 
	d="
M1025.420898,179.088806 
	C1020.986816,184.306656 1016.820740,188.972580 1009.122314,188.113510 
	C1002.742493,187.401596 998.517151,184.614151 996.463928,178.580582 
	C996.197449,177.797440 995.880127,176.972809 995.878662,176.166885 
	C995.843750,156.226700 995.541199,136.279007 996.024902,116.350571 
	C996.178284,110.029770 1000.574707,105.833969 1007.162354,104.628159 
	C1013.636902,103.443054 1019.030701,104.916893 1022.828125,110.689293 
	C1023.534851,111.763618 1024.567383,112.623634 1026.504395,113.026299 
	C1026.504395,101.626648 1026.504395,90.227005 1026.504395,78.470932 
	C1031.523804,78.470932 1036.099121,78.470932 1041.082031,78.470932 
	C1041.082031,114.348854 1041.082031,150.394379 1041.082031,186.721939 
	C1036.412842,186.721939 1031.685425,186.721939 1027.240234,186.721939 
	C1026.740601,184.036499 1026.280884,181.565948 1025.420898,179.088806 
M1009.942444,172.190948 
	C1010.823975,176.653488 1013.982971,177.450775 1017.829163,177.017319 
	C1022.471436,176.494156 1026.635864,173.061691 1026.685181,168.967743 
	C1026.867065,153.850327 1026.882690,138.727951 1026.692017,123.610809 
	C1026.632202,118.875008 1021.268982,114.989594 1016.018066,115.208740 
	C1011.582458,115.393860 1009.774963,117.450539 1009.742004,123.517540 
	C1009.655334,139.459106 1009.799194,155.401917 1009.942444,172.190948 
z"/>
<path fill="#FAFAFA" opacity="1.000000" stroke="none" 
	d="
M642.056946,182.938629 
	C640.178528,178.408630 637.323608,174.184128 637.162292,169.859192 
	C636.585693,154.393295 636.585876,138.883865 637.022217,123.409355 
	C637.359924,111.433640 642.809387,105.880188 654.745300,104.605164 
	C659.138916,104.135834 663.773743,104.450218 668.118042,105.314438 
	C676.049622,106.892288 680.220886,112.720482 680.888062,122.191078 
	C681.145264,125.843201 681.143188,129.516434 681.176453,133.180817 
	C681.221741,138.170547 681.187744,143.160995 681.187744,148.769775 
	C671.077271,148.769775 661.353699,148.769775 651.879822,148.769775 
	C651.879822,156.698227 651.752014,164.006653 651.928345,171.307739 
	C652.032166,175.608765 655.230103,176.753952 658.845215,176.875534 
	C662.475464,176.997650 665.674438,176.007874 666.096497,171.745071 
	C666.568420,166.979401 666.665527,162.176605 666.930664,157.299011 
	C671.536560,157.299011 675.977600,157.299011 681.249451,157.299011 
	C680.926331,162.932388 681.090881,168.418869 680.198242,173.727539 
	C678.747986,182.351471 674.661011,186.438644 666.129578,187.570007 
	C657.852051,188.667679 649.436279,189.067703 642.056946,182.938629 
M651.927979,137.888641 
	C656.698608,137.888641 661.469238,137.888641 666.246765,137.888641 
	C666.246765,132.141739 666.451416,126.533768 666.183105,120.948517 
	C665.961609,116.338379 662.500305,115.545219 658.684753,115.610023 
	C654.682251,115.677994 651.892822,117.147415 651.781677,121.659950 
	C651.654785,126.811897 651.532104,131.963959 651.927979,137.888641 
z"/>
<path fill="#FAFAFA" opacity="1.000000" stroke="none" 
	d="
M301.118225,106.909683 
	C308.794861,103.536247 316.378845,103.523926 323.950745,105.421494 
	C331.353699,107.276718 335.541840,112.630913 335.920685,121.293472 
	C336.312500,130.251587 336.007812,139.240158 336.007812,148.719971 
	C326.389465,148.719971 316.835632,148.719971 307.054169,148.719971 
	C307.054169,156.640900 306.870117,164.067459 307.129517,171.478500 
	C307.265198,175.353912 310.265594,176.708328 313.739502,176.871262 
	C317.314697,177.038971 320.719971,176.320496 321.263306,172.089249 
	C321.873535,167.336884 321.905487,162.510269 322.207245,157.407303 
	C326.523560,157.407303 330.940796,157.407303 336.035095,157.407303 
	C336.368347,164.677155 336.958496,172.049179 333.879883,179.135651 
	C333.295135,180.481659 332.481049,181.901367 331.383453,182.823746 
	C322.896057,189.956207 313.109375,189.004730 303.457367,186.503204 
	C295.556946,184.455627 292.479767,177.801605 292.276276,170.468719 
	C291.833130,154.502594 291.877533,138.509613 292.260864,122.540527 
	C292.411255,116.277107 294.713165,110.444550 301.118225,106.909683 
M317.035858,115.876328 
	C310.039764,115.353996 307.378662,116.541626 307.093262,121.074066 
	C306.742615,126.642365 307.009613,132.249557 307.009613,137.965942 
	C312.032990,137.965942 316.776794,137.965942 321.668152,137.965942 
	C321.668152,132.319992 321.990723,126.849091 321.493988,121.453598 
	C321.319122,119.553810 319.137787,117.838737 317.035858,115.876328 
z"/>
<path fill="#F9F9F9" opacity="1.000000" stroke="none" 
	d="
M525.981812,142.000488 
	C525.680542,152.129745 525.941711,161.818802 524.929993,171.373062 
	C523.732483,182.681808 517.717957,187.522461 506.255005,188.009369 
	C487.043274,188.825409 480.250763,182.722275 480.089996,163.621780 
	C479.969757,149.337753 479.874573,134.997437 480.986969,120.777519 
	C481.821594,110.108643 486.756866,105.943832 497.379547,104.762581 
	C502.099091,104.237747 507.034851,104.467003 511.733887,105.219467 
	C519.268250,106.425964 523.753845,111.422112 524.854492,120.119507 
	C525.748047,127.180984 525.643066,134.368835 525.981812,142.000488 
M500.000763,115.915657 
	C496.483337,116.672417 495.034668,119.190399 495.016815,122.441841 
	C494.930145,138.223053 494.935455,154.005081 494.993195,169.786514 
	C495.009186,174.156570 497.490723,176.432877 501.767517,176.874725 
	C507.802795,177.498276 510.898529,174.945236 510.959839,168.682007 
	C511.101410,154.228912 511.076691,139.773376 511.005707,125.319366 
	C510.965729,117.182312 509.039276,115.476303 500.000763,115.915657 
z"/>
<path fill="#FBFBFB" opacity="1.000000" stroke="none" 
	d="
M947.102905,187.292938 
	C939.839355,184.843689 937.216248,179.311157 937.143738,172.820312 
	C936.894592,150.515701 937.048035,128.206619 937.048035,105.580643 
	C941.745972,105.580643 946.335754,105.580643 951.738342,105.580643 
	C951.738342,107.250031 951.738403,108.996582 951.738403,110.743141 
	C951.738403,129.397964 951.733643,148.052795 951.740540,166.707626 
	C951.743591,174.843384 953.215332,177.110840 958.418518,177.075699 
	C964.731506,177.033066 968.740723,172.631210 968.742920,165.709473 
	C968.748718,147.554321 968.744873,129.399185 968.744873,111.244041 
	C968.744873,109.437798 968.744873,107.631561 968.744873,105.544533 
	C973.711060,105.544533 978.291138,105.544533 983.180908,105.544533 
	C983.180908,132.542725 983.180908,159.454239 983.180908,186.686600 
	C978.479492,186.686600 973.764526,186.686600 968.707642,186.686600 
	C968.707642,184.188034 968.707642,181.767899 968.707642,178.251129 
	C965.062012,181.489792 962.508850,185.015869 959.080811,186.448410 
	C955.673035,187.872482 951.385925,187.192123 947.102905,187.292938 
z"/>
<path fill="#FBFBFB" opacity="1.000000" stroke="none" 
	d="
M422.432098,149.000366 
	C422.432068,161.801834 422.432068,174.103271 422.432068,186.704605 
	C417.432098,186.704605 412.732971,186.704605 407.728607,186.704605 
	C407.728607,171.724213 407.728851,156.937759 407.728485,142.151306 
	C407.728333,136.157379 407.778961,130.162872 407.711578,124.169693 
	C407.640503,117.845421 405.565002,115.216232 400.843292,115.235954 
	C395.306580,115.259079 390.756348,119.404953 390.741333,124.700958 
	C390.687531,143.681580 390.719177,162.662430 390.718536,181.643204 
	C390.718506,183.269012 390.718536,184.894821 390.718536,186.760742 
	C385.558197,186.760742 380.829620,186.760742 375.961304,186.760742 
	C375.961304,159.627380 375.961304,132.722229 375.961304,105.539345 
	C380.749969,105.539345 385.343781,105.539345 390.356934,105.539345 
	C390.587799,108.027351 390.822388,110.555199 391.174408,114.349136 
	C392.967255,112.575218 394.133911,111.656441 395.009674,110.514557 
	C399.415558,104.769829 404.475311,103.033348 411.712189,104.904488 
	C417.654175,106.440826 421.494965,110.591354 421.874512,117.554543 
	C422.435669,127.849365 422.281647,138.183167 422.432098,149.000366 
z"/>
<path fill="#FBFBFB" opacity="1.000000" stroke="none" 
	d="
M1093.774902,186.489670 
	C1086.940308,184.076263 1083.511597,178.802170 1083.318970,172.682083 
	C1082.765625,155.088318 1082.550781,137.442215 1083.319946,119.865562 
	C1083.725098,110.605232 1089.288330,106.267540 1098.562012,104.827736 
	C1099.713379,104.648994 1100.861938,104.428558 1102.020386,104.324188 
	C1119.532593,102.746567 1127.706665,109.951630 1127.969971,127.502785 
	C1128.154663,139.819565 1128.073364,152.141708 1127.975342,164.460358 
	C1127.953003,167.266144 1127.559082,170.104599 1127.013428,172.864197 
	C1125.074463,182.673401 1119.932495,187.436432 1109.959473,187.829453 
	C1104.706055,188.036469 1099.407104,187.089874 1093.774902,186.489670 
M1096.960083,162.427948 
	C1097.065552,165.246994 1096.911865,168.105713 1097.335693,170.876038 
	C1098.011719,175.293808 1101.084839,177.249008 1106.100098,176.904007 
	C1110.356567,176.611191 1113.047241,174.567490 1113.066406,170.103653 
	C1113.134644,154.166428 1113.140137,138.228485 1113.059448,122.291374 
	C1113.038452,118.158485 1110.746460,115.977180 1106.542847,115.661926 
	C1100.025024,115.173141 1097.209595,117.416199 1097.105713,124.081741 
	C1096.911743,136.534836 1096.987061,148.992111 1096.960083,162.427948 
z"/>
<path fill="#FAFAFA" opacity="1.000000" stroke="none" 
	d="
M581.811523,119.049751 
	C583.588928,110.177979 588.906555,105.752266 597.317139,104.756310 
	C597.812805,104.697624 598.299377,104.550735 598.795532,104.509743 
	C619.407654,102.806740 625.830017,110.666397 625.330444,127.937233 
	C625.267944,130.097672 625.321899,132.261475 625.321899,134.736328 
	C620.519836,134.736328 615.963196,134.736328 610.831909,134.736328 
	C610.831909,130.830139 611.020081,126.882042 610.787354,122.958900 
	C610.447693,117.233040 608.431091,115.486984 602.948853,115.632698 
	C597.796143,115.769646 595.984497,117.551407 595.955078,123.152557 
	C595.874573,138.476715 595.870605,153.801956 595.962341,169.126007 
	C595.996155,174.783020 598.149719,176.865265 603.385559,176.917572 
	C608.291626,176.966599 610.389771,175.031601 610.744690,169.529388 
	C610.999573,165.577286 610.794312,161.595505 610.794312,157.367340 
	C615.629944,157.367340 620.058044,157.367340 625.783081,157.367340 
	C625.136169,163.922852 624.695068,170.430939 623.739441,176.862579 
	C623.444336,178.849319 622.124939,181.029114 620.629700,182.434570 
	C612.755432,189.836227 603.216125,188.805618 593.795776,186.919174 
	C586.078674,185.373810 581.801453,179.660400 581.613953,172.335709 
	C581.163208,154.723175 581.625732,137.087265 581.811523,119.049751 
z"/>
<path fill="#FAFAFA" opacity="1.000000" stroke="none" 
	d="
M459.299561,77.063858 
	C463.713684,77.041954 467.669556,77.041954 471.860962,77.041954 
	C471.860962,81.412956 471.860962,84.834923 471.860962,87.677147 
	C466.779266,88.792725 460.687286,88.471214 457.458130,91.355194 
	C454.795441,93.733238 455.522675,99.906929 454.634674,105.053703 
	C459.999359,105.053703 464.402466,105.053703 469.118408,105.053703 
	C469.118408,109.145287 469.118408,112.721283 469.118408,116.812431 
	C464.608917,116.812431 460.203827,116.812431 455.524994,116.812431 
	C455.524994,140.378403 455.524994,163.436920 455.524994,186.750610 
	C450.653015,186.750610 446.068665,186.750610 441.014435,186.750610 
	C441.014435,163.745956 441.014435,140.695679 441.014435,117.087364 
	C438.221100,116.938759 435.851837,116.812714 433.272949,116.675522 
	C433.272949,112.828789 433.272949,109.270493 433.272949,105.498650 
	C435.763489,105.319725 438.025909,105.157188 440.468506,104.981712 
	C441.194977,97.171165 438.852722,88.436340 445.416901,82.718498 
	C448.891083,79.692230 454.303741,78.891319 459.299561,77.063858 
z"/>
<path fill="#FAFAFA" opacity="1.000000" stroke="none" 
	d="
M912.054504,97.955727 
	C912.049133,100.579010 912.049133,102.708145 912.049133,105.166458 
	C916.325928,105.166458 920.259155,105.166458 924.572754,105.166458 
	C924.572754,109.040916 924.572754,112.597870 924.572754,116.598862 
	C920.663391,116.598862 916.583313,116.598862 911.840942,116.598862 
	C911.840942,119.446327 911.840942,121.869476 911.840942,124.292625 
	C911.841187,138.443954 911.833557,152.595291 911.844360,166.746628 
	C911.851501,176.183746 912.970703,177.234741 922.591003,176.974213 
	C923.576538,176.947540 924.563416,176.970612 925.896118,176.970612 
	C925.896118,180.391357 925.896118,183.782089 925.896118,187.580505 
	C919.090759,188.514633 912.330078,188.570770 905.918030,185.798080 
	C898.991516,182.802948 897.143494,176.560028 897.072388,169.767029 
	C896.906860,153.952530 897.002747,138.135284 896.992920,122.319160 
	C896.991943,120.670692 896.992798,119.022224 896.992798,117.012421 
	C894.838562,116.906639 892.917786,116.812332 890.598877,116.698471 
	C890.598877,113.096306 890.598877,109.541489 890.598877,105.568260 
	C892.537354,105.401268 894.604004,105.223221 897.085571,105.009438 
	C897.085571,97.491898 897.085571,90.069817 897.085571,82.408684 
	C902.245728,82.408684 906.978333,82.408684 912.059875,82.408684 
	C912.059875,87.564133 912.059875,92.512856 912.054504,97.955727 
z"/>
<path fill="#F9F9F9" opacity="1.000000" stroke="none" 
	d="
M751.754639,120.999878 
	C751.754639,106.546707 751.754639,92.593529 751.754639,78.371201 
	C756.714661,78.371201 761.314819,78.371201 766.322327,78.371201 
	C766.322327,114.308632 766.322327,150.315475 766.322327,186.667450 
	C761.740417,186.667450 757.025879,186.667450 751.754639,186.667450 
	C751.754639,164.968140 751.754639,143.234009 751.754639,120.999878 
z"/>
<path fill="#F7F7F7" opacity="1.000000" stroke="none" 
	d="
M549.610535,105.246948 
	C551.158325,106.210869 552.867920,106.997971 553.207703,108.179146 
	C553.740662,110.032097 553.349182,112.150986 554.254150,114.720749 
	C557.491699,106.197296 563.220825,103.587547 571.537598,105.487892 
	C571.537598,108.998383 571.537598,112.576927 571.537598,116.933846 
	C569.098938,116.933846 566.667480,116.824318 564.248901,116.954269 
	C556.828979,117.352951 553.393921,120.881004 553.370239,128.326111 
	C553.311890,146.630127 553.354675,164.934448 553.341797,183.238647 
	C553.341003,184.382462 553.210999,185.526184 553.130859,186.837280 
	C548.340332,186.837280 543.718933,186.837280 538.729248,186.837280 
	C538.729248,159.818710 538.729248,132.824097 538.729248,105.246819 
	C542.278442,105.246819 545.718323,105.246819 549.610535,105.246948 
z"/>
<path fill="#FAFAFA" opacity="1.000000" stroke="none" 
	d="
M1054.159668,109.299988 
	C1053.893799,106.477837 1054.443359,105.048340 1057.318115,105.209679 
	C1060.952026,105.413620 1064.606201,105.258934 1068.628296,105.258934 
	C1068.628296,132.477051 1068.628296,159.480469 1068.628296,186.747192 
	C1064.005737,186.747192 1059.294067,186.747192 1054.159546,186.747192 
	C1054.159546,160.939926 1054.159546,135.353622 1054.159668,109.299988 
z"/>
<path fill="#FAFAFA" opacity="1.000000" stroke="none" 
	d="
M362.598724,186.601196 
	C357.775757,186.940613 353.294861,186.940613 348.487396,186.940613 
	C348.487396,159.789307 348.487396,132.789291 348.487396,105.523003 
	C353.239136,105.523003 357.818085,105.523003 362.940796,105.523003 
	C362.940796,132.485962 362.940796,159.373871 362.598724,186.601196 
z"/>
<path fill="#F9F9F9" opacity="1.000000" stroke="none" 
	d="
M785.081665,130.158188 
	C797.172607,130.158188 808.775757,130.158188 820.659729,130.158188 
	C820.659729,134.627838 820.659729,138.714218 820.659729,143.082382 
	C806.307556,143.082382 791.913147,143.082382 777.270020,143.082382 
	C777.270020,138.935410 777.270020,134.859344 777.270020,130.158188 
	C779.731750,130.158188 782.162781,130.158188 785.081665,130.158188 
z"/>
<path fill="#FBFBFB" opacity="1.000000" stroke="none" 
	d="
M1070.186157,81.143311 
	C1070.187134,84.749619 1070.187134,87.876068 1070.187134,91.227249 
	C1064.391846,91.227249 1058.973755,91.227249 1053.246948,91.227249 
	C1053.246948,86.958008 1053.246948,82.768974 1053.246948,78.108025 
	C1058.105713,78.108025 1062.873291,77.978043 1067.621582,78.223373 
	C1068.515747,78.269569 1069.332642,79.811630 1070.186157,81.143311 
z"/>
<path fill="#FBFBFB" opacity="1.000000" stroke="none" 
	d="
M357.866913,91.455894 
	C354.100586,91.455872 350.806000,91.455872 347.227661,91.455872 
	C347.227661,86.930771 347.227661,82.738892 347.227661,78.324509 
	C352.784332,78.324509 358.178040,78.324509 363.880554,78.324509 
	C363.880554,82.636528 363.880554,86.836243 363.880554,91.455917 
	C361.932343,91.455917 360.135498,91.455917 357.866913,91.455894 
z"/>
<path fill="#131212" opacity="1.000000" stroke="none" 
	d="
M118.032425,107.943161 
	C110.875404,97.892662 103.899940,88.151680 96.934341,78.403633 
	C92.996529,72.892822 93.083527,68.586784 97.166084,65.810074 
	C101.151894,63.099163 105.330132,64.503067 109.232521,69.942726 
	C129.408951,98.067261 149.571976,126.201408 169.739578,154.332275 
	C170.418167,155.278839 170.900787,156.550293 171.816956,157.100891 
	C173.370682,158.034607 175.803925,159.524765 176.767441,158.946884 
	C178.210342,158.081543 179.533279,155.588562 179.449524,153.858398 
	C179.127991,147.216858 178.228455,140.603134 177.537170,133.979813 
	C177.398926,132.655182 177.147186,131.337616 177.087097,130.010468 
	C176.863831,125.078667 179.604752,121.462433 183.816437,121.044701 
	C188.078506,120.621971 191.427368,123.633667 191.994263,128.633774 
	C192.932007,136.904877 193.806717,145.184113 194.602463,153.470078 
	C195.875656,166.727905 197.488403,179.971619 198.188004,193.261810 
	C199.290146,214.198822 185.979446,232.615067 165.835907,239.048660 
	C146.096893,245.353058 124.941116,237.773285 113.191628,220.600021 
	C105.395050,209.204376 97.109184,198.144012 89.076599,186.909073 
	C85.716911,182.209961 86.001671,177.938370 89.752281,175.045486 
	C93.351730,172.269196 97.669678,173.407059 101.132332,178.093201 
	C103.208817,180.903381 104.922287,184.070435 107.392029,186.465454 
	C108.701210,187.735062 111.704147,188.684326 113.190216,188.040878 
	C116.059547,186.798492 115.522484,184.016937 113.889267,181.703171 
	C109.667534,175.722229 105.379440,169.788132 101.159546,163.805908 
	C97.974548,159.290756 98.188103,155.000015 101.651199,152.292282 
	C105.226021,149.497177 109.895355,150.541779 113.220261,155.048645 
	C116.973953,160.136749 120.624832,165.301498 124.269737,170.468689 
	C125.998405,172.919312 128.185104,174.507126 130.933914,172.539764 
	C133.784729,170.499390 132.639832,167.934601 130.936234,165.571930 
	C125.193710,157.607819 119.467529,149.631836 113.759010,141.643295 
	C109.906723,136.252396 110.125343,132.113937 114.365662,129.082275 
	C118.072166,126.432266 122.149948,127.834511 125.982712,133.153870 
	C131.041153,140.174286 136.051834,147.229111 141.097733,154.258606 
	C142.872253,156.730743 144.799316,159.735062 148.268066,157.361328 
	C151.749619,154.978836 149.732941,152.150970 147.914001,149.618774 
	C138.010864,135.832321 128.115891,122.040009 118.032425,107.943161 
z"/>
<path fill="#171616" opacity="1.000000" stroke="none" 
	d="
M103.237846,102.048622 
	C105.380974,104.580612 107.137680,106.986099 108.912529,109.416412 
	C96.788780,115.643692 76.010902,107.879761 65.439751,93.338638 
	C54.091419,77.728447 56.015396,54.326378 69.774467,40.613792 
	C84.901726,25.537643 107.383530,23.766216 124.354256,36.313240 
	C141.750854,49.175125 146.144226,70.808578 135.194702,91.592133 
	C132.325684,87.433762 128.328659,84.898438 130.478241,78.336922 
	C134.892441,64.862831 128.874802,50.243759 117.126915,42.629086 
	C105.432686,35.049194 89.970398,36.045311 78.993279,45.085747 
	C68.527054,53.705433 64.444359,69.190178 70.090630,81.784592 
	C76.335938,95.715179 87.841064,101.859772 103.237846,102.048622 
z"/>
<path fill="#171616" opacity="1.000000" stroke="none" 
	d="
M76.725838,75.904373 
	C73.846085,61.172947 82.438232,47.903877 95.662582,46.070602 
	C109.933868,44.092197 122.198174,53.729664 123.484909,68.035477 
	C123.658020,69.960068 123.293152,71.933044 123.112732,74.973137 
	C120.038223,70.757164 117.648308,67.417610 115.193764,64.126266 
	C108.871841,55.649075 99.530510,53.802052 91.696747,59.447716 
	C84.720848,64.475128 83.817207,74.251213 89.596947,82.568085 
	C91.939629,85.939117 94.357994,89.257545 97.289902,93.368217 
	C86.600929,91.237167 79.929733,85.902168 76.725838,75.904373 
z"/>
<path fill="#1A1919" opacity="1.000000" stroke="none" 
	d="
M259.964844,134.309433 
	C256.761169,134.589447 253.956818,134.761612 250.723175,134.960129 
	C250.723175,120.413429 250.723175,106.214439 250.723175,91.982307 
	C261.189087,89.196503 265.764130,92.474480 265.946198,103.240471 
	C266.072845,110.727493 266.006317,118.221115 265.851166,125.708176 
	C265.771484,129.552643 264.711060,133.000443 259.964844,134.309433 
z"/>
<path fill="#191818" opacity="1.000000" stroke="none" 
	d="
M1009.896851,171.767593 
	C1009.799194,155.401917 1009.655334,139.459106 1009.742004,123.517540 
	C1009.774963,117.450539 1011.582458,115.393860 1016.018066,115.208740 
	C1021.268982,114.989594 1026.632202,118.875008 1026.692017,123.610809 
	C1026.882690,138.727951 1026.867065,153.850327 1026.685181,168.967743 
	C1026.635864,173.061691 1022.471436,176.494156 1017.829163,177.017319 
	C1013.982971,177.450775 1010.823975,176.653488 1009.896851,171.767593 
z"/>
<path fill="#1A1919" opacity="1.000000" stroke="none" 
	d="
M651.667847,137.502304 
	C651.532104,131.963959 651.654785,126.811897 651.781677,121.659950 
	C651.892822,117.147415 654.682251,115.677994 658.684753,115.610023 
	C662.500305,115.545219 665.961609,116.338379 666.183105,120.948517 
	C666.451416,126.533768 666.246765,132.141739 666.246765,137.888641 
	C661.469238,137.888641 656.698608,137.888641 651.667847,137.502304 
z"/>
<path fill="#131212" opacity="1.000000" stroke="none" 
	d="
M317.454224,115.957825 
	C319.137787,117.838737 321.319122,119.553810 321.493988,121.453598 
	C321.990723,126.849091 321.668152,132.319992 321.668152,137.965942 
	C316.776794,137.965942 312.032990,137.965942 307.009613,137.965942 
	C307.009613,132.249557 306.742615,126.642365 307.093262,121.074066 
	C307.378662,116.541626 310.039764,115.353996 317.454224,115.957825 
z"/>
<path fill="#121111" opacity="1.000000" stroke="none" 
	d="
M500.424255,115.856972 
	C509.039276,115.476303 510.965729,117.182312 511.005707,125.319366 
	C511.076691,139.773376 511.101410,154.228912 510.959839,168.682007 
	C510.898529,174.945236 507.802795,177.498276 501.767517,176.874725 
	C497.490723,176.432877 495.009186,174.156570 494.993195,169.786514 
	C494.935455,154.005081 494.930145,138.223053 495.016815,122.441841 
	C495.034668,119.190399 496.483337,116.672417 500.424255,115.856972 
z"/>
<path fill="#151414" opacity="1.000000" stroke="none" 
	d="
M1096.955200,161.937805 
	C1096.987061,148.992111 1096.911743,136.534836 1097.105713,124.081741 
	C1097.209595,117.416199 1100.025024,115.173141 1106.542847,115.661926 
	C1110.746460,115.977180 1113.038452,118.158485 1113.059448,122.291374 
	C1113.140137,138.228485 1113.134644,154.166428 1113.066406,170.103653 
	C1113.047241,174.567490 1110.356567,176.611191 1106.100098,176.904007 
	C1101.084839,177.249008 1098.011719,175.293808 1097.335693,170.876038 
	C1096.911865,168.105713 1097.065552,165.246994 1096.955200,161.937805 
z"/>
</svg>