<svg version="1.1" id="Layer_1" xmlns="http://www.w3.org/2000/svg" xmlns:xlink="http://www.w3.org/1999/xlink" x="0px" y="0px"
	 width="100%" viewBox="0 0 1143 266" enable-background="new 0 0 1143 266" xml:space="preserve">
<path fill="#121111" opacity="1.000000" stroke="none" 
	d="
M772.000000,267.000000 
	C514.666687,267.000000 257.833344,267.000000 1.000000,267.000000 
	C1.000000,178.333328 1.000000,89.666664 1.000000,1.000000 
	C382.000000,1.000000 763.000000,1.000000 1144.000000,1.000000 
	C1144.000000,89.666664 1144.000000,178.333328 1144.000000,267.000000 
	C1020.166687,267.000000 896.333313,267.000000 772.000000,267.000000 
M626.393372,196.475082 
	C624.705688,195.460205 623.018066,194.445312 620.568481,192.972244 
	C620.568481,207.420837 620.568481,220.519577 620.568481,233.981903 
	C622.161011,233.911743 623.510620,233.852264 625.025940,233.785507 
	C625.025940,223.882904 624.793518,214.393234 625.176636,204.928467 
	C625.282715,202.307251 627.217834,199.760056 629.083984,197.134506 
	C633.289001,196.635910 633.645447,199.477631 633.656860,202.500122 
	C633.694397,212.463181 633.678345,222.426453 633.707764,232.389572 
	C633.709106,232.836334 633.954712,233.282394 634.157593,233.969193 
	C635.447754,233.885712 636.663818,233.807037 637.996887,233.720795 
	C637.996887,222.269836 638.174194,211.155746 637.836853,200.057266 
	C637.774658,198.009506 635.974426,194.762512 634.362549,194.323639 
	C632.239197,193.745514 629.509033,195.396530 626.393372,196.475082 
M443.393280,196.475128 
	C441.705658,195.460220 440.018036,194.445328 437.568542,192.972260 
	C437.568542,207.420868 437.568542,220.519623 437.568542,233.981964 
	C439.158661,233.911850 440.509369,233.852295 442.026001,233.785431 
	C442.026001,223.882812 441.793610,214.393127 442.176727,204.928391 
	C442.282806,202.307175 444.217926,199.759995 446.083954,197.134476 
	C450.288971,196.635910 450.645477,199.477585 450.656860,202.500107 
	C450.694427,212.463165 450.678375,222.426453 450.707825,232.389572 
	C450.709167,232.836349 450.954620,233.282410 451.157349,233.969238 
	C452.447754,233.885742 453.663849,233.807053 454.996918,233.720810 
	C454.996918,222.269867 455.174194,211.155762 454.836853,200.057297 
	C454.774597,198.009521 452.974426,194.762527 451.362518,194.323669 
	C449.239227,193.745529 446.509003,195.396561 443.393280,196.475128 
M733.709717,231.269379 
	C735.064514,232.415024 736.419373,233.560669 737.774231,234.706314 
	C738.936768,222.718613 739.092957,211.903580 738.872070,201.096252 
	C738.758301,195.529358 736.076538,193.374084 730.542114,193.466476 
	C724.352356,193.569809 721.981079,196.829819 722.093750,204.346954 
	C722.150940,208.167892 723.802124,208.362900 726.997131,207.221664 
	C726.997131,204.768524 726.614746,202.358231 727.148987,200.171951 
	C727.441589,198.974564 729.174255,197.592072 730.459473,197.345444 
	C731.474121,197.150726 733.394226,198.281189 733.879944,199.310303 
	C735.977539,203.755280 733.793030,209.742935 729.551392,212.088516 
	C722.473755,216.002365 719.671082,222.204315 722.290649,229.715454 
	C722.955322,231.621262 725.478699,233.774719 727.413940,234.069672 
	C729.084778,234.324371 731.133545,232.100204 732.944275,230.974594 
	C732.944275,230.974594 732.944275,231.045593 733.709717,231.269379 
M92.993950,206.505600 
	C97.825172,213.244080 102.625389,220.005051 107.493454,226.716812 
	C121.866562,246.533508 147.350922,254.589340 170.049026,246.524124 
	C192.318985,238.611023 208.336746,215.712708 206.656311,192.447586 
	C205.061905,170.373444 202.426163,148.369980 200.000031,126.362808 
	C199.114517,118.330429 191.612396,112.315453 184.048691,112.852684 
	C175.129761,113.486168 168.797913,120.113014 168.882111,128.851959 
	C168.911438,131.896317 169.199081,134.938217 169.447296,139.390091 
	C167.769073,137.172287 166.887039,136.056213 166.057358,134.902496 
	C158.479996,124.365768 151.039490,113.726860 143.262787,103.339569 
	C140.937119,100.233200 140.755707,98.128418 142.820404,94.645599 
	C156.246368,71.998085 149.418304,43.324707 127.287514,28.100079 
	C106.643250,13.898086 77.284134,18.226921 61.109951,37.857590 
	C47.722553,54.105923 45.949570,77.692711 56.797287,95.230995 
	C68.308151,113.841438 90.240410,123.256783 110.952927,118.567863 
	C112.458138,118.227112 114.107529,118.523209 115.689880,118.523209 
	C103.641663,124.674232 100.910744,129.856110 103.329330,140.792450 
	C99.229881,144.503342 94.513763,147.136551 92.406105,151.142227 
	C90.314552,155.117279 90.849068,160.474106 90.179108,165.631226 
	C78.080193,168.726944 73.961189,182.483917 82.954491,192.630569 
	C86.564430,196.703476 89.387566,201.473740 92.993950,206.505600 
M288.891663,114.637482 
	C289.194977,113.941803 289.301361,112.952240 289.832397,112.596321 
	C294.654694,109.364227 297.159485,104.609924 297.285004,99.112648 
	C297.542664,87.829552 297.750580,76.489426 296.894775,65.255379 
	C296.267792,57.025696 291.088104,52.012993 282.956177,51.334511 
	C274.097809,50.595417 265.130127,51.166676 256.155029,51.166676 
	C256.155029,84.724747 256.155029,118.248749 256.155029,151.609726 
	C260.851166,151.609726 265.228088,151.609726 269.955353,151.609726 
	C269.955353,139.448273 269.955353,127.680840 269.955353,116.059547 
	C274.272491,114.665665 275.825500,116.348640 276.722961,120.226715 
	C279.184143,130.861923 282.068390,141.399231 284.715576,151.704361 
	C289.847931,151.704361 294.407684,151.704361 299.354553,151.704361 
	C295.840637,139.353653 292.435730,127.386230 288.891663,114.637482 
M724.905518,53.897121 
	C724.100464,52.821247 723.375000,50.901520 722.476501,50.816803 
	C718.754089,50.465820 714.979309,50.669487 711.065247,50.669487 
	C711.065247,53.166046 711.065796,54.991894 711.065125,56.817741 
	C711.055359,82.314407 711.072449,107.811134 711.017456,133.307693 
	C711.002930,140.066238 707.142944,142.860779 700.555603,141.349426 
	C695.568542,140.205231 695.237427,136.457397 695.232361,132.482010 
	C695.199951,107.152443 695.196411,81.822830 695.183655,56.493237 
	C695.182739,54.683197 695.183594,52.873161 695.183594,51.043224 
	C690.443970,51.043224 686.052185,51.043224 681.319275,51.043224 
	C681.319275,57.750328 681.280151,64.077744 681.326355,70.404541 
	C681.486755,92.396553 681.390137,114.396080 681.983459,136.376770 
	C682.256775,146.501892 687.435364,151.716675 697.481934,152.688171 
	C717.784546,154.651428 725.067993,148.476715 724.943787,129.319366 
	C724.782776,104.490410 724.908752,79.659592 724.905518,53.897121 
M853.926819,76.512970 
	C853.590149,72.042244 853.606506,67.509666 852.836548,63.114841 
	C851.587524,55.984959 847.090515,51.353382 839.943298,50.384399 
	C834.898987,49.700520 829.610596,49.758186 824.559753,50.438976 
	C817.641907,51.371418 812.551270,55.632217 812.016541,62.712681 
	C811.270386,72.592957 811.167053,82.600395 811.833923,92.482872 
	C812.330505,99.840820 817.481445,104.224228 824.612244,106.060966 
	C827.507385,106.806694 830.387939,107.616119 833.301086,108.283279 
	C837.169067,109.169113 839.691895,111.587608 839.899658,115.427177 
	C840.266724,122.213753 840.498962,129.066635 839.891113,135.810913 
	C839.709106,137.829971 836.856995,140.587112 834.686829,141.260132 
	C828.763123,143.097153 824.886597,140.265778 824.472107,133.967255 
	C824.059448,127.695808 824.381714,121.376007 824.381714,114.889297 
	C819.842224,114.889297 815.756104,114.889297 810.747375,114.889297 
	C811.124512,122.929749 810.945862,130.750412 811.993103,138.403320 
	C813.207336,147.276596 817.555725,151.414948 826.295959,152.524612 
	C830.997192,153.121490 835.928162,152.756973 840.655090,152.102051 
	C847.474121,151.157257 852.268127,146.842728 852.874756,140.102402 
	C853.732788,130.569489 853.894958,120.881256 853.253296,111.333435 
	C852.671753,102.681732 846.826111,97.853752 838.470947,96.048103 
	C836.036621,95.522034 833.639404,94.821877 831.202026,94.312607 
	C827.436401,93.525810 825.248108,91.114555 825.034546,87.453964 
	C824.667175,81.158852 824.394226,74.822372 824.705566,68.534142 
	C824.985535,62.879105 827.383972,60.967964 832.529053,60.995304 
	C837.880188,61.023739 840.086426,63.098282 840.331116,69.097763 
	C840.573181,75.032059 840.383972,80.983940 840.383972,87.049828 
	C845.070068,87.049828 849.177368,87.049828 853.924377,87.049828 
	C853.924377,83.727257 853.924377,80.607742 853.926819,76.512970 
M992.713867,64.501648 
	C992.713867,70.725418 992.713867,76.949188 992.713867,83.172951 
	C992.248596,83.317474 991.783264,83.461990 991.317993,83.606506 
	C990.246338,82.303078 989.170776,81.002876 988.103699,79.695724 
	C981.622620,71.756424 968.364807,73.734756 964.863342,83.361931 
	C963.695007,86.574112 963.177490,90.167023 963.095520,93.603363 
	C962.845398,104.095085 962.833984,114.596825 962.967407,125.091637 
	C963.039185,130.732391 963.304321,136.404572 964.019592,141.993790 
	C964.737610,147.604568 968.031738,151.544403 973.753540,152.666306 
	C979.662292,153.824860 985.056885,152.912140 988.772217,147.411102 
	C989.507507,146.322372 990.509094,145.413544 992.324097,143.365067 
	C992.586365,147.121292 992.742310,149.354706 992.905884,151.696976 
	C997.348755,151.696976 1001.734192,151.696976 1006.158630,151.696976 
	C1006.158630,117.956619 1006.158630,84.522865 1006.158630,50.908531 
	C1001.663147,50.908531 997.410156,50.908531 992.713867,50.908531 
	C992.713867,55.254398 992.713867,59.378223 992.713867,64.501648 
M347.001892,145.307175 
	C350.115845,138.553528 349.958893,131.512436 349.359283,124.357506 
	C344.725433,124.357506 340.614075,124.357506 335.926178,124.357506 
	C335.926178,128.684647 336.088318,132.815765 335.878845,136.927963 
	C335.684387,140.744781 333.268585,142.528992 329.560150,142.516541 
	C326.201965,142.505280 322.707031,141.859726 322.492828,137.821121 
	C322.118805,130.769653 322.388611,123.684029 322.388611,116.269730 
	C331.443970,116.269730 340.222839,116.269730 349.168640,116.269730 
	C349.168640,107.313042 349.642365,98.672142 349.039246,90.107056 
	C348.399506,81.021469 343.883575,76.605080 334.934448,75.369476 
	C331.182434,74.851440 327.238495,74.860771 323.485992,75.381294 
	C314.581299,76.616516 309.544678,80.895035 309.037720,89.907425 
	C308.169403,105.343597 308.254669,120.856163 308.548065,136.325119 
	C308.689514,143.781158 311.951447,150.289108 320.099823,151.860229 
	C329.623413,153.696533 339.433258,155.216782 347.001892,145.307175 
M670.658325,136.941315 
	C670.658325,132.830048 670.658325,128.718781 670.658325,124.432449 
	C666.048096,124.432449 661.825623,124.432449 657.058533,124.432449 
	C657.058533,128.850998 657.174683,132.988998 657.025391,137.117416 
	C656.880249,141.133316 654.187805,142.546707 650.609680,142.505646 
	C647.270874,142.467331 643.913208,141.801987 643.772339,137.605499 
	C643.539673,130.674072 643.709167,123.729149 643.709167,116.303917 
	C652.634094,116.303917 661.576538,116.303917 670.352051,116.303917 
	C670.352051,107.019470 670.992310,98.162567 670.175720,89.442085 
	C669.323853,80.345039 664.561951,76.290367 655.526733,75.249199 
	C652.241089,74.870567 648.841370,74.868492 645.553833,75.234749 
	C635.916077,76.308479 630.444580,81.235100 630.061707,91.038292 
	C629.458008,106.493309 629.517395,122.002602 630.051270,137.462845 
	C630.362244,146.466339 635.048767,151.275696 643.926941,152.486923 
	C660.723877,154.778488 668.977295,150.488770 670.658325,136.941315 
M1087.097046,113.499939 
	C1086.745483,105.375931 1086.935791,97.181725 1085.895142,89.146996 
	C1084.783081,80.561638 1080.353271,76.555008 1071.849365,75.409737 
	C1067.777710,74.861397 1063.501587,74.865799 1059.435059,75.443352 
	C1050.566162,76.702972 1045.569336,81.162636 1045.199219,90.099251 
	C1044.540527,106.008102 1044.529541,121.984856 1045.209229,137.892136 
	C1045.596436,146.953018 1050.885986,151.520218 1059.936768,152.679398 
	C1063.695068,153.160751 1067.609985,153.147507 1071.375244,152.699509 
	C1080.081787,151.663589 1084.744019,147.598206 1085.886597,138.851379 
	C1086.935791,130.818390 1086.745239,122.623459 1087.097046,113.499939 
M400.113647,148.374313 
	C400.113739,130.390091 400.084320,112.405807 400.132355,94.421715 
	C400.146301,89.206177 404.521149,85.108086 409.777100,85.153694 
	C414.260712,85.192619 416.017822,87.622467 416.027893,93.954765 
	C416.048523,106.943329 416.034119,119.931938 416.034149,132.920532 
	C416.034149,139.187790 416.034149,145.455048 416.034149,151.640320 
	C420.962036,151.640320 425.341339,151.640320 429.836853,151.640320 
	C429.836853,131.136993 429.850525,111.001274 429.808746,90.865685 
	C429.805695,89.385292 429.409546,87.904633 429.183716,86.426003 
	C428.287445,80.558151 425.114044,76.557732 419.229492,75.356293 
	C413.308044,74.147316 407.966553,75.149994 404.270538,80.677170 
	C403.500153,81.829247 402.216248,82.637917 400.406158,84.309189 
	C400.196136,80.782555 400.063507,78.555031 399.928925,76.295280 
	C395.286316,76.295280 390.891174,76.295280 386.490662,76.295280 
	C386.490662,101.647461 386.490662,126.694801 386.490662,152.006180 
	C390.441681,152.006180 394.100800,152.171036 397.724335,151.885071 
	C398.581909,151.817383 399.319977,150.235443 400.113647,148.374313 
M908.954590,129.479218 
	C909.077087,133.301224 908.884644,137.165833 909.394531,140.935440 
	C910.195435,146.855835 913.340637,151.193344 919.448914,152.579651 
	C925.638062,153.984283 930.979492,152.523331 934.927002,147.203506 
	C935.627930,146.259003 936.506226,145.446075 938.006836,143.799713 
	C938.408997,147.246017 938.680054,149.568802 938.928589,151.698669 
	C943.580383,151.698669 947.841736,151.698669 951.947510,151.698669 
	C951.947510,126.347244 951.947510,101.302391 951.947510,76.247787 
	C947.393433,76.247787 943.148499,76.247787 938.547119,76.247787 
	C938.547119,87.458344 938.547668,98.420761 938.546875,109.383179 
	C938.546326,117.706207 938.656982,126.031387 938.498657,134.351425 
	C938.408752,139.072510 933.500427,143.154236 928.575806,142.835358 
	C923.401184,142.500275 922.729126,138.902588 922.759949,134.691299 
	C922.831726,124.870651 922.781982,115.049110 922.781738,105.227936 
	C922.781555,95.620682 922.781738,86.013435 922.781738,76.300140 
	C917.909668,76.300140 913.529846,76.300140 908.954651,76.300140 
	C908.954651,93.897758 908.954651,111.191658 908.954590,129.479218 
M526.381165,114.560272 
	C526.308960,108.905212 526.296265,103.248642 526.153442,97.595367 
	C525.705200,79.846893 519.479919,74.128342 501.701660,75.053131 
	C501.369446,75.070412 501.036438,75.078789 500.705139,75.106895 
	C490.569519,75.966660 484.690948,80.859428 484.250305,91.026733 
	C483.589050,106.284180 483.636200,121.608871 484.238556,136.871170 
	C484.615448,146.420502 489.557831,151.284760 498.663544,152.542343 
	C503.042877,153.147186 507.632751,152.909424 512.051086,152.396729 
	C519.370117,151.547424 524.012329,147.021606 524.920471,139.861771 
	C525.940674,131.818893 525.943115,123.646927 526.381165,114.560272 
M605.252075,133.361313 
	C605.223450,134.026306 605.210449,134.692383 605.163757,135.356110 
	C604.772644,140.910736 603.203857,142.550705 598.419861,142.545288 
	C593.661377,142.539917 591.431213,140.127823 591.440430,135.447006 
	C591.469299,120.807045 591.459900,106.166962 591.518311,91.527153 
	C591.536194,87.041908 594.304199,85.454636 598.365417,85.477058 
	C602.421204,85.499443 605.129578,87.063309 605.127502,91.597092 
	C605.125732,95.534172 605.127197,99.471252 605.127197,103.457542 
	C610.068298,103.457542 614.298706,103.457542 618.802063,103.457542 
	C618.802063,99.178452 619.131653,95.181458 618.737305,91.257217 
	C617.740723,81.340332 613.328857,76.484680 603.974426,75.343887 
	C599.904358,74.847534 595.617981,74.948486 591.576843,75.638786 
	C583.431091,77.030235 578.563782,81.394791 578.251526,89.505989 
	C577.619202,105.933258 577.651001,122.415871 578.228333,138.846878 
	C578.501831,146.629227 583.280884,151.073196 591.315613,152.311874 
	C600.069519,153.661423 609.043030,154.539749 615.608704,146.369812 
	C616.019470,145.858658 616.332153,145.248322 616.596802,144.643204 
	C619.485352,138.039688 619.308899,131.209106 618.526062,124.544189 
	C613.829224,124.544189 609.601013,124.544189 605.266418,124.544189 
	C605.266418,127.446388 605.266418,129.936035 605.252075,133.361313 
M460.750916,99.502525 
	C460.750916,95.251465 460.750916,91.000404 460.750916,86.416481 
	C465.431396,86.416481 469.377319,86.416481 473.492889,86.416481 
	C473.492889,82.820114 473.492889,79.590073 473.492889,75.922974 
	C469.148224,75.922974 465.057983,75.922974 460.179718,75.922974 
	C460.808472,71.203705 459.897705,65.389252 462.290741,63.220879 
	C465.412872,60.391838 471.152496,60.451473 475.889404,59.236511 
	C475.889404,56.634575 475.889404,53.528103 475.889404,50.257439 
	C467.676300,49.230709 459.573425,48.285160 452.651031,53.434147 
	C445.119476,59.036278 447.323975,67.799515 446.775574,75.785248 
	C444.315979,75.946739 442.101013,76.092163 440.193634,76.217392 
	C440.193634,79.921577 440.193634,83.155251 440.193634,86.473297 
	C442.532257,86.606270 444.494476,86.717842 446.939636,86.856873 
	C446.939636,108.526421 446.939636,130.085236 446.939636,151.684418 
	C451.814423,151.684418 456.190125,151.684418 460.752625,151.684418 
	C460.752625,134.408051 460.752625,117.455521 460.750916,99.502525 
M897.944824,82.335556 
	C897.944824,80.255798 897.944824,78.176048 897.944824,75.685760 
	C893.475464,75.685760 889.736816,75.685760 885.679810,75.685760 
	C885.679810,68.354042 885.679810,61.453350 885.679810,54.553482 
	C881.022339,54.553482 876.750244,54.553482 871.938843,54.553482 
	C871.938843,61.813862 871.938843,68.872269 871.938843,75.855347 
	C869.599792,75.979996 867.807739,76.075500 865.951782,76.174416 
	C865.951782,79.674660 865.951782,82.944206 865.951782,86.403183 
	C867.965698,86.570114 869.749084,86.717949 871.908447,86.896942 
	C871.908447,88.785934 871.906250,90.592148 871.908813,92.398361 
	C871.929810,107.050842 871.873291,121.704071 872.012695,136.355423 
	C872.067200,142.074249 873.602356,147.367859 879.109802,150.294022 
	C885.383362,153.627228 892.100708,153.350235 898.858215,152.621292 
	C898.858215,148.926620 898.858215,145.824326 898.858215,142.472336 
	C897.278564,142.564499 895.985535,142.667770 894.690430,142.710861 
	C887.277405,142.957596 885.791809,141.591644 885.735901,134.302338 
	C885.686035,127.808868 885.724182,121.314720 885.723999,114.820877 
	C885.723755,105.549416 885.723938,96.277962 885.723938,86.642944 
	C889.217468,86.642944 892.228333,86.943970 895.119751,86.487747 
	C896.204346,86.316612 897.011169,84.385193 897.944824,82.335556 
M750.387634,95.500214 
	C750.387634,80.721832 750.387634,65.943443 750.387634,51.022243 
	C745.545471,51.022243 741.170898,51.022243 736.742310,51.022243 
	C736.742310,84.777138 736.742310,118.190689 736.742310,151.721588 
	C741.371521,151.721588 745.789368,151.721588 750.387634,151.721588 
	C750.387634,133.130722 750.387634,114.815468 750.387634,95.500214 
M538.027283,113.500000 
	C538.027283,126.242317 538.027283,138.984634 538.027283,151.688690 
	C542.963196,151.688690 547.349487,151.688690 551.950684,151.688690 
	C551.950684,133.434021 551.934021,115.495468 551.958862,97.556969 
	C551.968872,90.342422 554.856445,87.293015 562.052917,86.781403 
	C564.310364,86.620903 566.573120,86.536201 568.769653,86.420174 
	C568.769653,82.667442 568.769653,79.392159 568.769653,75.246620 
	C565.236328,75.823097 561.620667,75.576805 559.005493,77.075920 
	C556.413025,78.561996 554.828796,81.806877 552.203125,85.011833 
	C552.014465,81.358215 551.882568,78.804062 551.754028,76.314972 
	C546.994385,76.314972 542.606323,76.314972 538.027283,76.314972 
	C538.027283,88.589821 538.027283,100.544907 538.027283,113.500000 
M362.640686,75.992157 
	C362.039520,77.236763 360.943665,78.471245 360.917938,79.727638 
	C360.757721,87.549614 360.837189,95.376503 360.837189,103.201759 
	C360.837158,119.313866 360.837158,135.425964 360.837158,151.713745 
	C365.555176,151.713745 369.928101,151.713745 374.353088,151.713745 
	C374.353088,126.357140 374.353088,101.300804 374.353088,75.987518 
	C370.574005,75.987518 367.090118,75.987518 362.640686,75.992157 
M1019.551086,151.951096 
	C1023.669128,151.951096 1027.787231,151.951096 1032.048096,151.951096 
	C1032.048096,126.502831 1032.048096,101.469185 1032.048096,76.302429 
	C1027.462158,76.302429 1023.074219,76.302429 1018.692932,76.302429 
	C1018.692932,101.550964 1018.692932,126.499413 1019.551086,151.951096 
M892.723999,229.942780 
	C892.874756,233.664169 894.618469,234.966919 898.365479,233.530090 
	C897.956970,231.890015 897.414490,230.318268 897.189209,228.702301 
	C896.227478,221.803375 890.774841,214.918900 897.037048,207.955231 
	C897.224426,207.746918 897.208130,207.313400 897.208008,206.984909 
	C897.205566,200.344498 897.321716,193.700241 897.125488,187.065277 
	C897.026184,183.704437 895.052551,181.310806 891.613647,181.007263 
	C888.033813,180.691284 884.404480,180.936798 880.676147,180.936798 
	C880.676147,198.710571 880.676147,216.246933 880.676147,233.785110 
	C882.233521,233.785110 883.480347,233.785110 885.041809,233.785110 
	C885.041809,227.094482 885.041809,220.644653 885.041809,214.194809 
	C885.432434,213.909988 885.823059,213.625183 886.213745,213.340363 
	C887.285095,214.413101 888.921570,215.308685 889.323547,216.591248 
	C890.611877,220.701462 891.443298,224.954926 892.723999,229.942780 
M780.500000,99.084915 
	C773.743347,99.084915 766.986633,99.084915 760.255493,99.084915 
	C760.255493,103.495331 760.255493,107.261986 760.255493,111.017868 
	C773.871277,111.017868 787.240173,111.017868 800.643066,111.017868 
	C800.643066,106.937408 800.643066,103.196930 800.643066,99.084915 
	C794.080933,99.084915 787.790283,99.084915 780.500000,99.084915 
M572.140869,230.001999 
	C574.586548,235.287338 579.158142,235.072433 583.648926,234.037674 
	C589.039612,232.795532 588.498169,228.064774 588.810059,223.973694 
	C589.091797,220.277817 587.653259,219.170593 584.094604,220.817917 
	C584.094604,222.783585 584.075378,224.603989 584.099060,226.423843 
	C584.135010,229.189133 582.929443,231.351135 580.079712,230.683701 
	C578.543396,230.323898 576.564819,228.206085 576.333191,226.650955 
	C575.783447,222.960297 576.156311,219.132202 576.156311,214.981995 
	C580.397949,214.981995 584.312012,214.981995 588.723694,214.981995 
	C588.723694,210.167068 588.987244,205.711624 588.658447,201.300323 
	C588.227295,195.515442 585.537292,193.322388 579.905457,193.472748 
	C574.429321,193.618958 571.896729,195.670883 571.764465,201.338821 
	C571.547974,210.622467 571.877014,219.918854 572.140869,230.001999 
M782.228882,233.923599 
	C787.985596,230.776260 786.026123,225.446167 786.361633,220.387512 
	C784.775330,220.387512 783.566650,220.387512 781.887756,220.387512 
	C781.887756,222.812286 782.387634,225.277008 781.715759,227.364548 
	C781.251465,228.806946 779.163513,230.628693 777.809814,230.621628 
	C776.532898,230.614944 774.346741,228.556580 774.171814,227.193832 
	C773.673523,223.313507 773.996826,219.327682 773.996826,214.942001 
	C778.225769,214.942001 782.132568,214.942001 786.120056,214.942001 
	C786.120056,209.528244 786.286865,204.558929 786.062500,199.607330 
	C785.908142,196.201935 783.808899,194.302979 780.368408,193.716125 
	C773.411316,192.529434 769.622681,195.136795 769.312622,202.129227 
	C768.988708,209.435150 769.071838,216.767136 769.208557,224.083405 
	C769.377930,233.151169 772.234009,235.390213 782.228882,233.923599 
M481.222748,225.149109 
	C481.455261,228.600494 480.952881,232.850815 485.218964,233.866180 
	C487.825531,234.486557 490.890961,233.179016 494.514954,232.619247 
	C494.934875,232.834274 496.603790,233.688889 498.857056,234.842712 
	C498.857056,220.630753 498.857056,207.523758 498.857056,194.039047 
	C497.356140,194.106003 496.012756,194.165939 494.382507,194.238663 
	C494.382507,204.424469 494.323883,214.229126 494.413300,224.032455 
	C494.446045,227.624390 493.487305,230.653793 489.523743,230.784454 
	C485.130341,230.929276 486.034821,227.214493 486.017578,224.534180 
	C485.956573,215.043991 485.997589,205.553162 485.977173,196.062637 
	C485.975830,195.429901 485.784302,194.797546 485.632080,193.863617 
	C484.094269,194.042755 482.728516,194.201828 481.221588,194.377365 
	C481.221588,204.603836 481.221588,214.414978 481.222748,225.149109 
M664.844727,230.251846 
	C667.234924,235.352798 671.677612,234.835648 675.983643,234.082947 
	C680.364136,233.317230 681.201538,229.763260 681.020264,226.110489 
	C680.901672,223.720596 683.083801,219.132431 676.969666,220.421402 
	C676.844543,222.883820 677.203735,225.354263 676.448792,227.416916 
	C675.919373,228.863373 673.871216,230.629395 672.499573,230.630829 
	C671.276978,230.632111 669.167908,228.516968 668.996704,227.143112 
	C668.514404,223.272079 668.828247,219.301834 668.828247,214.906738 
	C673.029175,214.906738 676.935242,214.906738 681.057129,214.906738 
	C681.057129,209.973526 681.227356,205.504532 681.013000,201.054062 
	C680.758789,195.774704 678.382385,193.654007 673.125244,193.494034 
	C667.577576,193.325211 664.363953,195.482132 664.244629,200.620544 
	C664.021484,210.230713 664.414612,219.855179 664.844727,230.251846 
M838.122314,233.832214 
	C839.473022,231.363373 841.835815,228.955322 841.988403,226.414551 
	C842.484741,218.149612 842.364380,209.830200 842.107117,201.543381 
	C841.923645,195.633362 839.398315,193.512070 833.652771,193.501587 
	C827.735901,193.490784 825.202820,195.793671 825.031372,201.942444 
	C824.827942,209.240250 824.833130,216.548721 824.948914,223.849380 
	C825.098328,233.270889 827.838135,235.439667 838.122314,233.832214 
M747.965454,195.548477 
	C747.278076,197.710693 746.063232,199.857086 745.997742,202.037964 
	C745.758362,210.016159 745.782654,218.008194 745.939148,225.990479 
	C746.061157,232.211502 748.542786,234.552582 754.415100,234.561066 
	C760.239380,234.569489 762.696533,232.113480 762.942627,225.962036 
	C763.014343,224.169495 762.953735,222.371658 762.953735,220.354889 
	C761.271545,220.354889 760.041626,220.354889 758.576233,220.354889 
	C758.465454,222.879608 758.757141,225.296799 758.121155,227.438461 
	C757.718079,228.795807 755.843506,230.732498 754.789856,230.636826 
	C753.293152,230.500946 750.759888,228.777390 750.719421,227.658081 
	C750.389404,218.530045 750.393555,209.379486 750.729187,200.251678 
	C750.768982,199.167664 753.369202,197.478607 754.865906,197.383743 
	C755.932068,197.316147 757.781677,199.286316 758.133728,200.644608 
	C758.689331,202.788651 758.281555,205.182373 758.281555,207.272064 
	C761.877014,208.551117 762.972290,207.610504 763.036804,204.335312 
	C763.233093,194.368042 758.168640,191.025543 747.965454,195.548477 
M565.992249,194.739105 
	C564.539551,194.479233 563.086914,194.219376 561.400757,193.917740 
	C560.052979,205.881119 558.779602,217.184570 557.506226,228.488007 
	C557.178833,228.467758 556.851501,228.447495 556.524109,228.427246 
	C555.239807,217.004227 553.955444,205.581207 552.639282,193.875153 
	C550.778687,194.049713 549.407288,194.178360 547.927734,194.317169 
	C549.715881,207.752945 551.441162,220.716202 553.183044,233.804260 
	C555.891357,233.804260 558.320923,233.804260 560.897339,233.804260 
	C562.609924,220.946671 564.295959,208.288376 565.992249,194.739105 
M706.311218,203.644211 
	C706.311218,213.599976 706.311218,223.555740 706.311218,233.771896 
	C708.054871,233.771896 709.408875,233.771896 711.209106,233.771896 
	C711.209106,221.630814 711.209106,209.749985 711.209106,198.438324 
	C713.575012,196.597672 718.200439,199.973465 717.816223,194.184525 
	C715.562500,194.039597 713.467529,193.904877 711.414062,193.772827 
	C710.389221,184.441254 710.460754,184.341919 719.819580,183.519302 
	C718.499756,182.026199 717.817200,180.500870 716.795959,180.223801 
	C711.146301,178.690994 707.119019,181.789444 706.322998,187.637085 
	C705.998535,190.021011 708.026855,193.507477 703.733521,194.548172 
	C703.654785,194.567261 703.895203,196.505203 704.222656,197.467514 
	C704.826172,199.241348 705.605286,200.955414 706.311218,203.644211 
M816.564087,183.931198 
	C817.949036,183.846939 819.333984,183.762665 822.095154,183.594666 
	C820.440735,181.815536 819.819824,180.547928 818.882629,180.238693 
	C813.365540,178.418198 808.624939,181.900284 808.060852,187.800812 
	C807.830688,190.207870 809.621338,193.585663 805.412720,194.567047 
	C805.361938,194.578903 805.607056,196.523972 805.964294,197.472366 
	C806.562378,199.059769 807.952148,200.559784 807.981750,202.116104 
	C808.171448,212.098053 808.073792,222.085342 808.101929,232.070786 
	C808.103699,232.682999 808.372437,233.294449 808.548462,234.039749 
	C809.991455,233.974655 811.261353,233.917358 813.011230,233.838425 
	C813.011230,221.669769 813.011230,209.787445 813.011230,198.460205 
	C815.402527,196.702942 819.891357,199.650757 819.642456,194.224442 
	C817.182983,194.022507 815.105896,193.851990 812.630188,193.648727 
	C813.953369,190.237808 810.416565,185.872620 816.564087,183.931198 
M647.111206,201.808746 
	C647.112000,209.617310 647.030151,217.427322 647.168274,225.233459 
	C647.205566,227.339127 647.200623,230.370361 648.464050,231.326813 
	C650.724792,233.038254 653.901001,233.633591 656.782410,234.333496 
	C657.223694,234.440674 658.135010,232.612640 657.945435,232.867584 
	C655.455566,230.601349 652.275208,229.079758 652.192566,227.405212 
	C651.711060,217.652390 651.956787,207.863663 651.956787,198.136124 
	C657.417725,197.480759 657.417725,197.480759 657.582947,194.091766 
	C655.828613,194.009628 654.072754,193.927429 651.864136,193.824005 
	C651.864136,189.997604 651.864136,186.432175 651.864136,182.491470 
	C649.977966,182.709717 648.607300,182.868317 647.823792,182.958984 
	C645.656860,187.085953 649.855835,192.101883 644.577576,194.915619 
	C644.490356,194.962112 645.311523,196.726395 645.719482,197.684494 
	C646.177002,198.758942 646.646667,199.828171 647.111206,201.808746 
M462.616425,197.645325 
	C463.213287,198.948349 464.297058,200.240509 464.326447,201.556213 
	C464.493439,209.030167 464.345276,216.510635 464.446838,223.986938 
	C464.478149,226.290421 464.135132,229.411514 465.422485,230.696060 
	C467.381012,232.650330 470.547791,233.535629 473.347748,234.402542 
	C474.027771,234.613098 475.278534,232.980499 475.446869,232.846786 
	C472.869568,230.569977 469.429871,228.979263 469.331787,227.203979 
	C468.794006,217.468399 469.075348,207.687592 469.075348,197.960510 
	C474.603027,197.550491 474.603027,197.550491 474.661194,193.886627 
	C472.916412,193.886627 471.173462,193.886627 468.966827,193.886627 
	C468.966827,189.914978 468.966827,186.348068 468.966827,182.075165 
	C467.069885,182.806305 464.817627,183.168396 464.746643,183.782639 
	C464.224548,188.298782 465.251129,193.077850 462.616425,197.645325 
M520.518860,186.911438 
	C519.836792,189.429520 522.370544,192.926208 518.186584,194.469788 
	C517.886658,194.580444 517.866516,196.917770 518.203125,197.059006 
	C521.699341,198.525864 520.301575,201.513885 520.354187,203.881760 
	C520.505310,210.689301 520.348877,217.503220 520.445129,224.312744 
	C520.475342,226.451828 520.553101,228.717148 521.258301,230.692947 
	C522.656982,234.611679 526.281372,234.632950 529.610901,234.387512 
	C530.523804,234.320206 531.327759,232.775055 532.795837,231.284637 
	C528.637878,230.659744 524.999939,231.662781 525.038147,226.901978 
	C525.115295,217.286880 525.061157,207.670746 525.061157,198.095932 
	C530.813782,197.445984 530.813782,197.445984 530.393005,194.056412 
	C528.787415,193.983368 527.167175,193.909637 525.096924,193.815430 
	C525.096924,190.073578 525.096924,186.501282 525.096924,183.030655 
	C521.855835,182.120728 520.052673,182.581741 520.518860,186.911438 
M608.960510,210.499985 
	C608.960510,218.282639 608.960510,226.065292 608.960510,234.058670 
	C610.692627,233.961517 611.953674,233.890793 613.603455,233.798248 
	C613.603455,216.798340 613.668213,200.025085 613.454102,183.255386 
	C613.440186,182.165070 611.283325,181.102112 610.123291,180.026443 
	C609.735718,180.394547 609.348083,180.762650 608.960510,181.130753 
	C608.960510,190.587158 608.960510,200.043579 608.960510,210.499985 
M425.960449,194.509567 
	C425.960449,207.615570 425.960449,220.721573 425.960449,234.202972 
	C427.803650,233.961182 429.146729,233.784988 430.604645,233.593735 
	C430.604645,216.687012 430.543549,200.227905 430.650482,183.769882 
	C430.675171,179.968582 428.700745,180.386353 425.960449,180.973999 
	C425.960449,185.250320 425.960449,189.383148 425.960449,194.509567 
M908.157288,220.451492 
	C908.157288,207.330826 908.157288,194.210159 908.157288,181.006088 
	C906.497986,181.006088 905.294739,181.006088 904.010864,181.006088 
	C904.010864,198.735062 904.010864,216.155792 904.010864,233.786652 
	C908.969910,233.786652 913.729126,233.786652 918.869568,233.786652 
	C918.762756,232.437317 918.670837,231.276520 918.550232,229.752609 
	C914.918152,229.752609 911.661194,229.752609 908.157288,229.752609 
	C908.157288,226.718079 908.157288,224.076523 908.157288,220.451492 
M696.656738,197.833450 
	C699.313599,197.974152 700.857666,197.216034 699.356506,193.331375 
	C696.858887,194.357376 694.458069,195.343613 693.120239,195.893173 
	C691.207703,195.002548 689.661621,194.282547 687.575073,193.310837 
	C687.575073,207.537933 687.575073,220.590088 687.575073,234.000839 
	C689.173645,233.919861 690.520630,233.851608 692.026123,233.775345 
	C692.026123,223.745163 692.039612,214.135269 692.018005,204.525452 
	C692.011353,201.565872 692.223877,198.788177 696.656738,197.833450 
M854.025940,226.426361 
	C854.026001,219.101425 854.081970,211.775894 854.003174,204.451797 
	C853.962158,200.634842 854.946716,198.006042 859.408569,197.648529 
	C860.468994,197.563568 861.400208,195.865097 862.390808,194.908798 
	C861.965881,194.388718 861.540955,193.868622 861.115967,193.348541 
	C858.816101,194.312393 856.516235,195.276245 854.868530,195.966782 
	C853.314026,195.128418 851.765747,194.293381 849.570435,193.109436 
	C849.570435,207.436920 849.570435,220.530930 849.570435,233.988037 
	C851.162842,233.914078 852.513123,233.851364 854.025940,233.781113 
	C854.025940,231.372971 854.025940,229.387680 854.025940,226.426361 
M375.569824,51.217426 
	C370.340820,50.957989 365.111816,50.698551 359.798096,50.434910 
	C359.798096,55.056305 359.798096,58.932266 359.798096,62.733856 
	C365.257324,62.733856 370.353394,62.733856 375.798889,62.733856 
	C375.798889,59.005894 375.798889,55.544315 375.569824,51.217426 
M1030.178223,62.990101 
	C1031.268555,62.221535 1033.193115,61.552803 1033.299072,60.666481 
	C1033.680786,57.476349 1033.449097,54.212811 1033.449097,50.946247 
	C1027.719360,50.946247 1022.666931,50.946247 1017.518066,50.946247 
	C1017.518066,55.084091 1017.518066,58.934963 1017.518066,62.990227 
	C1021.656372,62.990227 1025.452271,62.990227 1030.178223,62.990101 
M506.404419,232.022507 
	C507.685547,232.857010 508.966705,233.691498 510.847351,234.916504 
	C510.847351,220.447052 510.847351,207.367325 510.847351,193.931839 
	C509.277008,194.069916 507.936035,194.187805 506.395691,194.323242 
	C506.395691,206.857224 506.395691,218.977432 506.404419,232.022507 
M542.190430,206.508484 
	C542.190430,202.420975 542.190430,198.333466 542.190430,193.962570 
	C540.397705,194.117798 539.185425,194.222778 538.115295,194.315430 
	C538.115295,207.696823 538.115295,220.718079 538.115295,234.014206 
	C539.627258,233.883057 540.843201,233.777588 542.190430,233.660721 
	C542.190430,224.721756 542.190430,216.114380 542.190430,206.508484 
M541.203125,186.048645 
	C542.231018,184.641098 543.258850,183.233566 544.951904,180.915161 
	C540.865479,180.915161 538.665283,180.915161 536.388184,180.915161 
	C536.388184,182.667862 536.388184,184.097061 536.388184,185.830826 
	C537.810425,185.909409 539.080261,185.979568 541.203125,186.048645 
M511.447845,180.776627 
	C509.399963,180.776627 507.352081,180.776627 505.007721,180.776627 
	C505.135742,182.903122 505.226898,184.417053 505.313904,185.862213 
	C507.775543,185.862213 509.705017,185.862213 512.078369,185.862213 
	C512.078369,184.314514 512.078369,182.905594 511.447845,180.776627 
z"/>
<path fill="#F9F9F9" opacity="1.000000" stroke="none" 
	d="
M92.781387,206.216095 
	C89.387566,201.473740 86.564430,196.703476 82.954491,192.630569 
	C73.961189,182.483917 78.080193,168.726944 90.179108,165.631226 
	C90.849068,160.474106 90.314552,155.117279 92.406105,151.142227 
	C94.513763,147.136551 99.229881,144.503342 103.329330,140.792450 
	C100.910744,129.856110 103.641663,124.674232 115.689880,118.523209 
	C114.107529,118.523209 112.458138,118.227112 110.952927,118.567863 
	C90.240410,123.256783 68.308151,113.841438 56.797287,95.230995 
	C45.949570,77.692711 47.722553,54.105923 61.109951,37.857590 
	C77.284134,18.226921 106.643250,13.898086 127.287514,28.100079 
	C149.418304,43.324707 156.246368,71.998085 142.820404,94.645599 
	C140.755707,98.128418 140.937119,100.233200 143.262787,103.339569 
	C151.039490,113.726860 158.479996,124.365768 166.057358,134.902496 
	C166.887039,136.056213 167.769073,137.172287 169.447296,139.390091 
	C169.199081,134.938217 168.911438,131.896317 168.882111,128.851959 
	C168.797913,120.113014 175.129761,113.486168 184.048691,112.852684 
	C191.612396,112.315453 199.114517,118.330429 200.000031,126.362808 
	C202.426163,148.369980 205.061905,170.373444 206.656311,192.447586 
	C208.336746,215.712708 192.318985,238.611023 170.049026,246.524124 
	C147.350922,254.589340 121.866562,246.533508 107.493454,226.716812 
	C102.625389,220.005051 97.825172,213.244080 92.781387,206.216095 
M190.529861,124.221741 
	C188.178787,121.336845 185.299194,120.116585 181.721832,121.697273 
	C177.790710,123.434273 176.687210,126.693901 177.115845,130.727905 
	C177.872177,137.846085 178.810211,144.957031 179.185516,152.096603 
	C179.305695,154.382919 178.596024,157.811401 177.026642,158.856903 
	C173.863586,160.964096 172.121216,157.653091 170.486938,155.377777 
	C155.344086,134.295059 140.207901,113.207535 125.079460,92.114464 
	C119.260612,84.001427 113.568558,75.794846 107.615852,67.781593 
	C104.888092,64.109612 100.313087,63.529007 97.000679,65.921326 
	C93.596474,68.379944 93.044754,72.520767 95.607033,76.526604 
	C96.144798,77.367332 96.739899,78.171989 97.321457,78.984055 
	C114.178253,102.522316 131.035461,126.060287 147.896683,149.595398 
	C149.704559,152.118866 151.762512,154.933746 148.289551,157.342270 
	C144.827087,159.743546 142.888885,156.757217 141.113083,154.282578 
	C135.875031,146.983154 130.700638,139.637634 125.414574,132.373276 
	C122.073761,127.782166 117.873260,126.598511 114.393219,129.063705 
	C110.252068,131.997223 109.878807,136.253922 113.423752,141.227432 
	C119.025009,149.085938 124.666855,156.915619 130.311600,164.742996 
	C132.109711,167.236404 134.338455,170.007858 130.944107,172.489090 
	C127.663498,174.887177 125.588791,172.316437 123.749290,169.665070 
	C120.334953,164.743774 116.812248,159.895432 113.245956,155.082443 
	C109.901245,150.568497 105.273262,149.495453 101.685410,152.264526 
	C98.201591,154.953323 97.962906,159.266541 101.136688,163.766403 
	C105.259666,169.612076 109.440750,175.416748 113.591911,181.242569 
	C115.296410,183.634720 116.209007,186.147125 113.293770,188.183731 
	C110.578430,190.080719 108.619827,188.402832 107.016060,186.221893 
	C105.044586,183.540924 103.137375,180.812592 101.159927,178.136108 
	C97.689018,173.438232 93.394737,172.274048 89.793732,175.013153 
	C86.022263,177.881943 85.708961,182.183243 89.049789,186.862030 
	C97.268036,198.371552 105.751427,209.698944 113.716469,221.380310 
	C123.678368,235.990234 143.075287,244.121078 160.470581,240.449600 
	C184.177902,235.445877 199.595139,215.992722 198.118362,191.838379 
	C197.113327,175.399628 195.112320,159.018890 193.414230,142.626953 
	C192.800354,136.701218 191.771866,130.818436 190.529861,124.221741 
M69.098488,59.914940 
	C75.775497,42.601772 92.370529,33.673206 108.393242,38.773312 
	C125.741783,44.295441 135.525116,60.538990 130.586884,77.749969 
	C128.692566,84.352180 131.804901,87.349815 135.175705,91.399712 
	C145.981750,72.147820 142.031372,50.314842 125.637054,37.281322 
	C109.202713,24.215984 86.815140,24.992262 71.309196,39.165104 
	C56.802071,52.425007 53.718243,75.481430 64.224655,91.612259 
	C73.917664,106.494232 92.036446,115.061142 108.748413,109.627052 
	C106.287979,104.685692 103.187469,101.959755 96.832375,101.281265 
	C75.916656,99.048195 63.702904,80.625969 69.098488,59.914940 
M85.761078,71.542023 
	C86.487297,63.733295 89.931129,59.113945 96.565796,57.049259 
	C103.086205,55.020126 109.647141,57.096992 114.269157,62.914619 
	C117.139297,66.527191 119.737282,70.355980 122.619263,74.309746 
	C126.019318,61.801956 117.349098,48.915768 104.154289,46.257759 
	C90.869606,43.581646 77.576004,53.182308 76.047928,66.556229 
	C74.527008,79.867348 84.052422,92.060287 96.875259,92.765594 
	C95.302177,90.567513 93.602295,88.689125 92.474823,86.514030 
	C90.079796,81.893585 87.982635,77.118744 85.761078,71.542023 
z"/>
<path fill="#FBFAFA" opacity="1.000000" stroke="none" 
	d="
M288.961243,115.028137 
	C292.435730,127.386230 295.840637,139.353653 299.354553,151.704361 
	C294.407684,151.704361 289.847931,151.704361 284.715576,151.704361 
	C282.068390,141.399231 279.184143,130.861923 276.722961,120.226715 
	C275.825500,116.348640 274.272491,114.665665 269.955353,116.059547 
	C269.955353,127.680840 269.955353,139.448273 269.955353,151.609726 
	C265.228088,151.609726 260.851166,151.609726 256.155029,151.609726 
	C256.155029,118.248749 256.155029,84.724747 256.155029,51.166676 
	C265.130127,51.166676 274.097809,50.595417 282.956177,51.334511 
	C291.088104,52.012993 296.267792,57.025696 296.894775,65.255379 
	C297.750580,76.489426 297.542664,87.829552 297.285004,99.112648 
	C297.159485,104.609924 294.654694,109.364227 289.832397,112.596321 
	C289.301361,112.952240 289.194977,113.941803 288.961243,115.028137 
M269.769562,66.599281 
	C269.769562,78.682068 269.769562,90.764847 269.769562,103.160385 
	C272.374542,103.160385 274.499054,103.198433 276.621765,103.152580 
	C281.245880,103.052704 283.826263,100.500061 283.933624,96.047104 
	C284.141785,87.411865 284.238464,78.758377 283.904022,70.130959 
	C283.671234,64.125153 275.435425,60.192139 270.289124,63.357861 
	C269.826752,63.642292 269.929962,64.846161 269.769562,66.599281 
z"/>
<path fill="#FAFAFA" opacity="1.000000" stroke="none" 
	d="
M724.908325,54.363350 
	C724.908752,79.659592 724.782776,104.490410 724.943787,129.319366 
	C725.067993,148.476715 717.784546,154.651428 697.481934,152.688171 
	C687.435364,151.716675 682.256775,146.501892 681.983459,136.376770 
	C681.390137,114.396080 681.486755,92.396553 681.326355,70.404541 
	C681.280151,64.077744 681.319275,57.750328 681.319275,51.043224 
	C686.052185,51.043224 690.443970,51.043224 695.183594,51.043224 
	C695.183594,52.873161 695.182739,54.683197 695.183655,56.493237 
	C695.196411,81.822830 695.199951,107.152443 695.232361,132.482010 
	C695.237427,136.457397 695.568542,140.205231 700.555603,141.349426 
	C707.142944,142.860779 711.002930,140.066238 711.017456,133.307693 
	C711.072449,107.811134 711.055359,82.314407 711.065125,56.817741 
	C711.065796,54.991894 711.065247,53.166046 711.065247,50.669487 
	C714.979309,50.669487 718.754089,50.465820 722.476501,50.816803 
	C723.375000,50.901520 724.100464,52.821247 724.908325,54.363350 
z"/>
<path fill="#FBFBFB" opacity="1.000000" stroke="none" 
	d="
M853.925598,77.000595 
	C853.924377,80.607742 853.924377,83.727257 853.924377,87.049828 
	C849.177368,87.049828 845.070068,87.049828 840.383972,87.049828 
	C840.383972,80.983940 840.573181,75.032059 840.331116,69.097763 
	C840.086426,63.098282 837.880188,61.023739 832.529053,60.995304 
	C827.383972,60.967964 824.985535,62.879105 824.705566,68.534142 
	C824.394226,74.822372 824.667175,81.158852 825.034546,87.453964 
	C825.248108,91.114555 827.436401,93.525810 831.202026,94.312607 
	C833.639404,94.821877 836.036621,95.522034 838.470947,96.048103 
	C846.826111,97.853752 852.671753,102.681732 853.253296,111.333435 
	C853.894958,120.881256 853.732788,130.569489 852.874756,140.102402 
	C852.268127,146.842728 847.474121,151.157257 840.655090,152.102051 
	C835.928162,152.756973 830.997192,153.121490 826.295959,152.524612 
	C817.555725,151.414948 813.207336,147.276596 811.993103,138.403320 
	C810.945862,130.750412 811.124512,122.929749 810.747375,114.889297 
	C815.756104,114.889297 819.842224,114.889297 824.381714,114.889297 
	C824.381714,121.376007 824.059448,127.695808 824.472107,133.967255 
	C824.886597,140.265778 828.763123,143.097153 834.686829,141.260132 
	C836.856995,140.587112 839.709106,137.829971 839.891113,135.810913 
	C840.498962,129.066635 840.266724,122.213753 839.899658,115.427177 
	C839.691895,111.587608 837.169067,109.169113 833.301086,108.283279 
	C830.387939,107.616119 827.507385,106.806694 824.612244,106.060966 
	C817.481445,104.224228 812.330505,99.840820 811.833923,92.482872 
	C811.167053,82.600395 811.270386,72.592957 812.016541,62.712681 
	C812.551270,55.632217 817.641907,51.371418 824.559753,50.438976 
	C829.610596,49.758186 834.898987,49.700520 839.943298,50.384399 
	C847.090515,51.353382 851.587524,55.984959 852.836548,63.114841 
	C853.606506,67.509666 853.590149,72.042244 853.925598,77.000595 
z"/>
<path fill="#FCFCFC" opacity="1.000000" stroke="none" 
	d="
M992.713867,64.001846 
	C992.713867,59.378223 992.713867,55.254398 992.713867,50.908531 
	C997.410156,50.908531 1001.663147,50.908531 1006.158630,50.908531 
	C1006.158630,84.522865 1006.158630,117.956619 1006.158630,151.696976 
	C1001.734192,151.696976 997.348755,151.696976 992.905884,151.696976 
	C992.742310,149.354706 992.586365,147.121292 992.324097,143.365067 
	C990.509094,145.413544 989.507507,146.322372 988.772217,147.411102 
	C985.056885,152.912140 979.662292,153.824860 973.753540,152.666306 
	C968.031738,151.544403 964.737610,147.604568 964.019592,141.993790 
	C963.304321,136.404572 963.039185,130.732391 962.967407,125.091637 
	C962.833984,114.596825 962.845398,104.095085 963.095520,93.603363 
	C963.177490,90.167023 963.695007,86.574112 964.863342,83.361931 
	C968.364807,73.734756 981.622620,71.756424 988.103699,79.695724 
	C989.170776,81.002876 990.246338,82.303078 991.317993,83.606506 
	C991.783264,83.461990 992.248596,83.317474 992.713867,83.172951 
	C992.713867,76.949188 992.713867,70.725418 992.713867,64.001846 
M976.502319,125.312668 
	C976.607422,128.631973 976.774963,131.950790 976.801819,135.270721 
	C976.834778,139.335159 977.829041,142.593338 982.676270,142.866074 
	C987.294922,143.125916 992.522583,139.690399 992.597778,135.557037 
	C992.857422,121.281776 992.850586,106.996643 992.620667,92.720505 
	C992.550232,88.348785 987.208191,84.740608 982.443237,85.150230 
	C977.562805,85.569786 976.838989,88.998466 976.807007,92.974220 
	C976.722961,103.433693 976.593018,113.892799 976.502319,125.312668 
z"/>
<path fill="#FAFAFA" opacity="1.000000" stroke="none" 
	d="
M346.833801,145.645599 
	C339.433258,155.216782 329.623413,153.696533 320.099823,151.860229 
	C311.951447,150.289108 308.689514,143.781158 308.548065,136.325119 
	C308.254669,120.856163 308.169403,105.343597 309.037720,89.907425 
	C309.544678,80.895035 314.581299,76.616516 323.485992,75.381294 
	C327.238495,74.860771 331.182434,74.851440 334.934448,75.369476 
	C343.883575,76.605080 348.399506,81.021469 349.039246,90.107056 
	C349.642365,98.672142 349.168640,107.313042 349.168640,116.269730 
	C340.222839,116.269730 331.443970,116.269730 322.388611,116.269730 
	C322.388611,123.684029 322.118805,130.769653 322.492828,137.821121 
	C322.707031,141.859726 326.201965,142.505280 329.560150,142.516541 
	C333.268585,142.528992 335.684387,140.744781 335.878845,136.927963 
	C336.088318,132.815765 335.926178,128.684647 335.926178,124.357506 
	C340.614075,124.357506 344.725433,124.357506 349.359283,124.357506 
	C349.958893,131.512436 350.115845,138.553528 346.833801,145.645599 
M329.477539,106.669807 
	C331.581543,106.669807 333.685547,106.669807 335.927643,106.669807 
	C335.927643,100.986137 336.122437,95.863411 335.864136,90.763626 
	C335.668396,86.898361 332.915222,85.451721 329.345337,85.452660 
	C325.959015,85.453545 322.675232,86.269569 322.398560,90.248520 
	C322.026276,95.602631 322.306274,101.002090 322.306274,106.669792 
	C324.603210,106.669792 326.569000,106.669792 329.477539,106.669807 
z"/>
<path fill="#F9F9F9" opacity="1.000000" stroke="none" 
	d="
M670.575256,137.369598 
	C668.977295,150.488770 660.723877,154.778488 643.926941,152.486923 
	C635.048767,151.275696 630.362244,146.466339 630.051270,137.462845 
	C629.517395,122.002602 629.458008,106.493309 630.061707,91.038292 
	C630.444580,81.235100 635.916077,76.308479 645.553833,75.234749 
	C648.841370,74.868492 652.241089,74.870567 655.526733,75.249199 
	C664.561951,76.290367 669.323853,80.345039 670.175720,89.442085 
	C670.992310,98.162567 670.352051,107.019470 670.352051,116.303917 
	C661.576538,116.303917 652.634094,116.303917 643.709167,116.303917 
	C643.709167,123.729149 643.539673,130.674072 643.772339,137.605499 
	C643.913208,141.801987 647.270874,142.467331 650.609680,142.505646 
	C654.187805,142.546707 656.880249,141.133316 657.025391,137.117416 
	C657.174683,132.988998 657.058533,128.850998 657.058533,124.432449 
	C661.825623,124.432449 666.048096,124.432449 670.658325,124.432449 
	C670.658325,128.718781 670.658325,132.830048 670.575256,137.369598 
M657.374268,104.837303 
	C657.268494,100.027672 657.311340,95.208687 657.009521,90.411385 
	C656.772766,86.649635 653.992798,85.480362 650.718201,85.469452 
	C647.423401,85.458473 643.994080,85.978600 643.753906,90.154533 
	C643.444824,95.528885 643.678650,100.934456 643.678650,107.088120 
	C648.289185,106.616066 652.757263,106.158600 657.374268,104.837303 
z"/>
<path fill="#FAFAFA" opacity="1.000000" stroke="none" 
	d="
M1087.098999,113.999908 
	C1086.745239,122.623459 1086.935791,130.818390 1085.886597,138.851379 
	C1084.744019,147.598206 1080.081787,151.663589 1071.375244,152.699509 
	C1067.609985,153.147507 1063.695068,153.160751 1059.936768,152.679398 
	C1050.885986,151.520218 1045.596436,146.953018 1045.209229,137.892136 
	C1044.529541,121.984856 1044.540527,106.008102 1045.199219,90.099251 
	C1045.569336,81.162636 1050.566162,76.702972 1059.435059,75.443352 
	C1063.501587,74.865799 1067.777710,74.861397 1071.849365,75.409737 
	C1080.353271,76.555008 1084.783081,80.561638 1085.895142,89.146996 
	C1086.935791,97.181725 1086.745483,105.375931 1087.098999,113.999908 
M1072.876465,137.819809 
	C1072.950317,122.865982 1073.102539,107.911919 1073.056152,92.958466 
	C1073.039429,87.562958 1070.900024,85.559837 1065.920288,85.473457 
	C1060.701904,85.382935 1058.251221,87.447388 1058.179688,92.978706 
	C1057.999390,106.938530 1058.064941,120.902542 1058.154175,134.864090 
	C1058.174927,138.113480 1058.827271,141.364288 1062.800415,142.116150 
	C1066.666748,142.847794 1070.529785,143.171112 1072.876465,137.819809 
z"/>
<path fill="#FAFAFA" opacity="1.000000" stroke="none" 
	d="
M400.113342,148.862183 
	C399.319977,150.235443 398.581909,151.817383 397.724335,151.885071 
	C394.100800,152.171036 390.441681,152.006180 386.490662,152.006180 
	C386.490662,126.694801 386.490662,101.647461 386.490662,76.295280 
	C390.891174,76.295280 395.286316,76.295280 399.928925,76.295280 
	C400.063507,78.555031 400.196136,80.782555 400.406158,84.309189 
	C402.216248,82.637917 403.500153,81.829247 404.270538,80.677170 
	C407.966553,75.149994 413.308044,74.147316 419.229492,75.356293 
	C425.114044,76.557732 428.287445,80.558151 429.183716,86.426003 
	C429.409546,87.904633 429.805695,89.385292 429.808746,90.865685 
	C429.850525,111.001274 429.836853,131.136993 429.836853,151.640320 
	C425.341339,151.640320 420.962036,151.640320 416.034149,151.640320 
	C416.034149,145.455048 416.034149,139.187790 416.034149,132.920532 
	C416.034119,119.931938 416.048523,106.943329 416.027893,93.954765 
	C416.017822,87.622467 414.260712,85.192619 409.777100,85.153694 
	C404.521149,85.108086 400.146301,89.206177 400.132355,94.421715 
	C400.084320,112.405807 400.113739,130.390091 400.113342,148.862183 
z"/>
<path fill="#FCFCFC" opacity="1.000000" stroke="none" 
	d="
M908.954590,128.982391 
	C908.954651,111.191658 908.954651,93.897758 908.954651,76.300140 
	C913.529846,76.300140 917.909668,76.300140 922.781738,76.300140 
	C922.781738,86.013435 922.781555,95.620682 922.781738,105.227936 
	C922.781982,115.049110 922.831726,124.870651 922.759949,134.691299 
	C922.729126,138.902588 923.401184,142.500275 928.575806,142.835358 
	C933.500427,143.154236 938.408752,139.072510 938.498657,134.351425 
	C938.656982,126.031387 938.546326,117.706207 938.546875,109.383179 
	C938.547668,98.420761 938.547119,87.458344 938.547119,76.247787 
	C943.148499,76.247787 947.393433,76.247787 951.947510,76.247787 
	C951.947510,101.302391 951.947510,126.347244 951.947510,151.698669 
	C947.841736,151.698669 943.580383,151.698669 938.928589,151.698669 
	C938.680054,149.568802 938.408997,147.246017 938.006836,143.799713 
	C936.506226,145.446075 935.627930,146.259003 934.927002,147.203506 
	C930.979492,152.523331 925.638062,153.984283 919.448914,152.579651 
	C913.340637,151.193344 910.195435,146.855835 909.394531,140.935440 
	C908.884644,137.165833 909.077087,133.301224 908.954590,128.982391 
z"/>
<path fill="#FBFAFA" opacity="1.000000" stroke="none" 
	d="
M526.384766,115.045700 
	C525.943115,123.646927 525.940674,131.818893 524.920471,139.861771 
	C524.012329,147.021606 519.370117,151.547424 512.051086,152.396729 
	C507.632751,152.909424 503.042877,153.147186 498.663544,152.542343 
	C489.557831,151.284760 484.615448,146.420502 484.238556,136.871170 
	C483.636200,121.608871 483.589050,106.284180 484.250305,91.026733 
	C484.690948,80.859428 490.569519,75.966660 500.705139,75.106895 
	C501.036438,75.078789 501.369446,75.070412 501.701660,75.053131 
	C519.479919,74.128342 525.705200,79.846893 526.153442,97.595367 
	C526.296265,103.248642 526.308960,108.905212 526.384766,115.045700 
M498.952423,87.636932 
	C498.442261,89.364220 497.503967,91.087936 497.489532,92.819366 
	C497.371704,106.962296 497.267975,121.109329 497.507263,135.249252 
	C497.601349,140.809570 500.130646,142.754242 505.394562,142.559998 
	C510.341431,142.377472 512.217346,140.592102 512.296204,134.833328 
	C512.480774,121.358688 512.557251,107.877457 512.341492,94.404266 
	C512.200684,85.609261 507.793396,83.254128 498.952423,87.636932 
z"/>
<path fill="#F8F8F8" opacity="1.000000" stroke="none" 
	d="
M605.259277,132.893494 
	C605.266418,129.936035 605.266418,127.446388 605.266418,124.544189 
	C609.601013,124.544189 613.829224,124.544189 618.526062,124.544189 
	C619.308899,131.209106 619.485352,138.039688 616.596802,144.643204 
	C616.332153,145.248322 616.019470,145.858658 615.608704,146.369812 
	C609.043030,154.539749 600.069519,153.661423 591.315613,152.311874 
	C583.280884,151.073196 578.501831,146.629227 578.228333,138.846878 
	C577.651001,122.415871 577.619202,105.933258 578.251526,89.505989 
	C578.563782,81.394791 583.431091,77.030235 591.576843,75.638786 
	C595.617981,74.948486 599.904358,74.847534 603.974426,75.343887 
	C613.328857,76.484680 617.740723,81.340332 618.737305,91.257217 
	C619.131653,95.181458 618.802063,99.178452 618.802063,103.457542 
	C614.298706,103.457542 610.068298,103.457542 605.127197,103.457542 
	C605.127197,99.471252 605.125732,95.534172 605.127502,91.597092 
	C605.129578,87.063309 602.421204,85.499443 598.365417,85.477058 
	C594.304199,85.454636 591.536194,87.041908 591.518311,91.527153 
	C591.459900,106.166962 591.469299,120.807045 591.440430,135.447006 
	C591.431213,140.127823 593.661377,142.539917 598.419861,142.545288 
	C603.203857,142.550705 604.772644,140.910736 605.163757,135.356110 
	C605.210449,134.692383 605.223450,134.026306 605.259277,132.893494 
z"/>
<path fill="#F9F9F9" opacity="1.000000" stroke="none" 
	d="
M460.751770,100.002762 
	C460.752625,117.455521 460.752625,134.408051 460.752625,151.684418 
	C456.190125,151.684418 451.814423,151.684418 446.939636,151.684418 
	C446.939636,130.085236 446.939636,108.526421 446.939636,86.856873 
	C444.494476,86.717842 442.532257,86.606270 440.193634,86.473297 
	C440.193634,83.155251 440.193634,79.921577 440.193634,76.217392 
	C442.101013,76.092163 444.315979,75.946739 446.775574,75.785248 
	C447.323975,67.799515 445.119476,59.036278 452.651031,53.434147 
	C459.573425,48.285160 467.676300,49.230709 475.889404,50.257439 
	C475.889404,53.528103 475.889404,56.634575 475.889404,59.236511 
	C471.152496,60.451473 465.412872,60.391838 462.290741,63.220879 
	C459.897705,65.389252 460.808472,71.203705 460.179718,75.922974 
	C465.057983,75.922974 469.148224,75.922974 473.492889,75.922974 
	C473.492889,79.590073 473.492889,82.820114 473.492889,86.416481 
	C469.377319,86.416481 465.431396,86.416481 460.750916,86.416481 
	C460.750916,91.000404 460.750916,95.251465 460.751770,100.002762 
z"/>
<path fill="#F9F9F9" opacity="1.000000" stroke="none" 
	d="
M897.944702,82.795944 
	C897.011169,84.385193 896.204346,86.316612 895.119751,86.487747 
	C892.228333,86.943970 889.217468,86.642944 885.723938,86.642944 
	C885.723938,96.277962 885.723755,105.549416 885.723999,114.820877 
	C885.724182,121.314720 885.686035,127.808868 885.735901,134.302338 
	C885.791809,141.591644 887.277405,142.957596 894.690430,142.710861 
	C895.985535,142.667770 897.278564,142.564499 898.858215,142.472336 
	C898.858215,145.824326 898.858215,148.926620 898.858215,152.621292 
	C892.100708,153.350235 885.383362,153.627228 879.109802,150.294022 
	C873.602356,147.367859 872.067200,142.074249 872.012695,136.355423 
	C871.873291,121.704071 871.929810,107.050842 871.908813,92.398361 
	C871.906250,90.592148 871.908447,88.785934 871.908447,86.896942 
	C869.749084,86.717949 867.965698,86.570114 865.951782,86.403183 
	C865.951782,82.944206 865.951782,79.674660 865.951782,76.174416 
	C867.807739,76.075500 869.599792,75.979996 871.938843,75.855347 
	C871.938843,68.872269 871.938843,61.813862 871.938843,54.553482 
	C876.750244,54.553482 881.022339,54.553482 885.679810,54.553482 
	C885.679810,61.453350 885.679810,68.354042 885.679810,75.685760 
	C889.736816,75.685760 893.475464,75.685760 897.944824,75.685760 
	C897.944824,78.176048 897.944824,80.255798 897.944702,82.795944 
z"/>
<path fill="#FFFFFF" opacity="1.000000" stroke="none" 
	d="
M750.387634,96.000214 
	C750.387634,114.815468 750.387634,133.130722 750.387634,151.721588 
	C745.789368,151.721588 741.371521,151.721588 736.742310,151.721588 
	C736.742310,118.190689 736.742310,84.777138 736.742310,51.022243 
	C741.170898,51.022243 745.545471,51.022243 750.387634,51.022243 
	C750.387634,65.943443 750.387634,80.721832 750.387634,96.000214 
z"/>
<path fill="#FBFBFB" opacity="1.000000" stroke="none" 
	d="
M538.027283,113.000000 
	C538.027283,100.544907 538.027283,88.589821 538.027283,76.314972 
	C542.606323,76.314972 546.994385,76.314972 551.754028,76.314972 
	C551.882568,78.804062 552.014465,81.358215 552.203125,85.011833 
	C554.828796,81.806877 556.413025,78.561996 559.005493,77.075920 
	C561.620667,75.576805 565.236328,75.823097 568.769653,75.246620 
	C568.769653,79.392159 568.769653,82.667442 568.769653,86.420174 
	C566.573120,86.536201 564.310364,86.620903 562.052917,86.781403 
	C554.856445,87.293015 551.968872,90.342422 551.958862,97.556969 
	C551.934021,115.495468 551.950684,133.434021 551.950684,151.688690 
	C547.349487,151.688690 542.963196,151.688690 538.027283,151.688690 
	C538.027283,138.984634 538.027283,126.242317 538.027283,113.000000 
z"/>
<path fill="#F8F8F8" opacity="1.000000" stroke="none" 
	d="
M363.123474,75.989838 
	C367.090118,75.987518 370.574005,75.987518 374.353088,75.987518 
	C374.353088,101.300804 374.353088,126.357140 374.353088,151.713745 
	C369.928101,151.713745 365.555176,151.713745 360.837158,151.713745 
	C360.837158,135.425964 360.837158,119.313866 360.837189,103.201759 
	C360.837189,95.376503 360.757721,87.549614 360.917938,79.727638 
	C360.943665,78.471245 362.039520,77.236763 363.123474,75.989838 
z"/>
<path fill="#FFFFFF" opacity="1.000000" stroke="none" 
	d="
M1019.122009,151.699478 
	C1018.692932,126.499413 1018.692932,101.550964 1018.692932,76.302429 
	C1023.074219,76.302429 1027.462158,76.302429 1032.048096,76.302429 
	C1032.048096,101.469185 1032.048096,126.502831 1032.048096,151.951096 
	C1027.787231,151.951096 1023.669128,151.951096 1019.122009,151.699478 
z"/>
<path fill="#ECECEC" opacity="1.000000" stroke="none" 
	d="
M892.587524,229.547943 
	C891.443298,224.954926 890.611877,220.701462 889.323547,216.591248 
	C888.921570,215.308685 887.285095,214.413101 886.213745,213.340363 
	C885.823059,213.625183 885.432434,213.909988 885.041809,214.194809 
	C885.041809,220.644653 885.041809,227.094482 885.041809,233.785110 
	C883.480347,233.785110 882.233521,233.785110 880.676147,233.785110 
	C880.676147,216.246933 880.676147,198.710571 880.676147,180.936798 
	C884.404480,180.936798 888.033813,180.691284 891.613647,181.007263 
	C895.052551,181.310806 897.026184,183.704437 897.125488,187.065277 
	C897.321716,193.700241 897.205566,200.344498 897.208008,206.984909 
	C897.208130,207.313400 897.224426,207.746918 897.037048,207.955231 
	C890.774841,214.918900 896.227478,221.803375 897.189209,228.702301 
	C897.414490,230.318268 897.956970,231.890015 898.365479,233.530090 
	C894.618469,234.966919 892.874756,233.664169 892.587524,229.547943 
M887.307373,184.856186 
	C886.546021,185.421677 885.133240,185.974442 885.121948,186.554581 
	C884.973572,194.150986 885.023315,201.751282 885.023315,209.304123 
	C892.087952,209.767624 892.900818,209.078308 892.972290,202.777267 
	C893.021301,198.451569 892.960999,194.124725 892.964417,189.798386 
	C892.966919,186.619339 891.684692,184.696503 887.307373,184.856186 
z"/>
<path fill="#FBFBFB" opacity="1.000000" stroke="none" 
	d="
M780.999817,99.084915 
	C787.790283,99.084915 794.080933,99.084915 800.643066,99.084915 
	C800.643066,103.196930 800.643066,106.937408 800.643066,111.017868 
	C787.240173,111.017868 773.871277,111.017868 760.255493,111.017868 
	C760.255493,107.261986 760.255493,103.495331 760.255493,99.084915 
	C766.986633,99.084915 773.743347,99.084915 780.999817,99.084915 
z"/>
<path fill="#ECECEC" opacity="1.000000" stroke="none" 
	d="
M572.058411,229.605927 
	C571.877014,219.918854 571.547974,210.622467 571.764465,201.338821 
	C571.896729,195.670883 574.429321,193.618958 579.905457,193.472748 
	C585.537292,193.322388 588.227295,195.515442 588.658447,201.300323 
	C588.987244,205.711624 588.723694,210.167068 588.723694,214.981995 
	C584.312012,214.981995 580.397949,214.981995 576.156311,214.981995 
	C576.156311,219.132202 575.783447,222.960297 576.333191,226.650955 
	C576.564819,228.206085 578.543396,230.323898 580.079712,230.683701 
	C582.929443,231.351135 584.135010,229.189133 584.099060,226.423843 
	C584.075378,224.603989 584.094604,222.783585 584.094604,220.817917 
	C587.653259,219.170593 589.091797,220.277817 588.810059,223.973694 
	C588.498169,228.064774 589.039612,232.795532 583.648926,234.037674 
	C579.158142,235.072433 574.586548,235.287338 572.058411,229.605927 
M578.855713,197.290466 
	C573.521912,201.214203 577.237122,206.509842 576.004272,210.952972 
	C579.152771,210.952972 581.548218,210.952972 584.118591,210.952972 
	C584.118591,207.646912 584.103088,204.687454 584.122925,201.728241 
	C584.143005,198.724380 582.863586,197.017212 578.855713,197.290466 
z"/>
<path fill="#F1F1F1" opacity="1.000000" stroke="none" 
	d="
M781.849792,234.007324 
	C772.234009,235.390213 769.377930,233.151169 769.208557,224.083405 
	C769.071838,216.767136 768.988708,209.435150 769.312622,202.129227 
	C769.622681,195.136795 773.411316,192.529434 780.368408,193.716125 
	C783.808899,194.302979 785.908142,196.201935 786.062500,199.607330 
	C786.286865,204.558929 786.120056,209.528244 786.120056,214.942001 
	C782.132568,214.942001 778.225769,214.942001 773.996826,214.942001 
	C773.996826,219.327682 773.673523,223.313507 774.171814,227.193832 
	C774.346741,228.556580 776.532898,230.614944 777.809814,230.621628 
	C779.163513,230.628693 781.251465,228.806946 781.715759,227.364548 
	C782.387634,225.277008 781.887756,222.812286 781.887756,220.387512 
	C783.566650,220.387512 784.775330,220.387512 786.361633,220.387512 
	C786.026123,225.446167 787.985596,230.776260 781.849792,234.007324 
M773.934692,204.691406 
	C773.934692,206.789520 773.934692,208.887634 773.934692,211.093994 
	C776.812805,211.093994 779.205627,211.093994 781.947693,211.093994 
	C781.947693,207.624435 782.380615,204.270248 781.761536,201.123016 
	C781.460693,199.593491 779.191956,198.451080 777.814087,197.133438 
	C776.533569,198.516556 775.136414,199.814743 774.034302,201.327820 
	C773.637634,201.872513 773.950378,202.933929 773.934692,204.691406 
z"/>
<path fill="#E8E8E8" opacity="1.000000" stroke="none" 
	d="
M481.222168,224.687622 
	C481.221588,214.414978 481.221588,204.603836 481.221588,194.377365 
	C482.728516,194.201828 484.094269,194.042755 485.632080,193.863617 
	C485.784302,194.797546 485.975830,195.429901 485.977173,196.062637 
	C485.997589,205.553162 485.956573,215.043991 486.017578,224.534180 
	C486.034821,227.214493 485.130341,230.929276 489.523743,230.784454 
	C493.487305,230.653793 494.446045,227.624390 494.413300,224.032455 
	C494.323883,214.229126 494.382507,204.424469 494.382507,194.238663 
	C496.012756,194.165939 497.356140,194.106003 498.857056,194.039047 
	C498.857056,207.523758 498.857056,220.630753 498.857056,234.842712 
	C496.603790,233.688889 494.934875,232.834274 494.514954,232.619247 
	C490.890961,233.179016 487.825531,234.486557 485.218964,233.866180 
	C480.952881,232.850815 481.455261,228.600494 481.222168,224.687622 
z"/>
<path fill="#EEEEEE" opacity="1.000000" stroke="none" 
	d="
M733.015198,230.971878 
	C731.133545,232.100204 729.084778,234.324371 727.413940,234.069672 
	C725.478699,233.774719 722.955322,231.621262 722.290649,229.715454 
	C719.671082,222.204315 722.473755,216.002365 729.551392,212.088516 
	C733.793030,209.742935 735.977539,203.755280 733.879944,199.310303 
	C733.394226,198.281189 731.474121,197.150726 730.459473,197.345444 
	C729.174255,197.592072 727.441589,198.974564 727.148987,200.171951 
	C726.614746,202.358231 726.997131,204.768524 726.997131,207.221664 
	C723.802124,208.362900 722.150940,208.167892 722.093750,204.346954 
	C721.981079,196.829819 724.352356,193.569809 730.542114,193.466476 
	C736.076538,193.374084 738.758301,195.529358 738.872070,201.096252 
	C739.092957,211.903580 738.936768,222.718613 737.774231,234.706314 
	C736.419373,233.560669 735.064514,232.415024 733.021973,230.788696 
	C733.233093,225.019028 734.131958,219.730042 735.148621,213.747772 
	C726.685791,216.441513 725.681091,220.908493 726.202637,227.054306 
	C726.594971,231.676956 730.388855,230.287323 733.015198,230.971878 
z"/>
<path fill="#F1F1F1" opacity="1.000000" stroke="none" 
	d="
M664.697998,229.862762 
	C664.414612,219.855179 664.021484,210.230713 664.244629,200.620544 
	C664.363953,195.482132 667.577576,193.325211 673.125244,193.494034 
	C678.382385,193.654007 680.758789,195.774704 681.013000,201.054062 
	C681.227356,205.504532 681.057129,209.973526 681.057129,214.906738 
	C676.935242,214.906738 673.029175,214.906738 668.828247,214.906738 
	C668.828247,219.301834 668.514404,223.272079 668.996704,227.143112 
	C669.167908,228.516968 671.276978,230.632111 672.499573,230.630829 
	C673.871216,230.629395 675.919373,228.863373 676.448792,227.416916 
	C677.203735,225.354263 676.844543,222.883820 676.969666,220.421402 
	C683.083801,219.132431 680.901672,223.720596 681.020264,226.110489 
	C681.201538,229.763260 680.364136,233.317230 675.983643,234.082947 
	C671.677612,234.835648 667.234924,235.352798 664.697998,229.862762 
M668.662170,207.544785 
	C669.077332,211.880783 670.225647,212.310257 676.549316,210.526505 
	C676.549316,207.075943 676.934143,203.572174 676.349548,200.238419 
	C676.132568,199.001175 673.686035,197.475281 672.173767,197.379105 
	C671.131470,197.312790 669.416321,199.302643 668.958801,200.689316 
	C668.365234,202.488022 668.722595,204.600464 668.662170,207.544785 
z"/>
<path fill="#F8F8F8" opacity="1.000000" stroke="none" 
	d="
M837.743042,233.928162 
	C827.838135,235.439667 825.098328,233.270889 824.948914,223.849380 
	C824.833130,216.548721 824.827942,209.240250 825.031372,201.942444 
	C825.202820,195.793671 827.735901,193.490784 833.652771,193.501587 
	C839.398315,193.512070 841.923645,195.633362 842.107117,201.543381 
	C842.364380,209.830200 842.484741,218.149612 841.988403,226.414551 
	C841.835815,228.955322 839.473022,231.363373 837.743042,233.928162 
M829.278503,203.918777 
	C829.298035,211.214554 829.291931,218.510529 829.349609,225.806015 
	C829.372986,228.764526 830.231750,231.100510 833.872620,230.924866 
	C837.203369,230.764175 837.888733,228.525482 837.895508,225.783936 
	C837.913879,218.321365 837.943298,210.858627 837.907043,203.396240 
	C837.893311,200.570755 838.131165,197.427277 834.056335,197.116211 
	C829.698242,196.783508 829.409363,199.860123 829.278503,203.918777 
z"/>
<path fill="#F1F1F1" opacity="1.000000" stroke="none" 
	d="
M748.259277,195.286194 
	C758.168640,191.025543 763.233093,194.368042 763.036804,204.335312 
	C762.972290,207.610504 761.877014,208.551117 758.281555,207.272064 
	C758.281555,205.182373 758.689331,202.788651 758.133728,200.644608 
	C757.781677,199.286316 755.932068,197.316147 754.865906,197.383743 
	C753.369202,197.478607 750.768982,199.167664 750.729187,200.251678 
	C750.393555,209.379486 750.389404,218.530045 750.719421,227.658081 
	C750.759888,228.777390 753.293152,230.500946 754.789856,230.636826 
	C755.843506,230.732498 757.718079,228.795807 758.121155,227.438461 
	C758.757141,225.296799 758.465454,222.879608 758.576233,220.354889 
	C760.041626,220.354889 761.271545,220.354889 762.953735,220.354889 
	C762.953735,222.371658 763.014343,224.169495 762.942627,225.962036 
	C762.696533,232.113480 760.239380,234.569489 754.415100,234.561066 
	C748.542786,234.552582 746.061157,232.211502 745.939148,225.990479 
	C745.782654,218.008194 745.758362,210.016159 745.997742,202.037964 
	C746.063232,199.857086 747.278076,197.710693 748.259277,195.286194 
z"/>
<path fill="#F1F1F1" opacity="1.000000" stroke="none" 
	d="
M565.987122,195.184601 
	C564.295959,208.288376 562.609924,220.946671 560.897339,233.804260 
	C558.320923,233.804260 555.891357,233.804260 553.183044,233.804260 
	C551.441162,220.716202 549.715881,207.752945 547.927734,194.317169 
	C549.407288,194.178360 550.778687,194.049713 552.639282,193.875153 
	C553.955444,205.581207 555.239807,217.004227 556.524109,228.427246 
	C556.851501,228.447495 557.178833,228.467758 557.506226,228.488007 
	C558.779602,217.184570 560.052979,205.881119 561.400757,193.917740 
	C563.086914,194.219376 564.539551,194.479233 565.987122,195.184601 
z"/>
<path fill="#E8E8E8" opacity="1.000000" stroke="none" 
	d="
M706.311218,203.169296 
	C705.605286,200.955414 704.826172,199.241348 704.222656,197.467514 
	C703.895203,196.505203 703.654785,194.567261 703.733521,194.548172 
	C708.026855,193.507477 705.998535,190.021011 706.322998,187.637085 
	C707.119019,181.789444 711.146301,178.690994 716.795959,180.223801 
	C717.817200,180.500870 718.499756,182.026199 719.819580,183.519302 
	C710.460754,184.341919 710.389221,184.441254 711.414062,193.772827 
	C713.467529,193.904877 715.562500,194.039597 717.816223,194.184525 
	C718.200439,199.973465 713.575012,196.597672 711.209106,198.438324 
	C711.209106,209.749985 711.209106,221.630814 711.209106,233.771896 
	C709.408875,233.771896 708.054871,233.771896 706.311218,233.771896 
	C706.311218,223.555740 706.311218,213.599976 706.311218,203.169296 
z"/>
<path fill="#E8E8E8" opacity="1.000000" stroke="none" 
	d="
M816.127197,183.953400 
	C810.416565,185.872620 813.953369,190.237808 812.630188,193.648727 
	C815.105896,193.851990 817.182983,194.022507 819.642456,194.224442 
	C819.891357,199.650757 815.402527,196.702942 813.011230,198.460205 
	C813.011230,209.787445 813.011230,221.669769 813.011230,233.838425 
	C811.261353,233.917358 809.991455,233.974655 808.548462,234.039749 
	C808.372437,233.294449 808.103699,232.682999 808.101929,232.070786 
	C808.073792,222.085342 808.171448,212.098053 807.981750,202.116104 
	C807.952148,200.559784 806.562378,199.059769 805.964294,197.472366 
	C805.607056,196.523972 805.361938,194.578903 805.412720,194.567047 
	C809.621338,193.585663 807.830688,190.207870 808.060852,187.800812 
	C808.624939,181.900284 813.365540,178.418198 818.882629,180.238693 
	C819.819824,180.547928 820.440735,181.815536 822.095154,183.594666 
	C819.333984,183.762665 817.949036,183.846939 816.127197,183.953400 
z"/>
<path fill="#E8E8E8" opacity="1.000000" stroke="none" 
	d="
M647.111084,201.354218 
	C646.646667,199.828171 646.177002,198.758942 645.719482,197.684494 
	C645.311523,196.726395 644.490356,194.962112 644.577576,194.915619 
	C649.855835,192.101883 645.656860,187.085953 647.823792,182.958984 
	C648.607300,182.868317 649.977966,182.709717 651.864136,182.491470 
	C651.864136,186.432175 651.864136,189.997604 651.864136,193.824005 
	C654.072754,193.927429 655.828613,194.009628 657.582947,194.091766 
	C657.417725,197.480759 657.417725,197.480759 651.956787,198.136124 
	C651.956787,207.863663 651.711060,217.652390 652.192566,227.405212 
	C652.275208,229.079758 655.455566,230.601349 657.945435,232.867584 
	C658.135010,232.612640 657.223694,234.440674 656.782410,234.333496 
	C653.901001,233.633591 650.724792,233.038254 648.464050,231.326813 
	C647.200623,230.370361 647.205566,227.339127 647.168274,225.233459 
	C647.030151,217.427322 647.112000,209.617310 647.111084,201.354218 
z"/>
<path fill="#EEEEEE" opacity="1.000000" stroke="none" 
	d="
M462.331299,197.352203 
	C465.251129,193.077850 464.224548,188.298782 464.746643,183.782639 
	C464.817627,183.168396 467.069885,182.806305 468.966827,182.075165 
	C468.966827,186.348068 468.966827,189.914978 468.966827,193.886627 
	C471.173462,193.886627 472.916412,193.886627 474.661194,193.886627 
	C474.603027,197.550491 474.603027,197.550491 469.075348,197.960510 
	C469.075348,207.687592 468.794006,217.468399 469.331787,227.203979 
	C469.429871,228.979263 472.869568,230.569977 475.446869,232.846786 
	C475.278534,232.980499 474.027771,234.613098 473.347748,234.402542 
	C470.547791,233.535629 467.381012,232.650330 465.422485,230.696060 
	C464.135132,229.411514 464.478149,226.290421 464.446838,223.986938 
	C464.345276,216.510635 464.493439,209.030167 464.326447,201.556213 
	C464.297058,200.240509 463.213287,198.948349 462.331299,197.352203 
z"/>
<path fill="#EEEEEE" opacity="1.000000" stroke="none" 
	d="
M520.518982,186.483307 
	C520.052673,182.581741 521.855835,182.120728 525.096924,183.030655 
	C525.096924,186.501282 525.096924,190.073578 525.096924,193.815430 
	C527.167175,193.909637 528.787415,193.983368 530.393005,194.056412 
	C530.813782,197.445984 530.813782,197.445984 525.061157,198.095932 
	C525.061157,207.670746 525.115295,217.286880 525.038147,226.901978 
	C524.999939,231.662781 528.637878,230.659744 532.795837,231.284637 
	C531.327759,232.775055 530.523804,234.320206 529.610901,234.387512 
	C526.281372,234.632950 522.656982,234.611679 521.258301,230.692947 
	C520.553101,228.717148 520.475342,226.451828 520.445129,224.312744 
	C520.348877,217.503220 520.505310,210.689301 520.354187,203.881760 
	C520.301575,201.513885 521.699341,198.525864 518.203125,197.059006 
	C517.866516,196.917770 517.886658,194.580444 518.186584,194.469788 
	C522.370544,192.926208 519.836792,189.429520 520.518982,186.483307 
z"/>
<path fill="#E6E6E6" opacity="1.000000" stroke="none" 
	d="
M608.960510,210.000000 
	C608.960510,200.043579 608.960510,190.587158 608.960510,181.130753 
	C609.348083,180.762650 609.735718,180.394547 610.123291,180.026443 
	C611.283325,181.102112 613.440186,182.165070 613.454102,183.255386 
	C613.668213,200.025085 613.603455,216.798340 613.603455,233.798248 
	C611.953674,233.890793 610.692627,233.961517 608.960510,234.058670 
	C608.960510,226.065292 608.960510,218.282639 608.960510,210.000000 
z"/>
<path fill="#E6E6E6" opacity="1.000000" stroke="none" 
	d="
M425.960449,194.012756 
	C425.960449,189.383148 425.960449,185.250320 425.960449,180.973999 
	C428.700745,180.386353 430.675171,179.968582 430.650482,183.769882 
	C430.543549,200.227905 430.604645,216.687012 430.604645,233.593735 
	C429.146729,233.784988 427.803650,233.961182 425.960449,234.202972 
	C425.960449,220.721573 425.960449,207.615570 425.960449,194.012756 
z"/>
<path fill="#FFFFFF" opacity="1.000000" stroke="none" 
	d="
M908.157288,220.943237 
	C908.157288,224.076523 908.157288,226.718079 908.157288,229.752609 
	C911.661194,229.752609 914.918152,229.752609 918.550232,229.752609 
	C918.670837,231.276520 918.762756,232.437317 918.869568,233.786652 
	C913.729126,233.786652 908.969910,233.786652 904.010864,233.786652 
	C904.010864,216.155792 904.010864,198.735062 904.010864,181.006088 
	C905.294739,181.006088 906.497986,181.006088 908.157288,181.006088 
	C908.157288,194.210159 908.157288,207.330826 908.157288,220.943237 
z"/>
<path fill="#E6E6E6" opacity="1.000000" stroke="none" 
	d="
M696.240967,197.886826 
	C692.223877,198.788177 692.011353,201.565872 692.018005,204.525452 
	C692.039612,214.135269 692.026123,223.745163 692.026123,233.775345 
	C690.520630,233.851608 689.173645,233.919861 687.575073,234.000839 
	C687.575073,220.590088 687.575073,207.537933 687.575073,193.310837 
	C689.661621,194.282547 691.207703,195.002548 693.120239,195.893173 
	C694.458069,195.343613 696.858887,194.357376 699.356506,193.331375 
	C700.857666,197.216034 699.313599,197.974152 696.240967,197.886826 
z"/>
<path fill="#E6E6E6" opacity="1.000000" stroke="none" 
	d="
M854.025940,226.914368 
	C854.025940,229.387680 854.025940,231.372971 854.025940,233.781113 
	C852.513123,233.851364 851.162842,233.914078 849.570435,233.988037 
	C849.570435,220.530930 849.570435,207.436920 849.570435,193.109436 
	C851.765747,194.293381 853.314026,195.128418 854.868530,195.966782 
	C856.516235,195.276245 858.816101,194.312393 861.115967,193.348541 
	C861.540955,193.868622 861.965881,194.388718 862.390808,194.908798 
	C861.400208,195.865097 860.468994,197.563568 859.408569,197.648529 
	C854.946716,198.006042 853.962158,200.634842 854.003174,204.451797 
	C854.081970,211.775894 854.026001,219.101425 854.025940,226.914368 
z"/>
<path fill="#F1F1F1" opacity="1.000000" stroke="none" 
	d="
M375.684357,51.650082 
	C375.798889,55.544315 375.798889,59.005894 375.798889,62.733856 
	C370.353394,62.733856 365.257324,62.733856 359.798096,62.733856 
	C359.798096,58.932266 359.798096,55.056305 359.798096,50.434910 
	C365.111816,50.698551 370.340820,50.957989 375.684357,51.650082 
z"/>
<path fill="#E6E6E6" opacity="1.000000" stroke="none" 
	d="
M445.313843,197.178864 
	C444.217926,199.759995 442.282806,202.307175 442.176727,204.928391 
	C441.793610,214.393127 442.026001,223.882812 442.026001,233.785431 
	C440.509369,233.852295 439.158661,233.911850 437.568542,233.981964 
	C437.568542,220.519623 437.568542,207.420868 437.568542,192.972260 
	C440.018036,194.445328 441.705658,195.460220 443.888245,196.506897 
	C444.693390,196.752075 445.003601,196.965469 445.313843,197.178864 
z"/>
<path fill="#E6E6E6" opacity="1.000000" stroke="none" 
	d="
M628.313782,197.178894 
	C627.217834,199.760056 625.282715,202.307251 625.176636,204.928467 
	C624.793518,214.393234 625.025940,223.882904 625.025940,233.785507 
	C623.510620,233.852264 622.161011,233.911743 620.568481,233.981903 
	C620.568481,220.519577 620.568481,207.420837 620.568481,192.972244 
	C623.018066,194.445312 624.705688,195.460205 626.888306,196.506866 
	C627.693359,196.752060 628.003601,196.965469 628.313782,197.178894 
z"/>
<path fill="#FBFAFA" opacity="1.000000" stroke="none" 
	d="
M1029.713135,62.990166 
	C1025.452271,62.990227 1021.656372,62.990227 1017.518066,62.990227 
	C1017.518066,58.934963 1017.518066,55.084091 1017.518066,50.946247 
	C1022.666931,50.946247 1027.719360,50.946247 1033.449097,50.946247 
	C1033.449097,54.212811 1033.680786,57.476349 1033.299072,60.666481 
	C1033.193115,61.552803 1031.268555,62.221535 1029.713135,62.990166 
z"/>
<path fill="#E6E6E6" opacity="1.000000" stroke="none" 
	d="
M506.400055,231.560074 
	C506.395691,218.977432 506.395691,206.857224 506.395691,194.323242 
	C507.936035,194.187805 509.277008,194.069916 510.847351,193.931839 
	C510.847351,207.367325 510.847351,220.447052 510.847351,234.916504 
	C508.966705,233.691498 507.685547,232.857010 506.400055,231.560074 
z"/>
<path fill="#FCFCFC" opacity="1.000000" stroke="none" 
	d="
M628.698853,197.156708 
	C628.003601,196.965469 627.693359,196.752060 627.211426,196.313873 
	C629.509033,195.396530 632.239197,193.745514 634.362549,194.323639 
	C635.974426,194.762512 637.774658,198.009506 637.836853,200.057266 
	C638.174194,211.155746 637.996887,222.269836 637.996887,233.720795 
	C636.663818,233.807037 635.447754,233.885712 634.157593,233.969193 
	C633.954712,233.282394 633.709106,232.836334 633.707764,232.389572 
	C633.678345,222.426453 633.694397,212.463181 633.656860,202.500122 
	C633.645447,199.477631 633.289001,196.635910 628.698853,197.156708 
z"/>
<path fill="#FCFCFC" opacity="1.000000" stroke="none" 
	d="
M445.698914,197.156677 
	C445.003601,196.965469 444.693390,196.752075 444.211426,196.313934 
	C446.509003,195.396561 449.239227,193.745529 451.362518,194.323669 
	C452.974426,194.762527 454.774597,198.009521 454.836853,200.057297 
	C455.174194,211.155762 454.996918,222.269867 454.996918,233.720810 
	C453.663849,233.807053 452.447754,233.885742 451.157349,233.969238 
	C450.954620,233.282410 450.709167,232.836349 450.707825,232.389572 
	C450.678375,222.426453 450.694427,212.463165 450.656860,202.500107 
	C450.645477,199.477585 450.288971,196.635910 445.698914,197.156677 
z"/>
<path fill="#FFFFFF" opacity="1.000000" stroke="none" 
	d="
M542.190430,207.007751 
	C542.190430,216.114380 542.190430,224.721756 542.190430,233.660721 
	C540.843201,233.777588 539.627258,233.883057 538.115295,234.014206 
	C538.115295,220.718079 538.115295,207.696823 538.115295,194.315430 
	C539.185425,194.222778 540.397705,194.117798 542.190430,193.962570 
	C542.190430,198.333466 542.190430,202.420975 542.190430,207.007751 
z"/>
<path fill="#E6E6E6" opacity="1.000000" stroke="none" 
	d="
M540.776611,186.049194 
	C539.080261,185.979568 537.810425,185.909409 536.388184,185.830826 
	C536.388184,184.097061 536.388184,182.667862 536.388184,180.915161 
	C538.665283,180.915161 540.865479,180.915161 544.951904,180.915161 
	C543.258850,183.233566 542.231018,184.641098 540.776611,186.049194 
z"/>
<path fill="#FAFAFA" opacity="1.000000" stroke="none" 
	d="
M511.763123,181.136658 
	C512.078369,182.905594 512.078369,184.314514 512.078369,185.862213 
	C509.705017,185.862213 507.775543,185.862213 505.313904,185.862213 
	C505.226898,184.417053 505.135742,182.903122 505.007721,180.776627 
	C507.352081,180.776627 509.399963,180.776627 511.763123,181.136658 
z"/>
<path fill="#131212" opacity="1.000000" stroke="none" 
	d="
M190.731201,124.568893 
	C191.771866,130.818436 192.800354,136.701218 193.414230,142.626953 
	C195.112320,159.018890 197.113327,175.399628 198.118362,191.838379 
	C199.595139,215.992722 184.177902,235.445877 160.470581,240.449600 
	C143.075287,244.121078 123.678368,235.990234 113.716469,221.380310 
	C105.751427,209.698944 97.268036,198.371552 89.049789,186.862030 
	C85.708961,182.183243 86.022263,177.881943 89.793732,175.013153 
	C93.394737,172.274048 97.689018,173.438232 101.159927,178.136108 
	C103.137375,180.812592 105.044586,183.540924 107.016060,186.221893 
	C108.619827,188.402832 110.578430,190.080719 113.293770,188.183731 
	C116.209007,186.147125 115.296410,183.634720 113.591911,181.242569 
	C109.440750,175.416748 105.259666,169.612076 101.136688,163.766403 
	C97.962906,159.266541 98.201591,154.953323 101.685410,152.264526 
	C105.273262,149.495453 109.901245,150.568497 113.245956,155.082443 
	C116.812248,159.895432 120.334953,164.743774 123.749290,169.665070 
	C125.588791,172.316437 127.663498,174.887177 130.944107,172.489090 
	C134.338455,170.007858 132.109711,167.236404 130.311600,164.742996 
	C124.666855,156.915619 119.025009,149.085938 113.423752,141.227432 
	C109.878807,136.253922 110.252068,131.997223 114.393219,129.063705 
	C117.873260,126.598511 122.073761,127.782166 125.414574,132.373276 
	C130.700638,139.637634 135.875031,146.983154 141.113083,154.282578 
	C142.888885,156.757217 144.827087,159.743546 148.289551,157.342270 
	C151.762512,154.933746 149.704559,152.118866 147.896683,149.595398 
	C131.035461,126.060287 114.178253,102.522316 97.321457,78.984055 
	C96.739899,78.171989 96.144798,77.367332 95.607033,76.526604 
	C93.044754,72.520767 93.596474,68.379944 97.000679,65.921326 
	C100.313087,63.529007 104.888092,64.109612 107.615852,67.781593 
	C113.568558,75.794846 119.260612,84.001427 125.079460,92.114464 
	C140.207901,113.207535 155.344086,134.295059 170.486938,155.377777 
	C172.121216,157.653091 173.863586,160.964096 177.026642,158.856903 
	C178.596024,157.811401 179.305695,154.382919 179.185516,152.096603 
	C178.810211,144.957031 177.872177,137.846085 177.115845,130.727905 
	C176.687210,126.693901 177.790710,123.434273 181.721832,121.697273 
	C185.299194,120.116585 188.178787,121.336845 190.731201,124.568893 
z"/>
<path fill="#181717" opacity="1.000000" stroke="none" 
	d="
M69.014908,60.320415 
	C63.702904,80.625969 75.916656,99.048195 96.832375,101.281265 
	C103.187469,101.959755 106.287979,104.685692 108.747864,109.627869 
	C92.036446,115.061142 73.917664,106.494232 64.224655,91.612259 
	C53.718243,75.481430 56.802071,52.425007 71.309196,39.165104 
	C86.815140,24.992262 109.202713,24.215984 125.637054,37.281322 
	C142.031372,50.314842 145.981750,72.147820 135.175705,91.399712 
	C131.804901,87.349815 128.692566,84.352180 130.586884,77.749969 
	C135.525116,60.538990 125.741783,44.295441 108.393242,38.773312 
	C92.370529,33.673206 75.775497,42.601772 69.014908,60.320415 
z"/>
<path fill="#181717" opacity="1.000000" stroke="none" 
	d="
M85.762222,71.974609 
	C87.982635,77.118744 90.079796,81.893585 92.474823,86.514030 
	C93.602295,88.689125 95.302177,90.567513 96.875259,92.765594 
	C84.052422,92.060287 74.527008,79.867348 76.047928,66.556229 
	C77.576004,53.182308 90.869606,43.581646 104.154289,46.257759 
	C117.349098,48.915768 126.019318,61.801956 122.619263,74.309746 
	C119.737282,70.355980 117.139297,66.527191 114.269157,62.914619 
	C109.647141,57.096992 103.086205,55.020126 96.565796,57.049259 
	C89.931129,59.113945 86.487297,63.733295 85.762222,71.974609 
z"/>
<path fill="#121111" opacity="1.000000" stroke="none" 
	d="
M269.770020,66.111160 
	C269.929962,64.846161 269.826752,63.642292 270.289124,63.357861 
	C275.435425,60.192139 283.671234,64.125153 283.904022,70.130959 
	C284.238464,78.758377 284.141785,87.411865 283.933624,96.047104 
	C283.826263,100.500061 281.245880,103.052704 276.621765,103.152580 
	C274.499054,103.198433 272.374542,103.160385 269.769562,103.160385 
	C269.769562,90.764847 269.769562,78.682068 269.770020,66.111160 
z"/>
<path fill="#191818" opacity="1.000000" stroke="none" 
	d="
M976.491821,124.832359 
	C976.593018,113.892799 976.722961,103.433693 976.807007,92.974220 
	C976.838989,88.998466 977.562805,85.569786 982.443237,85.150230 
	C987.208191,84.740608 992.550232,88.348785 992.620667,92.720505 
	C992.850586,106.996643 992.857422,121.281776 992.597778,135.557037 
	C992.522583,139.690399 987.294922,143.125916 982.676270,142.866074 
	C977.829041,142.593338 976.834778,139.335159 976.801819,135.270721 
	C976.774963,131.950790 976.607422,128.631973 976.491821,124.832359 
z"/>
<path fill="#191818" opacity="1.000000" stroke="none" 
	d="
M329.006165,106.669800 
	C326.569000,106.669792 324.603210,106.669792 322.306274,106.669792 
	C322.306274,101.002090 322.026276,95.602631 322.398560,90.248520 
	C322.675232,86.269569 325.959015,85.453545 329.345337,85.452660 
	C332.915222,85.451721 335.668396,86.898361 335.864136,90.763626 
	C336.122437,95.863411 335.927643,100.986137 335.927643,106.669807 
	C333.685547,106.669807 331.581543,106.669807 329.006165,106.669800 
z"/>
<path fill="#1D1C1C" opacity="1.000000" stroke="none" 
	d="
M657.299805,105.269211 
	C652.757263,106.158600 648.289185,106.616066 643.678650,107.088120 
	C643.678650,100.934456 643.444824,95.528885 643.753906,90.154533 
	C643.994080,85.978600 647.423401,85.458473 650.718201,85.469452 
	C653.992798,85.480362 656.772766,86.649635 657.009521,90.411385 
	C657.311340,95.208687 657.268494,100.027672 657.299805,105.269211 
z"/>
<path fill="#141313" opacity="1.000000" stroke="none" 
	d="
M1072.745850,138.240768 
	C1070.529785,143.171112 1066.666748,142.847794 1062.800415,142.116150 
	C1058.827271,141.364288 1058.174927,138.113480 1058.154175,134.864090 
	C1058.064941,120.902542 1057.999390,106.938530 1058.179688,92.978706 
	C1058.251221,87.447388 1060.701904,85.382935 1065.920288,85.473457 
	C1070.900024,85.559837 1073.039429,87.562958 1073.056152,92.958466 
	C1073.102539,107.911919 1072.950317,122.865982 1072.745850,138.240768 
z"/>
<path fill="#181717" opacity="1.000000" stroke="none" 
	d="
M499.215881,87.340714 
	C507.793396,83.254128 512.200684,85.609261 512.341492,94.404266 
	C512.557251,107.877457 512.480774,121.358688 512.296204,134.833328 
	C512.217346,140.592102 510.341431,142.377472 505.394562,142.559998 
	C500.130646,142.754242 497.601349,140.809570 497.507263,135.249252 
	C497.267975,121.109329 497.371704,106.962296 497.489532,92.819366 
	C497.503967,91.087936 498.442261,89.364220 499.215881,87.340714 
z"/>
<path fill="#141313" opacity="1.000000" stroke="none" 
	d="
M887.763672,184.857117 
	C891.684692,184.696503 892.966919,186.619339 892.964417,189.798386 
	C892.960999,194.124725 893.021301,198.451569 892.972290,202.777267 
	C892.900818,209.078308 892.087952,209.767624 885.023315,209.304123 
	C885.023315,201.751282 884.973572,194.150986 885.121948,186.554581 
	C885.133240,185.974442 886.546021,185.421677 887.763672,184.857117 
z"/>
<path fill="#181717" opacity="1.000000" stroke="none" 
	d="
M579.264221,197.221283 
	C582.863586,197.017212 584.143005,198.724380 584.122925,201.728241 
	C584.103088,204.687454 584.118591,207.646912 584.118591,210.952972 
	C581.548218,210.952972 579.152771,210.952972 576.004272,210.952972 
	C577.237122,206.509842 573.521912,201.214203 579.264221,197.221283 
z"/>
<path fill="#141313" opacity="1.000000" stroke="none" 
	d="
M773.937012,204.225464 
	C773.950378,202.933929 773.637634,201.872513 774.034302,201.327820 
	C775.136414,199.814743 776.533569,198.516556 777.814087,197.133423 
	C779.191956,198.451080 781.460693,199.593491 781.761536,201.123016 
	C782.380615,204.270248 781.947693,207.624435 781.947693,211.093994 
	C779.205627,211.093994 776.812805,211.093994 773.934692,211.093994 
	C773.934692,208.887634 773.934692,206.789520 773.937012,204.225464 
z"/>
<path fill="#191818" opacity="1.000000" stroke="none" 
	d="
M732.979736,230.973236 
	C730.388855,230.287323 726.594971,231.676956 726.202637,227.054306 
	C725.681091,220.908493 726.685791,216.441513 735.148621,213.747772 
	C734.131958,219.730042 733.233093,225.019028 732.639282,230.676804 
	C732.944275,231.045593 732.944275,230.974594 732.979736,230.973236 
z"/>
<path fill="#191818" opacity="1.000000" stroke="none" 
	d="
M668.666382,207.061325 
	C668.722595,204.600464 668.365234,202.488022 668.958801,200.689316 
	C669.416321,199.302643 671.131470,197.312790 672.173767,197.379105 
	C673.686035,197.475281 676.132568,199.001175 676.349548,200.238419 
	C676.934143,203.572174 676.549316,207.075943 676.549316,210.526505 
	C670.225647,212.310257 669.077332,211.880783 668.666382,207.061325 
z"/>
<path fill="#1D1C1C" opacity="1.000000" stroke="none" 
	d="
M829.292969,203.470764 
	C829.409363,199.860123 829.698242,196.783508 834.056335,197.116211 
	C838.131165,197.427277 837.893311,200.570755 837.907043,203.396240 
	C837.943298,210.858627 837.913879,218.321365 837.895508,225.783936 
	C837.888733,228.525482 837.203369,230.764175 833.872620,230.924866 
	C830.231750,231.100510 829.372986,228.764526 829.349609,225.806015 
	C829.291931,218.510529 829.298035,211.214554 829.292969,203.470764 
z"/>
</svg>