<svg version="1.1" id="Layer_1" xmlns="http://www.w3.org/2000/svg" xmlns:xlink="http://www.w3.org/1999/xlink" x="0px" y="0px"
	 width="100%" viewBox="0 0 1280 640" enable-background="new 0 0 1280 640" xml:space="preserve">
<path fill="#000000" opacity="1.000000" stroke="none" 
	d="
M930.000000,641.000000 
	C620.040283,641.000000 310.580536,641.000000 1.060407,641.000000 
	C1.060407,427.734711 1.060407,214.469406 1.060407,1.102044 
	C427.543121,1.102044 854.086243,1.102044 1280.814697,1.102044 
	C1280.814697,214.333206 1280.814697,427.666595 1280.814697,641.000000 
	C1164.135986,641.000000 1047.317993,641.000000 930.000000,641.000000 
M592.225342,68.791084 
	C587.705322,71.182892 582.833740,73.087067 578.725342,76.049698 
	C559.429016,89.964592 550.764832,109.119698 554.657288,132.483963 
	C560.318542,166.465851 591.989014,186.621582 625.938110,179.113388 
	C627.227844,178.828140 628.673645,179.249115 629.160950,179.281723 
	C625.072205,182.956223 620.406433,186.129211 617.120300,190.371017 
	C613.344299,195.245041 614.277954,201.308670 616.068542,206.938919 
	C602.277710,211.845383 598.433472,219.147339 601.827942,233.556091 
	C586.076172,238.497040 581.606689,251.209122 591.063965,264.423187 
	C600.716675,277.910339 610.322021,291.435181 620.202209,304.755096 
	C648.953186,343.515686 708.393738,337.448364 728.952393,293.730927 
	C734.881165,281.123657 735.804871,267.974274 734.234985,254.244537 
	C731.757080,232.574371 730.073364,210.814606 727.846802,189.113968 
	C726.815063,179.057938 717.580872,171.599716 708.154724,172.727737 
	C697.625061,173.987823 690.485779,182.817017 691.517761,193.261505 
	C691.822144,196.342133 692.035339,199.431747 692.290283,202.517242 
	C690.563110,201.562851 689.606812,200.291168 688.682068,198.996979 
	C679.588684,186.270477 670.606873,173.461899 661.332764,160.868637 
	C659.136108,157.885788 658.959473,155.828598 660.970764,152.633347 
	C668.751404,140.272812 671.255249,126.620125 668.436890,112.394432 
	C661.429810,77.025368 627.961426,57.708447 592.225342,68.791084 
M650.359192,360.852692 
	C650.285828,372.182465 650.095581,383.513000 650.168091,394.841827 
	C650.263000,409.664856 650.205444,424.503632 650.906677,439.302765 
	C651.365356,448.982513 655.965149,453.450378 665.484253,454.625824 
	C669.554382,455.128448 673.845093,455.001495 677.890198,454.309967 
	C686.347534,452.864105 690.144165,448.412201 691.084778,439.815796 
	C691.320068,437.665833 691.501831,435.497101 691.505066,433.336670 
	C691.540833,409.511108 691.542480,385.685455 691.525696,361.859833 
	C691.524841,360.615540 691.274719,359.371399 691.166260,358.364807 
	C686.683594,358.364807 682.620605,358.364807 678.449219,358.364807 
	C678.449219,361.224640 678.452759,363.707214 678.448669,366.189819 
	C678.410339,389.515747 678.406738,412.841827 678.307739,436.167511 
	C678.280701,442.535004 675.393616,444.878113 669.197754,444.047546 
	C664.075073,443.360809 663.542236,439.696014 663.539612,435.604584 
	C663.524170,411.612732 663.496948,387.620911 663.474182,363.629059 
	C663.472473,361.838135 663.473938,360.047211 663.473938,357.987366 
	C659.708313,357.987366 656.380066,357.847717 653.077271,358.076019 
	C652.137695,358.140961 651.272156,359.276367 650.359192,360.852692 
M260.085480,430.516602 
	C260.085480,426.926758 260.085480,423.336945 260.085480,420.071503 
	C264.567719,418.442230 265.973358,420.298828 266.814728,423.866577 
	C269.171112,433.858368 271.823975,443.780212 274.373138,453.781769 
	C279.054565,453.781769 283.477966,453.781769 288.262268,453.781769 
	C284.794281,441.524841 281.410919,429.566895 278.483002,419.218597 
	C281.386414,414.386017 285.279633,410.779327 285.553894,406.915771 
	C286.409241,394.866394 286.406525,382.689972 285.701660,370.623260 
	C285.336426,364.371429 280.746643,359.769653 274.297119,359.067719 
	C265.310791,358.089661 256.221283,358.059845 247.305908,357.630463 
	C247.305908,390.372284 247.305908,422.103851 247.305908,453.721191 
	C251.704407,453.721191 255.789444,453.721191 260.085480,453.721191 
	C260.085480,446.130432 260.085480,438.822205 260.085480,430.516602 
M780.369690,418.561188 
	C778.076538,418.561188 775.783386,418.561188 773.224121,418.561188 
	C773.224121,425.749359 772.697937,432.432709 773.347412,438.999786 
	C774.321960,448.853088 778.743958,453.475555 787.876587,454.594025 
	C792.099060,455.111176 796.523376,454.762115 800.765381,454.163025 
	C807.918579,453.152832 812.230591,448.529755 812.923889,441.545807 
	C813.692932,433.798828 814.212646,425.880371 813.479919,418.165863 
	C812.420837,407.014465 808.566223,403.473022 797.499939,400.722198 
	C795.726196,400.281311 793.973389,399.741791 792.184082,399.380676 
	C788.361084,398.609039 786.286987,396.068420 786.116333,392.443848 
	C785.819153,386.135223 785.811707,379.798401 786.032776,373.485687 
	C786.154236,370.016022 788.491516,368.240967 791.959961,367.918762 
	C797.884888,367.368347 800.625610,369.636566 800.839172,375.816833 
	C801.032166,381.397980 800.879944,386.991028 800.879944,392.643066 
	C805.329590,392.643066 809.102905,392.643066 813.068787,392.643066 
	C813.068787,385.832214 813.481079,379.176361 812.970093,372.592133 
	C812.242126,363.211060 807.426025,358.380768 798.191284,357.298370 
	C794.591125,356.876373 790.824524,356.920898 787.244202,357.471466 
	C778.339539,358.840790 773.844360,363.381927 773.180908,372.335022 
	C772.628784,379.785797 772.608826,387.334198 773.103882,394.789520 
	C773.710571,403.924927 777.979553,408.456390 786.910095,410.873169 
	C789.316162,411.524231 791.716125,412.227936 794.158020,412.708862 
	C797.755798,413.417450 799.881226,415.617188 800.138123,419.116913 
	C800.575439,425.075104 800.956726,431.072937 800.747314,437.032501 
	C800.559387,442.380646 798.214844,444.190094 793.143555,444.123871 
	C788.078064,444.057739 786.049500,442.308899 785.777100,436.792114 
	C785.484924,430.874756 785.711182,424.931763 785.711182,418.768799 
	C783.863892,418.682739 782.560364,418.622009 780.369690,418.561188 
M917.687256,443.550690 
	C919.719788,446.807190 920.996765,451.323883 923.928101,453.081390 
	C932.362671,458.138428 939.079285,453.779938 945.106140,445.289337 
	C945.106140,449.382904 945.106140,451.485657 945.106140,453.642944 
	C949.628296,453.642944 953.826294,453.642944 957.747192,453.642944 
	C957.747192,421.564880 957.747192,389.850952 957.747192,358.346069 
	C953.334595,358.346069 949.267639,358.346069 944.829773,358.346069 
	C944.829773,368.742706 944.829773,378.790741 944.829773,388.838745 
	C942.906494,388.161041 942.194519,386.621338 940.991394,385.890961 
	C938.001831,384.076263 934.893372,381.563843 931.644287,381.243805 
	C923.065979,380.398834 917.575134,385.512054 917.300659,395.306305 
	C916.858032,411.097290 917.359131,426.914703 917.687256,443.550690 
M503.269531,416.574829 
	C503.183289,410.922150 503.246765,405.262451 502.980682,399.618256 
	C502.359711,386.444519 496.693359,381.103302 483.514771,381.018646 
	C470.215393,380.933197 463.821228,385.421448 463.258850,396.999725 
	C462.582458,410.926208 462.681580,424.926788 463.233643,438.864075 
	C463.624573,448.732971 468.620697,453.591125 477.931427,454.710144 
	C481.366699,455.123016 484.940460,455.106873 488.373291,454.672211 
	C496.643402,453.625122 500.829132,450.186035 502.004547,441.884430 
	C503.138702,433.874237 502.907532,425.670685 503.269531,416.574829 
M609.107483,383.353760 
	C604.660706,385.819244 602.056824,389.835114 601.947510,394.657715 
	C601.597900,410.088043 601.180054,425.554016 601.881836,440.956421 
	C602.272766,449.537323 606.762756,453.346466 615.239990,454.503967 
	C619.445679,455.078217 623.861267,454.752563 628.108887,454.234802 
	C634.705017,453.430725 638.558838,449.154541 639.564514,442.817902 
	C640.333252,437.974335 640.184387,432.985199 640.449829,427.945068 
	C635.795471,427.945068 631.873230,427.945068 627.289490,427.945068 
	C627.289490,431.923004 627.359802,435.703583 627.270081,439.480316 
	C627.176819,443.406921 624.931824,445.060120 621.135498,445.049957 
	C617.542603,445.040344 614.715332,443.902374 614.594116,439.876862 
	C614.400085,433.436005 614.542114,426.985077 614.542114,420.180237 
	C622.959106,420.180237 631.385559,420.180237 639.910889,420.180237 
	C639.910889,411.379578 640.340393,402.907379 639.781555,394.500916 
	C639.291992,387.135681 635.311340,382.675110 627.908081,381.899292 
	C621.980408,381.278076 615.850891,382.582825 609.107483,383.353760 
M336.004333,437.305328 
	C336.004333,434.205475 336.004333,431.105652 336.004333,428.126160 
	C331.402130,428.126160 327.365021,428.126160 323.078125,428.126160 
	C323.078125,432.186005 323.165375,435.847656 323.054413,439.503265 
	C322.935211,443.430542 320.636078,445.037323 316.857239,445.051971 
	C313.205078,445.066101 310.418213,443.744232 310.259644,439.841827 
	C309.997833,433.398102 310.188568,426.936005 310.188568,420.109131 
	C318.881409,420.109131 327.320648,420.109131 335.909149,420.109131 
	C335.909149,411.913208 336.252472,404.076477 335.820648,396.282654 
	C335.302429,386.930023 330.352448,382.162048 321.008301,381.186493 
	C318.699402,380.945404 316.343079,380.973206 314.019318,381.090485 
	C303.415863,381.625519 297.515228,386.977264 297.179626,397.608002 
	C296.743561,411.419830 296.759369,425.265930 297.190857,439.078247 
	C297.495514,448.829803 302.836823,453.793335 312.566101,454.847229 
	C327.803375,456.497772 334.732239,451.576904 336.004333,437.305328 
M994.521423,437.862915 
	C996.469666,450.644501 1001.058289,454.801331 1013.413757,454.977417 
	C1028.107178,455.186890 1033.571411,450.807129 1034.459839,435.971344 
	C1035.203369,423.552032 1035.165039,410.996643 1034.251099,398.591553 
	C1033.261353,385.159637 1027.863525,381.004456 1014.445923,381.022064 
	C1013.448059,381.023376 1012.448364,381.024353 1011.452515,381.079681 
	C1001.137695,381.653107 995.676697,385.899811 995.020508,396.117920 
	C994.148621,409.694336 994.539612,423.351868 994.521423,437.862915 
M873.919800,453.934998 
	C882.372314,457.277496 888.277161,452.992889 894.007019,445.424286 
	C894.007019,449.424072 894.007019,451.527496 894.007019,453.798431 
	C898.381836,453.798431 902.467590,453.798431 906.744751,453.798431 
	C906.744751,429.856293 906.744751,406.121002 906.744751,382.217957 
	C902.453613,382.217957 898.382202,382.217957 893.954285,382.217957 
	C893.954285,384.060974 893.954285,385.688049 893.954285,387.315155 
	C893.954163,403.814850 893.997314,420.314728 893.927185,436.814117 
	C893.906738,441.631622 889.729980,445.267883 884.678589,445.187500 
	C880.376404,445.119019 878.960266,443.182068 878.938232,437.185272 
	C878.911255,429.852173 878.931702,422.518890 878.931702,415.185699 
	C878.931702,404.239838 878.931702,393.293976 878.931702,382.234314 
	C874.364746,382.234314 870.288269,382.234314 866.039490,382.234314 
	C866.039490,402.265656 865.935486,422.061462 866.111328,441.854767 
	C866.156311,446.915497 868.290955,451.236450 873.919800,453.934998 
M370.997589,390.544250 
	C370.997589,411.629395 370.997589,432.714539 370.997589,453.738342 
	C375.667328,453.738342 379.750916,453.738342 384.084503,453.738342 
	C384.084503,451.507294 384.084473,449.533936 384.084473,447.560577 
	C384.084473,431.736115 384.066681,415.911621 384.094147,400.087219 
	C384.103760,394.539673 387.583618,390.941193 392.912140,390.823242 
	C397.656525,390.718231 399.091736,392.672668 399.103210,399.369598 
	C399.120117,409.197388 399.107574,419.025238 399.107605,428.853058 
	C399.107605,437.126251 399.107605,445.399445 399.107605,453.756836 
	C403.703125,453.756836 407.780884,453.756836 412.152740,453.756836 
	C412.152740,437.720032 412.166260,421.928894 412.143616,406.137787 
	C412.137634,401.974976 412.223358,397.796722 411.907135,393.653046 
	C411.396118,386.957245 408.263031,383.063812 402.612793,381.526093 
	C396.387543,379.831879 392.003845,381.440399 387.789948,386.819427 
	C387.019501,387.802917 385.897064,388.510651 384.289612,389.908936 
	C384.143341,386.646271 384.048737,384.535797 383.948822,382.306885 
	C379.606049,382.306885 375.391876,382.306885 370.997589,382.306885 
	C370.997589,384.930237 370.997589,387.245514 370.997589,390.544250 
M551.793640,422.950012 
	C551.886719,428.275177 551.768921,433.614227 552.118591,438.922485 
	C552.763794,448.718201 557.669495,453.776581 567.389282,454.784454 
	C570.350281,455.091522 573.399719,455.096954 576.357971,454.774963 
	C585.215759,453.810883 589.917419,449.225586 590.823975,440.409515 
	C591.243164,436.332489 590.895447,432.176575 590.895447,428.029785 
	C586.540161,428.029785 582.461182,428.029785 578.091492,428.029785 
	C578.091492,431.990021 578.141602,435.644775 578.077759,439.297546 
	C578.010254,443.162872 575.961548,444.993561 572.099609,445.052490 
	C568.243103,445.111267 565.276489,443.767487 565.228516,439.594360 
	C565.061829,425.118225 565.065613,410.637939 565.224609,396.161682 
	C565.267944,392.213959 568.112915,390.920319 571.763489,390.957306 
	C575.441467,390.994598 577.952454,392.348663 578.062988,396.373199 
	C578.166931,400.157166 578.085266,403.946259 578.085266,408.158661 
	C580.600769,408.158661 582.556641,408.158691 584.512512,408.158691 
	C586.600159,408.158691 588.687805,408.158661 590.957458,408.158661 
	C590.957458,403.765167 591.208374,399.940704 590.907288,396.160187 
	C590.194153,387.207062 585.811890,382.599731 576.960083,381.305817 
	C574.670837,380.971161 572.309387,380.998138 569.985718,381.053558 
	C558.332092,381.331635 552.509033,386.919464 552.064453,398.576202 
	C551.766479,406.389954 551.867676,414.218903 551.793640,422.950012 
M449.788422,367.138245 
	C451.720795,367.138245 453.653168,367.138245 455.626068,367.138245 
	C455.626068,363.695221 455.626068,360.784973 455.626068,357.546448 
	C448.250000,356.731354 441.064575,355.890045 434.582031,359.916138 
	C426.162109,365.145538 428.520935,374.168915 427.889191,381.882599 
	C425.429016,381.994293 423.485565,382.082550 421.500122,382.172699 
	C421.500122,385.605408 421.500122,388.671356 421.500122,392.031281 
	C423.732971,392.031281 425.672516,392.031281 428.205566,392.031281 
	C428.205566,412.847626 428.205566,433.371704 428.205566,453.657471 
	C432.895081,453.657471 436.974884,453.657471 441.374146,453.657471 
	C441.374146,432.908997 441.374146,412.507538 441.374146,391.834076 
	C445.490143,391.834076 449.268219,391.834076 453.185852,391.834076 
	C453.185852,388.455658 453.185852,385.358826 453.185852,381.996765 
	C450.961884,381.996765 448.979523,381.996765 446.997162,381.996765 
	C445.065582,381.996765 443.133972,381.996765 441.243195,381.996765 
	C440.580536,369.098907 441.267151,367.824005 449.788422,367.138245 
M844.154541,366.676941 
	C844.154541,365.081421 844.154541,363.485931 844.154541,361.790466 
	C839.477722,361.790466 835.367493,361.790466 830.814026,361.790466 
	C830.814026,368.592621 830.814026,375.178802 830.814026,381.811157 
	C828.622986,381.959015 826.871948,382.077148 825.189636,382.190674 
	C825.189636,385.646454 825.189636,388.730438 825.189636,391.769958 
	C827.198853,391.982483 828.926270,392.165222 830.815979,392.365112 
	C830.815979,407.729797 830.697876,422.706573 830.853760,437.680542 
	C830.975586,449.381317 835.877808,454.272888 847.554077,454.919708 
	C857.035034,455.444977 857.040283,455.443542 856.641724,446.150635 
	C856.629517,445.866272 856.341797,445.593719 856.043579,445.073181 
	C855.203186,445.073181 854.227722,445.065491 853.252380,445.074402 
	C844.493469,445.154480 843.884338,444.563446 843.877075,435.819214 
	C843.867493,424.326996 843.874390,412.834808 843.874207,401.342590 
	C843.874207,398.262421 843.874268,395.182281 843.874268,391.904053 
	C848.041565,391.904053 851.506714,391.904053 855.199829,391.904053 
	C855.199829,388.584595 855.199829,385.486389 855.199829,381.953491 
	C851.457031,381.953491 847.878845,381.953491 844.146118,381.953491 
	C844.146118,376.894043 844.146118,372.264099 844.154541,366.676941 
M702.796143,359.637573 
	C702.796143,391.005280 702.796143,422.373016 702.796143,453.749268 
	C707.446655,453.749268 711.523499,453.749268 715.715454,453.749268 
	C715.715454,421.801056 715.715454,390.108185 715.715454,357.740234 
	C711.272522,358.060181 707.075134,358.362427 702.796143,359.637573 
M527.766968,434.499512 
	C527.767517,423.506653 527.711853,412.513367 527.792236,401.521088 
	C527.832520,396.017303 530.234558,393.208038 535.631470,392.337921 
	C538.214050,391.921539 540.872070,391.972809 543.704529,391.799469 
	C543.704529,388.522980 543.704529,385.408112 543.704529,382.145142 
	C536.506165,380.382477 531.174988,382.324158 529.162598,391.053528 
	C528.799377,390.626801 528.436218,390.200104 528.072998,389.773376 
	C527.880493,387.264313 527.687927,384.755249 527.489807,382.172943 
	C523.062866,382.172943 518.957825,382.172943 514.611694,382.172943 
	C514.611694,406.106171 514.611694,429.843048 514.611694,453.713013 
	C519.032043,453.713013 523.244446,453.713013 527.766968,453.713013 
	C527.766968,447.436768 527.766968,441.467987 527.766968,434.499512 
M359.592224,450.203430 
	C359.592224,427.519623 359.592224,404.835815 359.592224,382.313049 
	C354.737854,382.313049 350.668762,382.313049 346.625916,382.313049 
	C346.625916,406.362946 346.625916,430.067932 346.625916,454.031647 
	C350.230560,454.031647 353.567780,454.253052 356.842804,453.898956 
	C357.846649,453.790436 358.679962,452.104706 359.592224,450.203430 
M982.841003,389.586639 
	C982.841003,387.148102 982.841003,384.709595 982.841003,382.242676 
	C978.180664,382.242676 974.101624,382.242676 969.998291,382.242676 
	C969.998291,406.253021 969.998291,430.012909 969.998291,453.724915 
	C974.335449,453.724915 978.428223,453.724915 982.841003,453.724915 
	C982.841003,432.483124 982.841003,411.523529 982.841003,389.586639 
M877.131470,524.021301 
	C880.819031,524.353943 879.048523,521.899048 878.753784,520.541565 
	C877.290588,513.802856 874.887207,508.079315 877.978516,500.116669 
	C884.572693,483.131226 877.989258,475.488129 860.076355,476.043335 
	C859.799683,476.051910 859.531311,476.332397 859.203857,476.517151 
	C859.203857,492.244293 859.203857,507.988495 859.203857,523.837524 
	C861.358398,523.837524 863.287964,523.837524 865.811890,523.837524 
	C865.811890,518.130127 865.811890,512.592041 865.811890,507.053955 
	C866.262451,506.911591 866.712952,506.769226 867.163513,506.626862 
	C867.783081,507.690399 868.639099,508.683990 868.978333,509.830475 
	C870.061584,513.491211 871.252136,517.163147 871.824341,520.918640 
	C872.287170,523.956360 873.933105,524.275757 877.131470,524.021301 
M652.211121,503.055176 
	C652.162292,500.560852 652.234436,498.057068 652.040039,495.574127 
	C651.605835,490.027954 649.137146,487.804047 643.311096,487.494537 
	C636.998718,487.159149 633.274719,489.432373 632.943054,494.891479 
	C632.490784,502.338043 632.667358,509.837128 632.888306,517.304443 
	C633.005493,521.267883 635.390503,523.525879 639.431580,524.244995 
	C649.251343,525.992432 653.297974,521.690186 651.660522,511.168762 
	C649.731079,511.168762 647.841736,511.168762 645.782898,511.168762 
	C645.782898,512.797180 646.201660,514.319397 645.682312,515.383972 
	C644.950195,516.884766 643.523315,518.046509 642.393494,519.353271 
	C641.314636,518.003235 639.604248,516.781372 639.298279,515.274414 
	C638.782349,512.733582 639.156860,510.011993 639.156860,507.146729 
	C642.752686,507.146729 646.087219,506.946075 649.385010,507.207916 
	C652.209229,507.432129 652.294189,505.872467 652.211121,503.055176 
M536.403442,511.304565 
	C536.520691,513.128174 536.604126,514.954773 536.762207,516.774841 
	C537.119812,520.890930 539.065857,523.462402 543.386902,524.238770 
	C553.190796,526.000305 557.158569,521.837280 555.692688,511.141357 
	C553.785461,511.141357 551.889526,511.141357 549.785889,511.141357 
	C549.785889,512.739563 550.195007,514.244324 549.687805,515.315002 
	C548.969177,516.831848 547.575012,518.028625 546.469543,519.362244 
	C545.366028,518.036316 543.613403,516.845215 543.303833,515.354370 
	C542.777222,512.818909 543.158936,510.094727 543.158936,507.152649 
	C547.495972,507.152649 551.592407,507.152649 556.060913,507.152649 
	C556.060913,503.083801 556.252075,499.290375 556.015625,495.523773 
	C555.669556,490.009583 553.095154,487.785461 547.270691,487.491669 
	C540.958618,487.173248 537.455078,489.443542 536.905823,494.921082 
	C536.393494,500.031128 536.539917,505.207214 536.403442,511.304565 
M751.480774,517.675781 
	C751.320557,514.235779 751.160278,510.795807 750.984863,507.029633 
	C755.603027,507.029633 759.703369,507.029633 764.049011,507.029633 
	C764.049011,502.930847 764.253601,499.125214 764.000183,495.350342 
	C763.635864,489.923981 760.960510,487.708405 755.094604,487.481049 
	C748.975281,487.243835 745.307129,489.415741 744.987854,494.603119 
	C744.519775,502.208649 744.694580,509.868378 744.917480,517.495605 
	C745.026489,521.223572 747.320251,523.427307 751.123230,524.188354 
	C761.134094,526.191772 765.691711,521.375549 763.545288,511.036316 
	C761.733459,511.036316 759.945129,511.036316 758.178467,511.036316 
	C757.289978,519.998291 757.289978,519.998291 751.480774,517.675781 
M803.708374,490.294006 
	C803.051392,498.603821 801.931152,506.910858 801.881531,515.224304 
	C801.840637,522.071167 804.857239,524.439331 811.444336,524.576782 
	C818.206909,524.717896 821.325134,522.135986 821.786133,515.309143 
	C822.142883,510.025330 821.998657,504.700623 821.924377,499.396240 
	C821.764893,488.007812 814.244751,483.923340 803.708374,490.294006 
M714.296143,521.927429 
	C714.265259,513.125671 714.435547,504.316925 714.131592,495.524597 
	C713.934631,489.828400 711.660645,487.906342 706.059204,487.504883 
	C697.403259,486.884491 693.881042,491.405884 695.701599,500.805481 
	C697.606201,500.805481 699.510803,500.805481 701.138062,500.805481 
	C702.996277,498.085449 699.456055,492.377930 704.895691,492.941528 
	C710.369446,493.508667 706.993591,498.677185 707.785583,501.464691 
	C704.230286,503.326019 700.767944,504.671448 697.853455,506.775757 
	C693.645325,509.814240 692.879822,518.219421 696.018005,522.224548 
	C698.439331,525.314758 702.672791,525.098755 706.912109,521.654663 
	C708.954773,524.674988 711.399414,525.110840 714.296143,521.927429 
M454.185333,517.549194 
	C452.415833,518.065125 450.621521,518.974854 448.891388,518.865906 
	C448.346588,518.831543 447.605103,516.070312 447.583435,514.548218 
	C447.458588,505.771271 447.522552,496.991638 447.522552,488.239960 
	C445.030487,488.239960 443.113831,488.239960 440.983276,488.239960 
	C440.983276,498.135620 440.794281,507.778748 441.050323,517.410034 
	C441.218536,523.738586 446.928131,526.572510 451.884918,523.093994 
	C452.760956,522.479248 453.492828,521.659058 454.482361,520.760071 
	C455.431519,525.831604 458.698090,523.600952 461.307617,523.844055 
	C461.307617,511.764191 461.307617,500.000580 461.307617,488.209961 
	C459.117157,488.209961 457.192261,488.209961 454.715881,488.209961 
	C454.715881,497.895599 454.715881,507.356384 454.185333,517.549194 
M415.089020,518.399902 
	C415.063507,510.414703 415.310272,502.413269 414.836426,494.454742 
	C414.704773,492.243042 412.806122,488.827820 411.059235,488.344055 
	C408.747620,487.703888 405.778076,489.368317 403.115753,490.127991 
	C402.605286,490.273651 402.207947,490.815674 401.562134,491.331635 
	C400.833099,486.022308 397.309692,488.548584 394.608154,488.035522 
	C394.608154,500.071930 394.608154,511.816589 394.608154,523.706848 
	C396.825439,523.706848 398.849548,523.706848 401.061584,523.706848 
	C401.061584,515.592468 401.103027,507.789368 401.042542,499.987122 
	C401.015961,496.557159 400.719818,492.565674 405.449921,492.681213 
	C410.207245,492.797363 408.387115,497.104370 408.460083,499.685150 
	C408.687653,507.735046 408.543549,515.795471 408.543549,523.872559 
	C411.065643,523.872559 412.850708,523.872559 415.089020,523.872559 
	C415.089020,522.277527 415.089020,520.824585 415.089020,518.399902 
M585.973511,512.483337 
	C585.973511,516.262512 585.973511,520.041687 585.973511,523.814270 
	C588.408386,523.814270 590.337524,523.814270 592.720032,523.814270 
	C592.720032,515.162964 592.791748,506.716949 592.682007,498.273315 
	C592.642456,495.229034 593.322998,492.779022 596.741211,492.618713 
	C600.665222,492.434662 599.991516,495.568176 600.002502,497.966370 
	C600.041809,506.568237 600.017944,515.170410 600.017944,523.814209 
	C602.448242,523.814209 604.375061,523.814209 606.747925,523.814209 
	C606.747925,514.663818 607.052063,505.704193 606.575500,496.786316 
	C606.418335,493.845154 604.954895,489.567291 602.805237,488.509705 
	C600.345215,487.299469 596.455933,488.994354 592.974670,489.455200 
	C592.209534,486.139771 588.874390,488.361023 585.973511,488.123047 
	C585.973511,496.218689 585.973511,503.854034 585.973511,512.483337 
M520.274658,511.842285 
	C519.478149,503.967377 518.681702,496.092438 517.896301,488.327332 
	C515.241455,488.327332 513.180359,488.327332 510.979065,488.327332 
	C512.744080,500.436554 514.456177,512.182983 516.153320,523.826538 
	C520.014221,523.826538 523.306030,523.826538 526.789551,523.826538 
	C528.519836,511.921356 530.226196,500.180359 531.959290,488.255829 
	C529.472656,488.255829 527.398987,488.255829 525.098572,488.255829 
	C523.973083,498.539429 522.874634,508.575531 521.776245,518.611694 
	C521.519836,518.603210 521.263428,518.594727 521.007019,518.586243 
	C520.790527,516.639465 520.573975,514.692627 520.274658,511.842285 
M739.438171,499.283661 
	C739.439636,498.285492 739.519226,497.280243 739.429993,496.290283 
	C738.849182,489.847900 736.251221,487.493073 729.776672,487.483154 
	C723.155823,487.473022 720.146606,490.111298 719.942993,496.675140 
	C719.741699,503.162537 719.837891,509.663727 719.972046,516.155334 
	C720.060730,520.444885 721.959106,523.349426 726.555786,524.205383 
	C736.350403,526.029297 740.881165,521.287354 738.895569,511.182495 
	C736.977112,511.182495 735.075562,511.182495 733.003906,511.182495 
	C733.003906,512.812744 733.417419,514.327759 732.904053,515.398438 
	C732.188965,516.889709 730.780334,518.048462 729.668518,519.349548 
	C728.608032,518.171997 726.685303,517.033020 726.630554,515.810547 
	C726.333313,509.165466 726.361816,502.494202 726.635620,495.846649 
	C726.680847,494.748871 728.752014,492.707458 729.436951,492.880768 
	C730.788757,493.222748 732.296631,494.609497 732.862427,495.937958 
	C733.447876,497.312683 732.992676,499.130585 732.992676,501.480865 
	C735.467896,500.956146 737.416443,500.543091 739.438171,499.283661 
M754.443848,403.947998 
	C744.666809,403.947998 734.889709,403.947998 725.056030,403.947998 
	C725.056030,407.988831 725.056030,411.603943 725.056030,415.229004 
	C737.971680,415.229004 750.664246,415.229004 763.258240,415.229004 
	C763.258240,411.266296 763.258240,407.704956 763.258240,403.947998 
	C760.403809,403.947998 757.913879,403.947998 754.443848,403.947998 
M691.100342,480.724609 
	C691.446838,479.155487 691.793274,477.586334 692.139160,476.019897 
	C682.103943,474.363281 678.937256,476.669556 677.971863,485.442169 
	C677.872437,486.346191 676.410095,487.060577 676.201050,488.000977 
	C675.844360,489.604797 675.681091,491.378265 676.000183,492.967255 
	C676.275818,494.339539 677.926758,495.542389 677.953064,496.840729 
	C678.134277,505.774597 678.048340,514.713867 678.048340,523.680725 
	C680.566833,523.680725 682.599609,523.680725 685.032227,523.680725 
	C685.032227,513.283997 685.032227,503.226807 685.032227,493.220306 
	C687.211792,493.040802 688.977112,492.895416 690.956604,492.732391 
	C690.867859,491.031647 690.794678,489.629089 690.716919,488.138458 
	C688.605042,488.013794 686.833374,487.909210 685.096069,487.806671 
	C684.288208,483.354126 684.643311,480.072021 691.100342,480.724609 
M792.056091,475.558350 
	C787.109741,475.985504 784.679810,478.777527 784.272217,483.636230 
	C784.117676,485.478455 785.285828,488.289215 781.611267,488.104370 
	C781.558228,489.635345 781.260986,492.462982 781.488159,492.505768 
	C785.982239,493.351929 784.105591,496.845581 784.164734,499.155884 
	C784.375305,507.380371 784.246948,515.613586 784.246948,523.741028 
	C786.941956,523.741028 788.850952,523.741028 791.123657,523.741028 
	C791.123657,513.391479 791.123657,503.320404 791.123657,492.920685 
	C793.252747,492.920685 795.010010,492.920685 797.103210,492.920685 
	C797.009094,491.032043 796.933594,489.516846 796.863342,488.107666 
	C794.538635,487.967957 792.784485,487.862518 790.566956,487.729248 
	C791.077515,485.366638 790.885193,482.802399 792.050537,481.768707 
	C793.399963,480.571777 795.943359,480.720947 797.999939,480.278931 
	C797.999939,478.779053 797.999939,477.366150 797.999939,475.678314 
	C796.100220,475.588928 794.467712,475.512085 792.056091,475.558350 
M433.855438,519.508179 
	C432.550049,518.611755 430.148285,517.757568 430.111908,516.812317 
	C429.808044,508.914734 429.939270,501.000458 429.939270,493.136658 
	C432.155640,493.024231 433.772461,492.942200 435.468781,492.856171 
	C435.468781,491.116119 435.468781,489.722229 435.468781,488.251678 
	C433.502136,488.037781 431.785248,487.851074 429.804230,487.635620 
	C429.804230,484.220154 429.804230,481.140350 429.804230,478.153412 
	C427.427277,478.153412 425.368408,478.153412 423.609650,478.153412 
	C422.033813,481.944397 425.477905,486.723969 420.274963,489.171051 
	C419.899628,489.347595 420.100891,492.197388 420.480835,492.311005 
	C424.827545,493.611481 422.889893,497.105927 423.033722,499.639374 
	C423.306366,504.442444 423.076965,509.272308 423.121155,514.090454 
	C423.201660,522.860718 427.106934,525.841736 436.764191,523.684570 
	C436.024078,522.203369 435.340210,520.834717 433.855438,519.508179 
M492.020416,519.493469 
	C490.987671,518.490417 489.093201,517.515442 489.059448,516.479919 
	C488.806976,508.728638 488.922119,500.965393 488.922119,493.163177 
	C491.032288,493.043945 492.646545,492.952728 494.341553,492.856964 
	C494.341553,491.121368 494.341553,489.625214 494.341553,488.167114 
	C492.363342,488.008636 490.774353,487.881348 488.930481,487.733673 
	C488.930481,484.346313 488.930481,481.245728 488.930481,478.069427 
	C486.544983,478.069427 484.448700,478.069427 482.732056,478.069427 
	C480.797607,481.694885 484.713196,486.623322 479.293915,489.016388 
	C478.949219,489.168610 479.310303,492.428528 479.705566,492.511292 
	C483.264160,493.256378 482.028503,495.952271 482.072906,497.963654 
	C482.190186,503.277161 482.082001,508.595184 482.120178,513.911011 
	C482.183960,522.794495 485.693512,525.585571 496.180237,523.762695 
	C494.824097,522.033752 493.833801,520.771301 492.020416,519.493469 
M615.022217,516.952393 
	C616.484985,523.591064 619.847351,525.466309 627.726440,523.972290 
	C627.726440,522.575073 627.726440,521.162964 627.726440,519.750916 
	C627.363586,520.052307 627.000732,520.353760 626.637878,520.655151 
	C624.982483,519.166138 622.002808,517.765076 621.897034,516.173157 
	C621.393555,508.594025 621.671692,500.962921 621.671692,493.175415 
	C623.738098,493.065857 625.340393,492.980896 627.132812,492.885864 
	C627.132812,491.225555 627.132812,489.797974 627.132812,488.279205 
	C625.255920,488.036163 623.541626,487.814178 621.756531,487.583008 
	C621.756531,484.255219 621.756531,481.274841 621.756531,478.050568 
	C619.524231,478.050568 617.415588,478.050568 615.364258,478.050568 
	C613.886902,481.727142 617.290283,486.646637 612.106628,489.206024 
	C611.714233,489.399811 611.954651,492.268250 612.303955,492.360077 
	C616.774231,493.535095 614.764221,497.081696 614.891052,499.567017 
	C615.171143,505.051941 614.987305,510.560547 615.022217,516.952393 
M893.452637,524.004211 
	C895.898682,524.004211 898.344788,524.004211 901.053345,524.004211 
	C900.937012,521.766541 900.847412,520.043335 900.737000,517.920532 
	C897.085632,517.920532 893.846619,517.920532 890.236694,517.920532 
	C890.236694,503.790436 890.236694,490.080872 890.236694,476.229065 
	C887.934387,476.229065 886.030945,476.229065 883.963745,476.229065 
	C883.963745,492.160522 883.963745,507.860809 883.963745,524.004211 
	C886.916138,524.004211 889.697876,524.004211 893.452637,524.004211 
M573.973511,485.533813 
	C573.973511,498.298462 573.973511,511.063080 573.973511,523.806152 
	C576.419067,523.806152 578.348633,523.806152 580.487915,523.806152 
	C580.487915,507.854492 580.487915,492.124725 580.487915,476.290222 
	C578.218933,476.290222 576.188599,476.290222 573.973511,476.290222 
	C573.973511,479.251831 573.973511,481.898529 573.973511,485.533813 
M388.930115,492.501892 
	C388.930115,487.059631 388.930115,481.617371 388.930115,476.188690 
	C386.413666,476.188690 384.476013,476.188690 382.329529,476.188690 
	C382.329529,492.138916 382.329529,507.874054 382.329529,523.717041 
	C384.595734,523.717041 386.636322,523.717041 388.930115,523.717041 
	C388.930115,513.439148 388.930115,503.470276 388.930115,492.501892 
M827.358826,503.504791 
	C827.358826,510.267212 827.358826,517.029602 827.358826,523.829224 
	C829.847107,523.829224 831.775452,523.829224 834.073792,523.829224 
	C834.073792,515.866272 834.059143,508.099060 834.078674,500.331909 
	C834.093628,494.363983 834.903870,493.516418 840.827026,493.004608 
	C841.253906,492.967712 841.660400,492.695465 842.189819,492.488251 
	C842.115845,490.911163 842.048279,489.469513 841.915710,486.642700 
	C838.822754,488.399109 836.488892,489.724426 834.180786,491.035126 
	C834.093079,490.342468 833.946960,489.188385 833.782715,487.891266 
	C831.435669,488.004974 829.531006,488.097260 827.358826,488.202484 
	C827.358826,493.250244 827.358826,497.878937 827.358826,503.504791 
M664.923035,491.342133 
	C664.379761,490.302307 663.836487,489.262482 663.278442,488.194336 
	C661.396057,488.194336 659.456116,488.194336 657.350098,488.194336 
	C657.350098,500.159637 657.350098,511.906311 657.350098,523.688110 
	C659.635986,523.688110 661.677307,523.688110 663.926758,523.688110 
	C663.926758,515.372864 664.070862,507.389801 663.870544,499.415405 
	C663.757629,494.921967 665.639648,492.903473 670.039978,493.009308 
	C670.632263,493.023529 671.228394,492.876770 671.996216,492.783447 
	C671.911743,490.971039 671.844727,489.534576 671.705994,486.559906 
	C668.972839,488.254303 667.078735,489.428528 664.923035,491.342133 
M506.643768,505.501038 
	C506.643768,499.734314 506.643768,493.967621 506.643768,488.189941 
	C504.142914,488.189941 502.221008,488.189941 500.295319,488.189941 
	C500.295319,500.263489 500.295319,512.113708 500.295319,524.130432 
	C502.547028,524.003906 504.460052,523.896362 506.643738,523.773621 
	C506.643738,517.751648 506.643738,512.125488 506.643768,505.501038 
M473.893158,516.416077 
	C473.893158,506.989136 473.893158,497.562195 473.893158,488.219635 
	C471.333527,488.219635 469.398773,488.219635 467.331848,488.219635 
	C467.331848,500.202087 467.331848,511.934906 467.331848,523.678223 
	C469.614899,523.678223 471.651184,523.678223 473.893158,523.678223 
	C473.893158,521.348328 473.893158,519.369263 473.893158,516.416077 
M983.916809,359.729462 
	C983.315613,359.145966 982.730469,358.077271 982.110779,358.056793 
	C977.691650,357.910919 973.265381,357.978973 968.757019,357.978973 
	C968.757019,362.139069 968.757019,365.847443 968.757019,369.459229 
	C973.984741,369.459229 978.857971,369.459229 983.923767,369.459229 
	C983.923767,366.281769 983.923767,363.476074 983.916809,359.729462 
M360.681763,368.049713 
	C360.681763,364.786346 360.681763,361.522949 360.681763,358.258606 
	C355.227753,358.258606 350.337189,358.258606 345.534485,358.258606 
	C345.534485,362.246826 345.534485,365.932922 345.534485,370.259827 
	C350.821991,369.793243 355.663116,369.366058 360.681763,368.049713 
M474.249512,477.550568 
	C471.910553,476.852844 469.571625,476.155121 466.915527,475.362762 
	C466.915527,478.196014 466.915527,479.946045 466.915527,482.231628 
	C469.552338,480.629761 474.390961,485.011627 474.249512,477.550568 
M506.318146,476.029297 
	C504.053680,476.029297 501.789215,476.029297 499.568542,476.029297 
	C499.568542,478.257965 499.568542,479.972748 499.568542,481.730652 
	C502.165161,481.730652 504.416534,481.730652 506.981445,481.730652 
	C506.981445,479.894287 506.981445,478.276276 506.318146,476.029297 
z"/>
<path fill="#F9F9F9" opacity="1.000000" stroke="none" 
	d="
M592.584717,68.625404 
	C627.961426,57.708447 661.429810,77.025368 668.436890,112.394432 
	C671.255249,126.620125 668.751404,140.272812 660.970764,152.633347 
	C658.959473,155.828598 659.136108,157.885788 661.332764,160.868637 
	C670.606873,173.461899 679.588684,186.270477 688.682068,198.996979 
	C689.606812,200.291168 690.563110,201.562851 692.290283,202.517242 
	C692.035339,199.431747 691.822144,196.342133 691.517761,193.261505 
	C690.485779,182.817017 697.625061,173.987823 708.154724,172.727737 
	C717.580872,171.599716 726.815063,179.057938 727.846802,189.113968 
	C730.073364,210.814606 731.757080,232.574371 734.234985,254.244537 
	C735.804871,267.974274 734.881165,281.123657 728.952393,293.730927 
	C708.393738,337.448364 648.953186,343.515686 620.202209,304.755096 
	C610.322021,291.435181 600.716675,277.910339 591.063965,264.423187 
	C581.606689,251.209122 586.076172,238.497040 601.827942,233.556091 
	C598.433472,219.147339 602.277710,211.845383 616.068542,206.938919 
	C614.277954,201.308670 613.344299,195.245041 617.120300,190.371017 
	C620.406433,186.129211 625.072205,182.956223 629.160950,179.281723 
	C628.673645,179.249115 627.227844,178.828140 625.938110,179.113388 
	C591.989014,186.621582 560.318542,166.465851 554.657288,132.483963 
	C550.764832,109.119698 559.429016,89.964592 578.725342,76.049698 
	C582.833740,73.087067 587.705322,71.182892 592.584717,68.625404 
M634.174011,306.340637 
	C652.305542,322.248749 672.878296,325.658203 694.424011,315.500702 
	C715.221497,305.695953 726.322144,288.050629 725.168457,264.929840 
	C723.941528,240.342178 720.783386,215.847412 718.314331,191.327606 
	C717.677734,185.005783 713.861023,181.580734 708.808655,182.036362 
	C703.738342,182.493622 700.553711,187.066849 701.122681,193.469849 
	C701.844666,201.595840 702.741272,209.706665 703.604675,217.819550 
	C703.942566,220.993729 704.694702,224.422363 700.923767,226.037201 
	C696.982666,227.724945 695.254639,224.549606 693.411743,221.982101 
	C676.043457,197.783600 658.691284,173.573486 641.318665,149.378128 
	C634.524292,139.915344 627.796326,130.401550 620.816956,121.076584 
	C618.284302,117.692787 614.786438,115.740814 610.358765,117.860703 
	C606.491882,119.712128 604.384460,122.868362 605.177734,127.109215 
	C605.580933,129.264465 607.056030,131.324982 608.386536,133.185135 
	C628.038086,160.660019 647.733093,188.103867 667.461853,215.523407 
	C669.605774,218.503036 671.149719,221.618958 667.493530,224.157654 
	C664.000305,226.583191 661.711792,223.868912 659.774597,221.176697 
	C653.846130,212.938049 647.923279,204.695297 641.983948,196.464462 
	C637.247864,189.901062 632.817627,188.495026 627.903320,191.962494 
	C623.442566,195.109940 623.377258,200.255493 627.740356,206.382004 
	C633.917908,215.056168 640.100342,223.726852 646.293701,232.389664 
	C648.427612,235.374359 651.550964,238.691956 647.364502,241.828812 
	C642.709351,245.316925 640.652954,240.702057 638.461792,237.740906 
	C634.305237,232.123901 630.438477,226.287430 626.167786,220.761322 
	C621.567993,214.809402 614.203369,215.338669 611.077087,221.601883 
	C609.283875,225.194351 610.291748,228.381744 612.469727,231.400070 
	C617.435913,238.282349 622.395874,245.169205 627.386230,252.033936 
	C629.407959,254.815048 630.001587,257.658569 626.930237,259.899170 
	C623.924927,262.091553 621.632019,260.224670 619.798340,257.779358 
	C617.102356,254.184143 614.555725,250.474670 611.796692,246.929581 
	C608.376465,242.534790 603.593018,241.793564 599.598267,244.861465 
	C595.498352,248.010223 594.836243,252.579803 597.948975,257.193817 
	C600.273987,260.640228 602.697083,264.023804 605.167236,267.368347 
	C614.648254,280.205688 624.165833,293.016052 634.174011,306.340637 
M567.868591,143.540161 
	C577.811096,164.390656 600.872070,175.392090 622.281677,169.674194 
	C619.120361,164.189133 616.463013,159.682938 608.355042,159.732391 
	C592.838562,159.827026 578.173645,146.178574 575.160767,130.784744 
	C571.988586,114.576584 580.321777,97.049385 594.711243,90.022484 
	C609.331055,82.883064 623.226135,84.551674 635.809631,94.594856 
	C647.539734,103.956947 651.804565,119.953934 646.801636,134.826508 
	C645.731445,138.007935 646.130066,140.136917 648.150391,142.467545 
	C649.664490,144.214188 650.956299,146.153534 652.358032,148.021698 
	C652.741089,147.697372 653.065430,147.543137 653.204407,147.287994 
	C662.598816,130.041687 662.895081,112.646347 651.847595,96.336235 
	C640.388855,79.418915 623.627930,71.976830 603.399658,75.634338 
	C572.088806,81.295715 555.467712,113.096008 567.868591,143.540161 
M606.326294,150.163818 
	C606.622192,149.507339 607.358582,148.550552 607.146973,148.240173 
	C604.617737,144.530930 601.444336,141.170029 599.458008,137.207413 
	C597.519714,133.340668 595.731628,128.892166 595.701294,124.685867 
	C595.645996,117.041885 601.348755,110.382919 608.162476,108.259979 
	C615.518555,105.968063 623.721558,108.789032 628.928467,115.612762 
	C632.103088,119.773132 635.039246,124.115433 638.627686,129.139206 
	C639.883179,121.005486 638.992065,114.348953 635.011780,108.215569 
	C628.372070,97.984077 615.395935,93.126923 604.058044,96.658501 
	C591.970642,100.423546 583.974670,111.141830 584.033386,123.500824 
	C584.093811,136.236328 592.290894,146.357635 606.326294,150.163818 
z"/>
<path fill="#F7F7F7" opacity="1.000000" stroke="none" 
	d="
M650.365967,360.386780 
	C651.272156,359.276367 652.137695,358.140961 653.077271,358.076019 
	C656.380066,357.847717 659.708313,357.987366 663.473938,357.987366 
	C663.473938,360.047211 663.472473,361.838135 663.474182,363.629059 
	C663.496948,387.620911 663.524170,411.612732 663.539612,435.604584 
	C663.542236,439.696014 664.075073,443.360809 669.197754,444.047546 
	C675.393616,444.878113 678.280701,442.535004 678.307739,436.167511 
	C678.406738,412.841827 678.410339,389.515747 678.448669,366.189819 
	C678.452759,363.707214 678.449219,361.224640 678.449219,358.364807 
	C682.620605,358.364807 686.683594,358.364807 691.166260,358.364807 
	C691.274719,359.371399 691.524841,360.615540 691.525696,361.859833 
	C691.542480,385.685455 691.540833,409.511108 691.505066,433.336670 
	C691.501831,435.497101 691.320068,437.665833 691.084778,439.815796 
	C690.144165,448.412201 686.347534,452.864105 677.890198,454.309967 
	C673.845093,455.001495 669.554382,455.128448 665.484253,454.625824 
	C655.965149,453.450378 651.365356,448.982513 650.906677,439.302765 
	C650.205444,424.503632 650.263000,409.664856 650.168091,394.841827 
	C650.095581,383.513000 650.285828,372.182465 650.365967,360.386780 
z"/>
<path fill="#FCFCFC" opacity="1.000000" stroke="none" 
	d="
M260.085480,431.015259 
	C260.085480,438.822205 260.085480,446.130432 260.085480,453.721191 
	C255.789444,453.721191 251.704407,453.721191 247.305908,453.721191 
	C247.305908,422.103851 247.305908,390.372284 247.305908,357.630463 
	C256.221283,358.059845 265.310791,358.089661 274.297119,359.067719 
	C280.746643,359.769653 285.336426,364.371429 285.701660,370.623260 
	C286.406525,382.689972 286.409241,394.866394 285.553894,406.915771 
	C285.279633,410.779327 281.386414,414.386017 278.483002,419.218597 
	C281.410919,429.566895 284.794281,441.524841 288.262268,453.781769 
	C283.477966,453.781769 279.054565,453.781769 274.373138,453.781769 
	C271.823975,443.780212 269.171112,433.858368 266.814728,423.866577 
	C265.973358,420.298828 264.567719,418.442230 260.085480,420.071503 
	C260.085480,423.336945 260.085480,426.926758 260.085480,431.015259 
M272.089569,405.475220 
	C272.674286,403.601440 273.695374,401.743622 273.764465,399.851013 
	C274.001160,393.366516 274.033539,386.867218 273.903687,380.378387 
	C273.706635,370.532684 270.280823,368.071533 260.322021,370.346436 
	C260.322021,382.765686 260.322021,395.184906 260.322021,408.690247 
	C264.362885,407.742371 267.943604,406.902405 272.089569,405.475220 
z"/>
<path fill="#F9F9F9" opacity="1.000000" stroke="none" 
	d="
M780.813232,418.561218 
	C782.560364,418.622009 783.863892,418.682739 785.711182,418.768799 
	C785.711182,424.931763 785.484924,430.874756 785.777100,436.792114 
	C786.049500,442.308899 788.078064,444.057739 793.143555,444.123871 
	C798.214844,444.190094 800.559387,442.380646 800.747314,437.032501 
	C800.956726,431.072937 800.575439,425.075104 800.138123,419.116913 
	C799.881226,415.617188 797.755798,413.417450 794.158020,412.708862 
	C791.716125,412.227936 789.316162,411.524231 786.910095,410.873169 
	C777.979553,408.456390 773.710571,403.924927 773.103882,394.789520 
	C772.608826,387.334198 772.628784,379.785797 773.180908,372.335022 
	C773.844360,363.381927 778.339539,358.840790 787.244202,357.471466 
	C790.824524,356.920898 794.591125,356.876373 798.191284,357.298370 
	C807.426025,358.380768 812.242126,363.211060 812.970093,372.592133 
	C813.481079,379.176361 813.068787,385.832214 813.068787,392.643066 
	C809.102905,392.643066 805.329590,392.643066 800.879944,392.643066 
	C800.879944,386.991028 801.032166,381.397980 800.839172,375.816833 
	C800.625610,369.636566 797.884888,367.368347 791.959961,367.918762 
	C788.491516,368.240967 786.154236,370.016022 786.032776,373.485687 
	C785.811707,379.798401 785.819153,386.135223 786.116333,392.443848 
	C786.286987,396.068420 788.361084,398.609039 792.184082,399.380676 
	C793.973389,399.741791 795.726196,400.281311 797.499939,400.722198 
	C808.566223,403.473022 812.420837,407.014465 813.479919,418.165863 
	C814.212646,425.880371 813.692932,433.798828 812.923889,441.545807 
	C812.230591,448.529755 807.918579,453.152832 800.765381,454.163025 
	C796.523376,454.762115 792.099060,455.111176 787.876587,454.594025 
	C778.743958,453.475555 774.321960,448.853088 773.347412,438.999786 
	C772.697937,432.432709 773.224121,425.749359 773.224121,418.561188 
	C775.783386,418.561188 778.076538,418.561188 780.813232,418.561218 
z"/>
<path fill="#FBFBFB" opacity="1.000000" stroke="none" 
	d="
M917.574463,443.135803 
	C917.359131,426.914703 916.858032,411.097290 917.300659,395.306305 
	C917.575134,385.512054 923.065979,380.398834 931.644287,381.243805 
	C934.893372,381.563843 938.001831,384.076263 940.991394,385.890961 
	C942.194519,386.621338 942.906494,388.161041 944.829773,388.838745 
	C944.829773,378.790741 944.829773,368.742706 944.829773,358.346069 
	C949.267639,358.346069 953.334595,358.346069 957.747192,358.346069 
	C957.747192,389.850952 957.747192,421.564880 957.747192,453.642944 
	C953.826294,453.642944 949.628296,453.642944 945.106140,453.642944 
	C945.106140,451.485657 945.106140,449.382904 945.106140,445.289337 
	C939.079285,453.779938 932.362671,458.138428 923.928101,453.081390 
	C920.996765,451.323883 919.719788,446.807190 917.574463,443.135803 
M945.062622,426.486267 
	C945.062073,417.174957 945.152588,407.862335 945.021484,398.552856 
	C944.958740,394.099213 941.194153,391.022217 936.330811,390.792603 
	C932.359741,390.605072 930.193909,392.609619 930.156250,396.306183 
	C930.008728,410.767761 929.945190,425.235229 930.281738,439.690430 
	C930.324280,441.518036 932.600342,444.336578 934.395630,444.886108 
	C939.912537,446.574829 944.961426,442.274414 945.054199,436.457489 
	C945.101868,433.465332 945.062622,430.471741 945.062622,426.486267 
z"/>
<path fill="#F9F9F9" opacity="1.000000" stroke="none" 
	d="
M503.272858,417.063477 
	C502.907532,425.670685 503.138702,433.874237 502.004547,441.884430 
	C500.829132,450.186035 496.643402,453.625122 488.373291,454.672211 
	C484.940460,455.106873 481.366699,455.123016 477.931427,454.710144 
	C468.620697,453.591125 463.624573,448.732971 463.233643,438.864075 
	C462.681580,424.926788 462.582458,410.926208 463.258850,396.999725 
	C463.821228,385.421448 470.215393,380.933197 483.514771,381.018646 
	C496.693359,381.103302 502.359711,386.444519 502.980682,399.618256 
	C503.246765,405.262451 503.183289,410.922150 503.272858,417.063477 
M475.968903,438.950043 
	C477.236267,443.993378 479.451813,445.561005 484.391663,445.003693 
	C488.847290,444.501068 490.053772,441.573151 490.051666,437.648621 
	C490.044739,424.853546 490.109955,412.058167 490.040009,399.263489 
	C490.005127,392.883087 488.140869,390.878448 482.794861,390.976440 
	C477.741699,391.069031 475.965515,393.041077 475.932404,399.160919 
	C475.862274,412.121307 475.926117,425.082428 475.968903,438.950043 
z"/>
<path fill="#FBFBFB" opacity="1.000000" stroke="none" 
	d="
M609.459229,383.193298 
	C615.850891,382.582825 621.980408,381.278076 627.908081,381.899292 
	C635.311340,382.675110 639.291992,387.135681 639.781555,394.500916 
	C640.340393,402.907379 639.910889,411.379578 639.910889,420.180237 
	C631.385559,420.180237 622.959106,420.180237 614.542114,420.180237 
	C614.542114,426.985077 614.400085,433.436005 614.594116,439.876862 
	C614.715332,443.902374 617.542603,445.040344 621.135498,445.049957 
	C624.931824,445.060120 627.176819,443.406921 627.270081,439.480316 
	C627.359802,435.703583 627.289490,431.923004 627.289490,427.945068 
	C631.873230,427.945068 635.795471,427.945068 640.449829,427.945068 
	C640.184387,432.985199 640.333252,437.974335 639.564514,442.817902 
	C638.558838,449.154541 634.705017,453.430725 628.108887,454.234802 
	C623.861267,454.752563 619.445679,455.078217 615.239990,454.503967 
	C606.762756,453.346466 602.272766,449.537323 601.881836,440.956421 
	C601.180054,425.554016 601.597900,410.088043 601.947510,394.657715 
	C602.056824,389.835114 604.660706,385.819244 609.459229,383.193298 
M614.207153,400.739746 
	C614.207153,404.027924 614.207153,407.316101 614.207153,410.806885 
	C618.746521,410.806885 622.988953,410.806885 627.313110,410.806885 
	C627.313110,405.811493 627.619263,401.001740 627.153992,396.267792 
	C626.981384,394.511230 625.256104,391.872131 623.783813,391.515747 
	C621.448608,390.950500 617.979736,391.124237 616.385681,392.547699 
	C614.781677,393.980072 614.881409,397.320251 614.207153,400.739746 
z"/>
<path fill="#FBFBFB" opacity="1.000000" stroke="none" 
	d="
M335.989624,437.763794 
	C334.732239,451.576904 327.803375,456.497772 312.566101,454.847229 
	C302.836823,453.793335 297.495514,448.829803 297.190857,439.078247 
	C296.759369,425.265930 296.743561,411.419830 297.179626,397.608002 
	C297.515228,386.977264 303.415863,381.625519 314.019318,381.090485 
	C316.343079,380.973206 318.699402,380.945404 321.008301,381.186493 
	C330.352448,382.162048 335.302429,386.930023 335.820648,396.282654 
	C336.252472,404.076477 335.909149,411.913208 335.909149,420.109131 
	C327.320648,420.109131 318.881409,420.109131 310.188568,420.109131 
	C310.188568,426.936005 309.997833,433.398102 310.259644,439.841827 
	C310.418213,443.744232 313.205078,445.066101 316.857239,445.051971 
	C320.636078,445.037323 322.935211,443.430542 323.054413,439.503265 
	C323.165375,435.847656 323.078125,432.186005 323.078125,428.126160 
	C327.365021,428.126160 331.402130,428.126160 336.004333,428.126160 
	C336.004333,431.105652 336.004333,434.205475 335.989624,437.763794 
M323.224182,398.781006 
	C322.787598,392.493134 321.499939,390.955475 316.684052,390.971069 
	C311.648712,390.987335 310.176605,392.771515 310.047333,399.237762 
	C309.971802,403.015869 310.033569,406.796692 310.033569,410.782898 
	C314.517212,410.782898 318.738586,410.782898 323.262024,410.782898 
	C323.262024,406.941406 323.262024,403.327271 323.224182,398.781006 
z"/>
<path fill="#FAFAFA" opacity="1.000000" stroke="none" 
	d="
M994.454712,437.418732 
	C994.539612,423.351868 994.148621,409.694336 995.020508,396.117920 
	C995.676697,385.899811 1001.137695,381.653107 1011.452515,381.079681 
	C1012.448364,381.024353 1013.448059,381.023376 1014.445923,381.022064 
	C1027.863525,381.004456 1033.261353,385.159637 1034.251099,398.591553 
	C1035.165039,410.996643 1035.203369,423.552032 1034.459839,435.971344 
	C1033.571411,450.807129 1028.107178,455.186890 1013.413757,454.977417 
	C1001.058289,454.801331 996.469666,450.644501 994.454712,437.418732 
M1007.133606,431.402069 
	C1007.293457,434.219360 1007.322754,437.051605 1007.643555,439.850464 
	C1008.128174,444.078217 1011.089661,445.099335 1014.800537,445.056793 
	C1018.422791,445.015228 1021.241272,443.651917 1021.284363,439.734467 
	C1021.443237,425.289520 1021.428040,410.841339 1021.314331,396.395660 
	C1021.286072,392.805023 1018.890442,391.194672 1015.413940,390.966370 
	C1009.968140,390.608765 1007.516541,392.609131 1007.367615,398.518280 
	C1007.099792,409.149902 1007.176392,419.790253 1007.133606,431.402069 
z"/>
<path fill="#FCFCFC" opacity="1.000000" stroke="none" 
	d="
M873.558105,453.782227 
	C868.290955,451.236450 866.156311,446.915497 866.111328,441.854767 
	C865.935486,422.061462 866.039490,402.265656 866.039490,382.234314 
	C870.288269,382.234314 874.364746,382.234314 878.931702,382.234314 
	C878.931702,393.293976 878.931702,404.239838 878.931702,415.185699 
	C878.931702,422.518890 878.911255,429.852173 878.938232,437.185272 
	C878.960266,443.182068 880.376404,445.119019 884.678589,445.187500 
	C889.729980,445.267883 893.906738,441.631622 893.927185,436.814117 
	C893.997314,420.314728 893.954163,403.814850 893.954285,387.315155 
	C893.954285,385.688049 893.954285,384.060974 893.954285,382.217957 
	C898.382202,382.217957 902.453613,382.217957 906.744751,382.217957 
	C906.744751,406.121002 906.744751,429.856293 906.744751,453.798431 
	C902.467590,453.798431 898.381836,453.798431 894.007019,453.798431 
	C894.007019,451.527496 894.007019,449.424072 894.007019,445.424286 
	C888.277161,452.992889 882.372314,457.277496 873.558105,453.782227 
z"/>
<path fill="#FCFCFC" opacity="1.000000" stroke="none" 
	d="
M370.997589,390.052521 
	C370.997589,387.245514 370.997589,384.930237 370.997589,382.306885 
	C375.391876,382.306885 379.606049,382.306885 383.948822,382.306885 
	C384.048737,384.535797 384.143341,386.646271 384.289612,389.908936 
	C385.897064,388.510651 387.019501,387.802917 387.789948,386.819427 
	C392.003845,381.440399 396.387543,379.831879 402.612793,381.526093 
	C408.263031,383.063812 411.396118,386.957245 411.907135,393.653046 
	C412.223358,397.796722 412.137634,401.974976 412.143616,406.137787 
	C412.166260,421.928894 412.152740,437.720032 412.152740,453.756836 
	C407.780884,453.756836 403.703125,453.756836 399.107605,453.756836 
	C399.107605,445.399445 399.107605,437.126251 399.107605,428.853058 
	C399.107574,419.025238 399.120117,409.197388 399.103210,399.369598 
	C399.091736,392.672668 397.656525,390.718231 392.912140,390.823242 
	C387.583618,390.941193 384.103760,394.539673 384.094147,400.087219 
	C384.066681,415.911621 384.084473,431.736115 384.084473,447.560577 
	C384.084473,449.533936 384.084503,451.507294 384.084503,453.738342 
	C379.750916,453.738342 375.667328,453.738342 370.997589,453.738342 
	C370.997589,432.714539 370.997589,411.629395 370.997589,390.052521 
z"/>
<path fill="#FAFAFA" opacity="1.000000" stroke="none" 
	d="
M551.791931,422.495544 
	C551.867676,414.218903 551.766479,406.389954 552.064453,398.576202 
	C552.509033,386.919464 558.332092,381.331635 569.985718,381.053558 
	C572.309387,380.998138 574.670837,380.971161 576.960083,381.305817 
	C585.811890,382.599731 590.194153,387.207062 590.907288,396.160187 
	C591.208374,399.940704 590.957458,403.765167 590.957458,408.158661 
	C588.687805,408.158661 586.600159,408.158691 584.512512,408.158691 
	C582.556641,408.158691 580.600769,408.158661 578.085266,408.158661 
	C578.085266,403.946259 578.166931,400.157166 578.062988,396.373199 
	C577.952454,392.348663 575.441467,390.994598 571.763489,390.957306 
	C568.112915,390.920319 565.267944,392.213959 565.224609,396.161682 
	C565.065613,410.637939 565.061829,425.118225 565.228516,439.594360 
	C565.276489,443.767487 568.243103,445.111267 572.099609,445.052490 
	C575.961548,444.993561 578.010254,443.162872 578.077759,439.297546 
	C578.141602,435.644775 578.091492,431.990021 578.091492,428.029785 
	C582.461182,428.029785 586.540161,428.029785 590.895447,428.029785 
	C590.895447,432.176575 591.243164,436.332489 590.823975,440.409515 
	C589.917419,449.225586 585.215759,453.810883 576.357971,454.774963 
	C573.399719,455.096954 570.350281,455.091522 567.389282,454.784454 
	C557.669495,453.776581 552.763794,448.718201 552.118591,438.922485 
	C551.768921,433.614227 551.886719,428.275177 551.791931,422.495544 
z"/>
<path fill="#FCFCFC" opacity="1.000000" stroke="none" 
	d="
M449.340271,367.134583 
	C441.267151,367.824005 440.580536,369.098907 441.243195,381.996765 
	C443.133972,381.996765 445.065582,381.996765 446.997162,381.996765 
	C448.979523,381.996765 450.961884,381.996765 453.185852,381.996765 
	C453.185852,385.358826 453.185852,388.455658 453.185852,391.834076 
	C449.268219,391.834076 445.490143,391.834076 441.374146,391.834076 
	C441.374146,412.507538 441.374146,432.908997 441.374146,453.657471 
	C436.974884,453.657471 432.895081,453.657471 428.205566,453.657471 
	C428.205566,433.371704 428.205566,412.847626 428.205566,392.031281 
	C425.672516,392.031281 423.732971,392.031281 421.500122,392.031281 
	C421.500122,388.671356 421.500122,385.605408 421.500122,382.172699 
	C423.485565,382.082550 425.429016,381.994293 427.889191,381.882599 
	C428.520935,374.168915 426.162109,365.145538 434.582031,359.916138 
	C441.064575,355.890045 448.250000,356.731354 455.626068,357.546448 
	C455.626068,360.784973 455.626068,363.695221 455.626068,367.138245 
	C453.653168,367.138245 451.720795,367.138245 449.340271,367.134583 
z"/>
<path fill="#FBFBFB" opacity="1.000000" stroke="none" 
	d="
M844.150330,367.155548 
	C844.146118,372.264099 844.146118,376.894043 844.146118,381.953491 
	C847.878845,381.953491 851.457031,381.953491 855.199829,381.953491 
	C855.199829,385.486389 855.199829,388.584595 855.199829,391.904053 
	C851.506714,391.904053 848.041565,391.904053 843.874268,391.904053 
	C843.874268,395.182281 843.874207,398.262421 843.874207,401.342590 
	C843.874390,412.834808 843.867493,424.326996 843.877075,435.819214 
	C843.884338,444.563446 844.493469,445.154480 853.252380,445.074402 
	C854.227722,445.065491 855.203186,445.073181 856.043579,445.073181 
	C856.341797,445.593719 856.629517,445.866272 856.641724,446.150635 
	C857.040283,455.443542 857.035034,455.444977 847.554077,454.919708 
	C835.877808,454.272888 830.975586,449.381317 830.853760,437.680542 
	C830.697876,422.706573 830.815979,407.729797 830.815979,392.365112 
	C828.926270,392.165222 827.198853,391.982483 825.189636,391.769958 
	C825.189636,388.730438 825.189636,385.646454 825.189636,382.190674 
	C826.871948,382.077148 828.622986,381.959015 830.814026,381.811157 
	C830.814026,375.178802 830.814026,368.592621 830.814026,361.790466 
	C835.367493,361.790466 839.477722,361.790466 844.154541,361.790466 
	C844.154541,363.485931 844.154541,365.081421 844.150330,367.155548 
z"/>
<path fill="#FCFCFC" opacity="1.000000" stroke="none" 
	d="
M702.836975,359.151123 
	C707.075134,358.362427 711.272522,358.060181 715.715454,357.740234 
	C715.715454,390.108185 715.715454,421.801056 715.715454,453.749268 
	C711.523499,453.749268 707.446655,453.749268 702.796143,453.749268 
	C702.796143,422.373016 702.796143,391.005280 702.836975,359.151123 
z"/>
<path fill="#F2F2F2" opacity="1.000000" stroke="none" 
	d="
M527.766968,434.999359 
	C527.766968,441.467987 527.766968,447.436768 527.766968,453.713013 
	C523.244446,453.713013 519.032043,453.713013 514.611694,453.713013 
	C514.611694,429.843048 514.611694,406.106171 514.611694,382.172943 
	C518.957825,382.172943 523.062866,382.172943 527.489807,382.172943 
	C527.687927,384.755249 527.880493,387.264313 528.072998,389.773376 
	C528.436218,390.200104 528.799377,390.626801 529.162598,391.053528 
	C531.174988,382.324158 536.506165,380.382477 543.704529,382.145142 
	C543.704529,385.408112 543.704529,388.522980 543.704529,391.799469 
	C540.872070,391.972809 538.214050,391.921539 535.631470,392.337921 
	C530.234558,393.208038 527.832520,396.017303 527.792236,401.521088 
	C527.711853,412.513367 527.767517,423.506653 527.766968,434.999359 
z"/>
<path fill="#EEEEEE" opacity="1.000000" stroke="none" 
	d="
M359.591797,450.672363 
	C358.679962,452.104706 357.846649,453.790436 356.842804,453.898956 
	C353.567780,454.253052 350.230560,454.031647 346.625916,454.031647 
	C346.625916,430.067932 346.625916,406.362946 346.625916,382.313049 
	C350.668762,382.313049 354.737854,382.313049 359.592224,382.313049 
	C359.592224,404.835815 359.592224,427.519623 359.591797,450.672363 
z"/>
<path fill="#FAFAFA" opacity="1.000000" stroke="none" 
	d="
M982.841003,390.075256 
	C982.841003,411.523529 982.841003,432.483124 982.841003,453.724915 
	C978.428223,453.724915 974.335449,453.724915 969.998291,453.724915 
	C969.998291,430.012909 969.998291,406.253021 969.998291,382.242676 
	C974.101624,382.242676 978.180664,382.242676 982.841003,382.242676 
	C982.841003,384.709595 982.841003,387.148102 982.841003,390.075256 
z"/>
<path fill="#F4F4F4" opacity="1.000000" stroke="none" 
	d="
M876.723572,524.021484 
	C873.933105,524.275757 872.287170,523.956360 871.824341,520.918640 
	C871.252136,517.163147 870.061584,513.491211 868.978333,509.830475 
	C868.639099,508.683990 867.783081,507.690399 867.163513,506.626862 
	C866.712952,506.769226 866.262451,506.911591 865.811890,507.053955 
	C865.811890,512.592041 865.811890,518.130127 865.811890,523.837524 
	C863.287964,523.837524 861.358398,523.837524 859.203857,523.837524 
	C859.203857,507.988495 859.203857,492.244293 859.203857,476.517151 
	C859.531311,476.332397 859.799683,476.051910 860.076355,476.043335 
	C877.989258,475.488129 884.572693,483.131226 877.978516,500.116669 
	C874.887207,508.079315 877.290588,513.802856 878.753784,520.541565 
	C879.048523,521.899048 880.819031,524.353943 876.723572,524.021484 
M872.209045,497.064087 
	C872.230347,493.767822 872.369202,490.467102 872.245850,487.176270 
	C872.050659,481.972717 871.209778,481.425659 865.979858,482.590546 
	C865.979858,488.643951 865.979858,494.676361 865.979858,502.555298 
	C868.722534,500.505341 870.415405,499.239990 872.209045,497.064087 
z"/>
<path fill="#F4F4F4" opacity="1.000000" stroke="none" 
	d="
M652.196228,503.473969 
	C652.294189,505.872467 652.209229,507.432129 649.385010,507.207916 
	C646.087219,506.946075 642.752686,507.146729 639.156860,507.146729 
	C639.156860,510.011993 638.782349,512.733582 639.298279,515.274414 
	C639.604248,516.781372 641.314636,518.003235 642.393494,519.353271 
	C643.523315,518.046509 644.950195,516.884766 645.682312,515.383972 
	C646.201660,514.319397 645.782898,512.797180 645.782898,511.168762 
	C647.841736,511.168762 649.731079,511.168762 651.660522,511.168762 
	C653.297974,521.690186 649.251343,525.992432 639.431580,524.244995 
	C635.390503,523.525879 633.005493,521.267883 632.888306,517.304443 
	C632.667358,509.837128 632.490784,502.338043 632.943054,494.891479 
	C633.274719,489.432373 636.998718,487.159149 643.311096,487.494537 
	C649.137146,487.804047 651.605835,490.027954 652.040039,495.574127 
	C652.234436,498.057068 652.162292,500.560852 652.196228,503.473969 
M639.255249,495.009552 
	C639.255249,497.432404 639.255249,499.855286 639.255249,502.175385 
	C641.605469,502.175385 643.536560,502.175385 645.835632,502.175385 
	C645.835632,500.115021 645.978455,498.313477 645.807190,496.542297 
	C645.392029,492.248718 643.661316,491.622406 639.255249,495.009552 
z"/>
<path fill="#F4F4F4" opacity="1.000000" stroke="none" 
	d="
M536.399902,510.829407 
	C536.539917,505.207214 536.393494,500.031128 536.905823,494.921082 
	C537.455078,489.443542 540.958618,487.173248 547.270691,487.491669 
	C553.095154,487.785461 555.669556,490.009583 556.015625,495.523773 
	C556.252075,499.290375 556.060913,503.083801 556.060913,507.152649 
	C551.592407,507.152649 547.495972,507.152649 543.158936,507.152649 
	C543.158936,510.094727 542.777222,512.818909 543.303833,515.354370 
	C543.613403,516.845215 545.366028,518.036316 546.469543,519.362244 
	C547.575012,518.028625 548.969177,516.831848 549.687805,515.315002 
	C550.195007,514.244324 549.785889,512.739563 549.785889,511.141357 
	C551.889526,511.141357 553.785461,511.141357 555.692688,511.141357 
	C557.158569,521.837280 553.190796,526.000305 543.386902,524.238770 
	C539.065857,523.462402 537.119812,520.890930 536.762207,516.774841 
	C536.604126,514.954773 536.520691,513.128174 536.399902,510.829407 
M546.442505,502.453827 
	C550.032410,503.050568 550.388550,500.702393 549.796997,498.268829 
	C549.319336,496.304047 548.057434,494.529877 547.143433,492.671143 
	C545.833313,493.569977 543.301880,494.727081 543.427734,495.322327 
	C543.932312,497.708405 540.353027,501.500671 546.442505,502.453827 
z"/>
<path fill="#F4F4F4" opacity="1.000000" stroke="none" 
	d="
M751.713806,518.077148 
	C757.289978,519.998291 757.289978,519.998291 758.178467,511.036316 
	C759.945129,511.036316 761.733459,511.036316 763.545288,511.036316 
	C765.691711,521.375549 761.134094,526.191772 751.123230,524.188354 
	C747.320251,523.427307 745.026489,521.223572 744.917480,517.495605 
	C744.694580,509.868378 744.519775,502.208649 744.987854,494.603119 
	C745.307129,489.415741 748.975281,487.243835 755.094604,487.481049 
	C760.960510,487.708405 763.635864,489.923981 764.000183,495.350342 
	C764.253601,499.125214 764.049011,502.930847 764.049011,507.029633 
	C759.703369,507.029633 755.603027,507.029633 750.984863,507.029633 
	C751.160278,510.795807 751.320557,514.235779 751.713806,518.077148 
M753.499329,502.451111 
	C754.903503,502.336487 756.307678,502.221863 757.680298,502.109802 
	C757.680298,499.493347 757.947815,497.310059 757.563660,495.248169 
	C757.380981,494.267761 756.086060,493.124207 755.055054,492.785980 
	C754.185608,492.500793 752.052185,493.264038 752.049377,493.577362 
	C752.022827,496.526093 752.333984,499.477905 753.499329,502.451111 
z"/>
<path fill="#F2F2F2" opacity="1.000000" stroke="none" 
	d="
M803.959839,490.003174 
	C814.244751,483.923340 821.764893,488.007812 821.924377,499.396240 
	C821.998657,504.700623 822.142883,510.025330 821.786133,515.309143 
	C821.325134,522.135986 818.206909,524.717896 811.444336,524.576782 
	C804.857239,524.439331 801.840637,522.071167 801.881531,515.224304 
	C801.931152,506.910858 803.051392,498.603821 803.959839,490.003174 
M815.134216,516.157715 
	C815.143005,509.515228 815.309631,502.865814 815.019226,496.236481 
	C814.965027,494.997803 813.078735,493.839386 812.037903,492.643890 
	C810.750427,493.801483 808.421448,494.898468 808.349976,496.126892 
	C807.974121,502.581757 808.033447,509.075073 808.281311,515.541992 
	C808.330261,516.820618 809.759216,518.952454 810.742371,519.067810 
	C812.078674,519.224670 813.598267,517.819885 815.134216,516.157715 
z"/>
<path fill="#F5F5F5" opacity="1.000000" stroke="none" 
	d="
M714.282654,522.370483 
	C711.399414,525.110840 708.954773,524.674988 706.911011,521.661743 
	C702.672791,525.098755 698.439331,525.314758 696.018005,522.224548 
	C692.879822,518.219421 693.645325,509.814240 697.853455,506.775757 
	C700.767944,504.671448 704.230286,503.326019 707.785583,501.464691 
	C706.993591,498.677185 710.369446,493.508667 704.895691,492.941528 
	C699.456055,492.377930 702.996277,498.085449 701.138062,500.805481 
	C699.510803,500.805481 697.606201,500.805481 695.699585,500.805634 
	C693.881042,491.405884 697.403259,486.884491 706.059204,487.504883 
	C711.660645,487.906342 713.934631,489.828400 714.131592,495.524597 
	C714.435547,504.316925 714.265259,513.125671 714.282654,522.370483 
M702.080811,509.856659 
	C701.680115,511.598969 700.750916,513.431396 701.028198,515.058167 
	C701.302368,516.666809 702.794800,518.067932 703.752808,519.560059 
	C705.129639,518.206787 707.294006,517.055420 707.704285,515.454407 
	C708.369202,512.859619 707.883301,509.969910 707.883301,506.316315 
	C705.666809,507.543182 704.132935,508.392212 702.080811,509.856659 
z"/>
<path fill="#F4F4F4" opacity="1.000000" stroke="none" 
	d="
M454.450623,517.183167 
	C454.715881,507.356384 454.715881,497.895599 454.715881,488.209961 
	C457.192261,488.209961 459.117157,488.209961 461.307617,488.209961 
	C461.307617,500.000580 461.307617,511.764191 461.307617,523.844055 
	C458.698090,523.600952 455.431519,525.831604 454.482361,520.760071 
	C453.492828,521.659058 452.760956,522.479248 451.884918,523.093994 
	C446.928131,526.572510 441.218536,523.738586 441.050323,517.410034 
	C440.794281,507.778748 440.983276,498.135620 440.983276,488.239960 
	C443.113831,488.239960 445.030487,488.239960 447.522552,488.239960 
	C447.522552,496.991638 447.458588,505.771271 447.583435,514.548218 
	C447.605103,516.070312 448.346588,518.831543 448.891388,518.865906 
	C450.621521,518.974854 452.415833,518.065125 454.450623,517.183167 
z"/>
<path fill="#F5F5F5" opacity="1.000000" stroke="none" 
	d="
M415.089020,518.885803 
	C415.089020,520.824585 415.089020,522.277527 415.089020,523.872559 
	C412.850708,523.872559 411.065643,523.872559 408.543549,523.872559 
	C408.543549,515.795471 408.687653,507.735046 408.460083,499.685150 
	C408.387115,497.104370 410.207245,492.797363 405.449921,492.681213 
	C400.719818,492.565674 401.015961,496.557159 401.042542,499.987122 
	C401.103027,507.789368 401.061584,515.592468 401.061584,523.706848 
	C398.849548,523.706848 396.825439,523.706848 394.608154,523.706848 
	C394.608154,511.816589 394.608154,500.071930 394.608154,488.035522 
	C397.309692,488.548584 400.833099,486.022308 401.562134,491.331635 
	C402.207947,490.815674 402.605286,490.273651 403.115753,490.127991 
	C405.778076,489.368317 408.747620,487.703888 411.059235,488.344055 
	C412.806122,488.827820 414.704773,492.243042 414.836426,494.454742 
	C415.310272,502.413269 415.063507,510.414703 415.089020,518.885803 
z"/>
<path fill="#F0F0F0" opacity="1.000000" stroke="none" 
	d="
M585.973511,511.986359 
	C585.973511,503.854034 585.973511,496.218689 585.973511,488.123047 
	C588.874390,488.361023 592.209534,486.139771 592.974670,489.455200 
	C596.455933,488.994354 600.345215,487.299469 602.805237,488.509705 
	C604.954895,489.567291 606.418335,493.845154 606.575500,496.786316 
	C607.052063,505.704193 606.747925,514.663818 606.747925,523.814209 
	C604.375061,523.814209 602.448242,523.814209 600.017944,523.814209 
	C600.017944,515.170410 600.041809,506.568237 600.002502,497.966370 
	C599.991516,495.568176 600.665222,492.434662 596.741211,492.618713 
	C593.322998,492.779022 592.642456,495.229034 592.682007,498.273315 
	C592.791748,506.716949 592.720032,515.162964 592.720032,523.814270 
	C590.337524,523.814270 588.408386,523.814270 585.973511,523.814270 
	C585.973511,520.041687 585.973511,516.262512 585.973511,511.986359 
z"/>
<path fill="#F4F4F4" opacity="1.000000" stroke="none" 
	d="
M520.316040,512.294067 
	C520.573975,514.692627 520.790527,516.639465 521.007019,518.586243 
	C521.263428,518.594727 521.519836,518.603210 521.776245,518.611694 
	C522.874634,508.575531 523.973083,498.539429 525.098572,488.255829 
	C527.398987,488.255829 529.472656,488.255829 531.959290,488.255829 
	C530.226196,500.180359 528.519836,511.921356 526.789551,523.826538 
	C523.306030,523.826538 520.014221,523.826538 516.153320,523.826538 
	C514.456177,512.182983 512.744080,500.436554 510.979065,488.327332 
	C513.180359,488.327332 515.241455,488.327332 517.896301,488.327332 
	C518.681702,496.092438 519.478149,503.967377 520.316040,512.294067 
z"/>
<path fill="#F9F9F9" opacity="1.000000" stroke="none" 
	d="
M739.401550,499.706848 
	C737.416443,500.543091 735.467896,500.956146 732.992676,501.480865 
	C732.992676,499.130585 733.447876,497.312683 732.862427,495.937958 
	C732.296631,494.609497 730.788757,493.222748 729.436951,492.880768 
	C728.752014,492.707458 726.680847,494.748871 726.635620,495.846649 
	C726.361816,502.494202 726.333313,509.165466 726.630554,515.810547 
	C726.685303,517.033020 728.608032,518.171997 729.668518,519.349548 
	C730.780334,518.048462 732.188965,516.889709 732.904053,515.398438 
	C733.417419,514.327759 733.003906,512.812744 733.003906,511.182495 
	C735.075562,511.182495 736.977112,511.182495 738.895569,511.182495 
	C740.881165,521.287354 736.350403,526.029297 726.555786,524.205383 
	C721.959106,523.349426 720.060730,520.444885 719.972046,516.155334 
	C719.837891,509.663727 719.741699,503.162537 719.942993,496.675140 
	C720.146606,490.111298 723.155823,487.473022 729.776672,487.483154 
	C736.251221,487.493073 738.849182,489.847900 739.429993,496.290283 
	C739.519226,497.280243 739.439636,498.285492 739.401550,499.706848 
z"/>
<path fill="#F4F4F4" opacity="1.000000" stroke="none" 
	d="
M754.933899,403.947998 
	C757.913879,403.947998 760.403809,403.947998 763.258240,403.947998 
	C763.258240,407.704956 763.258240,411.266296 763.258240,415.229004 
	C750.664246,415.229004 737.971680,415.229004 725.056030,415.229004 
	C725.056030,411.603943 725.056030,407.988831 725.056030,403.947998 
	C734.889709,403.947998 744.666809,403.947998 754.933899,403.947998 
z"/>
<path fill="#F1F1F1" opacity="1.000000" stroke="none" 
	d="
M690.661926,480.751587 
	C684.643311,480.072021 684.288208,483.354126 685.096069,487.806671 
	C686.833374,487.909210 688.605042,488.013794 690.716919,488.138458 
	C690.794678,489.629089 690.867859,491.031647 690.956604,492.732391 
	C688.977112,492.895416 687.211792,493.040802 685.032227,493.220306 
	C685.032227,503.226807 685.032227,513.283997 685.032227,523.680725 
	C682.599609,523.680725 680.566833,523.680725 678.048340,523.680725 
	C678.048340,514.713867 678.134277,505.774597 677.953064,496.840729 
	C677.926758,495.542389 676.275818,494.339539 676.000183,492.967255 
	C675.681091,491.378265 675.844360,489.604797 676.201050,488.000977 
	C676.410095,487.060577 677.872437,486.346191 677.971863,485.442169 
	C678.937256,476.669556 682.103943,474.363281 692.139160,476.019897 
	C691.793274,477.586334 691.446838,479.155487 690.661926,480.751587 
z"/>
<path fill="#F2F2F2" opacity="1.000000" stroke="none" 
	d="
M792.445679,475.496826 
	C794.467712,475.512085 796.100220,475.588928 797.999939,475.678314 
	C797.999939,477.366150 797.999939,478.779053 797.999939,480.278931 
	C795.943359,480.720947 793.399963,480.571777 792.050537,481.768707 
	C790.885193,482.802399 791.077515,485.366638 790.566956,487.729248 
	C792.784485,487.862518 794.538635,487.967957 796.863342,488.107666 
	C796.933594,489.516846 797.009094,491.032043 797.103210,492.920685 
	C795.010010,492.920685 793.252747,492.920685 791.123657,492.920685 
	C791.123657,503.320404 791.123657,513.391479 791.123657,523.741028 
	C788.850952,523.741028 786.941956,523.741028 784.246948,523.741028 
	C784.246948,515.613586 784.375305,507.380371 784.164734,499.155884 
	C784.105591,496.845581 785.982239,493.351929 781.488159,492.505768 
	C781.260986,492.462982 781.558228,489.635345 781.611267,488.104370 
	C785.285828,488.289215 784.117676,485.478455 784.272217,483.636230 
	C784.679810,478.777527 787.109741,475.985504 792.445679,475.496826 
z"/>
<path fill="#F1F1F1" opacity="1.000000" stroke="none" 
	d="
M434.255890,519.487122 
	C435.340210,520.834717 436.024078,522.203369 436.764191,523.684570 
	C427.106934,525.841736 423.201660,522.860718 423.121155,514.090454 
	C423.076965,509.272308 423.306366,504.442444 423.033722,499.639374 
	C422.889893,497.105927 424.827545,493.611481 420.480835,492.311005 
	C420.100891,492.197388 419.899628,489.347595 420.274963,489.171051 
	C425.477905,486.723969 422.033813,481.944397 423.609650,478.153412 
	C425.368408,478.153412 427.427277,478.153412 429.804230,478.153412 
	C429.804230,481.140350 429.804230,484.220154 429.804230,487.635620 
	C431.785248,487.851074 433.502136,488.037781 435.468781,488.251678 
	C435.468781,489.722229 435.468781,491.116119 435.468781,492.856171 
	C433.772461,492.942200 432.155640,493.024231 429.939270,493.136658 
	C429.939270,501.000458 429.808044,508.914734 430.111908,516.812317 
	C430.148285,517.757568 432.550049,518.611755 434.255890,519.487122 
z"/>
<path fill="#F1F1F1" opacity="1.000000" stroke="none" 
	d="
M492.431976,519.501099 
	C493.833801,520.771301 494.824097,522.033752 496.180237,523.762695 
	C485.693512,525.585571 482.183960,522.794495 482.120178,513.911011 
	C482.082001,508.595184 482.190186,503.277161 482.072906,497.963654 
	C482.028503,495.952271 483.264160,493.256378 479.705566,492.511292 
	C479.310303,492.428528 478.949219,489.168610 479.293915,489.016388 
	C484.713196,486.623322 480.797607,481.694885 482.732056,478.069427 
	C484.448700,478.069427 486.544983,478.069427 488.930481,478.069427 
	C488.930481,481.245728 488.930481,484.346313 488.930481,487.733673 
	C490.774353,487.881348 492.363342,488.008636 494.341553,488.167114 
	C494.341553,489.625214 494.341553,491.121368 494.341553,492.856964 
	C492.646545,492.952728 491.032288,493.043945 488.922119,493.163177 
	C488.922119,500.965393 488.806976,508.728638 489.059448,516.479919 
	C489.093201,517.515442 490.987671,518.490417 492.431976,519.501099 
z"/>
<path fill="#F2F2F2" opacity="1.000000" stroke="none" 
	d="
M615.007507,516.505981 
	C614.987305,510.560547 615.171143,505.051941 614.891052,499.567017 
	C614.764221,497.081696 616.774231,493.535095 612.303955,492.360077 
	C611.954651,492.268250 611.714233,489.399811 612.106628,489.206024 
	C617.290283,486.646637 613.886902,481.727142 615.364258,478.050568 
	C617.415588,478.050568 619.524231,478.050568 621.756531,478.050568 
	C621.756531,481.274841 621.756531,484.255219 621.756531,487.583008 
	C623.541626,487.814178 625.255920,488.036163 627.132812,488.279205 
	C627.132812,489.797974 627.132812,491.225555 627.132812,492.885864 
	C625.340393,492.980896 623.738098,493.065857 621.671692,493.175415 
	C621.671692,500.962921 621.393555,508.594025 621.897034,516.173157 
	C622.002808,517.765076 624.982483,519.166138 626.637878,520.655151 
	C627.000732,520.353760 627.363586,520.052307 627.726440,519.750916 
	C627.726440,521.162964 627.726440,522.575073 627.726440,523.972290 
	C619.847351,525.466309 616.484985,523.591064 615.007507,516.505981 
z"/>
<path fill="#FCFCFC" opacity="1.000000" stroke="none" 
	d="
M892.966125,524.004211 
	C889.697876,524.004211 886.916138,524.004211 883.963745,524.004211 
	C883.963745,507.860809 883.963745,492.160522 883.963745,476.229065 
	C886.030945,476.229065 887.934387,476.229065 890.236694,476.229065 
	C890.236694,490.080872 890.236694,503.790436 890.236694,517.920532 
	C893.846619,517.920532 897.085632,517.920532 900.737000,517.920532 
	C900.847412,520.043335 900.937012,521.766541 901.053345,524.004211 
	C898.344788,524.004211 895.898682,524.004211 892.966125,524.004211 
z"/>
<path fill="#F0F0F0" opacity="1.000000" stroke="none" 
	d="
M573.973511,485.039551 
	C573.973511,481.898529 573.973511,479.251831 573.973511,476.290222 
	C576.188599,476.290222 578.218933,476.290222 580.487915,476.290222 
	C580.487915,492.124725 580.487915,507.854492 580.487915,523.806152 
	C578.348633,523.806152 576.419067,523.806152 573.973511,523.806152 
	C573.973511,511.063080 573.973511,498.298462 573.973511,485.039551 
z"/>
<path fill="#F0F0F0" opacity="1.000000" stroke="none" 
	d="
M388.930115,493.001648 
	C388.930115,503.470276 388.930115,513.439148 388.930115,523.717041 
	C386.636322,523.717041 384.595734,523.717041 382.329529,523.717041 
	C382.329529,507.874054 382.329529,492.138916 382.329529,476.188690 
	C384.476013,476.188690 386.413666,476.188690 388.930115,476.188690 
	C388.930115,481.617371 388.930115,487.059631 388.930115,493.001648 
z"/>
<path fill="#EFEFEF" opacity="1.000000" stroke="none" 
	d="
M827.358826,503.006226 
	C827.358826,497.878937 827.358826,493.250244 827.358826,488.202484 
	C829.531006,488.097260 831.435669,488.004974 833.782715,487.891266 
	C833.946960,489.188385 834.093079,490.342468 834.180786,491.035126 
	C836.488892,489.724426 838.822754,488.399109 841.915710,486.642700 
	C842.048279,489.469513 842.115845,490.911163 842.189819,492.488251 
	C841.660400,492.695465 841.253906,492.967712 840.827026,493.004608 
	C834.903870,493.516418 834.093628,494.363983 834.078674,500.331909 
	C834.059143,508.099060 834.073792,515.866272 834.073792,523.829224 
	C831.775452,523.829224 829.847107,523.829224 827.358826,523.829224 
	C827.358826,517.029602 827.358826,510.267212 827.358826,503.006226 
z"/>
<path fill="#F2F2F2" opacity="1.000000" stroke="none" 
	d="
M665.053833,490.972443 
	C667.078735,489.428528 668.972839,488.254303 671.705994,486.559906 
	C671.844727,489.534576 671.911743,490.971039 671.996216,492.783447 
	C671.228394,492.876770 670.632263,493.023529 670.039978,493.009308 
	C665.639648,492.903473 663.757629,494.921967 663.870544,499.415405 
	C664.070862,507.389801 663.926758,515.372864 663.926758,523.688110 
	C661.677307,523.688110 659.635986,523.688110 657.350098,523.688110 
	C657.350098,511.906311 657.350098,500.159637 657.350098,488.194336 
	C659.456116,488.194336 661.396057,488.194336 663.278442,488.194336 
	C663.836487,489.262482 664.379761,490.302307 665.053833,490.972443 
z"/>
<path fill="#EEEEEE" opacity="1.000000" stroke="none" 
	d="
M506.643738,506.000153 
	C506.643738,512.125488 506.643738,517.751648 506.643738,523.773621 
	C504.460052,523.896362 502.547028,524.003906 500.295319,524.130432 
	C500.295319,512.113708 500.295319,500.263489 500.295319,488.189941 
	C502.221008,488.189941 504.142914,488.189941 506.643768,488.189941 
	C506.643768,493.967621 506.643768,499.734314 506.643738,506.000153 
z"/>
<path fill="#EFEFEF" opacity="1.000000" stroke="none" 
	d="
M473.893158,516.903137 
	C473.893158,519.369263 473.893158,521.348328 473.893158,523.678223 
	C471.651184,523.678223 469.614899,523.678223 467.331848,523.678223 
	C467.331848,511.934906 467.331848,500.202087 467.331848,488.219635 
	C469.398773,488.219635 471.333527,488.219635 473.893158,488.219635 
	C473.893158,497.562195 473.893158,506.989136 473.893158,516.903137 
z"/>
<path fill="#EFEFEF" opacity="1.000000" stroke="none" 
	d="
M983.920288,360.199951 
	C983.923767,363.476074 983.923767,366.281769 983.923767,369.459229 
	C978.857971,369.459229 973.984741,369.459229 968.757019,369.459229 
	C968.757019,365.847443 968.757019,362.139069 968.757019,357.978973 
	C973.265381,357.978973 977.691650,357.910919 982.110779,358.056793 
	C982.730469,358.077271 983.315613,359.145966 983.920288,360.199951 
z"/>
<path fill="#EFEFEF" opacity="1.000000" stroke="none" 
	d="
M360.593018,368.494293 
	C355.663116,369.366058 350.821991,369.793243 345.534485,370.259827 
	C345.534485,365.932922 345.534485,362.246826 345.534485,358.258606 
	C350.337189,358.258606 355.227753,358.258606 360.681763,358.258606 
	C360.681763,361.522949 360.681763,364.786346 360.593018,368.494293 
z"/>
<path fill="#F9F9F9" opacity="1.000000" stroke="none" 
	d="
M474.254211,478.013611 
	C474.390961,485.011627 469.552338,480.629761 466.915527,482.231628 
	C466.915527,479.946045 466.915527,478.196014 466.915527,475.362762 
	C469.571625,476.155121 471.910553,476.852844 474.254211,478.013611 
z"/>
<path fill="#EEEEEE" opacity="1.000000" stroke="none" 
	d="
M506.649780,476.343811 
	C506.981445,478.276276 506.981445,479.894287 506.981445,481.730652 
	C504.416534,481.730652 502.165161,481.730652 499.568542,481.730652 
	C499.568542,479.972748 499.568542,478.257965 499.568542,476.029297 
	C501.789215,476.029297 504.053680,476.029297 506.649780,476.343811 
z"/>
<path fill="#020202" opacity="1.000000" stroke="none" 
	d="
M633.921875,306.088562 
	C624.165833,293.016052 614.648254,280.205688 605.167236,267.368347 
	C602.697083,264.023804 600.273987,260.640228 597.948975,257.193817 
	C594.836243,252.579803 595.498352,248.010223 599.598267,244.861465 
	C603.593018,241.793564 608.376465,242.534790 611.796692,246.929581 
	C614.555725,250.474670 617.102356,254.184143 619.798340,257.779358 
	C621.632019,260.224670 623.924927,262.091553 626.930237,259.899170 
	C630.001587,257.658569 629.407959,254.815048 627.386230,252.033936 
	C622.395874,245.169205 617.435913,238.282349 612.469727,231.400070 
	C610.291748,228.381744 609.283875,225.194351 611.077087,221.601883 
	C614.203369,215.338669 621.567993,214.809402 626.167786,220.761322 
	C630.438477,226.287430 634.305237,232.123901 638.461792,237.740906 
	C640.652954,240.702057 642.709351,245.316925 647.364502,241.828812 
	C651.550964,238.691956 648.427612,235.374359 646.293701,232.389664 
	C640.100342,223.726852 633.917908,215.056168 627.740356,206.382004 
	C623.377258,200.255493 623.442566,195.109940 627.903320,191.962494 
	C632.817627,188.495026 637.247864,189.901062 641.983948,196.464462 
	C647.923279,204.695297 653.846130,212.938049 659.774597,221.176697 
	C661.711792,223.868912 664.000305,226.583191 667.493530,224.157654 
	C671.149719,221.618958 669.605774,218.503036 667.461853,215.523407 
	C647.733093,188.103867 628.038086,160.660019 608.386536,133.185135 
	C607.056030,131.324982 605.580933,129.264465 605.177734,127.109215 
	C604.384460,122.868362 606.491882,119.712128 610.358765,117.860703 
	C614.786438,115.740814 618.284302,117.692787 620.816956,121.076584 
	C627.796326,130.401550 634.524292,139.915344 641.318665,149.378128 
	C658.691284,173.573486 676.043457,197.783600 693.411743,221.982101 
	C695.254639,224.549606 696.982666,227.724945 700.923767,226.037201 
	C704.694702,224.422363 703.942566,220.993729 703.604675,217.819550 
	C702.741272,209.706665 701.844666,201.595840 701.122681,193.469849 
	C700.553711,187.066849 703.738342,182.493622 708.808655,182.036362 
	C713.861023,181.580734 717.677734,185.005783 718.314331,191.327606 
	C720.783386,215.847412 723.941528,240.342178 725.168457,264.929840 
	C726.322144,288.050629 715.221497,305.695953 694.424011,315.500702 
	C672.878296,325.658203 652.305542,322.248749 633.921875,306.088562 
z"/>
<path fill="#060606" opacity="1.000000" stroke="none" 
	d="
M567.687683,143.204407 
	C555.467712,113.096008 572.088806,81.295715 603.399658,75.634338 
	C623.627930,71.976830 640.388855,79.418915 651.847595,96.336235 
	C662.895081,112.646347 662.598816,130.041687 653.204407,147.287994 
	C653.065430,147.543137 652.741089,147.697372 652.358032,148.021698 
	C650.956299,146.153534 649.664490,144.214188 648.150391,142.467545 
	C646.130066,140.136917 645.731445,138.007935 646.801636,134.826508 
	C651.804565,119.953934 647.539734,103.956947 635.809631,94.594856 
	C623.226135,84.551674 609.331055,82.883064 594.711243,90.022484 
	C580.321777,97.049385 571.988586,114.576584 575.160767,130.784744 
	C578.173645,146.178574 592.838562,159.827026 608.355042,159.732391 
	C616.463013,159.682938 619.120361,164.189133 622.281677,169.674194 
	C600.872070,175.392090 577.811096,164.390656 567.687683,143.204407 
z"/>
<path fill="#060606" opacity="1.000000" stroke="none" 
	d="
M605.934082,150.111130 
	C592.290894,146.357635 584.093811,136.236328 584.033386,123.500824 
	C583.974670,111.141830 591.970642,100.423546 604.058044,96.658501 
	C615.395935,93.126923 628.372070,97.984077 635.011780,108.215569 
	C638.992065,114.348953 639.883179,121.005486 638.627686,129.139206 
	C635.039246,124.115433 632.103088,119.773132 628.928467,115.612762 
	C623.721558,108.789032 615.518555,105.968063 608.162476,108.259979 
	C601.348755,110.382919 595.645996,117.041885 595.701294,124.685867 
	C595.731628,128.892166 597.519714,133.340668 599.458008,137.207413 
	C601.444336,141.170029 604.617737,144.530930 607.146973,148.240173 
	C607.358582,148.550552 606.622192,149.507339 605.934082,150.111130 
z"/>
<path fill="#060606" opacity="1.000000" stroke="none" 
	d="
M271.806946,405.768860 
	C267.943604,406.902405 264.362885,407.742371 260.322021,408.690247 
	C260.322021,395.184906 260.322021,382.765686 260.324280,370.345642 
	C270.280823,368.071533 273.706635,370.532684 273.903687,380.378387 
	C274.033539,386.867218 274.001160,393.366516 273.764465,399.851013 
	C273.695374,401.743622 272.674286,403.601440 271.806946,405.768860 
z"/>
<path fill="#020202" opacity="1.000000" stroke="none" 
	d="
M945.062622,426.982544 
	C945.062622,430.471741 945.101868,433.465332 945.054199,436.457489 
	C944.961426,442.274414 939.912537,446.574829 934.395630,444.886108 
	C932.600342,444.336578 930.324280,441.518036 930.281738,439.690430 
	C929.945190,425.235229 930.008728,410.767761 930.156250,396.306183 
	C930.193909,392.609619 932.359741,390.605072 936.330811,390.792603 
	C941.194153,391.022217 944.958740,394.099213 945.021484,398.552856 
	C945.152588,407.862335 945.062073,417.174957 945.062622,426.982544 
z"/>
<path fill="#020202" opacity="1.000000" stroke="none" 
	d="
M475.951965,438.496643 
	C475.926117,425.082428 475.862274,412.121307 475.932404,399.160919 
	C475.965515,393.041077 477.741699,391.069031 482.794861,390.976440 
	C488.140869,390.878448 490.005127,392.883087 490.040009,399.263489 
	C490.109955,412.058167 490.044739,424.853546 490.051666,437.648621 
	C490.053772,441.573151 488.847290,444.501068 484.391663,445.003693 
	C479.451813,445.561005 477.236267,443.993378 475.951965,438.496643 
z"/>
<path fill="#070707" opacity="1.000000" stroke="none" 
	d="
M614.220825,400.282104 
	C614.881409,397.320251 614.781677,393.980072 616.385681,392.547699 
	C617.979736,391.124237 621.448608,390.950500 623.783813,391.515747 
	C625.256104,391.872131 626.981384,394.511230 627.153992,396.267792 
	C627.619263,401.001740 627.313110,405.811493 627.313110,410.806885 
	C622.988953,410.806885 618.746521,410.806885 614.207153,410.806885 
	C614.207153,407.316101 614.207153,404.027924 614.220825,400.282104 
z"/>
<path fill="#020202" opacity="1.000000" stroke="none" 
	d="
M323.243103,399.247070 
	C323.262024,403.327271 323.262024,406.941406 323.262024,410.782898 
	C318.738586,410.782898 314.517212,410.782898 310.033569,410.782898 
	C310.033569,406.796692 309.971802,403.015869 310.047333,399.237762 
	C310.176605,392.771515 311.648712,390.987335 316.684052,390.971069 
	C321.499939,390.955475 322.787598,392.493134 323.243103,399.247070 
z"/>
<path fill="#070707" opacity="1.000000" stroke="none" 
	d="
M1007.121338,430.914490 
	C1007.176392,419.790253 1007.099792,409.149902 1007.367615,398.518280 
	C1007.516541,392.609131 1009.968140,390.608765 1015.413940,390.966370 
	C1018.890442,391.194672 1021.286072,392.805023 1021.314331,396.395660 
	C1021.428040,410.841339 1021.443237,425.289520 1021.284363,439.734467 
	C1021.241272,443.651917 1018.422791,445.015228 1014.800537,445.056793 
	C1011.089661,445.099335 1008.128174,444.078217 1007.643555,439.850464 
	C1007.322754,437.051605 1007.293457,434.219360 1007.121338,430.914490 
z"/>
<path fill="#020202" opacity="1.000000" stroke="none" 
	d="
M872.158691,497.519348 
	C870.415405,499.239990 868.722534,500.505341 865.979858,502.555298 
	C865.979858,494.676361 865.979858,488.643951 865.979858,482.590546 
	C871.209778,481.425659 872.050659,481.972717 872.245850,487.176270 
	C872.369202,490.467102 872.230347,493.767822 872.158691,497.519348 
z"/>
<path fill="#0F0F0F" opacity="1.000000" stroke="none" 
	d="
M639.411865,494.589935 
	C643.661316,491.622406 645.392029,492.248718 645.807190,496.542297 
	C645.978455,498.313477 645.835632,500.115021 645.835632,502.175385 
	C643.536560,502.175385 641.605469,502.175385 639.255249,502.175385 
	C639.255249,499.855286 639.255249,497.432404 639.411865,494.589935 
z"/>
<path fill="#0F0F0F" opacity="1.000000" stroke="none" 
	d="
M545.968323,502.452454 
	C540.353027,501.500671 543.932312,497.708405 543.427734,495.322327 
	C543.301880,494.727081 545.833313,493.569977 547.143433,492.671143 
	C548.057434,494.529877 549.319336,496.304047 549.796997,498.268829 
	C550.388550,500.702393 550.032410,503.050568 545.968323,502.452454 
z"/>
<path fill="#0F0F0F" opacity="1.000000" stroke="none" 
	d="
M753.023438,502.439941 
	C752.333984,499.477905 752.022827,496.526093 752.049377,493.577362 
	C752.052185,493.264038 754.185608,492.500793 755.055054,492.785980 
	C756.086060,493.124207 757.380981,494.267761 757.563660,495.248169 
	C757.947815,497.310059 757.680298,499.493347 757.680298,502.109802 
	C756.307678,502.221863 754.903503,502.336487 753.023438,502.439941 
z"/>
<path fill="#060606" opacity="1.000000" stroke="none" 
	d="
M815.086670,516.621277 
	C813.598267,517.819885 812.078674,519.224670 810.742371,519.067810 
	C809.759216,518.952454 808.330261,516.820618 808.281311,515.541992 
	C808.033447,509.075073 807.974121,502.581757 808.349976,496.126892 
	C808.421448,494.898468 810.750427,493.801483 812.037903,492.643921 
	C813.078735,493.839386 814.965027,494.997803 815.019226,496.236481 
	C815.309631,502.865814 815.143005,509.515228 815.086670,516.621277 
z"/>
<path fill="#0F0F0F" opacity="1.000000" stroke="none" 
	d="
M702.339905,509.548950 
	C704.132935,508.392212 705.666809,507.543182 707.883301,506.316315 
	C707.883301,509.969910 708.369202,512.859619 707.704285,515.454407 
	C707.294006,517.055420 705.129639,518.206787 703.752808,519.560059 
	C702.794800,518.067932 701.302368,516.666809 701.028198,515.058167 
	C700.750916,513.431396 701.680115,511.598969 702.339905,509.548950 
z"/>
</svg>