<svg version="1.1" id="Layer_1" xmlns="http://www.w3.org/2000/svg" xmlns:xlink="http://www.w3.org/1999/xlink" x="0px" y="0px"
	 width="100%" viewBox="0 0 1280 640" enable-background="new 0 0 1280 640" xml:space="preserve">
<path fill="#FFFFFF" opacity="1.000000" stroke="none" 
	d="
M930.000000,641.000000 
	C620.040283,641.000000 310.580536,641.000000 1.060407,641.000000 
	C1.060407,427.734711 1.060407,214.469406 1.060407,1.102044 
	C427.543121,1.102044 854.086243,1.102044 1280.814697,1.102044 
	C1280.814697,214.333206 1280.814697,427.666595 1280.814697,641.000000 
	C1164.135986,641.000000 1047.317993,641.000000 930.000000,641.000000 
M479.277069,520.558777 
	C475.273163,522.111084 473.813171,520.542847 473.869385,516.476562 
	C473.986359,508.012939 473.798523,499.544586 473.955719,491.082275 
	C474.015900,487.843292 472.635681,487.562805 469.882385,488.364105 
	C469.882385,498.410828 469.716553,508.348114 470.025757,518.270630 
	C470.085815,520.197998 471.696198,523.319702 473.126129,523.662964 
	C475.140625,524.146484 477.653992,522.551575 480.796600,521.651428 
	C482.075653,522.632324 483.354706,523.613220 485.519836,525.273621 
	C485.519836,511.908264 485.519836,500.137482 485.519836,488.024658 
	C484.118225,488.123749 482.933350,488.207489 481.596039,488.302002 
	C481.596039,497.008575 481.706390,505.325897 481.522186,513.636719 
	C481.473145,515.850220 480.521179,518.043701 479.277069,520.558777 
M437.909271,490.990753 
	C441.980988,490.289093 442.158295,492.921875 442.148010,495.843567 
	C442.115234,505.140320 442.135864,514.437195 442.135864,523.847046 
	C443.659760,523.847046 444.780182,523.847046 446.128418,523.847046 
	C446.128418,513.705078 446.293579,503.733276 445.986053,493.776031 
	C445.926117,491.834961 444.327026,488.676331 442.908691,488.345062 
	C440.888550,487.873260 438.379242,489.495697 435.225403,490.521423 
	C433.904114,489.549744 432.582825,488.578094 430.287933,486.890411 
	C430.287933,499.432281 430.353973,510.224854 430.248108,521.015747 
	C430.215912,524.299561 431.657440,524.560486 434.404022,523.556824 
	C434.404022,514.884216 434.226685,506.245148 434.525696,497.622650 
	C434.602875,495.398071 436.176514,493.225372 437.909271,490.990753 
M592.225281,68.791245 
	C587.705383,71.182999 582.833801,73.087074 578.725525,76.049644 
	C559.429260,89.964531 550.765015,109.119606 554.657410,132.483917 
	C560.318604,166.465927 591.986145,186.619659 625.938354,179.113205 
	C627.228333,178.828018 628.674561,179.249374 629.161377,179.282028 
	C625.063232,182.964767 620.401855,186.133362 617.120422,190.370621 
	C613.345459,195.245270 614.276672,201.308289 616.068604,206.938644 
	C602.276001,211.847610 598.433044,219.147324 601.828247,233.556015 
	C586.076111,238.497742 581.606812,251.209106 591.064026,264.423065 
	C600.716919,277.910431 610.323059,291.435059 620.202759,304.755615 
	C648.951294,343.516388 708.393372,337.448303 728.952698,293.729980 
	C734.881531,281.122681 735.804565,267.973145 734.234741,254.243439 
	C731.756836,232.573257 730.073181,210.813461 727.846375,189.112839 
	C726.814514,179.057129 717.578674,171.598846 708.153381,172.728134 
	C697.624451,173.989700 690.484436,182.820862 691.517456,193.263199 
	C691.821838,196.339981 692.035278,199.425751 692.290405,202.507401 
	C690.550171,201.548019 689.601135,200.283295 688.682129,198.997086 
	C679.588806,186.270538 670.606873,173.462112 661.332703,160.868851 
	C659.136047,157.886108 658.959106,155.828827 660.970459,152.633453 
	C668.750916,140.272919 671.255127,126.620430 668.436829,112.394630 
	C661.429871,77.025902 627.960205,57.708122 592.225281,68.791245 
M691.573792,416.498779 
	C691.573792,397.069519 691.573792,377.640228 691.573792,358.177246 
	C686.845032,358.177246 682.887573,358.177246 678.534668,358.177246 
	C678.534668,360.146576 678.536499,361.946838 678.534363,363.747101 
	C678.506226,387.738617 678.514038,411.730225 678.425354,435.721527 
	C678.400757,442.371063 676.232544,444.460571 670.238037,444.148041 
	C665.213379,443.886078 663.489990,441.967682 663.445618,435.746277 
	C663.303040,415.753876 663.289307,395.760529 663.234558,375.767548 
	C663.218689,369.963715 663.232117,364.159821 663.232117,358.281860 
	C658.945129,358.281860 654.884094,358.281860 650.600708,358.281860 
	C650.600708,384.533661 650.338989,410.503693 650.709229,436.464722 
	C650.899048,449.778503 656.729065,454.826660 670.201050,454.934296 
	C672.682068,454.954132 675.207581,454.789795 677.641602,454.333008 
	C686.294983,452.708893 690.431824,448.305664 691.021790,439.476440 
	C691.509949,432.171082 691.405762,424.826080 691.573792,416.498779 
M272.745453,446.914276 
	C273.337799,449.266541 273.930145,451.618805 274.481110,453.806732 
	C279.298309,453.806732 283.574280,453.806732 288.209229,453.806732 
	C284.749603,441.582245 281.367950,429.633209 278.531036,419.609100 
	C281.529755,414.001160 285.375427,409.906189 285.739838,405.521851 
	C286.670990,394.319550 286.535919,382.959869 285.876038,371.718964 
	C285.454956,364.546265 280.700348,359.508301 273.368652,358.949768 
	C264.697144,358.289246 255.936813,358.794647 247.259171,358.794647 
	C247.259171,390.310425 247.259171,422.016632 247.259171,453.765991 
	C251.594330,453.765991 255.668900,453.765991 260.082947,453.765991 
	C260.082947,442.270203 260.082947,431.006622 260.082947,419.887573 
	C264.395569,418.331696 266.032898,420.066467 266.885773,423.910400 
	C268.539429,431.363403 270.583618,438.729706 272.745453,446.914276 
M785.443970,383.485504 
	C785.540161,380.825806 785.523682,378.156250 785.755371,375.508423 
	C786.280701,369.505707 788.321594,367.630371 793.838928,367.853912 
	C798.796936,368.054779 800.758667,370.227173 800.896851,376.099670 
	C801.024719,381.535400 800.924011,386.976562 800.924011,392.583679 
	C805.245911,392.583679 809.016052,392.583679 813.424316,392.583679 
	C813.424316,387.481934 813.607544,382.508362 813.390564,377.552307 
	C812.696533,361.705475 806.483704,356.172791 790.619324,357.111389 
	C788.967285,357.209137 787.326111,357.556000 785.689941,357.844177 
	C779.264038,358.975922 774.574463,362.674591 774.027466,369.108490 
	C773.229919,378.489532 773.102173,388.006622 773.701233,397.401154 
	C774.144836,404.358521 778.940125,408.643372 785.732117,410.427551 
	C788.463928,411.145172 791.172180,411.976929 793.934082,412.549500 
	C797.681274,413.326263 799.980042,415.557739 800.254517,419.273132 
	C800.682312,425.065186 800.976868,430.893219 800.833069,436.693787 
	C800.697754,442.156036 798.502625,444.101715 793.577759,444.177490 
	C788.240356,444.259583 786.029175,442.492371 785.696533,436.821167 
	C785.350098,430.914490 785.619324,424.971771 785.619324,419.054260 
	C781.133118,419.054260 777.255432,419.054260 772.988037,419.054260 
	C772.988037,424.089142 772.947998,428.743530 772.995239,433.397034 
	C773.160400,449.664764 779.601135,455.741486 795.799866,454.905548 
	C797.286560,454.828827 798.776672,454.581970 800.237427,454.279968 
	C808.014038,452.672333 812.082764,448.959015 812.971924,441.020599 
	C813.782654,433.782227 814.165955,426.366943 813.559875,419.128265 
	C812.573975,407.354279 808.743164,403.536682 797.391357,400.767670 
	C786.383667,398.082611 786.233459,397.899261 785.632568,386.451477 
	C785.597595,385.786194 785.548889,385.121613 785.443970,383.485504 
M921.732117,451.820435 
	C931.001587,458.311249 938.254761,454.624939 945.103210,445.325867 
	C945.103210,449.352539 945.103210,451.452209 945.103210,453.639404 
	C949.625610,453.639404 953.813477,453.639404 957.742798,453.639404 
	C957.742798,421.572723 957.742798,389.874817 957.742798,358.352966 
	C953.359924,358.352966 949.301453,358.352966 944.639771,358.352966 
	C944.639771,368.813873 944.639771,378.926910 944.639771,390.338623 
	C942.928040,388.267822 942.028320,387.355835 941.333862,386.307922 
	C938.670166,382.288879 934.867859,380.814423 930.197205,381.063965 
	C922.062317,381.498627 917.413330,386.647156 917.174500,396.839417 
	C916.843323,410.972382 916.796509,425.129272 917.284180,439.253235 
	C917.424133,443.307526 919.828735,447.283569 921.732117,451.820435 
M503.147308,408.300995 
	C502.824677,403.667908 502.918793,398.958649 502.089020,394.418274 
	C500.562500,386.065399 496.909912,382.738953 488.565552,381.436646 
	C485.956726,381.029510 483.253265,380.994324 480.606445,381.105408 
	C469.271606,381.581177 463.616699,386.616730 463.170776,398.020111 
	C462.651123,411.309021 462.851562,424.638367 463.150269,437.940948 
	C463.266632,443.121887 464.512146,448.585907 469.308807,451.525818 
	C477.216034,456.372223 485.913605,456.252045 494.259583,452.906616 
	C501.537872,449.989258 502.587585,442.918701 502.908173,436.202484 
	C503.336212,427.234406 503.104950,418.234894 503.147308,408.300995 
M300.917603,449.510437 
	C305.228851,455.965393 322.155212,456.423706 328.974976,452.463837 
	C335.039978,448.942291 337.661316,438.981781 335.400238,428.074768 
	C331.470581,428.074768 327.552551,428.074768 323.094727,428.074768 
	C323.094727,432.129089 323.201569,435.926849 323.065399,439.715881 
	C322.922241,443.699280 320.459473,445.093445 316.734833,445.078705 
	C313.070251,445.064178 310.344879,443.726562 310.199158,439.820862 
	C309.959747,433.405579 310.134308,426.974915 310.134308,420.095581 
	C318.872131,420.095581 327.262787,420.095581 335.871643,420.095581 
	C335.871643,411.849304 336.118286,404.052338 335.779694,396.280823 
	C335.574707,391.575562 334.247009,386.795776 329.813782,384.235596 
	C321.923096,379.678833 313.446625,379.764435 305.342957,383.322784 
	C298.241730,386.440979 297.149139,393.378540 297.038422,400.199646 
	C296.844025,412.174957 296.687622,424.167084 297.144165,436.128174 
	C297.308533,440.434784 299.284729,444.672211 300.917603,449.510437 
M616.104309,381.313538 
	C606.071777,383.528290 602.160889,386.743225 601.689819,396.882629 
	C601.004028,411.643707 601.237366,426.491577 601.978027,441.257324 
	C602.381897,449.308960 606.602234,453.062256 614.685059,454.253937 
	C619.043579,454.896576 623.627869,454.664948 628.035034,454.164764 
	C634.374817,453.445160 638.360901,449.503937 639.335754,443.251526 
	C640.113953,438.260376 640.088928,433.144012 640.417297,428.131439 
	C635.656067,428.131439 631.768555,428.131439 627.924683,428.131439 
	C627.681824,432.435883 627.545593,436.414368 627.207581,440.375610 
	C626.905762,443.912323 624.523682,445.042145 621.301880,445.065674 
	C618.036743,445.089508 614.869019,444.412628 614.676575,440.603699 
	C614.337402,433.891022 614.581665,427.148895 614.581665,419.972168 
	C623.210327,419.972168 631.614319,419.972168 640.297241,419.972168 
	C640.297241,413.361053 640.484741,407.197815 640.260620,401.049561 
	C639.687012,385.316010 634.660217,380.678040 618.969421,381.074615 
	C618.304138,381.091431 617.639954,381.155151 616.104309,381.313538 
M1001.549255,452.110870 
	C1006.046814,453.061981 1010.528442,454.727295 1015.045044,454.828308 
	C1027.829224,455.114166 1033.370605,450.498077 1034.111450,437.681519 
	C1034.878052,424.418182 1034.816284,411.041504 1034.058472,397.774902 
	C1033.367920,385.686493 1027.731201,381.228851 1015.485596,381.062469 
	C1013.328125,381.033142 1011.136414,381.073914 1009.013000,381.411926 
	C1000.140015,382.824493 995.486877,386.799713 995.102173,395.701721 
	C994.463867,410.471924 994.505493,425.308472 995.187439,440.074310 
	C995.370667,444.043640 998.903076,447.858307 1001.549255,452.110870 
M899.524902,382.000916 
	C897.756531,382.000916 895.988159,382.000916 893.968872,382.000916 
	C893.968872,393.838928 893.969116,405.136139 893.968872,416.433380 
	C893.968750,423.427399 894.078186,430.423798 893.927307,437.414581 
	C893.832214,441.822113 889.487305,445.321991 884.661255,445.251434 
	C879.578369,445.177124 878.828613,441.812561 878.890869,437.756683 
	C878.942017,434.427002 878.900635,431.095886 878.900635,427.765411 
	C878.900513,412.656952 878.900574,397.548492 878.900574,382.222504 
	C874.414307,382.222504 870.349915,382.222504 866.054077,382.222504 
	C866.054077,402.216461 866.049255,421.990265 866.071289,441.764038 
	C866.072205,442.583313 866.308167,443.405457 866.462402,444.221008 
	C867.533325,449.884064 870.830688,453.461945 876.506653,454.615326 
	C882.036072,455.738983 886.694397,454.243774 890.223022,449.661926 
	C891.035767,448.606537 892.007141,447.673279 893.946411,445.537476 
	C893.946411,449.344208 893.946411,451.540161 893.946411,453.725891 
	C898.528931,453.725891 902.600952,453.725891 906.670410,453.725891 
	C906.670410,429.725464 906.670410,406.006409 906.670410,382.000916 
	C904.426331,382.000916 902.454529,382.000916 899.524902,382.000916 
M371.002563,412.500000 
	C371.002563,426.256653 371.002563,440.013336 371.002563,453.743408 
	C375.638824,453.743408 379.716583,453.743408 384.056976,453.743408 
	C384.056976,451.853851 384.056946,450.214874 384.056946,448.575897 
	C384.057007,432.089844 384.013885,415.603607 384.083801,399.117859 
	C384.104523,394.231323 388.182556,390.672363 393.297363,390.753204 
	C397.633820,390.821747 399.128510,392.764099 399.139587,398.673248 
	C399.171448,415.658813 399.145355,432.644501 399.161407,449.630127 
	C399.162720,451.048004 399.309296,452.465759 399.383484,453.795959 
	C403.833710,453.795959 407.782562,453.795959 411.944916,453.795959 
	C411.944916,433.653259 411.947845,413.717621 411.932190,393.782013 
	C411.931671,393.124817 411.766296,392.463013 411.637634,391.811310 
	C410.579742,386.452576 407.750397,382.676880 402.180481,381.478546 
	C396.503265,380.257141 391.640930,381.365570 388.106262,386.429321 
	C387.304077,387.578583 386.049774,388.412201 384.298248,390.051025 
	C384.102081,386.601929 383.976257,384.389252 383.857208,382.296265 
	C379.362274,382.296265 375.287415,382.296265 371.002563,382.296265 
	C371.002563,392.225647 371.002563,401.862823 371.002563,412.500000 
M576.362244,392.143524 
	C577.316833,397.375824 578.271423,402.608154 579.229309,407.858459 
	C582.862915,407.858459 586.789429,407.858459 590.937012,407.858459 
	C590.937012,403.805664 591.213379,399.981995 590.881897,396.211761 
	C590.084534,387.142181 585.872192,382.734344 576.898315,381.380432 
	C574.447388,381.010651 571.910095,380.994415 569.425354,381.105591 
	C558.564758,381.591644 552.741455,386.497162 552.276672,397.254150 
	C551.673279,411.216522 551.907898,425.229950 552.240051,439.210541 
	C552.373779,444.840607 554.492188,450.004852 560.086304,452.792450 
	C576.685303,461.063812 591.196167,452.214508 591.061890,433.917816 
	C591.047607,431.969299 591.059998,430.020599 591.059998,428.159119 
	C586.510010,428.159119 582.455627,428.159119 578.325134,428.159119 
	C578.325134,430.018188 578.339722,431.511871 578.321289,433.005157 
	C578.300720,434.670258 578.300232,436.337921 578.203613,437.999390 
	C577.874023,443.665344 576.402588,445.188385 571.474854,445.048676 
	C566.729492,444.914124 565.113892,443.181396 565.073181,437.553009 
	C564.981689,424.895447 564.976929,412.236542 565.042480,399.578735 
	C565.084412,391.482269 567.542908,389.723663 576.362244,392.143524 
M452.847626,391.769012 
	C453.021698,388.575592 453.195801,385.382202 453.388733,381.842773 
	C448.855804,381.842773 445.082916,381.842773 441.354034,381.842773 
	C440.245178,368.920074 440.245178,368.920074 455.579468,366.629303 
	C455.579468,363.746674 455.579468,360.851929 455.579468,357.670441 
	C448.006165,356.566711 440.609161,355.911713 434.131287,360.274536 
	C426.400818,365.480988 428.454956,374.099701 427.893127,381.779694 
	C425.591431,381.969849 423.539124,382.139404 421.477661,382.309692 
	C421.477661,385.625488 421.477661,388.563141 421.477661,391.812225 
	C423.704926,391.929047 425.759460,392.036804 428.228821,392.166351 
	C428.228821,412.923645 428.228821,433.318237 428.228821,453.714722 
	C432.751190,453.714722 436.819061,453.714722 441.219574,453.714722 
	C441.219574,433.028107 441.219574,412.630768 441.219574,391.971100 
	C445.030334,391.971100 448.501556,391.971100 452.847626,391.769012 
M830.887390,381.141602 
	C829.060608,381.573883 827.233826,382.006134 825.296265,382.464630 
	C825.296265,385.536560 825.296265,388.729065 825.296265,391.898651 
	C827.268921,391.990295 828.883118,392.065277 830.856812,392.156952 
	C830.856812,407.429993 830.776489,422.386292 830.882263,437.341278 
	C830.966858,449.307983 835.758972,454.170166 847.797241,454.899719 
	C856.811401,455.446045 857.352417,454.877716 856.440125,445.792175 
	C856.426025,445.651245 856.248352,445.526733 855.951050,445.139008 
	C854.851257,445.139008 853.554016,445.131348 852.256897,445.140259 
	C844.822876,445.191467 843.863647,444.286774 843.837769,436.901733 
	C843.804443,427.408661 843.829163,417.915344 843.828979,408.422150 
	C843.828857,403.006470 843.828979,397.590820 843.828979,391.966675 
	C847.939636,391.966675 851.410217,391.966675 855.102661,391.966675 
	C855.102661,388.635834 855.102661,385.525360 855.102661,381.956970 
	C851.422791,381.956970 847.854736,381.956970 843.870728,381.956970 
	C843.870728,374.970612 843.870728,368.432068 843.870728,361.954468 
	C839.343445,361.954468 835.256409,361.954468 830.935730,361.954468 
	C830.935730,368.219421 830.935730,374.205597 830.887390,381.141602 
M715.900574,430.500000 
	C715.900574,406.412994 715.900574,382.325989 715.900574,358.289795 
	C711.205505,358.289795 707.122375,358.289795 703.127563,358.289795 
	C703.127563,390.303436 703.127563,422.027374 703.127563,453.706757 
	C707.495483,453.706757 711.567200,453.706757 715.900574,453.706757 
	C715.900574,446.107025 715.900574,438.803497 715.900574,430.500000 
M517.775635,454.013885 
	C520.908325,454.013885 524.041016,454.013885 527.663330,454.013885 
	C527.663330,452.015106 527.663330,450.392883 527.663330,448.770630 
	C527.663391,433.274048 527.626648,417.777374 527.680786,402.280975 
	C527.704407,395.517059 530.545898,392.535278 537.243103,392.082306 
	C539.339783,391.940521 541.454163,392.060242 543.651733,392.060242 
	C543.651733,388.360962 543.651733,385.283844 543.651733,381.369049 
	C540.278809,381.910065 536.827271,381.667999 534.327332,383.094086 
	C531.946655,384.452148 530.559204,387.551453 528.000244,390.825439 
	C527.791077,387.412994 527.638245,384.919250 527.473022,382.223022 
	C523.137573,382.223022 519.049988,382.223022 515.009949,382.223022 
	C514.827881,382.653564 514.589050,382.955048 514.588562,383.256927 
	C514.553711,405.918060 514.510071,428.579376 514.618835,451.239929 
	C514.623291,452.167755 516.074341,453.088654 517.775635,454.013885 
M982.788391,387.657410 
	C982.788391,385.882111 982.788391,384.106812 982.788391,382.276489 
	C978.175659,382.276489 974.107544,382.276489 970.060059,382.276489 
	C970.060059,406.263428 970.060059,429.968689 970.060059,453.710693 
	C974.365906,453.710693 978.421265,453.710693 982.788452,453.710693 
	C982.788452,431.815033 982.788452,410.218597 982.788391,387.657410 
M346.522644,395.503052 
	C346.522644,414.888580 346.522644,434.274109 346.522644,453.728516 
	C351.079895,453.728516 355.161896,453.728516 359.162933,453.728516 
	C359.162933,429.756805 359.162933,406.056732 359.162933,382.276062 
	C354.838470,382.276062 350.758789,382.276062 346.522614,382.276062 
	C346.522614,386.529907 346.522614,390.516693 346.522644,395.503052 
M834.388916,505.859558 
	C835.376648,506.849945 836.893066,507.678192 837.255676,508.860321 
	C838.471863,512.825134 839.363708,516.898132 840.209229,520.965149 
	C840.819946,523.902344 842.257507,524.820068 845.041931,523.533997 
	C844.259033,515.543335 839.164429,508.318176 843.736877,499.415283 
	C846.103577,494.807159 844.266113,487.983337 844.127625,482.165314 
	C844.038086,478.403015 841.694824,476.393768 838.092957,476.109894 
	C835.180847,475.880432 832.236328,476.063416 829.078003,476.063416 
	C829.078003,491.412262 829.141663,506.214996 829.029602,521.016357 
	C829.004211,524.371643 830.541687,524.319702 833.503052,523.620056 
	C833.503052,517.661987 833.503052,511.873657 834.388916,505.859558 
M746.499023,403.984680 
	C739.406799,403.984680 732.314575,403.984680 725.162781,403.984680 
	C725.162781,408.033356 725.162781,411.602661 725.162781,415.156891 
	C737.954346,415.156891 750.488708,415.156891 763.163086,415.156891 
	C763.163086,411.331482 763.163086,407.801636 763.163086,403.984680 
	C757.754517,403.984680 752.626221,403.984680 746.499023,403.984680 
M701.242859,493.481171 
	C700.945007,489.707123 698.921631,487.879181 695.120300,487.669800 
	C688.666504,487.314392 686.250427,490.086548 686.491455,497.335022 
	C686.605774,500.772949 688.083862,500.688721 690.401428,499.712036 
	C690.535950,497.442627 690.389343,495.386749 690.879211,493.495758 
	C691.137146,492.500336 692.412781,491.277771 693.401001,491.096619 
	C694.446655,490.904938 696.174622,491.487701 696.771851,492.325684 
	C698.944153,495.373474 696.945312,502.365204 693.480469,504.067871 
	C688.100647,506.711609 685.185242,510.845062 686.089050,516.857178 
	C686.451355,519.266846 687.505066,522.554443 689.280090,523.502502 
	C691.174927,524.514465 694.293274,523.235596 697.094971,522.933289 
	C698.032532,523.208313 699.522278,523.645264 701.337952,524.177856 
	C701.337952,513.632874 701.337952,503.977356 701.242859,493.481171 
M743.382996,521.730530 
	C743.800903,519.299316 744.540283,516.861084 744.487305,514.440186 
	C744.464294,513.390564 742.809021,512.376770 741.895142,511.346680 
	C741.479492,511.665466 741.063904,511.984253 740.648315,512.303040 
	C740.648315,513.953491 741.110962,515.797729 740.522827,517.201843 
	C739.889343,518.714233 738.271362,519.814270 737.082886,521.094177 
	C735.812195,519.736511 733.720093,518.527161 733.442505,516.990173 
	C732.871521,513.828308 733.270752,510.491241 733.270752,506.889435 
	C737.128479,506.889435 740.579346,506.889435 744.600037,506.889435 
	C744.600037,502.759552 744.809204,498.957733 744.551453,495.187866 
	C744.154236,489.377350 742.173462,487.595459 736.845215,487.656586 
	C731.641724,487.716278 729.454468,489.696106 729.236389,495.382294 
	C728.981262,502.034821 729.011230,508.706757 729.166077,515.364441 
	C729.372498,524.240234 735.225098,527.153748 743.382996,521.730530 
M565.019836,506.913605 
	C565.483398,502.551270 566.278625,498.192017 566.319519,493.825714 
	C566.362610,489.231598 563.260620,487.640594 558.985779,487.630096 
	C554.721924,487.619598 551.587280,489.257294 551.441711,493.742188 
	C551.172607,502.041931 551.216431,510.362091 551.467651,518.663513 
	C551.569336,522.025330 553.764404,523.921875 557.325134,524.290955 
	C564.218689,525.005310 567.393372,521.827454 566.526978,514.435791 
	C566.396179,513.319580 564.803284,512.374695 563.886658,511.350586 
	C563.473877,511.670166 563.061035,511.989777 562.648254,512.309326 
	C562.648254,513.958069 563.110107,515.800049 562.523010,517.203003 
	C561.890503,518.714355 560.275391,519.814575 559.088989,521.094177 
	C557.816345,519.741089 555.720032,518.536804 555.443176,517.003845 
	C554.871887,513.841248 555.271118,510.503326 555.271118,506.931885 
	C558.467529,506.931885 561.282410,506.931885 565.019836,506.913605 
M643.889404,524.243225 
	C648.400146,522.866882 651.080383,517.936462 649.469666,513.370300 
	C649.155151,512.478760 647.374084,512.104431 645.640869,511.142822 
	C645.640869,514.059692 646.117004,515.919373 645.511719,517.307556 
	C644.860840,518.800232 643.195312,519.850525 641.972534,521.093811 
	C640.744385,519.865662 638.672363,518.769165 638.456116,517.383118 
	C637.936707,514.054199 638.288086,510.589478 638.288086,506.822510 
	C642.222778,506.822510 645.658936,506.822510 649.628357,506.822510 
	C649.628357,502.823059 649.809204,499.185059 649.588074,495.571655 
	C649.211426,489.417297 647.234009,487.549164 641.729980,487.656647 
	C636.444641,487.759857 634.374023,489.865448 634.193115,495.996857 
	C634.001587,502.487366 634.024658,508.990173 634.166687,515.482971 
	C634.322144,522.593018 635.928406,524.064758 643.889404,524.243225 
M610.089478,490.834839 
	C606.690552,486.578766 604.082214,486.534882 600.002075,490.254333 
	C598.534973,489.298218 597.165283,488.405518 595.130127,487.079193 
	C595.130127,500.145630 595.130127,511.918365 595.130127,523.688965 
	C598.145325,524.670593 599.070984,523.692505 599.011841,520.731323 
	C598.851990,512.736450 599.009644,504.735840 598.932495,496.738525 
	C598.900818,493.451294 599.910339,490.992676 603.534241,490.956635 
	C607.400696,490.918121 606.740906,494.097778 606.761414,496.450043 
	C606.840698,505.553101 606.793640,514.657227 606.793640,523.760925 
	C607.256226,524.051758 607.718811,524.342590 608.181396,524.633423 
	C609.057495,523.606750 610.689392,522.582275 610.692505,521.552979 
	C610.722717,511.572815 610.479858,501.591766 610.089478,490.834839 
M794.886658,509.444275 
	C794.815674,504.625946 794.974976,499.790253 794.614014,494.993744 
	C794.187683,489.326935 792.090149,487.597412 786.691101,487.671753 
	C781.441162,487.744049 779.294678,489.697083 779.115723,495.358093 
	C778.895264,502.331207 778.908569,509.320129 779.092957,516.295044 
	C779.251953,522.308533 781.372437,524.326477 786.824158,524.352173 
	C792.298218,524.378052 794.191895,522.505371 794.705261,516.397522 
	C794.872009,514.413513 794.828613,512.411926 794.886658,509.444275 
M532.269470,487.979156 
	C531.530823,488.849457 530.070190,489.805756 530.162048,490.577148 
	C531.474365,501.597229 532.996338,512.592346 534.494629,523.794556 
	C536.823669,523.794556 538.915405,523.794556 541.363098,523.794556 
	C542.941284,511.959686 544.513123,500.172150 546.136108,488.001129 
	C544.455811,488.092499 543.242859,488.158447 541.902405,488.231323 
	C540.747437,498.190979 539.624146,507.877563 538.500793,517.564148 
	C537.236084,516.304321 537.042114,515.090393 536.867126,513.873718 
	C535.628845,505.263916 534.394531,496.653534 532.269470,487.979156 
M723.168579,517.856140 
	C723.168579,515.899963 723.168579,513.943848 723.168579,511.982391 
	C719.793030,512.071533 720.005005,512.107239 719.149353,517.183044 
	C718.905457,518.629944 717.039978,519.803467 715.918152,521.102356 
	C714.631165,519.956055 712.281372,518.855591 712.229553,517.656067 
	C711.892883,509.853882 711.914978,502.024872 712.208435,494.219269 
	C712.251587,493.070892 714.531799,490.974365 715.468140,491.133514 
	C716.876404,491.372803 718.199036,493.080475 719.183289,494.436066 
	C719.662842,495.096497 719.380432,496.380280 719.294373,497.368927 
	C718.975647,501.028748 720.906616,500.496216 723.258545,499.756592 
	C723.258545,498.319305 723.280212,497.158966 723.254944,495.999664 
	C723.117249,489.689758 721.423157,487.754761 715.979248,487.665131 
	C710.322937,487.571991 708.125427,489.734528 708.014099,495.972351 
	C707.889404,502.955048 707.953796,509.942383 708.023071,516.926819 
	C708.064148,521.070435 709.626160,524.039124 714.318359,524.285095 
	C718.614258,524.510193 722.474365,524.092102 723.168579,517.856140 
M676.178223,501.641968 
	C676.178223,498.228546 676.178223,494.815125 676.178223,492.176147 
	C678.756165,491.143188 680.541077,490.428009 682.325928,489.712830 
	C680.373718,488.810455 678.421509,487.908112 676.311218,486.932648 
	C675.977295,479.892639 675.977295,479.892639 683.441467,477.604889 
	C682.328796,476.580841 680.781860,475.378082 679.749084,475.721497 
	C677.311401,476.532196 674.531738,477.585907 672.967651,479.446777 
	C670.767761,482.064087 673.839355,486.904633 669.625793,489.196167 
	C669.488098,489.271057 669.631836,490.432373 669.851746,490.511658 
	C673.742126,491.913696 671.994446,495.206604 672.064087,497.641571 
	C672.282349,505.273499 672.252686,512.917847 672.092834,520.552673 
	C672.026001,523.740295 673.011292,524.786438 676.179871,523.544067 
	C676.179871,516.544312 676.179871,509.576019 676.178223,501.641968 
M620.271179,521.934875 
	C624.816650,525.520264 628.250549,525.351685 628.679016,522.856750 
	C626.482605,520.827148 623.521606,519.388428 623.437256,517.797302 
	C622.974548,509.064545 623.216492,500.294403 623.216492,492.174866 
	C625.438477,491.180603 627.070801,490.450195 628.703125,489.719788 
	C627.048096,488.840210 625.393066,487.960663 623.229065,486.810608 
	C623.229065,484.444489 623.229065,481.341858 623.229065,477.896149 
	C621.730774,478.018127 620.537170,478.115295 619.801147,478.175232 
	C617.850403,481.808777 621.484070,486.239807 616.933472,488.743286 
	C616.703613,488.869720 616.903748,489.989471 617.076172,490.597778 
	C617.718750,492.863708 618.894714,495.080475 619.037354,497.367615 
	C619.531738,505.297150 619.676392,513.248474 620.271179,521.934875 
M461.533997,491.149292 
	C462.385040,490.673523 463.236053,490.197754 464.087067,489.721985 
	C462.475128,488.849762 460.863190,487.977570 458.785889,486.853577 
	C458.785889,484.281525 458.785889,481.176239 458.785889,478.064819 
	C457.341705,478.064819 456.215729,478.064819 455.386780,478.064819 
	C453.288635,481.481720 457.563232,486.341705 452.305023,488.703918 
	C452.170319,488.764465 452.535278,490.137207 452.800507,490.848267 
	C453.412506,492.489044 454.624817,494.082642 454.677032,495.724548 
	C454.893494,502.532593 454.732361,509.351807 454.797455,516.166077 
	C454.813141,517.806885 454.564941,520.195618 455.484344,520.929260 
	C457.474274,522.517151 460.083679,523.443787 462.572540,524.208618 
	C463.178558,524.394836 464.298340,522.909180 465.836792,521.660889 
	C458.863129,520.718018 458.853790,520.718018 458.844513,514.932739 
	C458.833832,508.284058 458.749573,501.633026 458.921509,494.988800 
	C458.954926,493.697571 460.017365,492.432953 461.533997,491.149292 
M584.688477,487.534424 
	C584.688477,499.603973 584.688477,511.673523 584.688477,523.743042 
	C585.180603,524.016785 585.672729,524.290527 586.164856,524.564209 
	C587.035278,523.437134 588.649353,522.319153 588.663269,521.181580 
	C588.835876,507.075623 588.714722,492.966339 588.817627,478.859009 
	C588.843567,475.312042 587.094177,475.764160 584.688538,476.372894 
	C584.688538,479.923798 584.688538,483.236938 584.688477,487.534424 
M763.991455,510.491669 
	C763.991455,514.931763 763.991455,519.371826 763.991455,523.773987 
	C765.559326,523.773987 766.633362,523.773987 768.116333,523.773987 
	C768.116333,512.834656 768.116333,502.117554 768.116333,491.976501 
	C770.462402,491.115784 772.262207,490.455444 774.062073,489.795105 
	C772.150208,488.867706 770.238342,487.940277 768.115173,486.910339 
	C767.771057,479.494690 767.771057,479.494690 775.293945,478.351471 
	C774.869385,477.475677 774.687622,476.255371 774.081909,475.985138 
	C769.307861,473.854980 764.620728,476.870331 763.956970,482.079224 
	C763.675537,484.288147 765.754089,487.578918 761.628052,488.528076 
	C761.561462,488.543396 761.702454,490.167236 762.007263,490.937286 
	C762.565674,492.348022 763.828735,493.656067 763.898621,495.051971 
	C764.139343,499.856049 763.991394,504.679626 763.991455,510.491669 
M849.932068,507.498657 
	C849.932068,512.927185 849.932068,518.355652 849.932068,523.770020 
	C854.744263,523.770020 858.998596,523.770020 863.801086,523.770020 
	C862.159119,517.672913 856.910034,521.903931 853.952209,519.568665 
	C853.952209,506.357056 853.901184,492.901367 853.991272,479.446625 
	C854.011536,476.421021 853.361633,474.949738 849.932068,476.620972 
	C849.932068,486.561432 849.932068,496.530182 849.932068,507.498657 
M509.044312,484.321960 
	C509.044312,482.214569 509.044312,480.107147 509.044312,477.999756 
	C508.539978,477.746857 508.035645,477.493958 507.531342,477.241058 
	C506.692017,478.289948 505.454102,479.218292 505.093262,480.411804 
	C504.243347,483.222961 506.748535,486.976746 502.645874,488.947754 
	C502.503448,489.016174 502.783417,490.143005 502.993073,490.731445 
	C503.620361,492.492096 504.826202,494.213135 504.884949,495.980286 
	C505.111328,502.791107 504.909790,509.615082 505.027191,516.431396 
	C505.057800,518.208252 505.073425,520.834839 506.133392,521.564819 
	C508.234406,523.011841 511.034943,523.507141 513.612305,524.116882 
	C513.932495,524.192627 514.653625,522.573608 514.488831,522.830322 
	C512.178467,520.828918 509.300720,519.522461 509.232758,518.083313 
	C508.811279,509.156677 509.020691,500.200287 509.020691,491.274628 
	C509.992706,491.202515 510.540497,491.291473 510.968170,491.105011 
	C512.106750,490.608612 513.193542,489.993622 514.300964,489.425751 
	C513.279114,488.949707 512.126282,488.637238 511.271515,487.952606 
	C510.378571,487.237457 509.772552,486.164124 509.044312,484.321960 
M360.607422,366.190582 
	C360.607422,363.576080 360.607422,360.961578 360.607422,358.283844 
	C355.229797,358.283844 350.354492,358.283844 345.458557,358.283844 
	C345.458557,362.167755 345.458557,365.734650 345.458557,369.768311 
	C349.835144,369.768311 353.957123,369.925415 358.049377,369.646301 
	C358.955292,369.584564 359.755981,367.980957 360.607422,366.190582 
M980.304382,357.983521 
	C976.531555,357.983521 972.758667,357.983521 968.875366,357.983521 
	C968.875366,362.065338 968.875366,365.782227 968.875366,369.491577 
	C973.939697,369.491577 978.674866,369.491577 983.866089,369.491577 
	C983.866089,366.136749 984.027710,363.023041 983.747009,359.949768 
	C983.680786,359.224792 982.125305,358.635803 980.304382,357.983521 
M424.109467,495.500458 
	C424.109467,489.048889 424.109467,482.597351 424.109467,476.145782 
	C423.565704,475.911987 423.021942,475.678223 422.478149,475.444427 
	C421.682404,476.637024 420.208435,477.821747 420.194489,479.023376 
	C420.032440,493.014648 420.157257,507.009003 420.041412,521.001160 
	C420.013733,524.342041 421.530304,524.318298 424.109467,523.699524 
	C424.109467,514.455444 424.109467,505.477814 424.109467,495.500458 
M492.313873,522.898010 
	C493.499207,523.359802 494.684570,523.821533 496.245239,524.429565 
	C496.245239,511.875977 496.245239,500.115021 496.245239,488.026337 
	C494.882538,488.116364 493.683075,488.195587 492.271484,488.288849 
	C492.271484,499.780853 492.271484,510.888611 492.313873,522.898010 
M520.673401,490.087219 
	C520.673401,501.314087 520.673401,512.540955 520.673401,523.767822 
	C521.141174,524.049683 521.608887,524.331604 522.076660,524.613464 
	C522.969666,523.614990 524.622192,522.629333 524.639160,521.616150 
	C524.825073,510.525421 524.755737,499.430420 524.755737,487.409180 
	C522.961548,488.202515 521.830627,488.702576 520.673401,490.087219 
M655.287476,520.167725 
	C655.622986,524.025635 655.622986,524.025635 659.504150,523.314880 
	C659.504150,511.673401 659.504150,499.978363 659.504150,488.169922 
	C657.879578,488.169922 656.776123,488.169922 655.287476,488.169922 
	C655.287476,498.661224 655.287476,508.947632 655.287476,520.167725 
M806.427124,492.567352 
	C807.172852,492.046570 807.918518,491.525818 808.788879,490.917999 
	C806.114502,489.766113 803.860352,488.795227 801.085388,487.600006 
	C801.085388,499.519318 801.153748,510.316986 801.045593,521.112915 
	C801.011047,524.557983 802.604248,524.408997 805.114075,523.565979 
	C805.114075,517.557922 805.000549,511.748688 805.151611,505.946350 
	C805.262695,501.682922 805.720276,497.428558 806.427124,492.567352 
M519.282715,477.576172 
	C519.008789,483.317932 522.998962,480.187164 525.592346,480.947510 
	C525.592346,479.118988 525.592346,477.745178 525.592346,475.705017 
	C523.338135,476.076141 521.353943,476.402802 519.282715,477.576172 
M496.001862,480.894623 
	C496.629761,479.494171 497.257660,478.093719 498.089020,476.239410 
	C495.131317,476.239410 493.233368,476.239410 491.416718,476.239410 
	C490.216553,480.060577 491.596466,481.439514 496.001862,480.894623 
z"/>
<path fill="#060606" opacity="1.000000" stroke="none" 
	d="
M592.584656,68.625595 
	C627.960205,57.708122 661.429871,77.025902 668.436829,112.394630 
	C671.255127,126.620430 668.750916,140.272919 660.970459,152.633453 
	C658.959106,155.828827 659.136047,157.886108 661.332703,160.868851 
	C670.606873,173.462112 679.588806,186.270538 688.682129,198.997086 
	C689.601135,200.283295 690.550171,201.548019 692.290405,202.507401 
	C692.035278,199.425751 691.821838,196.339981 691.517456,193.263199 
	C690.484436,182.820862 697.624451,173.989700 708.153381,172.728134 
	C717.578674,171.598846 726.814514,179.057129 727.846375,189.112839 
	C730.073181,210.813461 731.756836,232.573257 734.234741,254.243439 
	C735.804565,267.973145 734.881531,281.122681 728.952698,293.729980 
	C708.393372,337.448303 648.951294,343.516388 620.202759,304.755615 
	C610.323059,291.435059 600.716919,277.910431 591.064026,264.423065 
	C581.606812,251.209106 586.076111,238.497742 601.828247,233.556015 
	C598.433044,219.147324 602.276001,211.847610 616.068604,206.938644 
	C614.276672,201.308289 613.345459,195.245270 617.120422,190.370621 
	C620.401855,186.133362 625.063232,182.964767 629.161377,179.282028 
	C628.674561,179.249374 627.228333,178.828018 625.938354,179.113205 
	C591.986145,186.619659 560.318604,166.465927 554.657410,132.483917 
	C550.765015,109.119606 559.429260,89.964531 578.725525,76.049644 
	C582.833801,73.087074 587.705383,71.182999 592.584656,68.625595 
M665.152466,320.573730 
	C698.231812,323.861847 727.202637,297.676331 725.258301,265.150604 
	C723.789001,240.570923 720.812439,216.078461 718.349182,191.563019 
	C717.685547,184.958237 713.720337,181.413177 708.551208,182.059875 
	C703.540405,182.686752 700.562866,187.255753 701.132629,193.725586 
	C701.789795,201.188080 702.591553,208.637787 703.317688,216.094299 
	C703.675049,219.764542 705.560913,224.168442 700.669861,226.063705 
	C695.905090,227.910065 694.429260,223.322433 692.424927,220.541962 
	C668.880920,187.881592 645.438599,155.147964 621.923706,122.466537 
	C617.843323,116.795593 613.168335,115.534813 608.846558,118.646568 
	C604.132629,122.040733 603.809143,126.753914 607.933044,132.548660 
	C615.263916,142.849747 622.585205,153.157852 629.960510,163.427124 
	C642.189270,180.454208 654.471436,197.442932 666.686462,214.479782 
	C667.834717,216.081268 669.360474,217.878983 669.440430,219.643173 
	C669.514465,221.279358 667.926208,224.367523 666.999939,224.394302 
	C664.874573,224.455734 661.888245,223.672348 660.691467,222.121017 
	C653.987793,213.431747 647.728027,204.400726 641.284119,195.510056 
	C637.165588,189.827774 632.378113,188.633347 627.748840,192.057266 
	C623.582153,195.139053 623.360046,200.287323 627.242920,205.729019 
	C634.006226,215.207535 640.820679,224.649521 647.591064,234.122986 
	C649.505615,236.801926 650.472229,239.673462 647.268250,241.978149 
	C643.992004,244.334824 641.736572,242.320114 639.817505,239.637390 
	C635.655151,233.818787 631.477051,228.011200 627.268127,222.226257 
	C623.130432,216.539261 618.583313,215.097458 614.261047,218.035309 
	C609.274536,221.424667 608.878906,226.331009 613.129333,232.348694 
	C614.377319,234.115540 615.680481,235.843231 616.948608,237.595947 
	C620.459351,242.448410 623.963074,247.305939 627.473206,252.158844 
	C629.504333,254.966919 629.934448,257.844391 626.807312,259.982147 
	C623.751038,262.071381 621.539062,260.079987 619.697449,257.669220 
	C618.889160,256.611115 618.102478,255.536301 617.315430,254.462112 
	C615.545227,252.046127 613.835632,249.583481 612.002563,247.216354 
	C608.493530,242.684982 603.941589,241.747833 599.871216,244.632141 
	C595.505737,247.725571 594.681335,252.565475 598.035583,257.304108 
	C607.549866,270.745148 617.271545,284.039948 626.736450,297.515289 
	C635.958313,310.644562 648.369141,318.348969 665.152466,320.573730 
M613.038391,160.160934 
	C612.039734,160.139465 611.039246,160.150192 610.042786,160.091721 
	C595.057495,159.212204 584.046265,151.817184 577.854309,138.454773 
	C571.606567,124.972031 573.492432,111.614357 582.821899,100.044228 
	C592.379272,88.191589 605.063965,83.400993 620.154663,86.834213 
	C641.865112,91.773476 653.674011,113.475395 646.968994,135.171005 
	C646.363708,137.129486 647.000549,139.815140 647.880493,141.799438 
	C648.902222,144.103333 650.829224,146.005753 652.450928,148.201019 
	C665.433716,128.296371 661.165405,101.883583 642.739441,86.126328 
	C624.488037,70.518364 597.388611,71.058830 579.364685,87.390289 
	C562.049744,103.079323 558.378784,130.151749 570.635315,148.794708 
	C582.500061,166.841690 604.886841,175.361755 623.065552,168.915527 
	C619.786255,165.774338 616.840088,162.952286 613.038391,160.160934 
M625.939453,99.388893 
	C607.733093,89.262337 587.674744,100.570381 584.355652,118.826157 
	C581.652039,133.696960 593.600586,149.733582 608.424500,149.940735 
	C605.343994,145.643829 601.986816,141.898605 599.755066,137.572800 
	C597.701416,133.592300 595.780273,129.002228 595.719971,124.654060 
	C595.614014,117.015396 601.388794,110.344093 608.194824,108.245789 
	C615.570679,105.971786 623.742432,108.806274 628.951965,115.645767 
	C632.118225,119.802658 635.059204,124.131134 638.684448,129.197327 
	C640.483826,116.119629 636.642883,106.640770 625.939453,99.388893 
z"/>
<path fill="#060606" opacity="1.000000" stroke="none" 
	d="
M691.568909,416.998718 
	C691.405762,424.826080 691.509949,432.171082 691.021790,439.476440 
	C690.431824,448.305664 686.294983,452.708893 677.641602,454.333008 
	C675.207581,454.789795 672.682068,454.954132 670.201050,454.934296 
	C656.729065,454.826660 650.899048,449.778503 650.709229,436.464722 
	C650.338989,410.503693 650.600708,384.533661 650.600708,358.281860 
	C654.884094,358.281860 658.945129,358.281860 663.232117,358.281860 
	C663.232117,364.159821 663.218689,369.963715 663.234558,375.767548 
	C663.289307,395.760529 663.303040,415.753876 663.445618,435.746277 
	C663.489990,441.967682 665.213379,443.886078 670.238037,444.148041 
	C676.232544,444.460571 678.400757,442.371063 678.425354,435.721527 
	C678.514038,411.730225 678.506226,387.738617 678.534363,363.747101 
	C678.536499,361.946838 678.534668,360.146576 678.534668,358.177246 
	C682.887573,358.177246 686.845032,358.177246 691.573792,358.177246 
	C691.573792,377.640228 691.573792,397.069519 691.568909,416.998718 
z"/>
<path fill="#030303" opacity="1.000000" stroke="none" 
	d="
M272.605713,446.523132 
	C270.583618,438.729706 268.539429,431.363403 266.885773,423.910400 
	C266.032898,420.066467 264.395569,418.331696 260.082947,419.887573 
	C260.082947,431.006622 260.082947,442.270203 260.082947,453.765991 
	C255.668900,453.765991 251.594330,453.765991 247.259171,453.765991 
	C247.259171,422.016632 247.259171,390.310425 247.259171,358.794647 
	C255.936813,358.794647 264.697144,358.289246 273.368652,358.949768 
	C280.700348,359.508301 285.454956,364.546265 285.876038,371.718964 
	C286.535919,382.959869 286.670990,394.319550 285.739838,405.521851 
	C285.375427,409.906189 281.529755,414.001160 278.531036,419.609100 
	C281.367950,429.633209 284.749603,441.582245 288.209229,453.806732 
	C283.574280,453.806732 279.298309,453.806732 274.481110,453.806732 
	C273.930145,451.618805 273.337799,449.266541 272.605713,446.523132 
M267.953583,369.788574 
	C265.476593,369.788574 262.999603,369.788574 260.396545,369.788574 
	C260.396545,382.485321 260.396545,395.165009 260.396545,407.960205 
	C261.573547,407.960205 262.402100,407.957794 263.230652,407.960571 
	C271.854645,407.989349 273.799988,406.168274 273.924194,397.529175 
	C274.019745,390.884949 273.982513,384.235992 273.846130,377.592377 
	C273.774292,374.093201 272.781525,370.985962 267.953583,369.788574 
z"/>
<path fill="#050505" opacity="1.000000" stroke="none" 
	d="
M785.475281,383.971130 
	C785.548889,385.121613 785.597595,385.786194 785.632568,386.451477 
	C786.233459,397.899261 786.383667,398.082611 797.391357,400.767670 
	C808.743164,403.536682 812.573975,407.354279 813.559875,419.128265 
	C814.165955,426.366943 813.782654,433.782227 812.971924,441.020599 
	C812.082764,448.959015 808.014038,452.672333 800.237427,454.279968 
	C798.776672,454.581970 797.286560,454.828827 795.799866,454.905548 
	C779.601135,455.741486 773.160400,449.664764 772.995239,433.397034 
	C772.947998,428.743530 772.988037,424.089142 772.988037,419.054260 
	C777.255432,419.054260 781.133118,419.054260 785.619324,419.054260 
	C785.619324,424.971771 785.350098,430.914490 785.696533,436.821167 
	C786.029175,442.492371 788.240356,444.259583 793.577759,444.177490 
	C798.502625,444.101715 800.697754,442.156036 800.833069,436.693787 
	C800.976868,430.893219 800.682312,425.065186 800.254517,419.273132 
	C799.980042,415.557739 797.681274,413.326263 793.934082,412.549500 
	C791.172180,411.976929 788.463928,411.145172 785.732117,410.427551 
	C778.940125,408.643372 774.144836,404.358521 773.701233,397.401154 
	C773.102173,388.006622 773.229919,378.489532 774.027466,369.108490 
	C774.574463,362.674591 779.264038,358.975922 785.689941,357.844177 
	C787.326111,357.556000 788.967285,357.209137 790.619324,357.111389 
	C806.483704,356.172791 812.696533,361.705475 813.390564,377.552307 
	C813.607544,382.508362 813.424316,387.481934 813.424316,392.583679 
	C809.016052,392.583679 805.245911,392.583679 800.924011,392.583679 
	C800.924011,386.976562 801.024719,381.535400 800.896851,376.099670 
	C800.758667,370.227173 798.796936,368.054779 793.838928,367.853912 
	C788.321594,367.630371 786.280701,369.505707 785.755371,375.508423 
	C785.523682,378.156250 785.540161,380.825806 785.475281,383.971130 
z"/>
<path fill="#040404" opacity="1.000000" stroke="none" 
	d="
M921.463623,451.557953 
	C919.828735,447.283569 917.424133,443.307526 917.284180,439.253235 
	C916.796509,425.129272 916.843323,410.972382 917.174500,396.839417 
	C917.413330,386.647156 922.062317,381.498627 930.197205,381.063965 
	C934.867859,380.814423 938.670166,382.288879 941.333862,386.307922 
	C942.028320,387.355835 942.928040,388.267822 944.639771,390.338623 
	C944.639771,378.926910 944.639771,368.813873 944.639771,358.352966 
	C949.301453,358.352966 953.359924,358.352966 957.742798,358.352966 
	C957.742798,389.874817 957.742798,421.572723 957.742798,453.639404 
	C953.813477,453.639404 949.625610,453.639404 945.103210,453.639404 
	C945.103210,451.452209 945.103210,449.352539 945.103210,445.325867 
	C938.254761,454.624939 931.001587,458.311249 921.463623,451.557953 
M936.424500,390.757477 
	C932.240784,390.474365 930.109619,392.633087 930.085327,396.622223 
	C929.998169,410.917511 929.984192,425.214264 930.099792,439.509186 
	C930.135254,443.892303 932.770203,445.642059 937.048828,445.201202 
	C942.111877,444.679504 945.063110,441.526215 945.078674,436.312195 
	C945.114380,424.341919 945.100830,412.371460 945.085632,400.401093 
	C945.078003,394.425201 943.504822,392.529633 936.424500,390.757477 
z"/>
<path fill="#060606" opacity="1.000000" stroke="none" 
	d="
M503.152100,408.774933 
	C503.104950,418.234894 503.336212,427.234406 502.908173,436.202484 
	C502.587585,442.918701 501.537872,449.989258 494.259583,452.906616 
	C485.913605,456.252045 477.216034,456.372223 469.308807,451.525818 
	C464.512146,448.585907 463.266632,443.121887 463.150269,437.940948 
	C462.851562,424.638367 462.651123,411.309021 463.170776,398.020111 
	C463.616699,386.616730 469.271606,381.581177 480.606445,381.105408 
	C483.253265,380.994324 485.956726,381.029510 488.565552,381.436646 
	C496.909912,382.738953 500.562500,386.065399 502.089020,394.418274 
	C502.918793,398.958649 502.824677,403.667908 503.152100,408.774933 
M476.853851,442.304810 
	C479.301056,445.881500 483.005371,445.696472 486.213318,444.465759 
	C487.890259,443.822449 489.794647,441.097992 489.831543,439.277649 
	C490.120697,425.010010 490.087311,410.732330 489.909302,396.460815 
	C489.857880,392.336761 486.909943,390.932892 483.069519,390.938995 
	C479.299591,390.944946 476.109344,392.157928 476.089722,396.307861 
	C476.018372,411.390686 476.283508,426.475128 476.853851,442.304810 
z"/>
<path fill="#040404" opacity="1.000000" stroke="none" 
	d="
M300.675842,449.225830 
	C299.284729,444.672211 297.308533,440.434784 297.144165,436.128174 
	C296.687622,424.167084 296.844025,412.174957 297.038422,400.199646 
	C297.149139,393.378540 298.241730,386.440979 305.342957,383.322784 
	C313.446625,379.764435 321.923096,379.678833 329.813782,384.235596 
	C334.247009,386.795776 335.574707,391.575562 335.779694,396.280823 
	C336.118286,404.052338 335.871643,411.849304 335.871643,420.095581 
	C327.262787,420.095581 318.872131,420.095581 310.134308,420.095581 
	C310.134308,426.974915 309.959747,433.405579 310.199158,439.820862 
	C310.344879,443.726562 313.070251,445.064178 316.734833,445.078705 
	C320.459473,445.093445 322.922241,443.699280 323.065399,439.715881 
	C323.201569,435.926849 323.094727,432.129089 323.094727,428.074768 
	C327.552551,428.074768 331.470581,428.074768 335.400238,428.074768 
	C337.661316,438.981781 335.039978,448.942291 328.974976,452.463837 
	C322.155212,456.423706 305.228851,455.965393 300.675842,449.225830 
M323.454803,407.470917 
	C323.336395,403.671570 323.303528,399.867065 323.075134,396.074341 
	C322.853271,392.389648 320.541809,391.005554 317.073303,390.939148 
	C313.563416,390.872009 310.517548,391.774323 310.248840,395.743561 
	C309.909058,400.762665 310.166779,405.822205 310.166779,411.025940 
	C313.857056,411.025940 317.170319,411.233459 320.430389,410.908173 
	C321.504303,410.800964 322.440765,409.316071 323.454803,407.470917 
z"/>
<path fill="#040404" opacity="1.000000" stroke="none" 
	d="
M616.539795,381.255280 
	C617.639954,381.155151 618.304138,381.091431 618.969421,381.074615 
	C634.660217,380.678040 639.687012,385.316010 640.260620,401.049561 
	C640.484741,407.197815 640.297241,413.361053 640.297241,419.972168 
	C631.614319,419.972168 623.210327,419.972168 614.581665,419.972168 
	C614.581665,427.148895 614.337402,433.891022 614.676575,440.603699 
	C614.869019,444.412628 618.036743,445.089508 621.301880,445.065674 
	C624.523682,445.042145 626.905762,443.912323 627.207581,440.375610 
	C627.545593,436.414368 627.681824,432.435883 627.924683,428.131439 
	C631.768555,428.131439 635.656067,428.131439 640.417297,428.131439 
	C640.088928,433.144012 640.113953,438.260376 639.335754,443.251526 
	C638.360901,449.503937 634.374817,453.445160 628.035034,454.164764 
	C623.627869,454.664948 619.043579,454.896576 614.685059,454.253937 
	C606.602234,453.062256 602.381897,449.308960 601.978027,441.257324 
	C601.237366,426.491577 601.004028,411.643707 601.689819,396.882629 
	C602.160889,386.743225 606.071777,383.528290 616.539795,381.255280 
M625.979309,392.498688 
	C620.296387,389.591003 615.234924,390.613373 614.682251,395.252899 
	C614.067505,400.414307 614.541504,405.705353 614.541504,410.709961 
	C619.018982,410.709961 623.270264,410.709961 628.411987,410.709961 
	C627.738037,404.582825 627.109924,398.872467 625.979309,392.498688 
z"/>
<path fill="#050505" opacity="1.000000" stroke="none" 
	d="
M1001.223633,451.927429 
	C998.903076,447.858307 995.370667,444.043640 995.187439,440.074310 
	C994.505493,425.308472 994.463867,410.471924 995.102173,395.701721 
	C995.486877,386.799713 1000.140015,382.824493 1009.013000,381.411926 
	C1011.136414,381.073914 1013.328125,381.033142 1015.485596,381.062469 
	C1027.731201,381.228851 1033.367920,385.686493 1034.058472,397.774902 
	C1034.816284,411.041504 1034.878052,424.418182 1034.111450,437.681519 
	C1033.370605,450.498077 1027.829224,455.114166 1015.045044,454.828308 
	C1010.528442,454.727295 1006.046814,453.061981 1001.223633,451.927429 
M1021.805664,401.741180 
	C1021.715271,400.084442 1021.681335,398.422272 1021.523438,396.771973 
	C1021.110901,392.459656 1018.519226,390.886353 1014.399475,390.905701 
	C1010.223022,390.925293 1007.474243,392.732819 1007.427124,396.944397 
	C1007.269043,411.052124 1007.291931,425.164093 1007.461365,439.271851 
	C1007.505249,442.923920 1009.807739,444.881805 1013.608643,445.073730 
	C1019.177429,445.355011 1021.522400,443.518463 1021.646790,437.555389 
	C1021.889221,425.935669 1021.788391,414.308838 1021.805664,401.741180 
z"/>
<path fill="#040404" opacity="1.000000" stroke="none" 
	d="
M900.003784,382.000916 
	C902.454529,382.000916 904.426331,382.000916 906.670410,382.000916 
	C906.670410,406.006409 906.670410,429.725464 906.670410,453.725891 
	C902.600952,453.725891 898.528931,453.725891 893.946411,453.725891 
	C893.946411,451.540161 893.946411,449.344208 893.946411,445.537476 
	C892.007141,447.673279 891.035767,448.606537 890.223022,449.661926 
	C886.694397,454.243774 882.036072,455.738983 876.506653,454.615326 
	C870.830688,453.461945 867.533325,449.884064 866.462402,444.221008 
	C866.308167,443.405457 866.072205,442.583313 866.071289,441.764038 
	C866.049255,421.990265 866.054077,402.216461 866.054077,382.222504 
	C870.349915,382.222504 874.414307,382.222504 878.900574,382.222504 
	C878.900574,397.548492 878.900513,412.656952 878.900635,427.765411 
	C878.900635,431.095886 878.942017,434.427002 878.890869,437.756683 
	C878.828613,441.812561 879.578369,445.177124 884.661255,445.251434 
	C889.487305,445.321991 893.832214,441.822113 893.927307,437.414581 
	C894.078186,430.423798 893.968750,423.427399 893.968872,416.433380 
	C893.969116,405.136139 893.968872,393.838928 893.968872,382.000916 
	C895.988159,382.000916 897.756531,382.000916 900.003784,382.000916 
z"/>
<path fill="#030303" opacity="1.000000" stroke="none" 
	d="
M371.002563,412.000000 
	C371.002563,401.862823 371.002563,392.225647 371.002563,382.296265 
	C375.287415,382.296265 379.362274,382.296265 383.857208,382.296265 
	C383.976257,384.389252 384.102081,386.601929 384.298248,390.051025 
	C386.049774,388.412201 387.304077,387.578583 388.106262,386.429321 
	C391.640930,381.365570 396.503265,380.257141 402.180481,381.478546 
	C407.750397,382.676880 410.579742,386.452576 411.637634,391.811310 
	C411.766296,392.463013 411.931671,393.124817 411.932190,393.782013 
	C411.947845,413.717621 411.944916,433.653259 411.944916,453.795959 
	C407.782562,453.795959 403.833710,453.795959 399.383484,453.795959 
	C399.309296,452.465759 399.162720,451.048004 399.161407,449.630127 
	C399.145355,432.644501 399.171448,415.658813 399.139587,398.673248 
	C399.128510,392.764099 397.633820,390.821747 393.297363,390.753204 
	C388.182556,390.672363 384.104523,394.231323 384.083801,399.117859 
	C384.013885,415.603607 384.057007,432.089844 384.056946,448.575897 
	C384.056946,450.214874 384.056976,451.853851 384.056976,453.743408 
	C379.716583,453.743408 375.638824,453.743408 371.002563,453.743408 
	C371.002563,440.013336 371.002563,426.256653 371.002563,412.000000 
z"/>
<path fill="#050505" opacity="1.000000" stroke="none" 
	d="
M575.993042,391.933685 
	C567.542908,389.723663 565.084412,391.482269 565.042480,399.578735 
	C564.976929,412.236542 564.981689,424.895447 565.073181,437.553009 
	C565.113892,443.181396 566.729492,444.914124 571.474854,445.048676 
	C576.402588,445.188385 577.874023,443.665344 578.203613,437.999390 
	C578.300232,436.337921 578.300720,434.670258 578.321289,433.005157 
	C578.339722,431.511871 578.325134,430.018188 578.325134,428.159119 
	C582.455627,428.159119 586.510010,428.159119 591.059998,428.159119 
	C591.059998,430.020599 591.047607,431.969299 591.061890,433.917816 
	C591.196167,452.214508 576.685303,461.063812 560.086304,452.792450 
	C554.492188,450.004852 552.373779,444.840607 552.240051,439.210541 
	C551.907898,425.229950 551.673279,411.216522 552.276672,397.254150 
	C552.741455,386.497162 558.564758,381.591644 569.425354,381.105591 
	C571.910095,380.994415 574.447388,381.010651 576.898315,381.380432 
	C585.872192,382.734344 590.084534,387.142181 590.881897,396.211761 
	C591.213379,399.981995 590.937012,403.805664 590.937012,407.858459 
	C586.789429,407.858459 582.862915,407.858459 579.229309,407.858459 
	C578.271423,402.608154 577.316833,397.375824 575.993042,391.933685 
z"/>
<path fill="#040404" opacity="1.000000" stroke="none" 
	d="
M452.410187,391.870056 
	C448.501556,391.971100 445.030334,391.971100 441.219574,391.971100 
	C441.219574,412.630768 441.219574,433.028107 441.219574,453.714722 
	C436.819061,453.714722 432.751190,453.714722 428.228821,453.714722 
	C428.228821,433.318237 428.228821,412.923645 428.228821,392.166351 
	C425.759460,392.036804 423.704926,391.929047 421.477661,391.812225 
	C421.477661,388.563141 421.477661,385.625488 421.477661,382.309692 
	C423.539124,382.139404 425.591431,381.969849 427.893127,381.779694 
	C428.454956,374.099701 426.400818,365.480988 434.131287,360.274536 
	C440.609161,355.911713 448.006165,356.566711 455.579468,357.670441 
	C455.579468,360.851929 455.579468,363.746674 455.579468,366.629303 
	C440.245178,368.920074 440.245178,368.920074 441.354034,381.842773 
	C445.082916,381.842773 448.855804,381.842773 453.388733,381.842773 
	C453.195801,385.382202 453.021698,388.575592 452.410187,391.870056 
z"/>
<path fill="#040404" opacity="1.000000" stroke="none" 
	d="
M830.911560,380.666687 
	C830.935730,374.205597 830.935730,368.219421 830.935730,361.954468 
	C835.256409,361.954468 839.343445,361.954468 843.870728,361.954468 
	C843.870728,368.432068 843.870728,374.970612 843.870728,381.956970 
	C847.854736,381.956970 851.422791,381.956970 855.102661,381.956970 
	C855.102661,385.525360 855.102661,388.635834 855.102661,391.966675 
	C851.410217,391.966675 847.939636,391.966675 843.828979,391.966675 
	C843.828979,397.590820 843.828857,403.006470 843.828979,408.422150 
	C843.829163,417.915344 843.804443,427.408661 843.837769,436.901733 
	C843.863647,444.286774 844.822876,445.191467 852.256897,445.140259 
	C853.554016,445.131348 854.851257,445.139008 855.951050,445.139008 
	C856.248352,445.526733 856.426025,445.651245 856.440125,445.792175 
	C857.352417,454.877716 856.811401,455.446045 847.797241,454.899719 
	C835.758972,454.170166 830.966858,449.307983 830.882263,437.341278 
	C830.776489,422.386292 830.856812,407.429993 830.856812,392.156952 
	C828.883118,392.065277 827.268921,391.990295 825.296265,391.898651 
	C825.296265,388.729065 825.296265,385.536560 825.296265,382.464630 
	C827.233826,382.006134 829.060608,381.573883 830.911560,380.666687 
z"/>
<path fill="#040404" opacity="1.000000" stroke="none" 
	d="
M715.900574,431.000000 
	C715.900574,438.803497 715.900574,446.107025 715.900574,453.706757 
	C711.567200,453.706757 707.495483,453.706757 703.127563,453.706757 
	C703.127563,422.027374 703.127563,390.303436 703.127563,358.289795 
	C707.122375,358.289795 711.205505,358.289795 715.900574,358.289795 
	C715.900574,382.325989 715.900574,406.412994 715.900574,431.000000 
z"/>
<path fill="#070707" opacity="1.000000" stroke="none" 
	d="
M517.313477,454.013336 
	C516.074341,453.088654 514.623291,452.167755 514.618835,451.239929 
	C514.510071,428.579376 514.553711,405.918060 514.588562,383.256927 
	C514.589050,382.955048 514.827881,382.653564 515.009949,382.223022 
	C519.049988,382.223022 523.137573,382.223022 527.473022,382.223022 
	C527.638245,384.919250 527.791077,387.412994 528.000244,390.825439 
	C530.559204,387.551453 531.946655,384.452148 534.327332,383.094086 
	C536.827271,381.667999 540.278809,381.910065 543.651733,381.369049 
	C543.651733,385.283844 543.651733,388.360962 543.651733,392.060242 
	C541.454163,392.060242 539.339783,391.940521 537.243103,392.082306 
	C530.545898,392.535278 527.704407,395.517059 527.680786,402.280975 
	C527.626648,417.777374 527.663391,433.274048 527.663330,448.770630 
	C527.663330,450.392883 527.663330,452.015106 527.663330,454.013885 
	C524.041016,454.013885 520.908325,454.013885 517.313477,454.013336 
z"/>
<path fill="#060606" opacity="1.000000" stroke="none" 
	d="
M982.788452,388.139801 
	C982.788452,410.218597 982.788452,431.815033 982.788452,453.710693 
	C978.421265,453.710693 974.365906,453.710693 970.060059,453.710693 
	C970.060059,429.968689 970.060059,406.263428 970.060059,382.276489 
	C974.107544,382.276489 978.175659,382.276489 982.788391,382.276489 
	C982.788391,384.106812 982.788391,385.882111 982.788452,388.139801 
z"/>
<path fill="#000000" opacity="1.000000" stroke="none" 
	d="
M346.522644,395.003235 
	C346.522614,390.516693 346.522614,386.529907 346.522614,382.276062 
	C350.758789,382.276062 354.838470,382.276062 359.162933,382.276062 
	C359.162933,406.056732 359.162933,429.756805 359.162933,453.728516 
	C355.161896,453.728516 351.079895,453.728516 346.522644,453.728516 
	C346.522644,434.274109 346.522644,414.888580 346.522644,395.003235 
z"/>
<path fill="#111111" opacity="1.000000" stroke="none" 
	d="
M833.945984,505.972443 
	C833.503052,511.873657 833.503052,517.661987 833.503052,523.620056 
	C830.541687,524.319702 829.004211,524.371643 829.029602,521.016357 
	C829.141663,506.214996 829.078003,491.412262 829.078003,476.063416 
	C832.236328,476.063416 835.180847,475.880432 838.092957,476.109894 
	C841.694824,476.393768 844.038086,478.403015 844.127625,482.165314 
	C844.266113,487.983337 846.103577,494.807159 843.736877,499.415283 
	C839.164429,508.318176 844.259033,515.543335 845.041931,523.533997 
	C842.257507,524.820068 840.819946,523.902344 840.209229,520.965149 
	C839.363708,516.898132 838.471863,512.825134 837.255676,508.860321 
	C836.893066,507.678192 835.376648,506.849945 833.945984,505.972443 
M833.099548,493.449951 
	C833.099548,496.224670 833.099548,498.999390 833.099548,501.732941 
	C839.733704,502.256866 840.165039,501.940674 840.356445,496.010193 
	C840.468201,492.546143 840.466370,489.072388 840.352356,485.608368 
	C840.160706,479.783569 839.540466,479.338501 833.099548,480.200958 
	C833.099548,484.253326 833.099548,488.359558 833.099548,493.449951 
z"/>
<path fill="#000000" opacity="1.000000" stroke="none" 
	d="
M746.998474,403.984680 
	C752.626221,403.984680 757.754517,403.984680 763.163086,403.984680 
	C763.163086,407.801636 763.163086,411.331482 763.163086,415.156891 
	C750.488708,415.156891 737.954346,415.156891 725.162781,415.156891 
	C725.162781,411.602661 725.162781,408.033356 725.162781,403.984680 
	C732.314575,403.984680 739.406799,403.984680 746.998474,403.984680 
z"/>
<path fill="#111111" opacity="1.000000" stroke="none" 
	d="
M701.290405,493.901489 
	C701.337952,503.977356 701.337952,513.632874 701.337952,524.177856 
	C699.522278,523.645264 698.032532,523.208313 697.094971,522.933289 
	C694.293274,523.235596 691.174927,524.514465 689.280090,523.502502 
	C687.505066,522.554443 686.451355,519.266846 686.089050,516.857178 
	C685.185242,510.845062 688.100647,506.711609 693.480469,504.067871 
	C696.945312,502.365204 698.944153,495.373474 696.771851,492.325684 
	C696.174622,491.487701 694.446655,490.904938 693.401001,491.096619 
	C692.412781,491.277771 691.137146,492.500336 690.879211,493.495758 
	C690.389343,495.386749 690.535950,497.442627 690.401428,499.712036 
	C688.083862,500.688721 686.605774,500.772949 686.491455,497.335022 
	C686.250427,490.086548 688.666504,487.314392 695.120300,487.669800 
	C698.921631,487.879181 700.945007,489.707123 701.290405,493.901489 
M696.265076,506.116089 
	C691.441589,508.026276 689.154785,511.630859 690.109619,516.680054 
	C690.420654,518.324707 692.335327,519.666138 693.516479,521.146301 
	C694.797363,519.690186 696.943359,518.361145 697.179688,516.751709 
	C697.677307,513.363342 697.173584,509.827942 696.265076,506.116089 
z"/>
<path fill="#111111" opacity="1.000000" stroke="none" 
	d="
M743.173706,522.055298 
	C735.225098,527.153748 729.372498,524.240234 729.166077,515.364441 
	C729.011230,508.706757 728.981262,502.034821 729.236389,495.382294 
	C729.454468,489.696106 731.641724,487.716278 736.845215,487.656586 
	C742.173462,487.595459 744.154236,489.377350 744.551453,495.187866 
	C744.809204,498.957733 744.600037,502.759552 744.600037,506.889435 
	C740.579346,506.889435 737.128479,506.889435 733.270752,506.889435 
	C733.270752,510.491241 732.871521,513.828308 733.442505,516.990173 
	C733.720093,518.527161 735.812195,519.736511 737.082886,521.094177 
	C738.271362,519.814270 739.889343,518.714233 740.522827,517.201843 
	C741.110962,515.797729 740.648315,513.953491 740.648315,512.303040 
	C741.063904,511.984253 741.479492,511.665466 741.895142,511.346680 
	C742.809021,512.376770 744.464294,513.390564 744.487305,514.440186 
	C744.540283,516.861084 743.800903,519.299316 743.173706,522.055298 
M733.135315,499.431061 
	C733.228760,500.847290 733.322144,502.263489 733.398071,503.415161 
	C736.152405,503.415161 738.379578,503.415161 740.805359,503.415161 
	C740.805359,501.523010 740.953491,500.019196 740.774414,498.555420 
	C740.408875,495.567932 742.163757,491.013184 736.936523,490.985992 
	C731.544617,490.957947 733.722656,495.634583 733.135315,499.431061 
z"/>
<path fill="#111111" opacity="1.000000" stroke="none" 
	d="
M564.558594,506.922729 
	C561.282410,506.931885 558.467529,506.931885 555.271118,506.931885 
	C555.271118,510.503326 554.871887,513.841248 555.443176,517.003845 
	C555.720032,518.536804 557.816345,519.741089 559.088989,521.094116 
	C560.275391,519.814575 561.890503,518.714355 562.523010,517.203003 
	C563.110107,515.800049 562.648254,513.958069 562.648254,512.309326 
	C563.061035,511.989777 563.473877,511.670166 563.886658,511.350586 
	C564.803284,512.374695 566.396179,513.319580 566.526978,514.435791 
	C567.393372,521.827454 564.218689,525.005310 557.325134,524.290955 
	C553.764404,523.921875 551.569336,522.025330 551.467651,518.663513 
	C551.216431,510.362091 551.172607,502.041931 551.441711,493.742188 
	C551.587280,489.257294 554.721924,487.619598 558.985779,487.630096 
	C563.260620,487.640594 566.362610,489.231598 566.319519,493.825714 
	C566.278625,498.192017 565.483398,502.551270 564.558594,506.922729 
M562.437317,493.329498 
	C560.847717,492.538391 559.267944,491.212280 557.664429,491.182983 
	C556.868469,491.168427 555.494568,493.468353 555.320129,494.840485 
	C554.954346,497.717621 555.209106,500.673706 555.209106,503.454865 
	C558.081421,503.454865 560.310730,503.454865 562.658264,503.454865 
	C562.658264,500.117554 562.658264,497.143585 562.437317,493.329498 
z"/>
<path fill="#111111" opacity="1.000000" stroke="none" 
	d="
M643.511597,524.284119 
	C635.928406,524.064758 634.322144,522.593018 634.166687,515.482971 
	C634.024658,508.990173 634.001587,502.487366 634.193115,495.996857 
	C634.374023,489.865448 636.444641,487.759857 641.729980,487.656647 
	C647.234009,487.549164 649.211426,489.417297 649.588074,495.571655 
	C649.809204,499.185059 649.628357,502.823059 649.628357,506.822510 
	C645.658936,506.822510 642.222778,506.822510 638.288086,506.822510 
	C638.288086,510.589478 637.936707,514.054199 638.456116,517.383118 
	C638.672363,518.769165 640.744385,519.865662 641.972534,521.093811 
	C643.195312,519.850525 644.860840,518.800232 645.511719,517.307556 
	C646.117004,515.919373 645.640869,514.059692 645.640869,511.142822 
	C647.374084,512.104431 649.155151,512.478760 649.469666,513.370300 
	C651.080383,517.936462 648.400146,522.866882 643.511597,524.284119 
M638.169495,496.755707 
	C638.169495,499.017181 638.169495,501.278656 638.169495,503.480225 
	C641.033447,503.480225 643.262390,503.480225 645.793518,503.480225 
	C645.793518,500.841431 645.867859,498.533203 645.773376,496.231934 
	C645.670593,493.726410 645.731873,491.012177 642.104309,490.867493 
	C638.472351,490.722595 638.232300,493.221680 638.169495,496.755707 
z"/>
<path fill="#0E0E0E" opacity="1.000000" stroke="none" 
	d="
M610.202148,491.222900 
	C610.479858,501.591766 610.722717,511.572815 610.692505,521.552979 
	C610.689392,522.582275 609.057495,523.606750 608.181396,524.633423 
	C607.718811,524.342590 607.256226,524.051758 606.793640,523.760925 
	C606.793640,514.657227 606.840698,505.553101 606.761414,496.450043 
	C606.740906,494.097778 607.400696,490.918121 603.534241,490.956635 
	C599.910339,490.992676 598.900818,493.451294 598.932495,496.738525 
	C599.009644,504.735840 598.851990,512.736450 599.011841,520.731323 
	C599.070984,523.692505 598.145325,524.670593 595.130127,523.688965 
	C595.130127,511.918365 595.130127,500.145630 595.130127,487.079193 
	C597.165283,488.405518 598.534973,489.298218 600.002075,490.254333 
	C604.082214,486.534882 606.690552,486.578766 610.202148,491.222900 
z"/>
<path fill="#0C0C0C" opacity="1.000000" stroke="none" 
	d="
M794.883972,509.931305 
	C794.828613,512.411926 794.872009,514.413513 794.705261,516.397522 
	C794.191895,522.505371 792.298218,524.378052 786.824158,524.352173 
	C781.372437,524.326477 779.251953,522.308533 779.092957,516.295044 
	C778.908569,509.320129 778.895264,502.331207 779.115723,495.358093 
	C779.294678,489.697083 781.441162,487.744049 786.691101,487.671753 
	C792.090149,487.597412 794.187683,489.326935 794.614014,494.993744 
	C794.974976,499.790253 794.815674,504.625946 794.883972,509.931305 
M790.516907,518.713806 
	C790.603821,510.898834 790.724609,503.083984 790.758728,495.268768 
	C790.770081,492.658875 789.935852,490.736328 786.723999,490.841095 
	C783.457581,490.947601 783.017639,493.023438 783.021057,495.579651 
	C783.030518,502.570282 782.910583,509.563446 783.066040,516.550659 
	C783.175537,521.473450 785.688049,522.443542 790.516907,518.713806 
z"/>
<path fill="#111111" opacity="1.000000" stroke="none" 
	d="
M532.714233,488.011261 
	C534.394531,496.653534 535.628845,505.263916 536.867126,513.873718 
	C537.042114,515.090393 537.236084,516.304321 538.500793,517.564148 
	C539.624146,507.877563 540.747437,498.190979 541.902405,488.231323 
	C543.242859,488.158447 544.455811,488.092499 546.136108,488.001129 
	C544.513123,500.172150 542.941284,511.959686 541.363098,523.794556 
	C538.915405,523.794556 536.823669,523.794556 534.494629,523.794556 
	C532.996338,512.592346 531.474365,501.597229 530.162048,490.577148 
	C530.070190,489.805756 531.530823,488.849457 532.714233,488.011261 
z"/>
<path fill="#0E0E0E" opacity="1.000000" stroke="none" 
	d="
M723.136536,518.244934 
	C722.474365,524.092102 718.614258,524.510193 714.318359,524.285095 
	C709.626160,524.039124 708.064148,521.070435 708.023071,516.926819 
	C707.953796,509.942383 707.889404,502.955048 708.014099,495.972351 
	C708.125427,489.734528 710.322937,487.571991 715.979248,487.665131 
	C721.423157,487.754761 723.117249,489.689758 723.254944,495.999664 
	C723.280212,497.158966 723.258545,498.319305 723.258545,499.756592 
	C720.906616,500.496216 718.975647,501.028748 719.294373,497.368927 
	C719.380432,496.380280 719.662842,495.096497 719.183289,494.436066 
	C718.199036,493.080475 716.876404,491.372803 715.468140,491.133514 
	C714.531799,490.974365 712.251587,493.070892 712.208435,494.219269 
	C711.914978,502.024872 711.892883,509.853882 712.229553,517.656067 
	C712.281372,518.855591 714.631165,519.956055 715.918091,521.102356 
	C717.039978,519.803467 718.905457,518.629944 719.149353,517.183044 
	C720.005005,512.107239 719.793030,512.071533 723.168579,511.982391 
	C723.168579,513.943848 723.168579,515.899963 723.136536,518.244934 
z"/>
<path fill="#0E0E0E" opacity="1.000000" stroke="none" 
	d="
M676.179077,502.124878 
	C676.179871,509.576019 676.179871,516.544312 676.179871,523.544067 
	C673.011292,524.786438 672.026001,523.740295 672.092834,520.552673 
	C672.252686,512.917847 672.282349,505.273499 672.064087,497.641571 
	C671.994446,495.206604 673.742126,491.913696 669.851746,490.511658 
	C669.631836,490.432373 669.488098,489.271057 669.625793,489.196167 
	C673.839355,486.904633 670.767761,482.064087 672.967651,479.446777 
	C674.531738,477.585907 677.311401,476.532196 679.749084,475.721497 
	C680.781860,475.378082 682.328796,476.580841 683.441467,477.604889 
	C675.977295,479.892639 675.977295,479.892639 676.311218,486.932648 
	C678.421509,487.908112 680.373718,488.810455 682.325928,489.712830 
	C680.541077,490.428009 678.756165,491.143188 676.178223,492.176147 
	C676.178223,494.815125 676.178223,498.228546 676.179077,502.124878 
z"/>
<path fill="#0E0E0E" opacity="1.000000" stroke="none" 
	d="
M620.112671,521.563232 
	C619.676392,513.248474 619.531738,505.297150 619.037354,497.367615 
	C618.894714,495.080475 617.718750,492.863708 617.076172,490.597778 
	C616.903748,489.989471 616.703613,488.869720 616.933472,488.743286 
	C621.484070,486.239807 617.850403,481.808777 619.801147,478.175232 
	C620.537170,478.115295 621.730774,478.018127 623.229065,477.896149 
	C623.229065,481.341858 623.229065,484.444489 623.229065,486.810608 
	C625.393066,487.960663 627.048096,488.840210 628.703125,489.719788 
	C627.070801,490.450195 625.438477,491.180603 623.216492,492.174866 
	C623.216492,500.294403 622.974548,509.064545 623.437256,517.797302 
	C623.521606,519.388428 626.482605,520.827148 628.679016,522.856750 
	C628.250549,525.351685 624.816650,525.520264 620.112671,521.563232 
z"/>
<path fill="#0E0E0E" opacity="1.000000" stroke="none" 
	d="
M461.069580,491.152649 
	C460.017365,492.432953 458.954926,493.697571 458.921509,494.988800 
	C458.749573,501.633026 458.833832,508.284058 458.844513,514.932739 
	C458.853790,520.718018 458.863129,520.718018 465.836792,521.660889 
	C464.298340,522.909180 463.178558,524.394836 462.572540,524.208618 
	C460.083679,523.443787 457.474274,522.517151 455.484344,520.929260 
	C454.564941,520.195618 454.813141,517.806885 454.797455,516.166077 
	C454.732361,509.351807 454.893494,502.532593 454.677032,495.724548 
	C454.624817,494.082642 453.412506,492.489044 452.800507,490.848267 
	C452.535278,490.137207 452.170319,488.764465 452.305023,488.703918 
	C457.563232,486.341705 453.288635,481.481720 455.386780,478.064819 
	C456.215729,478.064819 457.341705,478.064819 458.785889,478.064819 
	C458.785889,481.176239 458.785889,484.281525 458.785889,486.853577 
	C460.863190,487.977570 462.475128,488.849762 464.087067,489.721985 
	C463.236053,490.197754 462.385040,490.673523 461.069580,491.152649 
z"/>
<path fill="#181818" opacity="1.000000" stroke="none" 
	d="
M584.688477,487.042236 
	C584.688538,483.236938 584.688538,479.923798 584.688538,476.372894 
	C587.094177,475.764160 588.843567,475.312042 588.817627,478.859009 
	C588.714722,492.966339 588.835876,507.075623 588.663269,521.181580 
	C588.649353,522.319153 587.035278,523.437134 586.164856,524.564209 
	C585.672729,524.290527 585.180603,524.016785 584.688477,523.743042 
	C584.688477,511.673523 584.688477,499.603973 584.688477,487.042236 
z"/>
<path fill="#050505" opacity="1.000000" stroke="none" 
	d="
M763.991455,509.993713 
	C763.991394,504.679626 764.139343,499.856049 763.898621,495.051971 
	C763.828735,493.656067 762.565674,492.348022 762.007263,490.937286 
	C761.702454,490.167236 761.561462,488.543396 761.628052,488.528076 
	C765.754089,487.578918 763.675537,484.288147 763.956970,482.079224 
	C764.620728,476.870331 769.307861,473.854980 774.081909,475.985138 
	C774.687622,476.255371 774.869385,477.475677 775.293945,478.351471 
	C767.771057,479.494690 767.771057,479.494690 768.115173,486.910339 
	C770.238342,487.940277 772.150208,488.867706 774.062073,489.795105 
	C772.262207,490.455444 770.462402,491.115784 768.116333,491.976501 
	C768.116333,502.117554 768.116333,512.834656 768.116333,523.773987 
	C766.633362,523.773987 765.559326,523.773987 763.991455,523.773987 
	C763.991455,519.371826 763.991455,514.931763 763.991455,509.993713 
z"/>
<path fill="#0C0C0C" opacity="1.000000" stroke="none" 
	d="
M849.932068,506.998779 
	C849.932068,496.530182 849.932068,486.561432 849.932068,476.620972 
	C853.361633,474.949738 854.011536,476.421021 853.991272,479.446625 
	C853.901184,492.901367 853.952209,506.357056 853.952209,519.568665 
	C856.910034,521.903931 862.159119,517.672913 863.801086,523.770020 
	C858.998596,523.770020 854.744263,523.770020 849.932068,523.770020 
	C849.932068,518.355652 849.932068,512.927185 849.932068,506.998779 
z"/>
<path fill="#040404" opacity="1.000000" stroke="none" 
	d="
M509.042694,484.784668 
	C509.772552,486.164124 510.378571,487.237457 511.271515,487.952606 
	C512.126282,488.637238 513.279114,488.949707 514.300964,489.425751 
	C513.193542,489.993622 512.106750,490.608612 510.968170,491.105011 
	C510.540497,491.291473 509.992706,491.202515 509.020691,491.274628 
	C509.020691,500.200287 508.811279,509.156677 509.232758,518.083313 
	C509.300720,519.522461 512.178467,520.828918 514.488831,522.830322 
	C514.653625,522.573608 513.932495,524.192627 513.612305,524.116882 
	C511.034943,523.507141 508.234406,523.011841 506.133392,521.564819 
	C505.073425,520.834839 505.057800,518.208252 505.027191,516.431396 
	C504.909790,509.615082 505.111328,502.791107 504.884949,495.980286 
	C504.826202,494.213135 503.620361,492.492096 502.993073,490.731445 
	C502.783417,490.143005 502.503448,489.016174 502.645874,488.947754 
	C506.748535,486.976746 504.243347,483.222961 505.093262,480.411804 
	C505.454102,479.218292 506.692017,478.289948 507.531342,477.241058 
	C508.035645,477.493958 508.539978,477.746857 509.044312,477.999756 
	C509.044312,480.107147 509.044312,482.214569 509.042694,484.784668 
z"/>
<path fill="#111111" opacity="1.000000" stroke="none" 
	d="
M436.078888,490.223511 
	C438.379242,489.495697 440.888550,487.873260 442.908691,488.345062 
	C444.327026,488.676331 445.926117,491.834961 445.986053,493.776031 
	C446.293579,503.733276 446.128418,513.705078 446.128418,523.847046 
	C444.780182,523.847046 443.659760,523.847046 442.135864,523.847046 
	C442.135864,514.437195 442.115234,505.140320 442.148010,495.843567 
	C442.158295,492.921875 441.980988,490.289093 437.290283,490.916626 
	C436.412781,490.694641 436.215302,490.488281 436.078888,490.223511 
z"/>
<path fill="#111111" opacity="1.000000" stroke="none" 
	d="
M360.606262,366.638916 
	C359.755981,367.980957 358.955292,369.584564 358.049377,369.646301 
	C353.957123,369.925415 349.835144,369.768311 345.458557,369.768311 
	C345.458557,365.734650 345.458557,362.167755 345.458557,358.283844 
	C350.354492,358.283844 355.229797,358.283844 360.607422,358.283844 
	C360.607422,360.961578 360.607422,363.576080 360.606262,366.638916 
z"/>
<path fill="#0C0C0C" opacity="1.000000" stroke="none" 
	d="
M980.779663,357.983887 
	C982.125305,358.635803 983.680786,359.224792 983.747009,359.949768 
	C984.027710,363.023041 983.866089,366.136749 983.866089,369.491577 
	C978.674866,369.491577 973.939697,369.491577 968.875366,369.491577 
	C968.875366,365.782227 968.875366,362.065338 968.875366,357.983521 
	C972.758667,357.983521 976.531555,357.983521 980.779663,357.983887 
z"/>
<path fill="#0C0C0C" opacity="1.000000" stroke="none" 
	d="
M424.109467,496.000305 
	C424.109467,505.477814 424.109467,514.455444 424.109467,523.699524 
	C421.530304,524.318298 420.013733,524.342041 420.041412,521.001160 
	C420.157257,507.009003 420.032440,493.014648 420.194489,479.023376 
	C420.208435,477.821747 421.682404,476.637024 422.478149,475.444427 
	C423.021942,475.678223 423.565704,475.911987 424.109467,476.145782 
	C424.109467,482.597351 424.109467,489.048889 424.109467,496.000305 
z"/>
<path fill="#1C1C1C" opacity="1.000000" stroke="none" 
	d="
M435.652161,490.372437 
	C436.215302,490.488281 436.412781,490.694641 436.867035,490.935669 
	C436.176514,493.225372 434.602875,495.398071 434.525696,497.622650 
	C434.226685,506.245148 434.404022,514.884216 434.404022,523.556824 
	C431.657440,524.560486 430.215912,524.299561 430.248108,521.015747 
	C430.353973,510.224854 430.287933,499.432281 430.287933,486.890411 
	C432.582825,488.578094 433.904114,489.549744 435.652161,490.372437 
z"/>
<path fill="#1C1C1C" opacity="1.000000" stroke="none" 
	d="
M479.983704,520.246338 
	C480.521179,518.043701 481.473145,515.850220 481.522186,513.636719 
	C481.706390,505.325897 481.596039,497.008575 481.596039,488.302002 
	C482.933350,488.207489 484.118225,488.123749 485.519836,488.024658 
	C485.519836,500.137482 485.519836,511.908264 485.519836,525.273621 
	C483.354706,523.613220 482.075653,522.632324 480.354340,521.481812 
	C479.935944,520.956909 479.959839,520.601624 479.983704,520.246338 
z"/>
<path fill="#1C1C1C" opacity="1.000000" stroke="none" 
	d="
M492.292664,522.447144 
	C492.271484,510.888611 492.271484,499.780853 492.271484,488.288849 
	C493.683075,488.195587 494.882538,488.116364 496.245239,488.026337 
	C496.245239,500.115021 496.245239,511.875977 496.245239,524.429565 
	C494.684570,523.821533 493.499207,523.359802 492.292664,522.447144 
z"/>
<path fill="#181818" opacity="1.000000" stroke="none" 
	d="
M520.686523,489.644958 
	C521.830627,488.702576 522.961548,488.202515 524.755737,487.409180 
	C524.755737,499.430420 524.825073,510.525421 524.639160,521.616150 
	C524.622192,522.629333 522.969666,523.614990 522.076660,524.613464 
	C521.608887,524.331604 521.141174,524.049683 520.673401,523.767822 
	C520.673401,512.540955 520.673401,501.314087 520.686523,489.644958 
z"/>
<path fill="#1C1C1C" opacity="1.000000" stroke="none" 
	d="
M655.287476,519.700867 
	C655.287476,508.947632 655.287476,498.661224 655.287476,488.169922 
	C656.776123,488.169922 657.879578,488.169922 659.504150,488.169922 
	C659.504150,499.978363 659.504150,511.673401 659.504150,523.314880 
	C655.622986,524.025635 655.622986,524.025635 655.287476,519.700867 
z"/>
<path fill="#0E0E0E" opacity="1.000000" stroke="none" 
	d="
M479.630371,520.402588 
	C479.959839,520.601624 479.935944,520.956909 479.933075,521.578796 
	C477.653992,522.551575 475.140625,524.146484 473.126129,523.662964 
	C471.696198,523.319702 470.085815,520.197998 470.025757,518.270630 
	C469.716553,508.348114 469.882385,498.410828 469.882385,488.364105 
	C472.635681,487.562805 474.015900,487.843292 473.955719,491.082275 
	C473.798523,499.544586 473.986359,508.012939 473.869385,516.476562 
	C473.813171,520.542847 475.273163,522.111084 479.630371,520.402588 
z"/>
<path fill="#0E0E0E" opacity="1.000000" stroke="none" 
	d="
M806.225220,492.868744 
	C805.720276,497.428558 805.262695,501.682922 805.151611,505.946350 
	C805.000549,511.748688 805.114075,517.557922 805.114075,523.565979 
	C802.604248,524.408997 801.011047,524.557983 801.045593,521.112915 
	C801.153748,510.316986 801.085388,499.519318 801.085388,487.600006 
	C803.860352,488.795227 806.114502,489.766113 808.788879,490.917999 
	C807.918518,491.525818 807.172852,492.046570 806.225220,492.868744 
z"/>
<path fill="#1C1C1C" opacity="1.000000" stroke="none" 
	d="
M519.326294,477.152832 
	C521.353943,476.402802 523.338135,476.076141 525.592346,475.705017 
	C525.592346,477.745178 525.592346,479.118988 525.592346,480.947510 
	C522.998962,480.187164 519.008789,483.317932 519.326294,477.152832 
z"/>
<path fill="#111111" opacity="1.000000" stroke="none" 
	d="
M495.586121,480.902161 
	C491.596466,481.439514 490.216553,480.060577 491.416718,476.239410 
	C493.233368,476.239410 495.131317,476.239410 498.089020,476.239410 
	C497.257660,478.093719 496.629761,479.494171 495.586121,480.902161 
z"/>
<path fill="#FDFDFD" opacity="1.000000" stroke="none" 
	d="
M664.717346,320.490173 
	C648.369141,318.348969 635.958313,310.644562 626.736450,297.515289 
	C617.271545,284.039948 607.549866,270.745148 598.035583,257.304108 
	C594.681335,252.565475 595.505737,247.725571 599.871216,244.632141 
	C603.941589,241.747833 608.493530,242.684982 612.002563,247.216354 
	C613.835632,249.583481 615.545227,252.046127 617.315430,254.462112 
	C618.102478,255.536301 618.889160,256.611115 619.697449,257.669220 
	C621.539062,260.079987 623.751038,262.071381 626.807312,259.982147 
	C629.934448,257.844391 629.504333,254.966919 627.473206,252.158844 
	C623.963074,247.305939 620.459351,242.448410 616.948608,237.595947 
	C615.680481,235.843231 614.377319,234.115540 613.129333,232.348694 
	C608.878906,226.331009 609.274536,221.424667 614.261047,218.035309 
	C618.583313,215.097458 623.130432,216.539261 627.268127,222.226257 
	C631.477051,228.011200 635.655151,233.818787 639.817505,239.637390 
	C641.736572,242.320114 643.992004,244.334824 647.268250,241.978149 
	C650.472229,239.673462 649.505615,236.801926 647.591064,234.122986 
	C640.820679,224.649521 634.006226,215.207535 627.242920,205.729019 
	C623.360046,200.287323 623.582153,195.139053 627.748840,192.057266 
	C632.378113,188.633347 637.165588,189.827774 641.284119,195.510056 
	C647.728027,204.400726 653.987793,213.431747 660.691467,222.121017 
	C661.888245,223.672348 664.874573,224.455734 666.999939,224.394302 
	C667.926208,224.367523 669.514465,221.279358 669.440430,219.643173 
	C669.360474,217.878983 667.834717,216.081268 666.686462,214.479782 
	C654.471436,197.442932 642.189270,180.454208 629.960510,163.427124 
	C622.585205,153.157852 615.263916,142.849747 607.933044,132.548660 
	C603.809143,126.753914 604.132629,122.040733 608.846558,118.646568 
	C613.168335,115.534813 617.843323,116.795593 621.923706,122.466537 
	C645.438599,155.147964 668.880920,187.881592 692.424927,220.541962 
	C694.429260,223.322433 695.905090,227.910065 700.669861,226.063705 
	C705.560913,224.168442 703.675049,219.764542 703.317688,216.094299 
	C702.591553,208.637787 701.789795,201.188080 701.132629,193.725586 
	C700.562866,187.255753 703.540405,182.686752 708.551208,182.059875 
	C713.720337,181.413177 717.685547,184.958237 718.349182,191.563019 
	C720.812439,216.078461 723.789001,240.570923 725.258301,265.150604 
	C727.202637,297.676331 698.231812,323.861847 664.717346,320.490173 
z"/>
<path fill="#F9F9F9" opacity="1.000000" stroke="none" 
	d="
M613.466187,160.145584 
	C616.840088,162.952286 619.786255,165.774338 623.065552,168.915527 
	C604.886841,175.361755 582.500061,166.841690 570.635315,148.794708 
	C558.378784,130.151749 562.049744,103.079323 579.364685,87.390289 
	C597.388611,71.058830 624.488037,70.518364 642.739441,86.126328 
	C661.165405,101.883583 665.433716,128.296371 652.450928,148.201019 
	C650.829224,146.005753 648.902222,144.103333 647.880493,141.799438 
	C647.000549,139.815140 646.363708,137.129486 646.968994,135.171005 
	C653.674011,113.475395 641.865112,91.773476 620.154663,86.834213 
	C605.063965,83.400993 592.379272,88.191589 582.821899,100.044228 
	C573.492432,111.614357 571.606567,124.972031 577.854309,138.454773 
	C584.046265,151.817184 595.057495,159.212204 610.042786,160.091721 
	C611.039246,160.150192 612.039734,160.139465 613.466187,160.145584 
z"/>
<path fill="#F9F9F9" opacity="1.000000" stroke="none" 
	d="
M626.241699,99.603287 
	C636.642883,106.640770 640.483826,116.119629 638.684448,129.197327 
	C635.059204,124.131134 632.118225,119.802658 628.951965,115.645767 
	C623.742432,108.806274 615.570679,105.971786 608.194824,108.245789 
	C601.388794,110.344093 595.614014,117.015396 595.719971,124.654060 
	C595.780273,129.002228 597.701416,133.592300 599.755066,137.572800 
	C601.986816,141.898605 605.343994,145.643829 608.424500,149.940735 
	C593.600586,149.733582 581.652039,133.696960 584.355652,118.826157 
	C587.674744,100.570381 607.733093,89.262337 626.241699,99.603287 
z"/>
<path fill="#FBFBFB" opacity="1.000000" stroke="none" 
	d="
M268.386475,369.864380 
	C272.781525,370.985962 273.774292,374.093201 273.846130,377.592377 
	C273.982513,384.235992 274.019745,390.884949 273.924194,397.529175 
	C273.799988,406.168274 271.854645,407.989349 263.230652,407.960571 
	C262.402100,407.957794 261.573547,407.960205 260.396545,407.960205 
	C260.396545,395.165009 260.396545,382.485321 260.396545,369.788574 
	C262.999603,369.788574 265.476593,369.788574 268.386475,369.864380 
z"/>
<path fill="#FDFDFD" opacity="1.000000" stroke="none" 
	d="
M936.840454,390.794342 
	C943.504822,392.529633 945.078003,394.425201 945.085632,400.401093 
	C945.100830,412.371460 945.114380,424.341919 945.078674,436.312195 
	C945.063110,441.526215 942.111877,444.679504 937.048828,445.201202 
	C932.770203,445.642059 930.135254,443.892303 930.099792,439.509186 
	C929.984192,425.214264 929.998169,410.917511 930.085327,396.622223 
	C930.109619,392.633087 932.240784,390.474365 936.840454,390.794342 
z"/>
<path fill="#FDFDFD" opacity="1.000000" stroke="none" 
	d="
M476.637817,441.931885 
	C476.283508,426.475128 476.018372,411.390686 476.089722,396.307861 
	C476.109344,392.157928 479.299591,390.944946 483.069519,390.938995 
	C486.909943,390.932892 489.857880,392.336761 489.909302,396.460815 
	C490.087311,410.732330 490.120697,425.010010 489.831543,439.277649 
	C489.794647,441.097992 487.890259,443.822449 486.213318,444.465759 
	C483.005371,445.696472 479.301056,445.881500 476.637817,441.931885 
z"/>
<path fill="#FDFDFD" opacity="1.000000" stroke="none" 
	d="
M323.447449,407.966034 
	C322.440765,409.316071 321.504303,410.800964 320.430389,410.908173 
	C317.170319,411.233459 313.857056,411.025940 310.166779,411.025940 
	C310.166779,405.822205 309.909058,400.762665 310.248840,395.743561 
	C310.517548,391.774323 313.563416,390.872009 317.073303,390.939148 
	C320.541809,391.005554 322.853271,392.389648 323.075134,396.074341 
	C323.303528,399.867065 323.336395,403.671570 323.447449,407.966034 
z"/>
<path fill="#F5F5F5" opacity="1.000000" stroke="none" 
	d="
M626.230591,392.830383 
	C627.109924,398.872467 627.738037,404.582825 628.411987,410.709961 
	C623.270264,410.709961 619.018982,410.709961 614.541504,410.709961 
	C614.541504,405.705353 614.067505,400.414307 614.682251,395.252899 
	C615.234924,390.613373 620.296387,389.591003 626.230591,392.830383 
z"/>
<path fill="#F9F9F9" opacity="1.000000" stroke="none" 
	d="
M1021.817688,402.213074 
	C1021.788391,414.308838 1021.889221,425.935669 1021.646790,437.555389 
	C1021.522400,443.518463 1019.177429,445.355011 1013.608643,445.073730 
	C1009.807739,444.881805 1007.505249,442.923920 1007.461365,439.271851 
	C1007.291931,425.164093 1007.269043,411.052124 1007.427124,396.944397 
	C1007.474243,392.732819 1010.223022,390.925293 1014.399475,390.905701 
	C1018.519226,390.886353 1021.110901,392.459656 1021.523438,396.771973 
	C1021.681335,398.422272 1021.715271,400.084442 1021.817688,402.213074 
z"/>
<path fill="#F5F5F5" opacity="1.000000" stroke="none" 
	d="
M833.099548,492.957886 
	C833.099548,488.359558 833.099548,484.253326 833.099548,480.200958 
	C839.540466,479.338501 840.160706,479.783569 840.352356,485.608368 
	C840.466370,489.072388 840.468201,492.546143 840.356445,496.010193 
	C840.165039,501.940674 839.733704,502.256866 833.099548,501.732941 
	C833.099548,498.999390 833.099548,496.224670 833.099548,492.957886 
z"/>
<path fill="#F5F5F5" opacity="1.000000" stroke="none" 
	d="
M696.672913,506.234497 
	C697.173584,509.827942 697.677307,513.363342 697.179688,516.751709 
	C696.943359,518.361145 694.797363,519.690186 693.516479,521.146301 
	C692.335327,519.666138 690.420654,518.324707 690.109619,516.680054 
	C689.154785,511.630859 691.441589,508.026276 696.672913,506.234497 
z"/>
<path fill="#E8E8E8" opacity="1.000000" stroke="none" 
	d="
M733.142761,498.980652 
	C733.722656,495.634583 731.544617,490.957947 736.936523,490.985992 
	C742.163757,491.013184 740.408875,495.567932 740.774414,498.555420 
	C740.953491,500.019196 740.805359,501.523010 740.805359,503.415161 
	C738.379578,503.415161 736.152405,503.415161 733.398071,503.415161 
	C733.322144,502.263489 733.228760,500.847290 733.142761,498.980652 
z"/>
<path fill="#E8E8E8" opacity="1.000000" stroke="none" 
	d="
M562.547791,493.749542 
	C562.658264,497.143585 562.658264,500.117554 562.658264,503.454865 
	C560.310730,503.454865 558.081421,503.454865 555.209106,503.454865 
	C555.209106,500.673706 554.954346,497.717621 555.320129,494.840485 
	C555.494568,493.468353 556.868469,491.168427 557.664429,491.182983 
	C559.267944,491.212280 560.847717,492.538391 562.547791,493.749542 
z"/>
<path fill="#E8E8E8" opacity="1.000000" stroke="none" 
	d="
M638.175720,496.315521 
	C638.232300,493.221680 638.472351,490.722595 642.104309,490.867493 
	C645.731873,491.012177 645.670593,493.726410 645.773376,496.231934 
	C645.867859,498.533203 645.793518,500.841431 645.793518,503.480225 
	C643.262390,503.480225 641.033447,503.480225 638.169495,503.480225 
	C638.169495,501.278656 638.169495,499.017181 638.175720,496.315521 
z"/>
<path fill="#F5F5F5" opacity="1.000000" stroke="none" 
	d="
M790.357605,519.119202 
	C785.688049,522.443542 783.175537,521.473450 783.066040,516.550659 
	C782.910583,509.563446 783.030518,502.570282 783.021057,495.579651 
	C783.017639,493.023438 783.457581,490.947601 786.723999,490.841095 
	C789.935852,490.736328 790.770081,492.658875 790.758728,495.268768 
	C790.724609,503.083984 790.603821,510.898834 790.357605,519.119202 
z"/>
</svg>