<svg version="1.1" id="Layer_1" xmlns="http://www.w3.org/2000/svg" xmlns:xlink="http://www.w3.org/1999/xlink" x="0px" y="0px"
	 width="100%" viewBox="0 0 1143 266" enable-background="new 0 0 1143 266" xml:space="preserve">
<path fill="#FEFEFE" opacity="1.000000" stroke="none" 
	d="
M772.000000,267.000000 
	C514.666687,267.000000 257.833344,267.000000 1.000000,267.000000 
	C1.000000,178.333328 1.000000,89.666664 1.000000,1.000000 
	C382.000000,1.000000 763.000000,1.000000 1144.000000,1.000000 
	C1144.000000,89.666664 1144.000000,178.333328 1144.000000,267.000000 
	C1020.166687,267.000000 896.333313,267.000000 772.000000,267.000000 
M194.790161,116.625366 
	C189.290878,112.052620 183.185837,111.609604 177.093994,114.849922 
	C167.459808,119.974449 168.310745,129.028946 169.852325,139.466507 
	C167.916519,137.155182 166.953720,136.141602 166.144043,135.017715 
	C158.461411,124.353477 150.926636,113.579506 143.063477,103.050583 
	C140.820831,100.047623 140.862000,98.004440 142.766373,94.785454 
	C156.201843,72.075424 149.520386,43.560867 127.415169,28.189426 
	C106.714493,13.794672 77.160583,18.208776 60.905060,38.123226 
	C47.737911,54.254143 46.010399,77.674568 56.703239,95.088272 
	C68.149292,113.728584 90.185791,123.286522 110.781044,118.610489 
	C112.284203,118.269196 113.897308,118.412186 114.996117,118.354393 
	C111.223114,121.730766 106.581978,124.238022 104.605965,128.106583 
	C102.553101,132.125610 103.077721,137.461151 102.410034,142.735703 
	C92.241379,146.368195 89.046761,152.410721 91.334091,165.270050 
	C77.505844,169.067398 74.535583,182.601624 83.063705,192.941956 
	C91.592957,203.283646 99.052193,214.526245 106.723000,225.553055 
	C117.132828,240.517181 131.350540,248.227203 149.479492,249.337769 
	C181.473190,251.297653 209.729919,222.270325 206.630722,190.370056 
	C204.747452,170.985672 202.763214,151.611084 200.849152,132.229660 
	C200.304367,126.713104 199.621933,121.270432 194.790161,116.625366 
M242.649765,78.152130 
	C240.388931,78.152130 238.128098,78.152130 235.725754,78.152130 
	C235.725754,114.729378 235.725754,150.666504 235.725754,186.683273 
	C240.678284,186.683273 245.408096,186.683273 250.538879,186.683273 
	C250.538879,173.617722 250.538879,160.870544 250.538879,148.080460 
	C252.747528,148.080460 254.544083,148.080460 256.618134,148.080460 
	C259.953949,160.999756 263.264008,173.819260 266.582153,186.669983 
	C271.852051,186.669983 276.857880,186.669983 282.161438,186.669983 
	C278.567474,173.980453 275.142426,161.661179 271.549561,149.391037 
	C270.824951,146.916382 271.240479,145.634537 273.053314,143.489914 
	C276.027985,139.970764 279.334534,135.487640 279.649170,131.201660 
	C280.535919,119.122879 280.506989,106.906525 279.806152,94.804207 
	C279.262177,85.410095 273.572601,80.077682 264.055847,78.955582 
	C257.305328,78.159622 250.434540,78.383484 242.649765,78.152130 
M866.516052,128.814621 
	C862.367188,127.637192 858.264404,126.245987 854.057068,125.340157 
	C849.501221,124.359291 846.855896,121.701187 846.623413,117.214706 
	C846.262451,110.248001 845.996155,103.239594 846.362366,96.284279 
	C846.630249,91.194969 850.108521,88.906067 855.400513,89.207603 
	C860.422119,89.493729 863.002197,91.827759 863.189270,97.028580 
	C863.427307,103.646835 863.246887,110.280159 863.246887,117.142410 
	C868.214233,117.142410 872.736633,117.142410 877.722656,117.142410 
	C877.722656,111.278625 877.926758,105.789757 877.685059,100.320580 
	C876.892212,82.378510 868.987793,75.586441 851.038330,77.222183 
	C849.881165,77.327644 848.735046,77.567413 847.587830,77.767883 
	C838.134888,79.419647 833.070923,83.931068 832.255310,93.433273 
	C831.476257,102.510414 831.552002,111.729332 832.110107,120.833321 
	C832.654846,129.717392 837.843262,135.477432 846.579285,137.775101 
	C849.633057,138.578278 852.690674,139.379761 855.774902,140.051849 
	C859.860718,140.942169 862.523621,143.558212 862.758911,147.504272 
	C863.203186,154.952209 863.175598,162.445343 862.957458,169.908386 
	C862.850952,173.550568 860.208679,175.399841 856.680908,175.894333 
	C850.047729,176.824081 846.310669,173.967804 846.079346,167.312775 
	C845.844910,160.566467 846.027588,153.805664 846.027588,147.148453 
	C841.086060,147.148453 836.807312,147.148453 832.449341,147.148453 
	C832.449341,155.462570 831.665649,163.655151 832.644226,171.631531 
	C833.917053,182.006638 838.811768,186.477753 848.785156,187.630783 
	C853.505188,188.176483 858.429871,187.809982 863.166443,187.160553 
	C871.018738,186.083954 876.099365,181.106979 876.862183,173.425323 
	C877.793823,164.044769 877.910706,154.505844 877.412048,145.086655 
	C877.051147,138.269150 874.120239,132.177582 866.516052,128.814621 
M692.761169,154.499802 
	C692.831909,159.330048 692.757019,164.167694 693.002563,168.989044 
	C693.582214,180.366882 698.745422,186.270172 709.868713,187.650513 
	C714.271851,188.196899 718.899841,188.101135 723.282654,187.402298 
	C732.901978,185.868546 737.104126,181.352707 738.675476,171.714844 
	C739.048157,169.428452 739.069458,167.067520 739.072266,164.740677 
	C739.104797,137.420334 739.107056,110.099953 739.098633,82.779587 
	C739.098206,81.339828 738.930847,79.900116 738.842773,78.486237 
	C733.922791,78.486237 729.368958,78.486237 724.533813,78.486237 
	C724.533813,79.962097 724.532776,81.107475 724.533997,82.252853 
	C724.558594,105.241890 724.599365,128.230927 724.597229,151.219955 
	C724.596741,157.049545 724.499329,162.879974 724.373657,168.708450 
	C724.272949,173.377197 721.607361,175.588348 717.141785,175.951248 
	C710.486267,176.492096 707.456238,173.764893 707.427124,166.543625 
	C707.316223,139.057236 707.347595,111.570282 707.325989,84.083534 
	C707.324585,82.281250 707.325745,80.478966 707.325745,78.417084 
	C702.406494,78.417084 697.839417,78.417084 692.747681,78.417084 
	C692.747681,103.602341 692.747681,128.551300 692.761169,154.499802 
M1041.356689,154.500183 
	C1041.356689,129.217422 1041.356689,103.934654 1041.356689,78.420563 
	C1036.333252,78.420563 1031.768188,78.420563 1026.573486,78.420563 
	C1026.573486,90.187431 1026.573486,101.697357 1026.573486,113.207283 
	C1026.158203,113.378876 1025.743042,113.550468 1025.327759,113.722061 
	C1024.262085,112.442276 1023.107056,111.225883 1022.146790,109.871414 
	C1018.624146,104.902733 1013.677856,103.821312 1008.029114,104.542313 
	C1002.145813,105.293259 998.116211,108.475044 996.524353,114.146255 
	C995.591370,117.470383 995.053955,121.011353 995.015381,124.462326 
	C994.853394,138.952988 994.909851,153.446686 994.982544,167.938797 
	C994.994995,170.416183 995.377014,172.906906 995.761963,175.364258 
	C996.748291,181.660385 999.850037,186.336792 1006.422913,187.668732 
	C1013.148193,189.031586 1018.973083,187.591339 1022.974060,181.373337 
	C1023.666199,180.297760 1025.024658,179.650970 1027.006226,178.057617 
	C1027.006226,181.927612 1027.006226,184.348358 1027.006226,186.725204 
	C1031.980103,186.725204 1036.572754,186.725204 1041.356689,186.725204 
	C1041.356689,176.132736 1041.356689,165.816467 1041.356689,154.500183 
M292.143005,170.047485 
	C293.467743,183.318222 300.326233,190.387466 321.358826,187.456406 
	C333.845642,185.716293 339.076324,173.834274 335.464905,157.414551 
	C331.065826,157.414551 326.658569,157.414551 321.600525,157.414551 
	C321.600525,162.303268 321.925262,166.959686 321.506317,171.548203 
	C321.112701,175.859222 317.858948,177.124161 313.905396,176.931076 
	C309.920410,176.736450 307.064606,175.148315 306.999908,170.736023 
	C306.895508,163.616577 306.971863,156.494492 306.971863,148.879120 
	C316.543732,148.879120 326.109772,148.879120 335.874390,148.879120 
	C335.874390,138.944580 336.508453,129.439957 335.585449,120.089035 
	C335.173523,115.915894 332.621918,110.632355 329.315918,108.324608 
	C320.815704,102.390999 310.936157,102.972565 301.664307,106.855812 
	C293.552094,110.253395 292.199646,118.027260 292.072174,125.691208 
	C291.831329,140.168594 292.051605,154.653671 292.143005,170.047485 
M937.757324,176.467972 
	C938.948364,182.732315 942.771240,186.530670 948.923157,187.738434 
	C955.325623,188.995422 960.753845,187.198303 964.787354,181.799469 
	C965.638367,180.660324 966.782043,179.739792 968.709961,177.787979 
	C968.709961,181.710648 968.709961,184.129166 968.709961,186.670074 
	C973.743652,186.670074 978.437317,186.670074 983.048828,186.670074 
	C983.048828,159.430084 983.048828,132.528595 983.048828,105.727249 
	C978.163330,105.727249 973.608276,105.727249 968.810791,105.727249 
	C968.810791,126.409218 968.832153,146.711288 968.797424,167.013275 
	C968.787354,172.898712 964.219971,177.178650 958.214600,177.105759 
	C953.237305,177.045349 951.671265,174.833130 951.661926,167.584549 
	C951.637756,148.769714 951.653809,129.954819 951.653748,111.139946 
	C951.653748,109.366188 951.653748,107.592430 951.653748,105.603653 
	C946.473267,105.603653 941.901428,105.603653 936.941223,105.603653 
	C936.941223,123.974350 936.899048,142.090546 936.968079,160.206314 
	C936.987671,165.353317 937.331299,170.499069 937.757324,176.467972 
M636.786682,127.375290 
	C636.836121,141.359268 636.637024,155.349960 637.014160,169.325089 
	C637.312439,180.377213 642.465698,186.285309 653.002869,187.569778 
	C658.027771,188.182312 663.300110,187.698196 668.347534,186.949783 
	C674.313538,186.065170 678.428833,182.122299 679.565918,176.281616 
	C680.751648,170.190796 680.881775,163.894485 681.487488,157.540558 
	C675.922607,157.540558 671.408997,157.540558 667.016479,157.540558 
	C666.723999,162.577911 666.614258,167.233215 666.136536,171.850449 
	C665.729492,175.784973 662.833374,176.949829 659.327759,176.928131 
	C655.992126,176.907501 652.341614,176.284897 652.112976,172.369247 
	C651.661987,164.643463 651.980103,156.872772 651.980103,148.658966 
	C661.478638,148.658966 671.062622,148.658966 680.845215,148.658966 
	C680.845215,139.401642 681.241699,130.579239 680.737061,121.808701 
	C680.199524,112.467789 676.303650,106.968445 668.601562,105.651031 
	C662.515320,104.609985 656.027893,104.781258 649.873047,105.589607 
	C643.601135,106.413338 639.646851,110.936111 638.105042,117.091919 
	C637.344482,120.128517 637.221924,123.324913 636.786682,127.375290 
M407.796204,151.499908 
	C407.796204,163.249115 407.796204,174.998337 407.796204,186.707809 
	C412.955170,186.707809 417.512115,186.707809 421.995697,186.707809 
	C422.144470,186.092377 422.288147,185.774139 422.288727,185.455643 
	C422.310059,174.296646 422.358429,163.137482 422.316315,151.978668 
	C422.274200,140.821930 422.386261,129.656067 421.958069,118.512360 
	C421.677490,111.209557 417.892303,106.603508 412.086823,105.010582 
	C404.926941,103.046028 399.381714,104.933395 394.943329,110.706856 
	C394.076019,111.835052 392.855652,112.691856 391.097260,114.324608 
	C390.717468,110.585060 390.460358,108.053635 390.223633,105.722855 
	C385.193848,105.722855 380.627747,105.722855 376.132202,105.722855 
	C376.132202,132.989136 376.132202,159.877640 376.132202,186.762024 
	C381.035217,186.762024 385.623871,186.762024 390.469818,186.762024 
	C390.530518,185.564285 390.621857,184.596558 390.622284,183.628815 
	C390.631287,164.141800 390.605743,144.654739 390.645508,125.167809 
	C390.657104,119.471931 395.040497,115.240120 400.784637,115.176208 
	C405.642029,115.122154 407.752716,117.880470 407.784668,124.517258 
	C407.826324,133.177948 407.795715,141.839005 407.796204,151.499908 
M523.203003,114.510292 
	C521.119568,108.958832 516.838379,105.935692 511.241241,105.157524 
	C506.832825,104.544609 502.256012,104.324211 497.837372,104.765129 
	C486.962982,105.850243 481.782288,110.170975 481.007660,120.943352 
	C479.958893,135.528091 479.939148,150.220093 480.171234,164.855087 
	C480.449280,182.387009 487.129730,188.384857 504.646210,188.034897 
	C504.979340,188.028244 505.312653,188.025818 505.645599,188.013977 
	C517.886841,187.578751 524.083862,182.619965 524.985107,170.363663 
	C525.984314,156.774033 525.837219,143.082748 525.736145,129.439072 
	C525.701050,124.691246 524.314209,119.953438 523.203003,114.510292 
M1084.981079,178.301270 
	C1087.239624,183.492432 1091.339355,186.374298 1096.792847,187.165268 
	C1100.558716,187.711502 1104.407349,188.056396 1108.204224,187.951965 
	C1119.901611,187.630295 1126.036133,183.086014 1126.985840,171.528580 
	C1128.196045,156.800674 1128.064209,141.931778 1127.905396,127.130157 
	C1127.721924,110.059029 1119.539062,103.002808 1102.527222,104.372726 
	C1101.697876,104.439499 1100.873901,104.573944 1100.047607,104.677971 
	C1088.972046,106.072266 1083.561646,110.776741 1083.062988,121.948311 
	C1082.358765,137.723053 1082.729492,153.550705 1082.872559,169.353622 
	C1082.897461,172.098251 1084.067627,174.832504 1084.981079,178.301270 
M625.090332,121.802956 
	C623.809631,111.806793 620.047791,106.757828 611.956604,105.250168 
	C607.913818,104.496864 603.641785,104.227654 599.553467,104.605446 
	C587.471313,105.721931 581.804871,110.903847 581.303528,122.905281 
	C580.650513,138.536148 580.798828,154.224579 581.258850,169.868912 
	C581.538025,179.361633 585.860413,185.194000 593.415283,186.700958 
	C598.865479,187.788071 604.709229,188.093979 610.217407,187.426910 
	C619.117859,186.349030 623.602478,181.645142 624.735840,172.817963 
	C625.379944,167.800797 624.852234,162.633194 624.852234,157.376907 
	C620.178894,157.376907 615.765015,157.376907 610.855347,157.376907 
	C610.855347,161.548950 611.032776,165.516693 610.812988,169.462296 
	C610.497131,175.131882 608.291992,177.118210 603.052734,176.935776 
	C597.967346,176.758682 595.983643,174.868912 595.944763,169.380234 
	C595.835083,153.890518 595.836243,138.399185 595.932617,122.909340 
	C595.966492,117.455971 597.955200,115.602417 603.099915,115.508507 
	C608.240662,115.414658 610.493896,117.302208 610.804077,122.510948 
	C611.047241,126.594894 610.852783,130.704910 610.852783,134.809464 
	C615.919006,134.809464 620.346741,134.809464 625.157227,134.809464 
	C625.157227,130.644012 625.157227,126.688034 625.090332,121.802956 
M467.186188,105.358322 
	C463.395874,105.358322 459.605591,105.358322 454.697266,105.358322 
	C455.427887,100.260162 454.516785,94.062202 457.100677,91.720200 
	C460.440247,88.693253 466.571655,88.746437 471.796143,87.397095 
	C471.796143,84.802048 471.796143,81.397408 471.796143,77.866081 
	C463.365753,76.494469 455.133759,75.924309 447.835999,80.577759 
	C438.685211,86.412781 441.317169,96.389938 440.608337,105.108696 
	C437.905609,105.298302 435.637695,105.457405 433.410461,105.613647 
	C433.410461,109.474594 433.410461,113.022255 433.410461,116.578407 
	C436.016235,116.757423 438.258759,116.911476 440.907837,117.093460 
	C440.907837,140.536102 440.907837,163.591324 440.907837,186.791534 
	C445.929626,186.791534 450.506378,186.791534 455.566223,186.791534 
	C455.566223,163.402649 455.566223,140.221710 455.566223,116.659973 
	C460.320007,116.659973 464.595612,116.659973 469.815369,116.659973 
	C469.199829,112.565079 468.662872,108.993011 467.186188,105.358322 
M898.525818,177.695557 
	C902.683777,186.540222 913.087463,190.217484 925.894165,187.214447 
	C925.894165,183.898300 925.894165,180.521057 925.894165,177.027649 
	C923.966492,177.027649 922.326721,177.023926 920.686951,177.028290 
	C913.282166,177.048004 911.851074,175.714462 911.804199,168.410065 
	C911.746521,159.416946 911.788574,150.423203 911.788086,141.429718 
	C911.787659,133.326324 911.788025,125.222939 911.788025,116.682442 
	C916.401184,116.682442 920.489929,116.682442 924.569885,116.682442 
	C924.569885,112.688789 924.569885,109.150925 924.569885,105.281494 
	C920.274963,105.281494 916.340271,105.281494 912.049072,105.281494 
	C912.049072,97.525742 912.049072,90.104630 912.049072,82.488922 
	C906.950928,82.488922 902.223022,82.488922 897.069702,82.488922 
	C897.069702,90.183891 897.069702,97.616562 897.069702,105.048019 
	C894.575378,105.300797 892.503052,105.510811 890.589966,105.704681 
	C890.589966,109.591568 890.589966,113.016167 890.589966,116.624596 
	C892.829041,116.737450 894.753052,116.834435 896.996216,116.947495 
	C896.996216,132.661545 896.908142,148.127625 897.051575,163.591537 
	C897.093018,168.053314 897.800415,172.508911 898.525818,177.695557 
M766.639771,173.487350 
	C766.639771,141.770569 766.639771,110.053780 766.639771,78.468094 
	C761.215698,78.468094 756.624695,78.468094 751.999878,78.468094 
	C751.999878,114.718735 751.999878,150.640137 751.999878,186.701843 
	C756.896790,186.701843 761.603760,186.701843 766.639771,186.701843 
	C766.639771,182.423492 766.639771,178.452484 766.639771,173.487350 
M554.072754,122.995140 
	C557.606262,115.078506 565.226990,117.491081 571.450623,116.472404 
	C571.450623,112.578133 571.450623,109.008217 571.450623,104.586647 
	C567.661438,105.195740 563.805420,104.897842 561.079102,106.510201 
	C558.316284,108.144127 556.670105,111.666145 553.644531,115.484940 
	C553.388123,111.474075 553.207947,108.655853 553.012695,105.601173 
	C548.258911,105.601173 543.679260,105.601173 538.825195,105.601173 
	C538.825195,132.793121 538.825195,159.790436 538.825195,186.753479 
	C543.750977,186.753479 548.351929,186.753479 553.247131,186.753479 
	C553.247131,167.733871 553.227722,148.963486 553.273926,130.193237 
	C553.279175,128.056992 553.653503,125.921669 554.072754,122.995140 
M1054.212036,154.499908 
	C1054.212036,165.260727 1054.212036,176.021561 1054.212036,186.784088 
	C1059.451294,186.784088 1064.049438,186.784088 1068.808105,186.784088 
	C1068.808105,159.653717 1068.808105,132.750839 1068.808105,105.709503 
	C1063.896362,105.709503 1059.184570,105.709503 1054.212036,105.709503 
	C1054.212036,121.885559 1054.212036,137.692719 1054.212036,154.499908 
M348.212006,182.307159 
	C348.285187,183.757462 348.358368,185.207779 348.431946,186.666077 
	C353.458527,186.666077 358.171234,186.666077 362.669128,186.666077 
	C362.669128,159.425720 362.669128,132.531616 362.669128,105.660400 
	C357.748840,105.660400 353.169342,105.660400 348.211975,105.660400 
	C348.211975,131.100632 348.211975,156.221359 348.212006,182.307159 
M781.586914,143.279739 
	C794.635315,143.279739 807.683716,143.279739 820.677246,143.279739 
	C820.677246,138.548096 820.677246,134.618484 820.677246,130.521286 
	C806.066345,130.521286 791.700806,130.521286 777.036438,130.521286 
	C777.036438,133.971085 777.235962,137.127991 776.979553,140.247406 
	C776.729797,143.286346 778.379395,143.495499 781.586914,143.279739 
M1056.552490,91.345215 
	C1060.974976,91.345215 1065.397583,91.345215 1069.882568,91.345215 
	C1069.882568,86.708710 1069.882568,82.639099 1069.882568,78.361679 
	C1064.230103,78.361679 1058.833374,78.361679 1052.963501,78.361679 
	C1052.963501,82.171471 1052.825928,85.792252 1053.081299,89.385109 
	C1053.131592,90.093185 1054.697144,90.693558 1056.552490,91.345215 
M364.063324,90.454247 
	C364.063324,86.507660 364.063324,82.561066 364.063324,78.502838 
	C358.163086,78.502838 352.642670,78.502838 347.246643,78.502838 
	C347.246643,82.957840 347.246643,87.053223 347.246643,91.224113 
	C352.835144,91.224113 358.136566,91.224113 364.063324,90.454247 
z"/>
<path fill="#171616" opacity="1.000000" stroke="none" 
	d="
M195.048752,116.887726 
	C199.621933,121.270432 200.304367,126.713104 200.849152,132.229660 
	C202.763214,151.611084 204.747452,170.985672 206.630722,190.370056 
	C209.729919,222.270325 181.473190,251.297653 149.479492,249.337769 
	C131.350540,248.227203 117.132828,240.517181 106.723000,225.553055 
	C99.052193,214.526245 91.592957,203.283646 83.063705,192.941956 
	C74.535583,182.601624 77.505844,169.067398 91.334091,165.270050 
	C89.046761,152.410721 92.241379,146.368195 102.410034,142.735703 
	C103.077721,137.461151 102.553101,132.125610 104.605965,128.106583 
	C106.581978,124.238022 111.223114,121.730766 114.996117,118.354393 
	C113.897308,118.412186 112.284203,118.269196 110.781044,118.610489 
	C90.185791,123.286522 68.149292,113.728584 56.703239,95.088272 
	C46.010399,77.674568 47.737911,54.254143 60.905060,38.123226 
	C77.160583,18.208776 106.714493,13.794672 127.415169,28.189426 
	C149.520386,43.560867 156.201843,72.075424 142.766373,94.785454 
	C140.862000,98.004440 140.820831,100.047623 143.063477,103.050583 
	C150.926636,113.579506 158.461411,124.353477 166.144043,135.017715 
	C166.953720,136.141602 167.916519,137.155182 169.852325,139.466507 
	C168.310745,129.028946 167.459808,119.974449 177.093994,114.849922 
	C183.185837,111.609604 189.290878,112.052620 195.048752,116.887726 
M192.285370,217.661011 
	C196.771088,209.977371 198.980133,201.640656 198.202286,192.816360 
	C196.301971,171.258392 194.125031,149.724152 191.942841,128.192200 
	C191.474213,123.568237 187.936646,120.674072 183.872025,121.042557 
	C179.836914,121.408371 176.767456,124.902885 177.102814,129.451996 
	C177.665634,137.086731 178.807892,144.683517 179.209106,152.322388 
	C179.326523,154.557877 177.759155,156.881851 176.963989,159.165268 
	C174.860336,157.974899 172.074997,157.289032 170.761383,155.514008 
	C160.665314,141.871613 150.847458,128.023117 140.957932,114.228088 
	C130.195969,99.216064 119.470917,84.177521 108.684052,69.183434 
	C105.397720,64.615341 101.403305,63.362354 97.636627,65.503265 
	C93.395660,67.913757 92.809631,72.667458 96.301582,77.551651 
	C113.431702,101.511513 130.598572,125.445091 147.746506,149.392227 
	C149.510513,151.855682 151.849991,154.648605 148.481796,157.184677 
	C144.809433,159.949768 142.850021,156.665939 140.985641,154.072113 
	C135.741333,146.776031 130.563705,139.431305 125.254654,132.182755 
	C121.939339,127.656265 117.635269,126.590721 114.185898,129.203384 
	C110.288734,132.155243 109.919022,136.331604 113.269203,141.033356 
	C118.966316,149.028854 124.710182,156.991257 130.470108,164.941681 
	C132.327087,167.504868 134.225143,170.343857 130.762909,172.658310 
	C127.735168,174.682327 125.646225,172.422867 123.884468,169.868484 
	C120.389153,164.800583 116.780075,159.807816 113.103485,154.869263 
	C109.926567,150.601868 105.414627,149.573441 101.878067,152.120117 
	C98.270905,154.717636 97.897842,159.119858 101.014435,163.559570 
	C105.220345,169.551041 109.718208,175.355255 113.582382,181.556610 
	C114.556702,183.120224 114.467270,186.652466 113.338387,187.938232 
	C111.244598,190.322983 108.791534,188.627396 107.145874,186.419006 
	C104.660835,183.084213 102.430695,179.544281 99.773987,176.356796 
	C97.086578,173.132492 93.592087,172.541504 89.995781,174.897079 
	C86.618805,177.109009 85.464294,181.663773 87.824074,185.007385 
	C97.509941,198.731430 106.534653,213.049530 117.401077,225.785202 
	C137.159592,248.942474 175.676514,245.941940 192.285370,217.661011 
M137.144684,51.470467 
	C129.718567,37.439140 118.036484,29.406994 102.300079,28.181862 
	C81.791840,26.585226 63.322384,40.690594 59.040131,60.476612 
	C54.642563,80.795425 65.417114,101.118225 84.692078,108.587357 
	C92.545753,111.630699 100.610756,111.961205 109.052338,110.168869 
	C106.216331,104.683571 103.213570,101.688637 96.757317,101.272324 
	C84.161972,100.460152 75.062576,93.221527 70.040497,81.659271 
	C64.611786,69.160858 68.502350,53.907520 78.707108,45.299000 
	C89.531197,36.168022 104.906311,35.012798 116.834076,42.434292 
	C128.433807,49.651688 134.729355,63.913914 130.606644,77.500183 
	C128.605911,84.093536 131.757812,87.174988 135.182953,91.709389 
	C142.404556,78.471817 143.316238,65.515053 137.144684,51.470467 
M110.204720,59.103386 
	C114.399452,63.971542 118.594185,68.839699 122.723000,73.631371 
	C126.324829,64.463600 118.619057,49.337826 104.726578,46.352108 
	C91.490532,43.507469 78.054970,52.593998 76.095154,66.003044 
	C74.142952,79.359993 83.713318,91.908524 96.855881,92.800598 
	C94.053719,88.843163 91.251053,85.140289 88.723160,81.258476 
	C84.305183,74.474274 84.855293,66.280418 89.887428,61.020554 
	C94.748703,55.939281 102.500229,55.039379 110.204720,59.103386 
z"/>
<path fill="#141313" opacity="1.000000" stroke="none" 
	d="
M243.133606,78.152130 
	C250.434540,78.383484 257.305328,78.159622 264.055847,78.955582 
	C273.572601,80.077682 279.262177,85.410095 279.806152,94.804207 
	C280.506989,106.906525 280.535919,119.122879 279.649170,131.201660 
	C279.334534,135.487640 276.027985,139.970764 273.053314,143.489914 
	C271.240479,145.634537 270.824951,146.916382 271.549561,149.391037 
	C275.142426,161.661179 278.567474,173.980453 282.161438,186.669983 
	C276.857880,186.669983 271.852051,186.669983 266.582153,186.669983 
	C263.264008,173.819260 259.953949,160.999756 256.618134,148.080460 
	C254.544083,148.080460 252.747528,148.080460 250.538879,148.080460 
	C250.538879,160.870544 250.538879,173.617722 250.538879,186.683273 
	C245.408096,186.683273 240.678284,186.683273 235.725754,186.683273 
	C235.725754,150.666504 235.725754,114.729378 235.725754,78.152130 
	C238.128098,78.152130 240.388931,78.152130 243.133606,78.152130 
M250.239746,92.979416 
	C250.239746,106.877174 250.239746,120.774940 250.239746,134.708389 
	C251.819641,134.789825 252.645340,134.861404 253.471710,134.870560 
	C263.629456,134.983200 265.831390,132.916046 265.980255,122.795982 
	C266.080597,115.975342 266.078552,109.150093 265.954224,102.329979 
	C265.772583,92.367508 260.259094,88.788284 250.239746,92.979416 
z"/>
<path fill="#161515" opacity="1.000000" stroke="none" 
	d="
M866.872925,128.938751 
	C874.120239,132.177582 877.051147,138.269150 877.412048,145.086655 
	C877.910706,154.505844 877.793823,164.044769 876.862183,173.425323 
	C876.099365,181.106979 871.018738,186.083954 863.166443,187.160553 
	C858.429871,187.809982 853.505188,188.176483 848.785156,187.630783 
	C838.811768,186.477753 833.917053,182.006638 832.644226,171.631531 
	C831.665649,163.655151 832.449341,155.462570 832.449341,147.148453 
	C836.807312,147.148453 841.086060,147.148453 846.027588,147.148453 
	C846.027588,153.805664 845.844910,160.566467 846.079346,167.312775 
	C846.310669,173.967804 850.047729,176.824081 856.680908,175.894333 
	C860.208679,175.399841 862.850952,173.550568 862.957458,169.908386 
	C863.175598,162.445343 863.203186,154.952209 862.758911,147.504272 
	C862.523621,143.558212 859.860718,140.942169 855.774902,140.051849 
	C852.690674,139.379761 849.633057,138.578278 846.579285,137.775101 
	C837.843262,135.477432 832.654846,129.717392 832.110107,120.833321 
	C831.552002,111.729332 831.476257,102.510414 832.255310,93.433273 
	C833.070923,83.931068 838.134888,79.419647 847.587830,77.767883 
	C848.735046,77.567413 849.881165,77.327644 851.038330,77.222183 
	C868.987793,75.586441 876.892212,82.378510 877.685059,100.320580 
	C877.926758,105.789757 877.722656,111.278625 877.722656,117.142410 
	C872.736633,117.142410 868.214233,117.142410 863.246887,117.142410 
	C863.246887,110.280159 863.427307,103.646835 863.189270,97.028580 
	C863.002197,91.827759 860.422119,89.493729 855.400513,89.207603 
	C850.108521,88.906067 846.630249,91.194969 846.362366,96.284279 
	C845.996155,103.239594 846.262451,110.248001 846.623413,117.214706 
	C846.855896,121.701187 849.501221,124.359291 854.057068,125.340157 
	C858.264404,126.245987 862.367188,127.637192 866.872925,128.938751 
z"/>
<path fill="#121111" opacity="1.000000" stroke="none" 
	d="
M692.754395,154.000031 
	C692.747681,128.551300 692.747681,103.602341 692.747681,78.417084 
	C697.839417,78.417084 702.406494,78.417084 707.325745,78.417084 
	C707.325745,80.478966 707.324585,82.281250 707.325989,84.083534 
	C707.347595,111.570282 707.316223,139.057236 707.427124,166.543625 
	C707.456238,173.764893 710.486267,176.492096 717.141785,175.951248 
	C721.607361,175.588348 724.272949,173.377197 724.373657,168.708450 
	C724.499329,162.879974 724.596741,157.049545 724.597229,151.219955 
	C724.599365,128.230927 724.558594,105.241890 724.533997,82.252853 
	C724.532776,81.107475 724.533813,79.962097 724.533813,78.486237 
	C729.368958,78.486237 733.922791,78.486237 738.842773,78.486237 
	C738.930847,79.900116 739.098206,81.339828 739.098633,82.779587 
	C739.107056,110.099953 739.104797,137.420334 739.072266,164.740677 
	C739.069458,167.067520 739.048157,169.428452 738.675476,171.714844 
	C737.104126,181.352707 732.901978,185.868546 723.282654,187.402298 
	C718.899841,188.101135 714.271851,188.196899 709.868713,187.650513 
	C698.745422,186.270172 693.582214,180.366882 693.002563,168.989044 
	C692.757019,164.167694 692.831909,159.330048 692.754395,154.000031 
z"/>
<path fill="#131212" opacity="1.000000" stroke="none" 
	d="
M1041.356689,155.000183 
	C1041.356689,165.816467 1041.356689,176.132736 1041.356689,186.725204 
	C1036.572754,186.725204 1031.980103,186.725204 1027.006226,186.725204 
	C1027.006226,184.348358 1027.006226,181.927612 1027.006226,178.057617 
	C1025.024658,179.650970 1023.666199,180.297760 1022.974060,181.373337 
	C1018.973083,187.591339 1013.148193,189.031586 1006.422913,187.668732 
	C999.850037,186.336792 996.748291,181.660385 995.761963,175.364258 
	C995.377014,172.906906 994.994995,170.416183 994.982544,167.938797 
	C994.909851,153.446686 994.853394,138.952988 995.015381,124.462326 
	C995.053955,121.011353 995.591370,117.470383 996.524353,114.146255 
	C998.116211,108.475044 1002.145813,105.293259 1008.029114,104.542313 
	C1013.677856,103.821312 1018.624146,104.902733 1022.146790,109.871414 
	C1023.107056,111.225883 1024.262085,112.442276 1025.327759,113.722061 
	C1025.743042,113.550468 1026.158203,113.378876 1026.573486,113.207283 
	C1026.573486,101.697357 1026.573486,90.187431 1026.573486,78.420563 
	C1031.768188,78.420563 1036.333252,78.420563 1041.356689,78.420563 
	C1041.356689,103.934654 1041.356689,129.217422 1041.356689,155.000183 
M1009.479431,125.886520 
	C1009.539368,140.532974 1009.421814,155.183273 1009.739075,169.824158 
	C1009.883362,176.484741 1014.030029,178.859283 1020.293640,176.432312 
	C1024.552246,174.782257 1026.933716,171.876053 1026.883667,166.969223 
	C1026.744141,153.317444 1026.504761,139.651703 1026.984985,126.015427 
	C1027.200439,119.897911 1022.261841,115.356171 1016.480042,115.160469 
	C1011.538025,114.993195 1010.022583,117.218285 1009.479431,125.886520 
z"/>
<path fill="#161515" opacity="1.000000" stroke="none" 
	d="
M292.111633,169.591522 
	C292.051605,154.653671 291.831329,140.168594 292.072174,125.691208 
	C292.199646,118.027260 293.552094,110.253395 301.664307,106.855812 
	C310.936157,102.972565 320.815704,102.390999 329.315918,108.324608 
	C332.621918,110.632355 335.173523,115.915894 335.585449,120.089035 
	C336.508453,129.439957 335.874390,138.944580 335.874390,148.879120 
	C326.109772,148.879120 316.543732,148.879120 306.971863,148.879120 
	C306.971863,156.494492 306.895508,163.616577 306.999908,170.736023 
	C307.064606,175.148315 309.920410,176.736450 313.905396,176.931076 
	C317.858948,177.124161 321.112701,175.859222 321.506317,171.548203 
	C321.925262,166.959686 321.600525,162.303268 321.600525,157.414551 
	C326.658569,157.414551 331.065826,157.414551 335.464905,157.414551 
	C339.076324,173.834274 333.845642,185.716293 321.358826,187.456406 
	C300.326233,190.387466 293.467743,183.318222 292.111633,169.591522 
M318.400085,138.235947 
	C319.583496,137.744400 321.794373,137.251144 321.793549,136.761581 
	C321.783813,130.989075 321.914856,125.143837 321.033081,119.469360 
	C320.384277,115.294014 316.359100,115.430954 312.973267,115.635712 
	C309.594055,115.840057 307.152802,117.426018 307.039459,121.044113 
	C306.864777,126.621414 306.993500,132.208221 306.993500,138.236526 
	C310.539520,138.236526 313.980621,138.236526 318.400085,138.235947 
z"/>
<path fill="#151414" opacity="1.000000" stroke="none" 
	d="
M937.641846,176.056686 
	C937.331299,170.499069 936.987671,165.353317 936.968079,160.206314 
	C936.899048,142.090546 936.941223,123.974350 936.941223,105.603653 
	C941.901428,105.603653 946.473267,105.603653 951.653748,105.603653 
	C951.653748,107.592430 951.653748,109.366188 951.653748,111.139946 
	C951.653809,129.954819 951.637756,148.769714 951.661926,167.584549 
	C951.671265,174.833130 953.237305,177.045349 958.214600,177.105759 
	C964.219971,177.178650 968.787354,172.898712 968.797424,167.013275 
	C968.832153,146.711288 968.810791,126.409218 968.810791,105.727249 
	C973.608276,105.727249 978.163330,105.727249 983.048828,105.727249 
	C983.048828,132.528595 983.048828,159.430084 983.048828,186.670074 
	C978.437317,186.670074 973.743652,186.670074 968.709961,186.670074 
	C968.709961,184.129166 968.709961,181.710648 968.709961,177.787979 
	C966.782043,179.739792 965.638367,180.660324 964.787354,181.799469 
	C960.753845,187.198303 955.325623,188.995422 948.923157,187.738434 
	C942.771240,186.530670 938.948364,182.732315 937.641846,176.056686 
z"/>
<path fill="#151414" opacity="1.000000" stroke="none" 
	d="
M636.798706,126.912148 
	C637.221924,123.324913 637.344482,120.128517 638.105042,117.091919 
	C639.646851,110.936111 643.601135,106.413338 649.873047,105.589607 
	C656.027893,104.781258 662.515320,104.609985 668.601562,105.651031 
	C676.303650,106.968445 680.199524,112.467789 680.737061,121.808701 
	C681.241699,130.579239 680.845215,139.401642 680.845215,148.658966 
	C671.062622,148.658966 661.478638,148.658966 651.980103,148.658966 
	C651.980103,156.872772 651.661987,164.643463 652.112976,172.369247 
	C652.341614,176.284897 655.992126,176.907501 659.327759,176.928131 
	C662.833374,176.949829 665.729492,175.784973 666.136536,171.850449 
	C666.614258,167.233215 666.723999,162.577911 667.016479,157.540558 
	C671.408997,157.540558 675.922607,157.540558 681.487488,157.540558 
	C680.881775,163.894485 680.751648,170.190796 679.565918,176.281616 
	C678.428833,182.122299 674.313538,186.065170 668.347534,186.949783 
	C663.300110,187.698196 658.027771,188.182312 653.002869,187.569778 
	C642.465698,186.285309 637.312439,180.377213 637.014160,169.325089 
	C636.637024,155.349960 636.836121,141.359268 636.798706,126.912148 
M651.724609,121.481239 
	C651.724609,126.924103 651.724609,132.366974 651.724609,137.946289 
	C656.653564,137.946289 661.542236,137.946289 666.478333,137.946289 
	C666.478333,132.349731 666.593262,127.060066 666.440491,121.778145 
	C666.326599,117.839157 664.091370,115.633377 660.111694,115.545219 
	C656.311829,115.461052 652.583801,115.702507 651.724609,121.481239 
z"/>
<path fill="#151414" opacity="1.000000" stroke="none" 
	d="
M407.796204,150.999908 
	C407.795715,141.839005 407.826324,133.177948 407.784668,124.517258 
	C407.752716,117.880470 405.642029,115.122154 400.784637,115.176208 
	C395.040497,115.240120 390.657104,119.471931 390.645508,125.167809 
	C390.605743,144.654739 390.631287,164.141800 390.622284,183.628815 
	C390.621857,184.596558 390.530518,185.564285 390.469818,186.762024 
	C385.623871,186.762024 381.035217,186.762024 376.132202,186.762024 
	C376.132202,159.877640 376.132202,132.989136 376.132202,105.722855 
	C380.627747,105.722855 385.193848,105.722855 390.223633,105.722855 
	C390.460358,108.053635 390.717468,110.585060 391.097260,114.324608 
	C392.855652,112.691856 394.076019,111.835052 394.943329,110.706856 
	C399.381714,104.933395 404.926941,103.046028 412.086823,105.010582 
	C417.892303,106.603508 421.677490,111.209557 421.958069,118.512360 
	C422.386261,129.656067 422.274200,140.821930 422.316315,151.978668 
	C422.358429,163.137482 422.310059,174.296646 422.288727,185.455643 
	C422.288147,185.774139 422.144470,186.092377 421.995697,186.707809 
	C417.512115,186.707809 412.955170,186.707809 407.796204,186.707809 
	C407.796204,174.998337 407.796204,163.249115 407.796204,150.999908 
z"/>
<path fill="#161515" opacity="1.000000" stroke="none" 
	d="
M523.373901,114.860672 
	C524.314209,119.953438 525.701050,124.691246 525.736145,129.439072 
	C525.837219,143.082748 525.984314,156.774033 524.985107,170.363663 
	C524.083862,182.619965 517.886841,187.578751 505.645599,188.013977 
	C505.312653,188.025818 504.979340,188.028244 504.646210,188.034897 
	C487.129730,188.384857 480.449280,182.387009 480.171234,164.855087 
	C479.939148,150.220093 479.958893,135.528091 481.007660,120.943352 
	C481.782288,110.170975 486.962982,105.850243 497.837372,104.765129 
	C502.256012,104.324211 506.832825,104.544609 511.241241,105.157524 
	C516.838379,105.935692 521.119568,108.958832 523.373901,114.860672 
M499.550232,115.945282 
	C495.591980,117.139061 494.893951,120.283936 494.890289,123.805504 
	C494.874908,138.588867 494.803070,153.372772 494.907379,168.155380 
	C494.953522,174.694000 497.219238,176.954407 503.025726,176.945099 
	C508.726532,176.935959 510.962433,174.604340 511.008026,168.022446 
	C511.106995,153.736176 511.115082,139.448364 511.024933,125.162033 
	C510.972687,116.876236 508.707428,115.007607 499.550232,115.945282 
z"/>
<path fill="#161515" opacity="1.000000" stroke="none" 
	d="
M1084.844971,177.936417 
	C1084.067627,174.832504 1082.897461,172.098251 1082.872559,169.353622 
	C1082.729492,153.550705 1082.358765,137.723053 1083.062988,121.948311 
	C1083.561646,110.776741 1088.972046,106.072266 1100.047607,104.677971 
	C1100.873901,104.573944 1101.697876,104.439499 1102.527222,104.372726 
	C1119.539062,103.002808 1127.721924,110.059029 1127.905396,127.130157 
	C1128.064209,141.931778 1128.196045,156.800674 1126.985840,171.528580 
	C1126.036133,183.086014 1119.901611,187.630295 1108.204224,187.951965 
	C1104.407349,188.056396 1100.558716,187.711502 1096.792847,187.165268 
	C1091.339355,186.374298 1087.239624,183.492432 1084.844971,177.936417 
M1096.797974,141.499771 
	C1096.883911,150.655670 1096.860229,159.814423 1097.096436,168.966446 
	C1097.242065,174.605774 1099.736084,176.895447 1105.111328,176.947281 
	C1110.648438,177.000671 1113.081909,174.923523 1113.141113,169.155792 
	C1113.298096,153.847473 1113.296997,138.535431 1113.140381,123.227104 
	C1113.082153,117.528244 1110.575806,115.417236 1105.047363,115.503845 
	C1099.620850,115.588852 1097.305542,117.802994 1097.085083,123.521584 
	C1096.867188,129.176193 1096.889160,134.840057 1096.797974,141.499771 
z"/>
<path fill="#151414" opacity="1.000000" stroke="none" 
	d="
M625.123779,122.267502 
	C625.157227,126.688034 625.157227,130.644012 625.157227,134.809464 
	C620.346741,134.809464 615.919006,134.809464 610.852783,134.809464 
	C610.852783,130.704910 611.047241,126.594894 610.804077,122.510948 
	C610.493896,117.302208 608.240662,115.414658 603.099915,115.508507 
	C597.955200,115.602417 595.966492,117.455971 595.932617,122.909340 
	C595.836243,138.399185 595.835083,153.890518 595.944763,169.380234 
	C595.983643,174.868912 597.967346,176.758682 603.052734,176.935776 
	C608.291992,177.118210 610.497131,175.131882 610.812988,169.462296 
	C611.032776,165.516693 610.855347,161.548950 610.855347,157.376907 
	C615.765015,157.376907 620.178894,157.376907 624.852234,157.376907 
	C624.852234,162.633194 625.379944,167.800797 624.735840,172.817963 
	C623.602478,181.645142 619.117859,186.349030 610.217407,187.426910 
	C604.709229,188.093979 598.865479,187.788071 593.415283,186.700958 
	C585.860413,185.194000 581.538025,179.361633 581.258850,169.868912 
	C580.798828,154.224579 580.650513,138.536148 581.303528,122.905281 
	C581.804871,110.903847 587.471313,105.721931 599.553467,104.605446 
	C603.641785,104.227654 607.913818,104.496864 611.956604,105.250168 
	C620.047791,106.757828 623.809631,111.806793 625.123779,122.267502 
z"/>
<path fill="#141313" opacity="1.000000" stroke="none" 
	d="
M467.656067,105.389633 
	C468.662872,108.993011 469.199829,112.565079 469.815369,116.659973 
	C464.595612,116.659973 460.320007,116.659973 455.566223,116.659973 
	C455.566223,140.221710 455.566223,163.402649 455.566223,186.791534 
	C450.506378,186.791534 445.929626,186.791534 440.907837,186.791534 
	C440.907837,163.591324 440.907837,140.536102 440.907837,117.093460 
	C438.258759,116.911476 436.016235,116.757423 433.410461,116.578407 
	C433.410461,113.022255 433.410461,109.474594 433.410461,105.613647 
	C435.637695,105.457405 437.905609,105.298302 440.608337,105.108696 
	C441.317169,96.389938 438.685211,86.412781 447.835999,80.577759 
	C455.133759,75.924309 463.365753,76.494469 471.796143,77.866081 
	C471.796143,81.397408 471.796143,84.802048 471.796143,87.397095 
	C466.571655,88.746437 460.440247,88.693253 457.100677,91.720200 
	C454.516785,94.062202 455.427887,100.260162 454.697266,105.358322 
	C459.605591,105.358322 463.395874,105.358322 467.656067,105.389633 
z"/>
<path fill="#171616" opacity="1.000000" stroke="none" 
	d="
M898.364136,177.331451 
	C897.800415,172.508911 897.093018,168.053314 897.051575,163.591537 
	C896.908142,148.127625 896.996216,132.661545 896.996216,116.947495 
	C894.753052,116.834435 892.829041,116.737450 890.589966,116.624596 
	C890.589966,113.016167 890.589966,109.591568 890.589966,105.704681 
	C892.503052,105.510811 894.575378,105.300797 897.069702,105.048019 
	C897.069702,97.616562 897.069702,90.183891 897.069702,82.488922 
	C902.223022,82.488922 906.950928,82.488922 912.049072,82.488922 
	C912.049072,90.104630 912.049072,97.525742 912.049072,105.281494 
	C916.340271,105.281494 920.274963,105.281494 924.569885,105.281494 
	C924.569885,109.150925 924.569885,112.688789 924.569885,116.682442 
	C920.489929,116.682442 916.401184,116.682442 911.788025,116.682442 
	C911.788025,125.222939 911.787659,133.326324 911.788086,141.429718 
	C911.788574,150.423203 911.746521,159.416946 911.804199,168.410065 
	C911.851074,175.714462 913.282166,177.048004 920.686951,177.028290 
	C922.326721,177.023926 923.966492,177.027649 925.894165,177.027649 
	C925.894165,180.521057 925.894165,183.898300 925.894165,187.214447 
	C913.087463,190.217484 902.683777,186.540222 898.364136,177.331451 
z"/>
<path fill="#181717" opacity="1.000000" stroke="none" 
	d="
M766.639771,173.984406 
	C766.639771,178.452484 766.639771,182.423492 766.639771,186.701843 
	C761.603760,186.701843 756.896790,186.701843 751.999878,186.701843 
	C751.999878,150.640137 751.999878,114.718735 751.999878,78.468094 
	C756.624695,78.468094 761.215698,78.468094 766.639771,78.468094 
	C766.639771,110.053780 766.639771,141.770569 766.639771,173.984406 
z"/>
<path fill="#141313" opacity="1.000000" stroke="none" 
	d="
M553.964722,123.390533 
	C553.653503,125.921669 553.279175,128.056992 553.273926,130.193237 
	C553.227722,148.963486 553.247131,167.733871 553.247131,186.753479 
	C548.351929,186.753479 543.750977,186.753479 538.825195,186.753479 
	C538.825195,159.790436 538.825195,132.793121 538.825195,105.601173 
	C543.679260,105.601173 548.258911,105.601173 553.012695,105.601173 
	C553.207947,108.655853 553.388123,111.474075 553.644531,115.484940 
	C556.670105,111.666145 558.316284,108.144127 561.079102,106.510201 
	C563.805420,104.897842 567.661438,105.195740 571.450623,104.586647 
	C571.450623,109.008217 571.450623,112.578133 571.450623,116.472404 
	C565.226990,117.491081 557.606262,115.078506 553.964722,123.390533 
z"/>
<path fill="#171616" opacity="1.000000" stroke="none" 
	d="
M1054.212036,153.999908 
	C1054.212036,137.692719 1054.212036,121.885559 1054.212036,105.709503 
	C1059.184570,105.709503 1063.896362,105.709503 1068.808105,105.709503 
	C1068.808105,132.750839 1068.808105,159.653717 1068.808105,186.784088 
	C1064.049438,186.784088 1059.451294,186.784088 1054.212036,186.784088 
	C1054.212036,176.021561 1054.212036,165.260727 1054.212036,153.999908 
z"/>
<path fill="#171616" opacity="1.000000" stroke="none" 
	d="
M348.211975,181.824615 
	C348.211975,156.221359 348.211975,131.100632 348.211975,105.660400 
	C353.169342,105.660400 357.748840,105.660400 362.669128,105.660400 
	C362.669128,132.531616 362.669128,159.425720 362.669128,186.666077 
	C358.171234,186.666077 353.458527,186.666077 348.431946,186.666077 
	C348.358368,185.207779 348.285187,183.757462 348.211975,181.824615 
z"/>
<path fill="#181717" opacity="1.000000" stroke="none" 
	d="
M781.097656,143.279602 
	C778.379395,143.495499 776.729797,143.286346 776.979553,140.247406 
	C777.235962,137.127991 777.036438,133.971085 777.036438,130.521286 
	C791.700806,130.521286 806.066345,130.521286 820.677246,130.521286 
	C820.677246,134.618484 820.677246,138.548096 820.677246,143.279739 
	C807.683716,143.279739 794.635315,143.279739 781.097656,143.279602 
z"/>
<path fill="#151414" opacity="1.000000" stroke="none" 
	d="
M1056.058228,91.344406 
	C1054.697144,90.693558 1053.131592,90.093185 1053.081299,89.385109 
	C1052.825928,85.792252 1052.963501,82.171471 1052.963501,78.361679 
	C1058.833374,78.361679 1064.230103,78.361679 1069.882568,78.361679 
	C1069.882568,82.639099 1069.882568,86.708710 1069.882568,91.345215 
	C1065.397583,91.345215 1060.974976,91.345215 1056.058228,91.344406 
z"/>
<path fill="#151414" opacity="1.000000" stroke="none" 
	d="
M363.750671,90.839180 
	C358.136566,91.224113 352.835144,91.224113 347.246643,91.224113 
	C347.246643,87.053223 347.246643,82.957840 347.246643,78.502838 
	C352.642670,78.502838 358.163086,78.502838 364.063324,78.502838 
	C364.063324,82.561066 364.063324,86.507660 363.750671,90.839180 
z"/>
<path fill="#FDFDFD" opacity="1.000000" stroke="none" 
	d="
M192.127060,217.993576 
	C175.676514,245.941940 137.159592,248.942474 117.401077,225.785202 
	C106.534653,213.049530 97.509941,198.731430 87.824074,185.007385 
	C85.464294,181.663773 86.618805,177.109009 89.995781,174.897079 
	C93.592087,172.541504 97.086578,173.132492 99.773987,176.356796 
	C102.430695,179.544281 104.660835,183.084213 107.145874,186.419006 
	C108.791534,188.627396 111.244598,190.322983 113.338387,187.938232 
	C114.467270,186.652466 114.556702,183.120224 113.582382,181.556610 
	C109.718208,175.355255 105.220345,169.551041 101.014435,163.559570 
	C97.897842,159.119858 98.270905,154.717636 101.878067,152.120117 
	C105.414627,149.573441 109.926567,150.601868 113.103485,154.869263 
	C116.780075,159.807816 120.389153,164.800583 123.884468,169.868484 
	C125.646225,172.422867 127.735168,174.682327 130.762909,172.658310 
	C134.225143,170.343857 132.327087,167.504868 130.470108,164.941681 
	C124.710182,156.991257 118.966316,149.028854 113.269203,141.033356 
	C109.919022,136.331604 110.288734,132.155243 114.185898,129.203384 
	C117.635269,126.590721 121.939339,127.656265 125.254654,132.182755 
	C130.563705,139.431305 135.741333,146.776031 140.985641,154.072113 
	C142.850021,156.665939 144.809433,159.949768 148.481796,157.184677 
	C151.849991,154.648605 149.510513,151.855682 147.746506,149.392227 
	C130.598572,125.445091 113.431702,101.511513 96.301582,77.551651 
	C92.809631,72.667458 93.395660,67.913757 97.636627,65.503265 
	C101.403305,63.362354 105.397720,64.615341 108.684052,69.183434 
	C119.470917,84.177521 130.195969,99.216064 140.957932,114.228088 
	C150.847458,128.023117 160.665314,141.871613 170.761383,155.514008 
	C172.074997,157.289032 174.860336,157.974899 176.963989,159.165253 
	C177.759155,156.881851 179.326523,154.557877 179.209106,152.322388 
	C178.807892,144.683517 177.665634,137.086731 177.102814,129.451996 
	C176.767456,124.902885 179.836914,121.408371 183.872025,121.042557 
	C187.936646,120.674072 191.474213,123.568237 191.942841,128.192200 
	C194.125031,149.724152 196.301971,171.258392 198.202286,192.816360 
	C198.980133,201.640656 196.771088,209.977371 192.127060,217.993576 
z"/>
<path fill="#F9F9F9" opacity="1.000000" stroke="none" 
	d="
M137.314209,51.810242 
	C143.316238,65.515053 142.404556,78.471817 135.182953,91.709389 
	C131.757812,87.174988 128.605911,84.093536 130.606644,77.500183 
	C134.729355,63.913914 128.433807,49.651688 116.834076,42.434292 
	C104.906311,35.012798 89.531197,36.168022 78.707108,45.299000 
	C68.502350,53.907520 64.611786,69.160858 70.040497,81.659271 
	C75.062576,93.221527 84.161972,100.460152 96.757317,101.272324 
	C103.213570,101.688637 106.216331,104.683571 109.052338,110.168869 
	C100.610756,111.961205 92.545753,111.630699 84.692078,108.587357 
	C65.417114,101.118225 54.642563,80.795425 59.040131,60.476612 
	C63.322384,40.690594 81.791840,26.585226 102.300079,28.181862 
	C118.036484,29.406994 129.718567,37.439140 137.314209,51.810242 
z"/>
<path fill="#F9F9F9" opacity="1.000000" stroke="none" 
	d="
M109.876740,58.920689 
	C102.500229,55.039379 94.748703,55.939281 89.887428,61.020554 
	C84.855293,66.280418 84.305183,74.474274 88.723160,81.258476 
	C91.251053,85.140289 94.053719,88.843163 96.855881,92.800598 
	C83.713318,91.908524 74.142952,79.359993 76.095154,66.003044 
	C78.054970,52.593998 91.490532,43.507469 104.726578,46.352108 
	C118.619057,49.337826 126.324829,64.463600 122.723000,73.631371 
	C118.594185,68.839699 114.399452,63.971542 109.876740,58.920689 
z"/>
<path fill="#F7F7F7" opacity="1.000000" stroke="none" 
	d="
M250.310501,92.531052 
	C260.259094,88.788284 265.772583,92.367508 265.954224,102.329979 
	C266.078552,109.150093 266.080597,115.975342 265.980255,122.795982 
	C265.831390,132.916046 263.629456,134.983200 253.471710,134.870560 
	C252.645340,134.861404 251.819641,134.789825 250.239746,134.708389 
	C250.239746,120.774940 250.239746,106.877174 250.310501,92.531052 
z"/>
<path fill="#F8F8F8" opacity="1.000000" stroke="none" 
	d="
M1009.505310,125.435547 
	C1010.022583,117.218285 1011.538025,114.993195 1016.480042,115.160469 
	C1022.261841,115.356171 1027.200439,119.897911 1026.984985,126.015427 
	C1026.504761,139.651703 1026.744141,153.317444 1026.883667,166.969223 
	C1026.933716,171.876053 1024.552246,174.782257 1020.293640,176.432312 
	C1014.030029,178.859283 1009.883362,176.484741 1009.739075,169.824158 
	C1009.421814,155.183273 1009.539368,140.532974 1009.505310,125.435547 
z"/>
<path fill="#FDFDFD" opacity="1.000000" stroke="none" 
	d="
M317.910889,138.236237 
	C313.980621,138.236526 310.539520,138.236526 306.993500,138.236526 
	C306.993500,132.208221 306.864777,126.621414 307.039459,121.044113 
	C307.152802,117.426018 309.594055,115.840057 312.973267,115.635712 
	C316.359100,115.430954 320.384277,115.294014 321.033081,119.469360 
	C321.914856,125.143837 321.783813,130.989075 321.793549,136.761581 
	C321.794373,137.251144 319.583496,137.744400 317.910889,138.236237 
z"/>
<path fill="#F7F7F7" opacity="1.000000" stroke="none" 
	d="
M651.776978,121.066551 
	C652.583801,115.702507 656.311829,115.461052 660.111694,115.545219 
	C664.091370,115.633377 666.326599,117.839157 666.440491,121.778145 
	C666.593262,127.060066 666.478333,132.349731 666.478333,137.946289 
	C661.542236,137.946289 656.653564,137.946289 651.724609,137.946289 
	C651.724609,132.366974 651.724609,126.924103 651.776978,121.066551 
z"/>
<path fill="#FBFBFB" opacity="1.000000" stroke="none" 
	d="
M499.930969,115.878273 
	C508.707428,115.007607 510.972687,116.876236 511.024933,125.162033 
	C511.115082,139.448364 511.106995,153.736176 511.008026,168.022446 
	C510.962433,174.604340 508.726532,176.935959 503.025726,176.945099 
	C497.219238,176.954407 494.953522,174.694000 494.907379,168.155380 
	C494.803070,153.372772 494.874908,138.588867 494.890289,123.805504 
	C494.893951,120.283936 495.591980,117.139061 499.930969,115.878273 
z"/>
<path fill="#FBFBFB" opacity="1.000000" stroke="none" 
	d="
M1096.801880,140.999817 
	C1096.889160,134.840057 1096.867188,129.176193 1097.085083,123.521584 
	C1097.305542,117.802994 1099.620850,115.588852 1105.047363,115.503845 
	C1110.575806,115.417236 1113.082153,117.528244 1113.140381,123.227104 
	C1113.296997,138.535431 1113.298096,153.847473 1113.141113,169.155792 
	C1113.081909,174.923523 1110.648438,177.000671 1105.111328,176.947281 
	C1099.736084,176.895447 1097.242065,174.605774 1097.096436,168.966446 
	C1096.860229,159.814423 1096.883911,150.655670 1096.801880,140.999817 
z"/>
</svg>