<svg version="1.1" id="Layer_1" xmlns="http://www.w3.org/2000/svg" xmlns:xlink="http://www.w3.org/1999/xlink" x="0px" y="0px"
	 width="100%" viewBox="0 0 1143 266" enable-background="new 0 0 1143 266" xml:space="preserve">
<path fill="#FEFEFE" opacity="1.000000" stroke="none" 
	d="
M772.000000,267.000000 
	C514.666687,267.000000 257.833344,267.000000 1.000000,267.000000 
	C1.000000,178.333328 1.000000,89.666664 1.000000,1.000000 
	C382.000000,1.000000 763.000000,1.000000 1144.000000,1.000000 
	C1144.000000,89.666664 1144.000000,178.333328 1144.000000,267.000000 
	C1020.166687,267.000000 896.333313,267.000000 772.000000,267.000000 
M854.192139,197.467194 
	C854.230713,194.189285 852.889404,193.017593 849.767700,194.499420 
	C849.767700,207.620026 849.767700,220.671768 849.767700,233.749969 
	C851.239075,233.749969 852.471191,233.749969 853.970764,233.749969 
	C853.970764,224.064011 853.872314,214.629974 854.044067,205.200882 
	C854.084106,203.004242 855.042480,200.824310 856.290283,198.259140 
	C857.906738,196.764099 862.973938,199.419342 860.457703,192.998718 
	C858.590942,194.619904 856.724121,196.241089 854.192139,197.467194 
M692.192139,197.467194 
	C692.230713,194.189285 690.889404,193.017593 687.767700,194.499420 
	C687.767700,207.620026 687.767700,220.671768 687.767700,233.749969 
	C689.239075,233.749969 690.471191,233.749969 691.970764,233.749969 
	C691.970764,224.064011 691.872314,214.629974 692.044067,205.200882 
	C692.084106,203.004242 693.042480,200.824310 694.290283,198.259140 
	C695.906738,196.764099 700.973938,199.419342 698.457703,192.998703 
	C696.590881,194.619888 694.724121,196.241074 692.192139,197.467194 
M492.189270,230.004532 
	C487.105377,231.570221 486.030426,230.942581 485.992432,225.972748 
	C485.916016,215.980133 485.973389,205.986526 485.949646,195.993393 
	C485.948151,195.362076 485.724213,194.731262 485.570007,193.923111 
	C484.158997,194.028656 482.898071,194.122971 481.430817,194.232712 
	C481.430817,205.657288 481.221008,216.796219 481.615692,227.913681 
	C481.690674,230.025040 483.712219,232.917267 485.631531,233.909393 
	C488.353424,235.316376 491.519836,234.565552 493.841309,231.061935 
	C495.167969,232.234192 496.494629,233.406464 498.778870,235.424850 
	C498.778870,220.525360 498.778870,207.473892 498.778870,194.258041 
	C497.359528,194.258041 496.138184,194.258041 494.588287,194.258041 
	C494.588287,204.102768 494.688141,213.695969 494.512909,223.284149 
	C494.472778,225.480255 493.485168,227.659042 492.189270,230.004532 
M733.721924,231.180008 
	C735.047119,232.346802 736.372314,233.513611 737.697510,234.680405 
	C738.103638,234.298630 738.509766,233.916870 738.915894,233.535095 
	C738.915894,222.752182 739.086121,211.965485 738.846436,201.187897 
	C738.720459,195.524246 736.188477,193.512405 730.591980,193.574905 
	C724.348694,193.644638 721.987244,196.820267 722.153809,204.337067 
	C722.237366,208.112366 723.805847,208.437485 726.994324,207.046402 
	C726.994324,204.596436 726.606934,202.181808 727.150818,199.999283 
	C727.441101,198.834412 729.313293,197.370544 730.519531,197.325455 
	C731.685852,197.281830 733.602356,198.650436 733.997192,199.806076 
	C735.868164,205.281952 734.069275,209.556839 729.199341,212.325607 
	C722.511902,216.127670 719.767639,222.382629 722.305908,229.634888 
	C722.972290,231.538849 725.459534,233.702194 727.381104,233.999847 
	C729.060852,234.260071 731.120972,232.065399 732.944702,230.966370 
	C732.944702,230.966370 732.932739,231.034531 733.721924,231.180008 
M138.348724,38.174133 
	C117.068939,13.530274 80.873817,13.559710 60.818607,38.237190 
	C47.696960,54.383080 46.037476,77.811890 56.783237,95.208984 
	C68.278664,113.819756 90.235657,123.261337 110.923645,118.578278 
	C112.434135,118.236351 114.089279,118.533455 115.677177,118.533455 
	C103.611839,124.803635 100.883575,129.986023 103.634949,142.117355 
	C91.938820,146.979294 89.452354,151.627640 91.205109,165.354416 
	C77.921936,168.823074 74.442101,182.288239 82.861153,192.661789 
	C91.623039,203.457764 99.205772,215.209076 107.335640,226.520004 
	C121.725853,246.540848 147.454010,254.662598 170.264450,246.414444 
	C192.726700,238.292191 208.569336,214.986115 206.661011,191.710510 
	C204.893066,170.147324 202.442307,148.637634 200.102936,127.124985 
	C199.156509,118.421783 191.741623,112.173180 183.820145,112.866463 
	C174.682175,113.666214 168.652206,120.385437 168.884583,129.578751 
	C168.955658,132.390900 169.174179,135.199295 169.325165,138.009415 
	C159.435211,125.673950 150.364120,113.201378 141.545898,100.552521 
	C140.874893,99.590034 141.568878,97.130447 142.348831,95.784149 
	C153.177826,77.091988 151.929901,56.051678 138.348724,38.174133 
M292.982788,129.431396 
	C291.738495,125.124611 290.298035,120.859650 289.365295,116.486404 
	C289.072540,115.113686 289.919525,113.334106 290.634949,111.941116 
	C292.700653,107.918968 296.541656,104.117432 296.850037,100.016068 
	C297.706085,88.630775 297.660156,77.103264 296.932770,65.698135 
	C296.402344,57.381157 291.523621,52.296227 283.317108,51.504879 
	C274.337250,50.638966 265.209351,51.307892 256.070709,51.307892 
	C256.070709,84.773628 256.070709,118.165512 256.070709,151.696869 
	C260.630951,151.696869 265.001617,151.696869 269.895630,151.696869 
	C269.895630,139.513138 269.895630,127.630989 269.895630,116.014206 
	C274.518707,114.453857 275.905701,116.508369 276.783356,120.227417 
	C279.290314,130.850876 282.127014,141.396530 284.755371,151.665649 
	C289.881439,151.665649 294.417236,151.665649 299.303986,151.665649 
	C297.170654,144.243820 295.155884,137.234436 292.982788,129.431396 
M711.137024,62.515678 
	C711.109924,86.171707 711.108765,109.827812 711.037537,133.483704 
	C711.019836,139.351913 708.405151,141.917877 702.943542,141.777176 
	C697.547546,141.638153 695.219971,139.159241 695.195496,133.008224 
	C695.104736,110.185501 695.106323,87.362411 695.075684,64.539459 
	C695.069702,60.084019 695.074890,55.628563 695.074890,50.980621 
	C690.486145,50.980621 686.242676,50.980621 681.996155,50.980621 
	C681.996155,80.004364 681.743408,108.798882 682.148804,137.584137 
	C682.271790,146.319504 687.301025,150.663666 696.298950,152.432770 
	C715.512390,156.210388 724.771423,148.823502 724.841187,129.448547 
	C724.929321,104.960052 724.872375,80.471031 724.877808,55.982231 
	C724.878174,54.366341 724.877869,52.750450 724.877869,50.954727 
	C720.055847,50.954727 715.797119,50.954727 711.132690,50.954727 
	C711.132690,54.604118 711.132690,58.062595 711.137024,62.515678 
M854.073975,116.727676 
	C853.072083,103.327881 849.288574,98.825516 836.397888,95.691612 
	C834.784058,95.299271 833.179199,94.865768 831.556213,94.516052 
	C827.447815,93.630768 825.084167,91.096046 824.899719,86.930099 
	C824.627991,80.792572 824.253052,74.622917 824.599487,68.505310 
	C824.927917,62.703964 827.488892,60.795841 832.965149,60.992088 
	C838.032410,61.173676 840.165649,63.185017 840.431030,68.944023 
	C840.704468,74.879677 840.491699,80.837723 840.491699,86.969093 
	C845.076965,86.969093 849.160339,86.969093 854.221985,86.969093 
	C853.757690,78.790016 853.784851,70.815079 852.716553,62.989700 
	C851.776611,56.104542 847.209351,51.410873 840.203979,50.549389 
	C834.840149,49.889767 829.251831,50.047646 823.877808,50.735535 
	C817.247070,51.584278 812.674133,55.972446 812.099182,62.526077 
	C811.261230,72.076622 811.020813,81.766037 811.611816,91.329117 
	C812.115601,99.481331 817.406616,104.444199 825.481567,106.236198 
	C828.236633,106.847603 830.945557,107.663788 833.687378,108.338287 
	C837.343262,109.237640 839.709900,111.612068 839.907898,115.247055 
	C840.277405,122.031265 840.302917,128.845703 840.168335,135.641556 
	C840.088562,139.672852 837.296570,141.378159 833.561646,141.740753 
	C827.915771,142.288895 824.696350,139.814865 824.355469,133.870056 
	C823.997192,127.621613 824.275330,121.336693 824.275330,115.107925 
	C819.685547,115.107925 815.652527,115.107925 810.790161,115.107925 
	C811.136780,122.959045 810.950562,130.460938 811.921387,137.809998 
	C813.178345,147.325974 817.761475,151.599701 827.266968,152.631577 
	C831.659851,153.108459 836.240356,152.708237 840.641296,152.062012 
	C847.465637,151.059891 851.982788,146.750259 852.893005,140.029861 
	C853.891541,132.657593 853.765320,125.133003 854.073975,116.727676 
M963.517883,139.693344 
	C964.308777,144.406662 965.554260,148.967941 970.252625,151.289795 
	C979.409058,155.814835 986.242126,151.849945 991.790588,143.690857 
	C992.041870,144.089691 992.293152,144.488525 992.544495,144.887375 
	C992.687134,147.122955 992.829773,149.358536 992.974854,151.632507 
	C997.457947,151.632507 1001.828674,151.632507 1005.987183,151.632507 
	C1005.987183,117.855881 1005.987183,84.449211 1005.987183,51.095619 
	C1001.445435,51.095619 997.223328,51.095619 992.340088,51.095619 
	C992.340088,62.055538 992.340088,72.685242 992.340088,83.314941 
	C990.193237,82.458138 989.477905,80.836937 988.236328,80.086342 
	C985.101562,78.191200 981.841309,75.583450 978.431763,75.239471 
	C969.074646,74.295464 963.499756,80.088188 963.232849,91.375618 
	C962.859009,107.184647 963.265503,123.012123 963.517883,139.693344 
M308.446747,135.864899 
	C310.711639,150.226822 319.973724,155.783920 336.053680,152.428589 
	C347.379913,150.065201 352.479218,138.823334 348.759186,124.450455 
	C344.648315,124.450455 340.545380,124.450455 335.933319,124.450455 
	C335.933319,128.836288 336.087646,132.975540 335.888641,137.097763 
	C335.700775,140.988937 333.096741,142.600037 329.493408,142.621902 
	C325.882538,142.643829 322.497498,141.620010 322.311340,137.375229 
	C322.007538,130.446732 322.229309,123.495186 322.229309,116.061295 
	C331.418457,116.061295 340.328247,116.061295 349.075226,116.061295 
	C349.075226,106.915779 349.304199,98.261719 348.985138,89.627907 
	C348.807587,84.822868 346.738190,80.618629 342.388916,77.920677 
	C326.844696,68.278244 308.810669,77.410576 308.289978,95.491753 
	C307.911285,108.641663 308.293457,121.813477 308.446747,135.864899 
M670.877441,132.378143 
	C670.877441,129.778030 670.877441,127.177933 670.877441,124.572365 
	C665.919006,124.572365 661.717651,124.572365 657.113281,124.572365 
	C657.113281,128.937454 657.176453,132.916489 657.095459,136.892578 
	C657.014893,140.845642 654.563477,142.515732 650.940613,142.597855 
	C647.121277,142.684418 643.715332,141.637329 643.565491,137.065674 
	C643.343201,130.286697 643.507996,123.495041 643.507996,116.261597 
	C652.476929,116.261597 661.407349,116.261597 670.886658,116.261597 
	C670.886658,108.870834 671.075684,101.913338 670.847656,94.969551 
	C670.361938,80.180733 664.499451,74.753555 649.586792,75.031502 
	C647.604492,75.068451 645.596680,75.272820 643.654602,75.665955 
	C635.393677,77.338234 630.514526,81.653503 630.203796,90.041504 
	C629.607361,106.142479 629.660828,122.293182 630.187195,138.398987 
	C630.440552,146.152649 635.033875,150.736664 642.473816,152.058975 
	C651.400208,153.645462 660.456116,154.678009 667.363831,146.617783 
	C667.999512,145.876129 668.608032,144.954849 668.810120,144.025833 
	C669.583435,140.469818 670.185547,136.876572 670.877441,132.378143 
M386.245453,103.499916 
	C386.245453,119.586258 386.245453,135.672592 386.245453,151.806961 
	C391.135162,151.806961 395.404480,151.806961 400.083588,151.806961 
	C400.083588,147.332413 400.083527,143.048965 400.083618,138.765518 
	C400.083832,123.782959 400.029755,108.800087 400.115784,93.818024 
	C400.143433,89.002625 404.707184,85.063004 409.791260,85.114037 
	C414.201843,85.158302 416.014404,87.492981 416.038544,93.382790 
	C416.077423,102.871582 416.049408,112.360657 416.049500,121.849609 
	C416.049591,131.784775 416.049500,141.719940 416.049500,151.642914 
	C420.913605,151.642914 425.282501,151.642914 429.800079,151.642914 
	C429.800079,131.315216 429.819092,111.354309 429.768097,91.393578 
	C429.763458,89.580513 429.374969,87.756767 429.051422,85.958366 
	C428.037872,80.324615 424.852661,76.559502 419.173035,75.402206 
	C413.423737,74.230721 408.256897,75.142296 404.569763,80.392982 
	C403.676636,81.664879 402.330536,82.618690 400.385071,84.499611 
	C400.173950,80.857643 400.044098,78.617699 399.909943,76.303368 
	C395.324219,76.303368 390.941376,76.303368 386.245483,76.303368 
	C386.245483,85.242294 386.245483,93.871101 386.245453,103.499916 
M1053.811279,77.010727 
	C1047.702148,79.707779 1045.212158,85.082169 1045.065430,91.072250 
	C1044.690430,106.367371 1044.502319,121.696060 1045.117798,136.975952 
	C1045.508423,146.675690 1050.601807,151.439590 1060.142456,152.621658 
	C1064.214478,153.126175 1068.452759,152.812347 1072.562744,152.375305 
	C1080.207886,151.562332 1085.368530,146.757080 1085.676636,139.509918 
	C1086.395508,122.599083 1086.401367,105.619370 1085.728271,88.706055 
	C1085.440918,81.485870 1080.451416,76.239708 1072.758423,75.785248 
	C1066.729980,75.429100 1060.623657,76.387367 1053.811279,77.010727 
M483.566864,128.075790 
	C483.721497,130.734848 483.771210,133.404922 484.049133,136.051041 
	C485.196289,146.973175 490.504913,152.109589 501.406036,152.897903 
	C503.063477,153.017746 504.734375,153.018692 506.397217,152.985168 
	C518.974609,152.731598 525.173523,147.595825 525.760742,135.078003 
	C526.422913,120.964241 526.436340,106.768486 525.735168,92.657928 
	C525.127441,80.427872 518.925537,75.350044 506.615753,75.031670 
	C505.451447,75.001549 504.284760,75.002731 503.120575,75.037079 
	C490.382904,75.412910 484.525269,80.866066 483.977844,93.701927 
	C483.503021,104.835304 483.645630,115.995003 483.566864,128.075790 
M937.266235,138.478775 
	C934.351440,141.880081 930.813660,143.984100 926.300537,142.345963 
	C921.727234,140.685959 922.758118,136.424484 922.743713,132.895691 
	C922.672974,115.573059 922.711487,98.249977 922.711487,80.927048 
	C922.711487,79.345856 922.711487,77.764656 922.711487,76.276939 
	C917.722778,76.276939 913.463562,76.276939 909.046143,76.276939 
	C909.046143,97.020805 909.038147,117.483475 909.066833,137.946106 
	C909.068481,139.097595 909.337769,140.254547 909.539368,141.398926 
	C910.557800,147.179825 913.660278,151.150177 919.533325,152.527435 
	C925.584167,153.946365 930.722046,152.455948 934.662354,147.454712 
	C935.501709,146.389252 936.421936,145.387497 937.304810,144.356384 
	C937.685974,144.495972 938.067078,144.635574 938.448181,144.775162 
	C938.579163,147.112366 938.710144,149.449585 938.836609,151.706726 
	C943.500488,151.706726 947.750183,151.706726 951.879395,151.706726 
	C951.879395,126.352722 951.879395,101.298004 951.879395,76.289093 
	C947.314087,76.289093 943.061584,76.289093 938.658508,76.289093 
	C938.658508,94.899017 938.687073,113.215401 938.619690,131.531433 
	C938.611877,133.643219 938.069702,135.753036 937.266235,138.478775 
M577.250916,111.501259 
	C577.494141,120.326553 577.405029,129.177307 578.078491,137.969650 
	C578.695679,146.027618 582.909424,150.707458 590.568542,152.083008 
	C599.530823,153.692596 608.579590,154.591141 615.447388,146.478607 
	C615.975891,145.854385 616.378174,145.085205 616.691040,144.322662 
	C619.351562,137.837936 619.308533,131.158600 618.485291,124.443344 
	C613.946289,124.443344 609.842590,124.443344 605.177368,124.443344 
	C605.177368,128.485687 605.161194,132.280212 605.181641,136.074524 
	C605.204895,140.385437 603.028076,142.567017 598.773987,142.619370 
	C594.564148,142.671204 591.477905,141.073364 591.448853,136.382767 
	C591.356018,121.388496 591.353699,106.393051 591.434570,91.398705 
	C591.458557,86.952042 594.383484,85.342140 598.402832,85.378952 
	C602.432922,85.415863 605.168884,87.035454 605.171814,91.559929 
	C605.174316,95.496544 605.172302,99.433151 605.172302,103.704597 
	C608.080139,103.704597 610.219910,103.704605 612.359680,103.704605 
	C614.451599,103.704605 616.543518,103.704597 618.917847,103.704597 
	C618.917847,100.615379 618.913513,98.287209 618.918518,95.959053 
	C618.951538,80.783096 612.868347,74.795158 597.590149,75.013344 
	C595.929382,75.037056 594.248047,75.111862 592.615784,75.392685 
	C583.399597,76.978271 578.833496,81.646965 577.995056,91.030151 
	C577.417725,97.491325 577.478699,104.009544 577.250916,111.501259 
M446.926727,72.326660 
	C447.707764,78.628349 442.171936,74.644081 440.141388,76.510719 
	C440.141388,79.696953 440.141388,82.927505 440.141388,86.282326 
	C442.492157,86.477592 444.573456,86.650482 447.115723,86.861656 
	C447.115723,108.682228 447.115723,130.252594 447.115723,151.749863 
	C451.869019,151.749863 456.128540,151.749863 460.843384,151.749863 
	C460.843384,129.940536 460.843384,108.386559 460.843384,86.265152 
	C465.360107,86.265152 469.417145,86.265152 473.420837,86.265152 
	C473.420837,82.577255 473.420837,79.469246 473.420837,75.935135 
	C469.079224,75.935135 464.982971,75.935135 460.089142,75.935135 
	C460.729553,71.211662 459.831238,65.399902 462.231537,63.219460 
	C465.371918,60.366749 471.119415,60.384045 475.827606,59.145061 
	C475.827606,56.644905 475.827606,53.533886 475.827606,50.210049 
	C473.782288,50.029167 471.984833,49.840115 470.182922,49.715538 
	C453.272278,48.546383 446.967743,54.424091 446.926727,72.326660 
M871.937256,97.519135 
	C871.949646,110.331474 871.863098,123.145012 872.016724,135.955658 
	C872.091919,142.228943 873.644592,148.485001 880.185364,150.631393 
	C885.974243,152.531052 892.328918,152.706863 898.698242,153.684326 
	C898.698242,149.011292 898.698242,145.826370 898.698242,142.571960 
	C897.635803,142.620010 896.973450,142.646301 896.311462,142.680481 
	C886.784241,143.172653 885.648621,142.105057 885.638855,132.532822 
	C885.626221,120.219582 885.635437,107.906326 885.635315,95.593079 
	C885.635315,92.664566 885.635315,89.736053 885.635315,86.396729 
	C890.088684,86.396729 893.856934,86.396729 897.620789,86.396729 
	C897.620789,82.724861 897.620789,79.485519 897.620789,75.825714 
	C893.583435,75.825714 889.837769,75.825714 885.747925,75.825714 
	C885.747925,68.506111 885.747925,61.615204 885.747925,54.788353 
	C880.981750,54.788353 876.593994,54.788353 871.790405,54.788353 
	C871.790405,62.056107 871.790405,68.974243 871.790405,75.845848 
	C869.591675,75.976601 867.818848,76.082024 866.098267,76.184341 
	C866.098267,79.741623 866.098267,82.965569 866.098267,86.271584 
	C868.160828,86.478554 869.916321,86.654716 871.937317,86.857513 
	C871.937317,90.237045 871.937317,93.382812 871.937256,97.519135 
M750.292419,95.500122 
	C750.292419,80.725922 750.292419,65.951714 750.292419,50.997929 
	C745.567017,50.997929 741.327759,50.997929 736.984497,50.997929 
	C736.984497,84.742104 736.984497,118.250412 736.984497,151.715271 
	C741.581116,151.715271 745.838745,151.715271 750.292419,151.715271 
	C750.292419,133.122620 750.292419,114.811378 750.292419,95.500122 
M557.562195,87.511108 
	C561.304993,87.024178 565.047729,86.537254 568.750977,86.055473 
	C568.750977,82.662125 568.750977,79.394196 568.750977,75.305794 
	C565.206848,75.892799 561.580566,75.657951 558.954834,77.165550 
	C556.379089,78.644447 554.820862,81.895401 552.191833,85.138748 
	C551.990295,81.392494 551.852295,78.826439 551.718262,76.333847 
	C546.972107,76.333847 542.588989,76.333847 538.340210,76.333847 
	C538.340210,101.707230 538.340210,126.738075 538.340210,151.638184 
	C543.026855,151.638184 547.409058,151.638184 551.923340,151.638184 
	C551.923340,133.315720 551.962952,115.362320 551.893555,97.409332 
	C551.877563,93.279030 552.880615,89.864861 557.562195,87.511108 
M374.536072,150.065384 
	C374.536072,125.491203 374.536072,100.917023 374.536072,76.356392 
	C369.685822,76.356392 365.316284,76.356392 361.198914,76.356392 
	C361.198914,101.756432 361.198914,126.784409 361.198914,152.500275 
	C365.873993,151.967209 370.170227,151.477325 374.536072,150.065384 
M1018.651489,85.516144 
	C1018.651489,107.580521 1018.651489,129.644897 1018.651489,151.707550 
	C1023.487122,151.707550 1027.728882,151.707550 1031.885254,151.707550 
	C1031.885254,126.369461 1031.885254,101.322266 1031.885254,76.282661 
	C1027.337280,76.282661 1023.086914,76.282661 1018.651428,76.282661 
	C1018.651428,79.214417 1018.651428,81.867035 1018.651489,85.516144 
M889.358032,216.000900 
	C890.543945,220.836594 891.965210,225.630280 892.838196,230.521790 
	C893.487915,234.162506 895.130005,234.723755 898.317322,233.417221 
	C897.560181,230.510376 896.663269,227.815765 896.178894,225.048950 
	C895.222351,219.585236 891.049255,213.955688 896.780090,208.685791 
	C897.168518,208.328598 897.145081,207.416840 897.146973,206.762512 
	C897.165527,200.286377 897.275879,193.806549 897.092651,187.335342 
	C896.991150,183.751572 894.932495,181.318329 891.270874,181.009552 
	C887.848267,180.720901 884.382141,180.947800 880.737000,180.947800 
	C880.737000,198.658752 880.737000,216.078857 880.737000,233.654297 
	C882.174561,233.654297 883.494446,233.654297 885.113708,233.654297 
	C885.113708,226.854919 885.113708,220.408600 885.113708,213.124084 
	C886.838501,213.997925 887.983582,214.578064 889.358032,216.000900 
M760.021362,108.424088 
	C760.760498,109.371216 761.488708,111.133980 762.240356,111.143990 
	C774.969788,111.313622 787.702209,111.265472 800.487427,111.265472 
	C800.487427,106.947495 800.487427,103.105820 800.487427,99.366058 
	C786.862549,99.366058 773.644226,99.366058 760.020813,99.366058 
	C760.020813,102.223381 760.020813,104.839478 760.021362,108.424088 
M588.760010,211.219238 
	C588.654297,207.564621 588.822021,203.876358 588.377380,200.263458 
	C587.747070,195.142075 585.255066,193.418045 579.703857,193.612259 
	C574.536194,193.793045 572.043762,195.704330 571.895935,200.677322 
	C571.629150,209.650391 571.740479,218.638306 571.862305,227.617722 
	C571.918457,231.757385 574.313232,233.872101 578.432861,234.324600 
	C585.998230,235.155640 589.007568,231.980118 588.775574,223.614090 
	C588.685669,220.373169 587.522705,219.463165 584.141296,220.740356 
	C584.141296,222.660065 584.135742,224.626877 584.142578,226.593643 
	C584.152344,229.395752 582.837952,231.467377 580.008484,230.729889 
	C578.463867,230.327301 576.514160,228.235001 576.284851,226.678238 
	C575.739502,222.975967 576.109192,219.138885 576.109192,214.987915 
	C579.572754,214.987915 582.724243,215.226532 585.802795,214.857483 
	C586.869690,214.729599 587.755859,213.094040 588.760010,211.219238 
M773.889954,221.437180 
	C773.889954,219.354950 773.889954,217.272736 773.889954,214.938171 
	C778.300232,214.938171 782.090027,214.938171 786.043457,214.938171 
	C786.174377,213.378983 786.372986,212.068146 786.376770,210.756744 
	C786.385864,207.598953 786.441711,204.431519 786.227905,201.285019 
	C785.852600,195.762650 783.764526,193.780060 778.497986,193.605698 
	C772.771118,193.416092 769.884827,195.261658 769.636475,200.623459 
	C769.222046,209.572708 769.388062,218.557037 769.560791,227.521744 
	C769.643738,231.826767 772.196350,234.034485 776.564453,234.379944 
	C784.055786,234.972412 787.023376,231.776627 786.221313,223.243515 
	C786.100037,221.953857 784.479614,220.805130 783.552673,219.591202 
	C783.004639,219.900177 782.456665,220.209137 781.908630,220.518097 
	C781.908630,222.819717 782.400879,225.277084 781.738892,227.369293 
	C781.282898,228.810547 779.238831,230.634583 777.884827,230.650818 
	C776.599976,230.666229 774.831543,228.773376 774.124268,227.309662 
	C773.467468,225.950363 773.931030,224.049728 773.889954,221.437180 
M664.021545,204.712601 
	C664.043152,211.864166 663.909485,219.020615 664.133789,226.165817 
	C664.325439,232.270828 666.885071,234.486832 672.931885,234.431824 
	C679.340515,234.373520 681.536621,231.158600 681.154358,223.114975 
	C680.996582,219.792999 679.570984,219.675934 676.731873,220.734879 
	C676.731873,222.878372 677.287598,225.237076 676.561462,227.094818 
	C675.946411,228.668365 673.978271,230.344772 672.357849,230.652130 
	C671.415283,230.830917 669.102661,228.511551 668.930969,227.127182 
	C668.450684,223.255081 668.763794,219.284576 668.763794,214.906631 
	C672.947449,214.906631 676.860779,214.906631 681.067261,214.906631 
	C681.067261,210.159912 681.206299,205.860092 681.033447,201.572830 
	C680.798157,195.736954 678.331360,193.524902 672.555359,193.594101 
	C666.339478,193.668579 664.447144,195.932205 664.021545,204.712601 
M624.923096,233.052963 
	C624.936157,223.403610 625.025391,213.753479 624.924438,204.105316 
	C624.884521,200.290634 625.909119,197.124847 630.129578,197.166885 
	C634.666382,197.212051 633.685730,201.183716 633.713501,203.982574 
	C633.811829,213.903687 633.751831,223.826355 633.751831,234.061661 
	C635.544189,233.886536 636.749939,233.768723 638.014832,233.645126 
	C638.014832,222.471466 638.126282,211.662643 637.971741,200.857635 
	C637.883118,194.668076 633.049927,191.604233 628.375366,194.551956 
	C627.314880,195.220642 626.499878,196.278625 626.364136,196.407196 
	C624.356812,195.262985 622.850220,194.404205 620.803650,193.237656 
	C620.803650,207.566681 620.803650,220.649719 620.803650,233.863739 
	C622.202026,233.863739 623.349915,233.863739 624.923096,233.052963 
M437.925507,233.682114 
	C439.166138,233.760574 440.406769,233.839035 441.962250,233.937408 
	C441.962250,223.740234 442.037659,213.944122 441.924286,204.150192 
	C441.880280,200.348267 442.860413,197.167282 447.086670,197.163559 
	C451.668152,197.159515 450.680878,201.148590 450.710571,203.938873 
	C450.816193,213.863998 450.751801,223.790939 450.751801,234.028107 
	C452.511810,233.879898 453.717529,233.778381 455.037781,233.667206 
	C455.037781,223.171829 455.285980,213.022797 454.883301,202.899643 
	C454.765778,199.945282 453.550354,195.662643 451.462677,194.534760 
	C449.264740,193.347275 445.420135,195.207626 442.180237,195.755692 
	C441.389160,195.292313 439.874847,194.405319 437.600372,193.073044 
	C437.600372,207.242950 437.600372,220.042542 437.925507,233.682114 
M825.595276,198.484848 
	C825.442871,208.253998 824.999817,218.030899 825.260193,227.789032 
	C825.391174,232.700424 828.423767,234.514740 833.986328,234.387100 
	C839.363037,234.263718 841.843140,232.296051 842.012756,227.033051 
	C842.285217,218.577576 842.170410,210.107254 842.098877,201.644211 
	C842.069092,198.128418 841.130005,194.737137 837.101501,194.077362 
	C832.912354,193.391281 828.320007,192.480179 825.595276,198.484848 
M557.505859,226.856812 
	C556.980530,225.870056 556.110718,224.925446 555.984009,223.889877 
	C554.913757,215.144745 553.820007,206.396469 553.077393,197.620010 
	C552.749634,193.746231 551.188110,193.240662 548.024048,194.565598 
	C549.769226,207.715027 551.491272,220.690125 553.226929,233.768097 
	C555.922363,233.768097 558.341431,233.768097 560.855042,233.768097 
	C562.624939,220.432251 564.362183,207.342270 566.091370,194.313446 
	C562.826111,193.512329 561.277222,193.949066 560.986572,197.310333 
	C560.156250,206.914429 558.980103,216.488632 557.505859,226.856812 
M750.165710,213.505478 
	C750.228821,209.175095 749.983154,204.804337 750.540833,200.538605 
	C750.710693,199.239243 753.086975,197.350204 754.463684,197.340866 
	C755.764771,197.332001 757.728699,199.212082 758.234314,200.666824 
	C758.954895,202.740036 758.610413,205.183456 758.719666,207.444275 
	C763.169678,207.501083 763.299377,207.300201 762.899109,201.491776 
	C762.508423,195.821121 760.339905,193.719299 754.770386,193.612961 
	C748.874023,193.500397 746.169189,195.658127 746.023193,201.345856 
	C745.805237,209.837097 745.826538,218.341232 746.018250,226.833725 
	C746.135315,232.021225 748.336304,234.019257 753.380737,234.367294 
	C760.588440,234.864563 763.396179,231.632919 762.938293,223.367035 
	C762.755127,220.061935 762.755188,220.061935 758.501221,220.982162 
	C758.501221,222.740814 758.553467,224.564545 758.488708,226.384109 
	C758.396912,228.965530 757.619263,230.952377 754.472412,230.940430 
	C751.442810,230.928909 750.344177,229.154404 750.278687,226.489471 
	C750.180542,222.492279 750.197693,218.492264 750.165710,213.505478 
M711.004089,201.631378 
	C711.099243,200.364548 711.194397,199.097717 711.251526,198.336807 
	C713.486572,196.523376 718.018738,199.730850 717.881775,194.127914 
	C715.486328,194.009964 713.392944,193.906891 711.353210,193.806442 
	C710.488831,184.403900 710.488831,184.403900 719.351746,183.484818 
	C718.679138,182.269852 718.384277,180.829285 717.569519,180.417374 
	C713.262268,178.239868 707.601685,181.592377 706.555847,186.414124 
	C705.943787,189.235657 708.319824,193.266647 703.598816,194.720810 
	C703.440247,194.769653 703.499084,196.820221 703.821655,196.938034 
	C707.927612,198.437576 706.286255,201.896332 706.331665,204.542038 
	C706.499268,214.297028 706.398254,224.056625 706.398254,233.781128 
	C708.286194,233.781128 709.526855,233.781128 711.004883,233.781128 
	C711.004883,223.211502 711.004883,212.907700 711.004089,201.631378 
M808.105347,222.476959 
	C808.105347,226.256134 808.105347,230.035309 808.105347,234.205109 
	C810.062378,233.965164 811.423096,233.798340 813.050049,233.598862 
	C813.050049,221.407028 813.050049,209.654587 813.050049,198.416214 
	C815.178101,196.517349 819.778137,199.662109 819.564941,194.214951 
	C817.105469,194.008820 815.032593,193.835083 813.011475,193.665695 
	C812.517517,184.739212 812.517517,184.739212 821.794861,183.197403 
	C820.133850,181.809570 819.229919,180.443146 818.089844,180.204468 
	C812.212524,178.973969 808.612488,182.049942 808.073303,188.158554 
	C807.875244,190.401581 809.715759,193.672028 805.536987,194.483841 
	C805.357910,194.518631 805.308105,196.964462 805.522278,197.019226 
	C809.473206,198.029388 807.990417,201.188858 808.052429,203.527054 
	C808.211182,209.509247 808.105347,215.498459 808.105347,222.476959 
M654.603210,230.865540 
	C653.717834,229.865112 652.082825,228.879166 652.063232,227.861984 
	C651.870605,217.894333 651.947083,207.921478 651.947083,197.997742 
	C657.432434,197.399170 657.432434,197.399170 657.335022,194.146271 
	C655.601746,194.002304 653.855164,193.857239 651.816589,193.687912 
	C651.816589,189.907654 651.816589,186.473679 651.816589,182.659729 
	C650.068665,182.811661 648.687927,182.931671 647.821228,183.007004 
	C645.809631,187.157120 649.826172,192.120071 644.658142,194.988800 
	C644.462280,195.097534 644.886047,196.478516 645.146606,197.222687 
	C645.778320,199.027161 647.017944,200.790833 647.068176,202.597244 
	C647.290649,210.590942 647.018860,218.598450 647.243286,226.592056 
	C647.409302,232.508911 650.281921,235.019669 655.751038,234.383896 
	C656.713623,234.272003 657.550903,233.082687 658.446045,232.390945 
	C657.437012,231.895523 656.428040,231.400101 654.603210,230.865540 
M525.011658,204.553009 
	C525.011658,202.301102 525.011658,200.049210 525.011658,197.857819 
	C530.689331,197.395111 530.689331,197.395111 530.398804,194.174805 
	C528.664185,194.009964 526.929626,193.845123 524.926514,193.654785 
	C524.926514,189.860992 524.926514,186.413101 524.926514,182.965225 
	C524.419739,182.678223 523.913025,182.391220 523.406250,182.104218 
	C522.494629,183.370270 521.222717,184.514938 520.746765,185.927765 
	C519.771851,188.821518 522.657471,192.879730 518.036377,194.777008 
	C517.831848,194.860947 518.048706,196.336121 518.296814,197.088196 
	C518.992676,199.197495 520.387817,201.244858 520.470215,203.357086 
	C520.748779,210.500702 520.529785,217.662354 520.611572,224.815842 
	C520.634155,226.793045 520.692444,228.890930 521.345703,230.714447 
	C522.680054,234.439270 526.123535,234.481873 529.296692,234.273209 
	C530.266296,234.209457 531.151917,232.869354 532.075989,232.113785 
	C532.077637,231.611526 532.079285,231.109283 532.080994,230.607025 
	C525.094116,232.425858 524.818787,228.598602 524.963562,224.011475 
	C525.157715,217.861465 525.011658,211.700745 525.011658,204.553009 
M464.704956,227.623779 
	C464.837128,232.821182 468.004181,234.592880 472.628784,234.309494 
	C473.820892,234.236450 474.950531,233.143448 475.433319,232.883163 
	C472.816406,230.743774 469.386261,229.283157 469.302673,227.651154 
	C468.794830,217.734680 469.049377,207.779190 469.049377,197.885269 
	C474.587250,197.372986 474.587250,197.372986 474.494385,194.118881 
	C472.759216,194.008316 471.013245,193.897064 468.982117,193.767639 
	C468.982117,189.949600 468.982117,186.501373 468.982117,182.777618 
	C467.411621,182.881683 466.177704,182.963440 465.082764,183.035995 
	C463.546204,187.164871 466.880280,192.180222 461.981140,195.163086 
	C461.768341,195.292664 461.962036,196.835052 462.265656,196.953766 
	C465.814209,198.341125 464.483307,201.373611 464.528564,203.780029 
	C464.672546,211.438248 464.607727,219.100357 464.704956,227.623779 
M914.382690,230.002594 
	C912.432373,230.002594 910.481995,230.002594 908.034058,230.002594 
	C908.034058,213.361679 908.034058,197.157379 908.034058,180.611862 
	C906.289185,180.866837 905.090149,181.042053 904.174011,181.175919 
	C904.174011,199.005875 904.174011,216.388245 904.174011,233.708923 
	C909.240723,233.708923 913.992615,233.708923 918.759216,233.708923 
	C918.515564,230.375168 918.515564,230.375168 914.382690,230.002594 
M430.381042,224.476837 
	C430.380920,211.155914 430.400574,197.834946 430.368134,184.514099 
	C430.358948,180.748917 430.289001,180.749084 426.241455,181.408615 
	C426.241455,198.821136 426.241455,216.237259 426.241455,233.955795 
	C427.709167,233.869415 428.935242,233.797241 430.381073,233.712143 
	C430.381073,230.761047 430.381073,228.115829 430.381042,224.476837 
M609.017395,225.449356 
	C609.017395,228.227722 609.017395,231.006088 609.017395,234.077362 
	C610.821655,233.894745 612.054993,233.769913 613.248596,233.649094 
	C613.248596,216.011719 613.248596,198.718506 613.248596,181.152679 
	C611.801086,181.152679 610.488281,181.152679 609.017395,181.152679 
	C609.017395,195.839828 609.017395,210.149429 609.017395,225.449356 
M359.606354,61.031105 
	C360.152283,61.676113 360.681030,62.862892 361.246826,62.880844 
	C365.976715,63.030949 370.713409,62.966141 375.451111,62.966141 
	C375.451111,58.583443 375.451111,54.851189 375.451111,50.999859 
	C370.101990,50.999859 365.040131,50.999859 359.597687,50.999859 
	C359.597687,54.211960 359.597687,57.171513 359.606354,61.031105 
M1030.215332,50.744396 
	C1025.983643,50.744396 1021.752014,50.744396 1017.518860,50.744396 
	C1017.518860,55.200912 1017.518860,58.924530 1017.518860,62.759689 
	C1022.867371,62.759689 1027.925049,62.759689 1033.351685,62.759689 
	C1033.351685,59.422726 1033.508057,56.283825 1033.250610,53.179268 
	C1033.179077,52.316597 1031.880981,51.555649 1030.215332,50.744396 
M510.982544,201.575317 
	C510.982544,199.140305 510.982544,196.705292 510.982544,193.979294 
	C509.228668,194.120285 508.002899,194.218826 506.898163,194.307632 
	C506.898163,207.661789 506.898163,220.678452 506.898163,233.984772 
	C508.408081,233.874268 509.617340,233.785751 510.982544,233.685837 
	C510.982544,223.077332 510.982544,212.815506 510.982544,201.575317 
M537.887207,224.464691 
	C537.887207,227.574783 537.887207,230.684860 537.887207,234.102051 
	C539.681091,233.893341 540.889587,233.752731 541.938110,233.630737 
	C541.938110,220.291183 541.938110,207.352341 541.938110,194.045776 
	C540.520386,194.112183 539.317200,194.168549 537.887207,194.235519 
	C537.887207,204.214981 537.887207,213.845886 537.887207,224.464691 
M543.387878,182.109589 
	C541.194702,181.511978 539.001465,180.914352 536.558228,180.248596 
	C536.558228,182.795135 536.558228,184.205307 536.558228,186.215561 
	C539.018372,184.771362 543.349670,189.030289 543.387878,182.109589 
M506.761841,186.000397 
	C508.505341,186.000397 510.248840,186.000397 512.178162,186.000397 
	C512.078796,183.915863 512.010681,182.487396 511.941406,181.033997 
	C509.553894,181.033997 507.501404,181.033997 504.876129,181.033997 
	C505.250977,182.884140 505.554626,184.382950 506.761841,186.000397 
z"/>
<path fill="#171616" opacity="1.000000" stroke="none" 
	d="
M138.584808,38.441154 
	C151.929901,56.051678 153.177826,77.091988 142.348831,95.784149 
	C141.568878,97.130447 140.874893,99.590034 141.545898,100.552521 
	C150.364120,113.201378 159.435211,125.673950 169.325165,138.009415 
	C169.174179,135.199295 168.955658,132.390900 168.884583,129.578751 
	C168.652206,120.385437 174.682175,113.666214 183.820145,112.866463 
	C191.741623,112.173180 199.156509,118.421783 200.102936,127.124985 
	C202.442307,148.637634 204.893066,170.147324 206.661011,191.710510 
	C208.569336,214.986115 192.726700,238.292191 170.264450,246.414444 
	C147.454010,254.662598 121.725853,246.540848 107.335640,226.520004 
	C99.205772,215.209076 91.623039,203.457764 82.861153,192.661789 
	C74.442101,182.288239 77.921936,168.823074 91.205109,165.354416 
	C89.452354,151.627640 91.938820,146.979294 103.634949,142.117355 
	C100.883575,129.986023 103.611839,124.803635 115.677177,118.533455 
	C114.089279,118.533455 112.434135,118.236351 110.923645,118.578278 
	C90.235657,123.261337 68.278664,113.819756 56.783237,95.208984 
	C46.037476,77.811890 47.696960,54.383080 60.818607,38.237190 
	C80.873817,13.559710 117.068939,13.530274 138.584808,38.441154 
M142.550446,240.131302 
	C148.665054,240.196823 154.989807,241.314697 160.857376,240.143051 
	C184.450134,235.431961 199.703201,215.869125 198.096664,191.904327 
	C196.705658,171.154541 194.150375,150.482529 192.092285,129.777878 
	C191.505157,123.871292 188.518692,120.693764 183.968018,121.038940 
	C179.260376,121.396019 176.588882,125.397858 177.185608,131.351257 
	C177.916016,138.638428 178.925217,145.906296 179.351685,153.209488 
	C179.463882,155.130844 177.870163,157.151794 177.059830,159.126999 
	C175.127457,158.255310 172.581161,157.887222 171.376465,156.418625 
	C167.586472,151.798386 164.306473,146.760437 160.818436,141.891785 
	C143.764587,118.087677 126.707550,94.285881 109.650246,70.484261 
	C109.068298,69.672218 108.507629,68.841263 107.875748,68.069298 
	C104.754494,64.256065 100.327797,63.424751 96.906082,65.984924 
	C93.430504,68.585403 92.956856,72.823204 95.957947,77.027954 
	C113.259560,101.268776 130.614456,125.471581 147.960999,149.680313 
	C149.793900,152.238312 151.696381,155.042770 148.209641,157.410965 
	C145.030624,159.570129 143.054260,157.005997 141.340546,154.602982 
	C136.124466,147.288849 130.934937,139.955444 125.669884,132.676666 
	C122.132835,127.786781 117.885696,126.513397 114.308006,129.121078 
	C110.216171,132.103531 109.902817,136.284775 113.488289,141.306137 
	C119.289391,149.430405 125.124863,157.530243 130.970810,165.622345 
	C132.690170,168.002319 133.752686,170.583038 130.891281,172.577652 
	C128.124725,174.506134 125.954613,172.863632 124.235435,170.422638 
	C120.595039,165.253754 116.944962,160.089752 113.190468,155.003754 
	C109.943336,150.605026 105.667900,149.544785 102.021301,152.043335 
	C98.206551,154.657074 97.860435,159.136383 101.185005,163.848251 
	C105.404793,169.828888 109.696068,175.759125 113.913147,181.741653 
	C115.549530,184.063110 116.036163,186.852020 113.155106,188.062744 
	C111.658501,188.691650 108.675690,187.713196 107.363121,186.435043 
	C104.898163,184.034760 103.186417,180.869064 101.110626,178.059204 
	C97.821625,173.607086 93.633026,172.371262 90.113808,174.759735 
	C86.077049,177.499466 85.651047,182.125244 89.094711,186.941025 
	C97.223511,198.308716 105.538826,209.546204 113.501610,221.028519 
	C120.482231,231.094559 129.818314,237.380676 142.550446,240.131302 
M137.201660,87.660774 
	C149.299637,59.864346 131.746292,29.853283 102.357765,28.087934 
	C81.829079,26.854788 63.357029,40.647877 59.047626,60.427620 
	C54.622478,80.738625 65.371635,101.048485 84.648132,108.567284 
	C92.519897,111.637657 100.597008,111.927185 109.095421,110.187096 
	C104.472572,102.654755 104.475700,102.632309 96.786392,101.561333 
	C84.246452,99.814743 75.092445,93.260246 70.053391,81.705231 
	C64.521378,69.019783 68.555840,53.641651 79.070854,45.030910 
	C90.085724,36.010841 105.550407,35.060188 117.210022,42.686390 
	C128.952591,50.366867 134.387894,64.825081 130.678955,78.514534 
	C129.158585,84.126106 130.352310,87.190498 135.571426,91.042801 
	C136.026901,90.152443 136.480835,89.265091 137.201660,87.660774 
M116.970993,66.545219 
	C118.785797,69.064682 120.600601,71.584145 122.621567,74.389832 
	C125.992409,61.495071 116.941589,48.431129 103.585503,46.149868 
	C90.139847,43.853313 77.121948,53.772358 76.004707,67.165176 
	C74.905319,80.344063 84.757980,92.590370 96.680557,92.608536 
	C93.767563,88.435905 90.648705,84.519997 88.129341,80.250336 
	C81.964989,69.803375 87.783386,57.865097 99.798943,56.410992 
	C107.532852,55.475048 112.571281,59.956860 116.970993,66.545219 
z"/>
<path fill="#161515" opacity="1.000000" stroke="none" 
	d="
M293.061951,129.828217 
	C295.155884,137.234436 297.170654,144.243820 299.303986,151.665649 
	C294.417236,151.665649 289.881439,151.665649 284.755371,151.665649 
	C282.127014,141.396530 279.290314,130.850876 276.783356,120.227417 
	C275.905701,116.508369 274.518707,114.453857 269.895630,116.014206 
	C269.895630,127.630989 269.895630,139.513138 269.895630,151.696869 
	C265.001617,151.696869 260.630951,151.696869 256.070709,151.696869 
	C256.070709,118.165512 256.070709,84.773628 256.070709,51.307892 
	C265.209351,51.307892 274.337250,50.638966 283.317108,51.504879 
	C291.523621,52.296227 296.402344,57.381157 296.932770,65.698135 
	C297.660156,77.103264 297.706085,88.630775 296.850037,100.016068 
	C296.541656,104.117432 292.700653,107.918968 290.634949,111.941116 
	C289.919525,113.334106 289.072540,115.113686 289.365295,116.486404 
	C290.298035,120.859650 291.738495,125.124611 293.061951,129.828217 
M284.058563,95.040230 
	C284.049286,86.903603 284.184082,78.763344 283.978882,70.631660 
	C283.847595,65.429443 281.359497,63.171539 276.199646,62.932068 
	C274.112762,62.835220 272.017609,62.916096 270.042175,62.916096 
	C270.042175,76.703873 270.042175,89.896416 270.042175,103.059746 
	C280.850525,103.728592 282.571594,102.826035 284.058563,95.040230 
z"/>
<path fill="#161515" opacity="1.000000" stroke="none" 
	d="
M711.134888,62.018375 
	C711.132690,58.062595 711.132690,54.604118 711.132690,50.954727 
	C715.797119,50.954727 720.055847,50.954727 724.877869,50.954727 
	C724.877869,52.750450 724.878174,54.366341 724.877808,55.982231 
	C724.872375,80.471031 724.929321,104.960052 724.841187,129.448547 
	C724.771423,148.823502 715.512390,156.210388 696.298950,152.432770 
	C687.301025,150.663666 682.271790,146.319504 682.148804,137.584137 
	C681.743408,108.798882 681.996155,80.004364 681.996155,50.980621 
	C686.242676,50.980621 690.486145,50.980621 695.074890,50.980621 
	C695.074890,55.628563 695.069702,60.084019 695.075684,64.539459 
	C695.106323,87.362411 695.104736,110.185501 695.195496,133.008224 
	C695.219971,139.159241 697.547546,141.638153 702.943542,141.777176 
	C708.405151,141.917877 711.019836,139.351913 711.037537,133.483704 
	C711.108765,109.827812 711.109924,86.171707 711.134888,62.018375 
z"/>
<path fill="#151414" opacity="1.000000" stroke="none" 
	d="
M854.101624,117.201233 
	C853.765320,125.133003 853.891541,132.657593 852.893005,140.029861 
	C851.982788,146.750259 847.465637,151.059891 840.641296,152.062012 
	C836.240356,152.708237 831.659851,153.108459 827.266968,152.631577 
	C817.761475,151.599701 813.178345,147.325974 811.921387,137.809998 
	C810.950562,130.460938 811.136780,122.959045 810.790161,115.107925 
	C815.652527,115.107925 819.685547,115.107925 824.275330,115.107925 
	C824.275330,121.336693 823.997192,127.621613 824.355469,133.870056 
	C824.696350,139.814865 827.915771,142.288895 833.561646,141.740753 
	C837.296570,141.378159 840.088562,139.672852 840.168335,135.641556 
	C840.302917,128.845703 840.277405,122.031265 839.907898,115.247055 
	C839.709900,111.612068 837.343262,109.237640 833.687378,108.338287 
	C830.945557,107.663788 828.236633,106.847603 825.481567,106.236198 
	C817.406616,104.444199 812.115601,99.481331 811.611816,91.329117 
	C811.020813,81.766037 811.261230,72.076622 812.099182,62.526077 
	C812.674133,55.972446 817.247070,51.584278 823.877808,50.735535 
	C829.251831,50.047646 834.840149,49.889767 840.203979,50.549389 
	C847.209351,51.410873 851.776611,56.104542 852.716553,62.989700 
	C853.784851,70.815079 853.757690,78.790016 854.221985,86.969093 
	C849.160339,86.969093 845.076965,86.969093 840.491699,86.969093 
	C840.491699,80.837723 840.704468,74.879677 840.431030,68.944023 
	C840.165649,63.185017 838.032410,61.173676 832.965149,60.992088 
	C827.488892,60.795841 824.927917,62.703964 824.599487,68.505310 
	C824.253052,74.622917 824.627991,80.792572 824.899719,86.930099 
	C825.084167,91.096046 827.447815,93.630768 831.556213,94.516052 
	C833.179199,94.865768 834.784058,95.299271 836.397888,95.691612 
	C849.288574,98.825516 853.072083,103.327881 854.101624,117.201233 
z"/>
<path fill="#131212" opacity="1.000000" stroke="none" 
	d="
M963.428040,139.262527 
	C963.265503,123.012123 962.859009,107.184647 963.232849,91.375618 
	C963.499756,80.088188 969.074646,74.295464 978.431763,75.239471 
	C981.841309,75.583450 985.101562,78.191200 988.236328,80.086342 
	C989.477905,80.836937 990.193237,82.458138 992.340088,83.314941 
	C992.340088,72.685242 992.340088,62.055538 992.340088,51.095619 
	C997.223328,51.095619 1001.445435,51.095619 1005.987183,51.095619 
	C1005.987183,84.449211 1005.987183,117.855881 1005.987183,151.632507 
	C1001.828674,151.632507 997.457947,151.632507 992.974854,151.632507 
	C992.829773,149.358536 992.687134,147.122955 992.544495,144.887375 
	C992.293152,144.488525 992.041870,144.089691 991.790588,143.690857 
	C986.242126,151.849945 979.409058,155.814835 970.252625,151.289795 
	C965.554260,148.967941 964.308777,144.406662 963.428040,139.262527 
M992.812073,120.496338 
	C992.811157,111.505188 992.919678,102.512146 992.764221,93.523666 
	C992.683777,88.871109 988.374207,85.205780 983.317444,85.092682 
	C979.595886,85.009430 977.000122,86.683144 976.967834,90.546928 
	C976.836975,106.188087 976.769409,121.834068 977.106445,137.469040 
	C977.145203,139.270462 979.538269,141.975937 981.398376,142.601685 
	C986.679749,144.378372 992.635681,139.611343 992.789429,133.980942 
	C992.902954,129.821472 992.811951,125.656418 992.812073,120.496338 
z"/>
<path fill="#161515" opacity="1.000000" stroke="none" 
	d="
M308.391571,135.420212 
	C308.293457,121.813477 307.911285,108.641663 308.289978,95.491753 
	C308.810669,77.410576 326.844696,68.278244 342.388916,77.920677 
	C346.738190,80.618629 348.807587,84.822868 348.985138,89.627907 
	C349.304199,98.261719 349.075226,106.915779 349.075226,116.061295 
	C340.328247,116.061295 331.418457,116.061295 322.229309,116.061295 
	C322.229309,123.495186 322.007538,130.446732 322.311340,137.375229 
	C322.497498,141.620010 325.882538,142.643829 329.493408,142.621902 
	C333.096741,142.600037 335.700775,140.988937 335.888641,137.097763 
	C336.087646,132.975540 335.933319,128.836288 335.933319,124.450455 
	C340.545380,124.450455 344.648315,124.450455 348.759186,124.450455 
	C352.479218,138.823334 347.379913,150.065201 336.053680,152.428589 
	C319.973724,155.783920 310.711639,150.226822 308.391571,135.420212 
M325.559204,85.955772 
	C324.419159,87.638474 322.452209,89.248215 322.296051,91.017723 
	C321.849792,96.075783 322.139099,101.198753 322.139099,106.371597 
	C326.913849,106.371597 331.425018,106.371597 336.103943,106.371597 
	C336.103943,101.853119 336.202271,97.711418 336.082123,93.576065 
	C335.873413,86.392502 333.728638,84.728928 325.559204,85.955772 
z"/>
<path fill="#171616" opacity="1.000000" stroke="none" 
	d="
M670.864502,132.837677 
	C670.185547,136.876572 669.583435,140.469818 668.810120,144.025833 
	C668.608032,144.954849 667.999512,145.876129 667.363831,146.617783 
	C660.456116,154.678009 651.400208,153.645462 642.473816,152.058975 
	C635.033875,150.736664 630.440552,146.152649 630.187195,138.398987 
	C629.660828,122.293182 629.607361,106.142479 630.203796,90.041504 
	C630.514526,81.653503 635.393677,77.338234 643.654602,75.665955 
	C645.596680,75.272820 647.604492,75.068451 649.586792,75.031502 
	C664.499451,74.753555 670.361938,80.180733 670.847656,94.969551 
	C671.075684,101.913338 670.886658,108.870834 670.886658,116.261597 
	C661.407349,116.261597 652.476929,116.261597 643.507996,116.261597 
	C643.507996,123.495041 643.343201,130.286697 643.565491,137.065674 
	C643.715332,141.637329 647.121277,142.684418 650.940613,142.597855 
	C654.563477,142.515732 657.014893,140.845642 657.095459,136.892578 
	C657.176453,132.916489 657.113281,128.937454 657.113281,124.572365 
	C661.717651,124.572365 665.919006,124.572365 670.877441,124.572365 
	C670.877441,127.177933 670.877441,129.778030 670.864502,132.837677 
M647.663391,106.760536 
	C650.768005,106.760536 653.872559,106.760536 657.200073,106.760536 
	C657.200073,101.337090 657.233154,96.405807 657.190247,91.475189 
	C657.151367,87.011353 654.402832,85.350838 650.396667,85.335777 
	C646.424133,85.320831 643.594421,86.939148 643.388611,91.338112 
	C643.194885,95.478973 643.314941,99.637772 643.027161,103.769890 
	C642.813477,106.837456 644.576111,106.920296 647.663391,106.760536 
z"/>
<path fill="#171616" opacity="1.000000" stroke="none" 
	d="
M386.245483,102.999908 
	C386.245483,93.871101 386.245483,85.242294 386.245483,76.303368 
	C390.941376,76.303368 395.324219,76.303368 399.909943,76.303368 
	C400.044098,78.617699 400.173950,80.857643 400.385071,84.499611 
	C402.330536,82.618690 403.676636,81.664879 404.569763,80.392982 
	C408.256897,75.142296 413.423737,74.230721 419.173035,75.402206 
	C424.852661,76.559502 428.037872,80.324615 429.051422,85.958366 
	C429.374969,87.756767 429.763458,89.580513 429.768097,91.393578 
	C429.819092,111.354309 429.800079,131.315216 429.800079,151.642914 
	C425.282501,151.642914 420.913605,151.642914 416.049500,151.642914 
	C416.049500,141.719940 416.049591,131.784775 416.049500,121.849609 
	C416.049408,112.360657 416.077423,102.871582 416.038544,93.382790 
	C416.014404,87.492981 414.201843,85.158302 409.791260,85.114037 
	C404.707184,85.063004 400.143433,89.002625 400.115784,93.818024 
	C400.029755,108.800087 400.083832,123.782959 400.083618,138.765518 
	C400.083527,143.048965 400.083588,147.332413 400.083588,151.806961 
	C395.404480,151.806961 391.135162,151.806961 386.245453,151.806961 
	C386.245453,135.672592 386.245453,119.586258 386.245483,102.999908 
z"/>
<path fill="#161515" opacity="1.000000" stroke="none" 
	d="
M1054.181641,76.886200 
	C1060.623657,76.387367 1066.729980,75.429100 1072.758423,75.785248 
	C1080.451416,76.239708 1085.440918,81.485870 1085.728271,88.706055 
	C1086.401367,105.619370 1086.395508,122.599083 1085.676636,139.509918 
	C1085.368530,146.757080 1080.207886,151.562332 1072.562744,152.375305 
	C1068.452759,152.812347 1064.214478,153.126175 1060.142456,152.621658 
	C1050.601807,151.439590 1045.508423,146.675690 1045.117798,136.975952 
	C1044.502319,121.696060 1044.690430,106.367371 1045.065430,91.072250 
	C1045.212158,85.082169 1047.702148,79.707779 1054.181641,76.886200 
M1060.384399,141.118698 
	C1067.860840,144.304688 1072.901611,142.460678 1073.011475,136.037460 
	C1073.264160,121.249123 1073.109741,106.453178 1073.048706,91.660622 
	C1073.033203,87.907082 1070.881714,85.951782 1067.225586,85.445015 
	C1061.280151,84.620956 1058.163940,87.184402 1058.104004,93.558716 
	C1057.975952,107.191681 1057.993042,120.827469 1058.142578,134.459991 
	C1058.165039,136.499634 1059.225098,138.527878 1060.384399,141.118698 
z"/>
<path fill="#151414" opacity="1.000000" stroke="none" 
	d="
M483.541138,127.609436 
	C483.645630,115.995003 483.503021,104.835304 483.977844,93.701927 
	C484.525269,80.866066 490.382904,75.412910 503.120575,75.037079 
	C504.284760,75.002731 505.451447,75.001549 506.615753,75.031670 
	C518.925537,75.350044 525.127441,80.427872 525.735168,92.657928 
	C526.436340,106.768486 526.422913,120.964241 525.760742,135.078003 
	C525.173523,147.595825 518.974609,152.731598 506.397217,152.985168 
	C504.734375,153.018692 503.063477,153.017746 501.406036,152.897903 
	C490.504913,152.109589 485.196289,146.973175 484.049133,136.051041 
	C483.771210,133.404922 483.721497,130.734848 483.541138,127.609436 
M512.640808,131.153229 
	C512.554077,118.196320 512.479065,105.239319 512.374451,92.282547 
	C512.335999,87.514450 509.654480,85.383789 505.115814,85.346848 
	C500.699921,85.310890 497.498596,87.124687 497.458282,91.918053 
	C497.334045,106.699493 497.345764,121.483559 497.487030,136.264862 
	C497.530426,140.803558 500.591125,142.573288 504.793640,142.667679 
	C510.572540,142.797531 512.118713,140.677521 512.640808,131.153229 
z"/>
<path fill="#151414" opacity="1.000000" stroke="none" 
	d="
M937.520752,138.171265 
	C938.069702,135.753036 938.611877,133.643219 938.619690,131.531433 
	C938.687073,113.215401 938.658508,94.899017 938.658508,76.289093 
	C943.061584,76.289093 947.314087,76.289093 951.879395,76.289093 
	C951.879395,101.298004 951.879395,126.352722 951.879395,151.706726 
	C947.750183,151.706726 943.500488,151.706726 938.836609,151.706726 
	C938.710144,149.449585 938.579163,147.112366 938.448181,144.775162 
	C938.067078,144.635574 937.685974,144.495972 937.304810,144.356384 
	C936.421936,145.387497 935.501709,146.389252 934.662354,147.454712 
	C930.722046,152.455948 925.584167,153.946365 919.533325,152.527435 
	C913.660278,151.150177 910.557800,147.179825 909.539368,141.398926 
	C909.337769,140.254547 909.068481,139.097595 909.066833,137.946106 
	C909.038147,117.483475 909.046143,97.020805 909.046143,76.276939 
	C913.463562,76.276939 917.722778,76.276939 922.711487,76.276939 
	C922.711487,77.764656 922.711487,79.345856 922.711487,80.927048 
	C922.711487,98.249977 922.672974,115.573059 922.743713,132.895691 
	C922.758118,136.424484 921.727234,140.685959 926.300537,142.345963 
	C930.813660,143.984100 934.351440,141.880081 937.520752,138.171265 
z"/>
<path fill="#181717" opacity="1.000000" stroke="none" 
	d="
M577.252625,111.001762 
	C577.478699,104.009544 577.417725,97.491325 577.995056,91.030151 
	C578.833496,81.646965 583.399597,76.978271 592.615784,75.392685 
	C594.248047,75.111862 595.929382,75.037056 597.590149,75.013344 
	C612.868347,74.795158 618.951538,80.783096 618.918518,95.959053 
	C618.913513,98.287209 618.917847,100.615379 618.917847,103.704597 
	C616.543518,103.704597 614.451599,103.704605 612.359680,103.704605 
	C610.219910,103.704605 608.080139,103.704597 605.172302,103.704597 
	C605.172302,99.433151 605.174316,95.496544 605.171814,91.559929 
	C605.168884,87.035454 602.432922,85.415863 598.402832,85.378952 
	C594.383484,85.342140 591.458557,86.952042 591.434570,91.398705 
	C591.353699,106.393051 591.356018,121.388496 591.448853,136.382767 
	C591.477905,141.073364 594.564148,142.671204 598.773987,142.619370 
	C603.028076,142.567017 605.204895,140.385437 605.181641,136.074524 
	C605.161194,132.280212 605.177368,128.485687 605.177368,124.443344 
	C609.842590,124.443344 613.946289,124.443344 618.485291,124.443344 
	C619.308533,131.158600 619.351562,137.837936 616.691040,144.322662 
	C616.378174,145.085205 615.975891,145.854385 615.447388,146.478607 
	C608.579590,154.591141 599.530823,153.692596 590.568542,152.083008 
	C582.909424,150.707458 578.695679,146.027618 578.078491,137.969650 
	C577.405029,129.177307 577.494141,120.326553 577.252625,111.001762 
z"/>
<path fill="#171616" opacity="1.000000" stroke="none" 
	d="
M446.926819,71.854195 
	C446.967743,54.424091 453.272278,48.546383 470.182922,49.715538 
	C471.984833,49.840115 473.782288,50.029167 475.827606,50.210049 
	C475.827606,53.533886 475.827606,56.644905 475.827606,59.145061 
	C471.119415,60.384045 465.371918,60.366749 462.231537,63.219460 
	C459.831238,65.399902 460.729553,71.211662 460.089142,75.935135 
	C464.982971,75.935135 469.079224,75.935135 473.420837,75.935135 
	C473.420837,79.469246 473.420837,82.577255 473.420837,86.265152 
	C469.417145,86.265152 465.360107,86.265152 460.843384,86.265152 
	C460.843384,108.386559 460.843384,129.940536 460.843384,151.749863 
	C456.128540,151.749863 451.869019,151.749863 447.115723,151.749863 
	C447.115723,130.252594 447.115723,108.682228 447.115723,86.861656 
	C444.573456,86.650482 442.492157,86.477592 440.141388,86.282326 
	C440.141388,82.927505 440.141388,79.696953 440.141388,76.510719 
	C442.171936,74.644081 447.707764,78.628349 446.926819,71.854195 
z"/>
<path fill="#171616" opacity="1.000000" stroke="none" 
	d="
M871.937256,97.023857 
	C871.937317,93.382812 871.937317,90.237045 871.937317,86.857513 
	C869.916321,86.654716 868.160828,86.478554 866.098267,86.271584 
	C866.098267,82.965569 866.098267,79.741623 866.098267,76.184341 
	C867.818848,76.082024 869.591675,75.976601 871.790405,75.845848 
	C871.790405,68.974243 871.790405,62.056107 871.790405,54.788353 
	C876.593994,54.788353 880.981750,54.788353 885.747925,54.788353 
	C885.747925,61.615204 885.747925,68.506111 885.747925,75.825714 
	C889.837769,75.825714 893.583435,75.825714 897.620789,75.825714 
	C897.620789,79.485519 897.620789,82.724861 897.620789,86.396729 
	C893.856934,86.396729 890.088684,86.396729 885.635315,86.396729 
	C885.635315,89.736053 885.635315,92.664566 885.635315,95.593079 
	C885.635437,107.906326 885.626221,120.219582 885.638855,132.532822 
	C885.648621,142.105057 886.784241,143.172653 896.311462,142.680481 
	C896.973450,142.646301 897.635803,142.620010 898.698242,142.571960 
	C898.698242,145.826370 898.698242,149.011292 898.698242,153.684326 
	C892.328918,152.706863 885.974243,152.531052 880.185364,150.631393 
	C873.644592,148.485001 872.091919,142.228943 872.016724,135.955658 
	C871.863098,123.145012 871.949646,110.331474 871.937256,97.023857 
z"/>
<path fill="#111010" opacity="1.000000" stroke="none" 
	d="
M750.292419,96.000130 
	C750.292419,114.811378 750.292419,133.122620 750.292419,151.715271 
	C745.838745,151.715271 741.581116,151.715271 736.984497,151.715271 
	C736.984497,118.250412 736.984497,84.742104 736.984497,50.997929 
	C741.327759,50.997929 745.567017,50.997929 750.292419,50.997929 
	C750.292419,65.951714 750.292419,80.725922 750.292419,96.000130 
z"/>
<path fill="#161515" opacity="1.000000" stroke="none" 
	d="
M557.190125,87.688965 
	C552.880615,89.864861 551.877563,93.279030 551.893555,97.409332 
	C551.962952,115.362320 551.923340,133.315720 551.923340,151.638184 
	C547.409058,151.638184 543.026855,151.638184 538.340210,151.638184 
	C538.340210,126.738075 538.340210,101.707230 538.340210,76.333847 
	C542.588989,76.333847 546.972107,76.333847 551.718262,76.333847 
	C551.852295,78.826439 551.990295,81.392494 552.191833,85.138748 
	C554.820862,81.895401 556.379089,78.644447 558.954834,77.165550 
	C561.580566,75.657951 565.206848,75.892799 568.750977,75.305794 
	C568.750977,79.394196 568.750977,82.662125 568.750977,86.055473 
	C565.047729,86.537254 561.304993,87.024178 557.190125,87.688965 
z"/>
<path fill="#191818" opacity="1.000000" stroke="none" 
	d="
M374.501251,150.526413 
	C370.170227,151.477325 365.873993,151.967209 361.198914,152.500275 
	C361.198914,126.784409 361.198914,101.756432 361.198914,76.356392 
	C365.316284,76.356392 369.685822,76.356392 374.536072,76.356392 
	C374.536072,100.917023 374.536072,125.491203 374.501251,150.526413 
z"/>
<path fill="#111010" opacity="1.000000" stroke="none" 
	d="
M1018.651489,85.017899 
	C1018.651428,81.867035 1018.651428,79.214417 1018.651428,76.282661 
	C1023.086914,76.282661 1027.337280,76.282661 1031.885254,76.282661 
	C1031.885254,101.322266 1031.885254,126.369461 1031.885254,151.707550 
	C1027.728882,151.707550 1023.487122,151.707550 1018.651489,151.707550 
	C1018.651489,129.644897 1018.651489,107.580521 1018.651489,85.017899 
z"/>
<path fill="#191818" opacity="1.000000" stroke="none" 
	d="
M889.243347,215.579544 
	C887.983582,214.578064 886.838501,213.997925 885.113708,213.124084 
	C885.113708,220.408600 885.113708,226.854919 885.113708,233.654297 
	C883.494446,233.654297 882.174561,233.654297 880.737000,233.654297 
	C880.737000,216.078857 880.737000,198.658752 880.737000,180.947800 
	C884.382141,180.947800 887.848267,180.720901 891.270874,181.009552 
	C894.932495,181.318329 896.991150,183.751572 897.092651,187.335342 
	C897.275879,193.806549 897.165527,200.286377 897.146973,206.762512 
	C897.145081,207.416840 897.168518,208.328598 896.780090,208.685791 
	C891.049255,213.955688 895.222351,219.585236 896.178894,225.048950 
	C896.663269,227.815765 897.560181,230.510376 898.317322,233.417221 
	C895.130005,234.723755 893.487915,234.162506 892.838196,230.521790 
	C891.965210,225.630280 890.543945,220.836594 889.243347,215.579544 
M885.090942,208.880936 
	C890.845459,210.688019 892.858337,209.443466 892.990417,203.844040 
	C893.087891,199.711929 893.070862,195.575195 893.013733,191.441788 
	C892.924622,184.991882 892.012207,184.286560 884.974487,185.271301 
	C884.974487,192.811676 884.974487,200.398239 885.090942,208.880936 
z"/>
<path fill="#171616" opacity="1.000000" stroke="none" 
	d="
M760.021118,107.939827 
	C760.020813,104.839478 760.020813,102.223381 760.020813,99.366058 
	C773.644226,99.366058 786.862549,99.366058 800.487427,99.366058 
	C800.487427,103.105820 800.487427,106.947495 800.487427,111.265472 
	C787.702209,111.265472 774.969788,111.313622 762.240356,111.143990 
	C761.488708,111.133980 760.760498,109.371216 760.021118,107.939827 
z"/>
<path fill="#201F1F" opacity="1.000000" stroke="none" 
	d="
M588.742310,211.683167 
	C587.755859,213.094040 586.869690,214.729599 585.802795,214.857483 
	C582.724243,215.226532 579.572754,214.987915 576.109192,214.987915 
	C576.109192,219.138885 575.739502,222.975967 576.284851,226.678238 
	C576.514160,228.235001 578.463867,230.327301 580.008484,230.729889 
	C582.837952,231.467377 584.152344,229.395752 584.142578,226.593643 
	C584.135742,224.626877 584.141296,222.660065 584.141296,220.740356 
	C587.522705,219.463165 588.685669,220.373169 588.775574,223.614090 
	C589.007568,231.980118 585.998230,235.155640 578.432861,234.324600 
	C574.313232,233.872101 571.918457,231.757385 571.862305,227.617722 
	C571.740479,218.638306 571.629150,209.650391 571.895935,200.677322 
	C572.043762,195.704330 574.536194,193.793045 579.703857,193.612259 
	C585.255066,193.418045 587.747070,195.142075 588.377380,200.263458 
	C588.822021,203.876358 588.654297,207.564621 588.742310,211.683167 
M583.505005,211.261520 
	C583.680237,207.554337 584.160461,203.821075 583.847046,200.155685 
	C583.751526,199.039383 581.336853,197.169998 580.221252,197.327148 
	C578.743591,197.535339 576.547058,199.245468 576.338318,200.573959 
	C575.790710,204.058258 576.153442,207.685638 576.153442,211.389557 
	C578.574036,211.389557 580.545654,211.389557 583.505005,211.261520 
z"/>
<path fill="#212020" opacity="1.000000" stroke="none" 
	d="
M773.895630,221.912323 
	C773.931030,224.049728 773.467468,225.950363 774.124268,227.309662 
	C774.831543,228.773376 776.599976,230.666229 777.884827,230.650818 
	C779.238831,230.634583 781.282898,228.810547 781.738892,227.369293 
	C782.400879,225.277084 781.908630,222.819717 781.908630,220.518097 
	C782.456665,220.209137 783.004639,219.900177 783.552673,219.591202 
	C784.479614,220.805130 786.100037,221.953857 786.221313,223.243515 
	C787.023376,231.776627 784.055786,234.972412 776.564453,234.379944 
	C772.196350,234.034485 769.643738,231.826767 769.560791,227.521744 
	C769.388062,218.557037 769.222046,209.572708 769.636475,200.623459 
	C769.884827,195.261658 772.771118,193.416092 778.497986,193.605698 
	C783.764526,193.780060 785.852600,195.762650 786.227905,201.285019 
	C786.441711,204.431519 786.385864,207.598953 786.376770,210.756744 
	C786.372986,212.068146 786.174377,213.378983 786.043457,214.938171 
	C782.090027,214.938171 778.300232,214.938171 773.889954,214.938171 
	C773.889954,217.272736 773.889954,219.354950 773.895630,221.912323 
M780.436890,211.374344 
	C782.451355,208.894104 782.876099,199.925018 780.786987,198.291382 
	C779.762573,197.490280 777.903687,197.010544 776.723328,197.370941 
	C775.612244,197.710190 774.235962,199.282959 774.129761,200.420761 
	C773.796509,203.989517 774.007141,207.609070 774.007141,211.392929 
	C776.151672,211.392929 777.805115,211.392929 780.436890,211.374344 
z"/>
<path fill="#262525" opacity="1.000000" stroke="none" 
	d="
M733.013000,230.955261 
	C731.120972,232.065399 729.060852,234.260071 727.381104,233.999847 
	C725.459534,233.702194 722.972290,231.538849 722.305908,229.634888 
	C719.767639,222.382629 722.511902,216.127670 729.199341,212.325607 
	C734.069275,209.556839 735.868164,205.281952 733.997192,199.806076 
	C733.602356,198.650436 731.685852,197.281830 730.519531,197.325455 
	C729.313293,197.370544 727.441101,198.834412 727.150818,199.999283 
	C726.606934,202.181808 726.994324,204.596436 726.994324,207.046402 
	C723.805847,208.437485 722.237366,208.112366 722.153809,204.337067 
	C721.987244,196.820267 724.348694,193.644638 730.591980,193.574905 
	C736.188477,193.512405 738.720459,195.524246 738.846436,201.187897 
	C739.086121,211.965485 738.915894,222.752182 738.915894,233.535095 
	C738.509766,233.916870 738.103638,234.298630 737.697510,234.680405 
	C736.372314,233.513611 735.047119,232.346802 733.059631,230.720840 
	C733.304932,224.990082 734.212524,219.718506 735.253296,213.673676 
	C727.394775,216.763809 725.361816,220.362488 726.062988,226.641174 
	C726.592346,231.380371 730.085876,230.521866 733.013000,230.955261 
z"/>
<path fill="#201F1F" opacity="1.000000" stroke="none" 
	d="
M664.030762,204.246460 
	C664.447144,195.932205 666.339478,193.668579 672.555359,193.594101 
	C678.331360,193.524902 680.798157,195.736954 681.033447,201.572830 
	C681.206299,205.860092 681.067261,210.159912 681.067261,214.906631 
	C676.860779,214.906631 672.947449,214.906631 668.763794,214.906631 
	C668.763794,219.284576 668.450684,223.255081 668.930969,227.127182 
	C669.102661,228.511551 671.415283,230.830917 672.357849,230.652130 
	C673.978271,230.344772 675.946411,228.668365 676.561462,227.094818 
	C677.287598,225.237076 676.731873,222.878372 676.731873,220.734879 
	C679.570984,219.675934 680.996582,219.792999 681.154358,223.114975 
	C681.536621,231.158600 679.340515,234.373520 672.931885,234.431824 
	C666.885071,234.486832 664.325439,232.270828 664.133789,226.165817 
	C663.909485,219.020615 664.043152,211.864166 664.030762,204.246460 
M673.360168,211.424042 
	C674.510254,211.047073 676.651306,210.683258 676.656555,210.291107 
	C676.706177,206.543228 676.639648,202.748169 676.003662,199.070908 
	C675.855835,198.216507 673.322998,197.120926 672.055603,197.303436 
	C670.861694,197.475388 669.219604,199.041718 668.958618,200.250290 
	C668.411804,202.782501 668.802917,205.500427 668.514587,208.109573 
	C668.161194,211.308533 669.932678,211.672974 673.360168,211.424042 
z"/>
<path fill="#151414" opacity="1.000000" stroke="none" 
	d="
M624.710449,233.458344 
	C623.349915,233.863739 622.202026,233.863739 620.803650,233.863739 
	C620.803650,220.649719 620.803650,207.566681 620.803650,193.237656 
	C622.850220,194.404205 624.356812,195.262985 626.364136,196.407196 
	C626.499878,196.278625 627.314880,195.220642 628.375366,194.551956 
	C633.049927,191.604233 637.883118,194.668076 637.971741,200.857635 
	C638.126282,211.662643 638.014832,222.471466 638.014832,233.645126 
	C636.749939,233.768723 635.544189,233.886536 633.751831,234.061661 
	C633.751831,223.826355 633.811829,213.903687 633.713501,203.982574 
	C633.685730,201.183716 634.666382,197.212051 630.129578,197.166885 
	C625.909119,197.124847 624.884521,200.290634 624.924438,204.105316 
	C625.025391,213.753479 624.936157,223.403610 624.710449,233.458344 
z"/>
<path fill="#151414" opacity="1.000000" stroke="none" 
	d="
M437.762939,233.262131 
	C437.600372,220.042542 437.600372,207.242950 437.600372,193.073044 
	C439.874847,194.405319 441.389160,195.292313 442.180237,195.755692 
	C445.420135,195.207626 449.264740,193.347275 451.462677,194.534760 
	C453.550354,195.662643 454.765778,199.945282 454.883301,202.899643 
	C455.285980,213.022797 455.037781,223.171829 455.037781,233.667206 
	C453.717529,233.778381 452.511810,233.879898 450.751801,234.028107 
	C450.751801,223.790939 450.816193,213.863998 450.710571,203.938873 
	C450.680878,201.148590 451.668152,197.159515 447.086670,197.163559 
	C442.860413,197.167282 441.880280,200.348267 441.924286,204.150192 
	C442.037659,213.944122 441.962250,223.740234 441.962250,233.937408 
	C440.406769,233.839035 439.166138,233.760574 437.762939,233.262131 
z"/>
<path fill="#161515" opacity="1.000000" stroke="none" 
	d="
M825.741516,198.088043 
	C828.320007,192.480179 832.912354,193.391281 837.101501,194.077362 
	C841.130005,194.737137 842.069092,198.128418 842.098877,201.644211 
	C842.170410,210.107254 842.285217,218.577576 842.012756,227.033051 
	C841.843140,232.296051 839.363037,234.263718 833.986328,234.387100 
	C828.423767,234.514740 825.391174,232.700424 825.260193,227.789032 
	C824.999817,218.030899 825.442871,208.253998 825.741516,198.088043 
M831.891296,230.773666 
	C834.793274,231.248276 837.669678,230.993271 837.765320,227.373001 
	C838.001587,218.433212 837.990295,209.477127 837.655029,200.543518 
	C837.609680,199.334900 835.163391,197.352890 833.770752,197.301407 
	C832.380432,197.250015 829.706299,199.140518 829.675659,200.237823 
	C829.412598,209.651932 829.593872,219.079697 829.752319,228.501526 
	C829.763123,229.145325 830.661133,229.774216 831.891296,230.773666 
z"/>
<path fill="#201F1F" opacity="1.000000" stroke="none" 
	d="
M557.722900,226.465698 
	C558.980103,216.488632 560.156250,206.914429 560.986572,197.310333 
	C561.277222,193.949066 562.826111,193.512329 566.091370,194.313446 
	C564.362183,207.342270 562.624939,220.432251 560.855042,233.768097 
	C558.341431,233.768097 555.922363,233.768097 553.226929,233.768097 
	C551.491272,220.690125 549.769226,207.715027 548.024048,194.565598 
	C551.188110,193.240662 552.749634,193.746231 553.077393,197.620010 
	C553.820007,206.396469 554.913757,215.144745 555.984009,223.889877 
	C556.110718,224.925446 556.980530,225.870056 557.722900,226.465698 
z"/>
<path fill="#1C1B1B" opacity="1.000000" stroke="none" 
	d="
M750.165771,213.999451 
	C750.197693,218.492264 750.180542,222.492279 750.278687,226.489471 
	C750.344177,229.154404 751.442810,230.928909 754.472412,230.940430 
	C757.619263,230.952377 758.396912,228.965530 758.488708,226.384109 
	C758.553467,224.564545 758.501221,222.740814 758.501221,220.982162 
	C762.755188,220.061935 762.755127,220.061935 762.938293,223.367035 
	C763.396179,231.632919 760.588440,234.864563 753.380737,234.367294 
	C748.336304,234.019257 746.135315,232.021225 746.018250,226.833725 
	C745.826538,218.341232 745.805237,209.837097 746.023193,201.345856 
	C746.169189,195.658127 748.874023,193.500397 754.770386,193.612961 
	C760.339905,193.719299 762.508423,195.821121 762.899109,201.491776 
	C763.299377,207.300201 763.169678,207.501083 758.719666,207.444275 
	C758.610413,205.183456 758.954895,202.740036 758.234314,200.666824 
	C757.728699,199.212082 755.764771,197.332001 754.463684,197.340866 
	C753.086975,197.350204 750.710693,199.239243 750.540833,200.538605 
	C749.983154,204.804337 750.228821,209.175095 750.165771,213.999451 
z"/>
<path fill="#2D2C2C" opacity="1.000000" stroke="none" 
	d="
M711.004517,202.117645 
	C711.004883,212.907700 711.004883,223.211502 711.004883,233.781128 
	C709.526855,233.781128 708.286194,233.781128 706.398254,233.781128 
	C706.398254,224.056625 706.499268,214.297028 706.331665,204.542038 
	C706.286255,201.896332 707.927612,198.437576 703.821655,196.938034 
	C703.499084,196.820221 703.440247,194.769653 703.598816,194.720810 
	C708.319824,193.266647 705.943787,189.235657 706.555847,186.414124 
	C707.601685,181.592377 713.262268,178.239868 717.569519,180.417374 
	C718.384277,180.829285 718.679138,182.269852 719.351746,183.484818 
	C710.488831,184.403900 710.488831,184.403900 711.353210,193.806442 
	C713.392944,193.906891 715.486328,194.009964 717.881775,194.127914 
	C718.018738,199.730850 713.486572,196.523376 711.251526,198.336807 
	C711.194397,199.097717 711.099243,200.364548 711.004517,202.117645 
z"/>
<path fill="#2D2C2C" opacity="1.000000" stroke="none" 
	d="
M808.105347,221.980911 
	C808.105347,215.498459 808.211182,209.509247 808.052429,203.527054 
	C807.990417,201.188858 809.473206,198.029388 805.522278,197.019226 
	C805.308105,196.964462 805.357910,194.518631 805.536987,194.483841 
	C809.715759,193.672028 807.875244,190.401581 808.073303,188.158554 
	C808.612488,182.049942 812.212524,178.973969 818.089844,180.204468 
	C819.229919,180.443146 820.133850,181.809570 821.794861,183.197403 
	C812.517517,184.739212 812.517517,184.739212 813.011475,193.665695 
	C815.032593,193.835083 817.105469,194.008820 819.564941,194.214951 
	C819.778137,199.662109 815.178101,196.517349 813.050049,198.416214 
	C813.050049,209.654587 813.050049,221.407028 813.050049,233.598862 
	C811.423096,233.798340 810.062378,233.965164 808.105347,234.205109 
	C808.105347,230.035309 808.105347,226.256134 808.105347,221.980911 
z"/>
<path fill="#292828" opacity="1.000000" stroke="none" 
	d="
M655.011108,230.885101 
	C656.428040,231.400101 657.437012,231.895523 658.446045,232.390945 
	C657.550903,233.082687 656.713623,234.272003 655.751038,234.383896 
	C650.281921,235.019669 647.409302,232.508911 647.243286,226.592056 
	C647.018860,218.598450 647.290649,210.590942 647.068176,202.597244 
	C647.017944,200.790833 645.778320,199.027161 645.146606,197.222687 
	C644.886047,196.478516 644.462280,195.097534 644.658142,194.988800 
	C649.826172,192.120071 645.809631,187.157120 647.821228,183.007004 
	C648.687927,182.931671 650.068665,182.811661 651.816589,182.659729 
	C651.816589,186.473679 651.816589,189.907654 651.816589,193.687912 
	C653.855164,193.857239 655.601746,194.002304 657.335022,194.146271 
	C657.432434,197.399170 657.432434,197.399170 651.947083,197.997742 
	C651.947083,207.921478 651.870605,217.894333 652.063232,227.861984 
	C652.082825,228.879166 653.717834,229.865112 655.011108,230.885101 
z"/>
<path fill="#161515" opacity="1.000000" stroke="none" 
	d="
M525.011658,205.048813 
	C525.011658,211.700745 525.157715,217.861465 524.963562,224.011475 
	C524.818787,228.598602 525.094116,232.425858 532.080994,230.607025 
	C532.079285,231.109283 532.077637,231.611526 532.075989,232.113785 
	C531.151917,232.869354 530.266296,234.209457 529.296692,234.273209 
	C526.123535,234.481873 522.680054,234.439270 521.345703,230.714447 
	C520.692444,228.890930 520.634155,226.793045 520.611572,224.815842 
	C520.529785,217.662354 520.748779,210.500702 520.470215,203.357086 
	C520.387817,201.244858 518.992676,199.197495 518.296814,197.088196 
	C518.048706,196.336121 517.831848,194.860947 518.036377,194.777008 
	C522.657471,192.879730 519.771851,188.821518 520.746765,185.927765 
	C521.222717,184.514938 522.494629,183.370270 523.406250,182.104218 
	C523.913025,182.391220 524.419739,182.678223 524.926514,182.965225 
	C524.926514,186.413101 524.926514,189.860992 524.926514,193.654785 
	C526.929626,193.845123 528.664185,194.009964 530.399353,194.174561 
	C530.689331,197.395111 530.689331,197.395111 525.011658,197.857819 
	C525.011658,200.049210 525.011658,202.301102 525.011658,205.048813 
z"/>
<path fill="#161515" opacity="1.000000" stroke="none" 
	d="
M464.664276,227.192383 
	C464.607727,219.100357 464.672546,211.438248 464.528564,203.780029 
	C464.483307,201.373611 465.814209,198.341125 462.265656,196.953766 
	C461.962036,196.835052 461.768341,195.292664 461.981140,195.163086 
	C466.880280,192.180222 463.546204,187.164871 465.082764,183.035995 
	C466.177704,182.963440 467.411621,182.881683 468.982117,182.777618 
	C468.982117,186.501373 468.982117,189.949600 468.982117,193.767639 
	C471.013245,193.897064 472.759216,194.008316 474.494385,194.118881 
	C474.587250,197.372986 474.587250,197.372986 469.049377,197.885269 
	C469.049377,207.779190 468.794830,217.734680 469.302673,227.651154 
	C469.386261,229.283157 472.816406,230.743774 475.433319,232.883163 
	C474.950531,233.143448 473.820892,234.236450 472.628784,234.309494 
	C468.004181,234.592880 464.837128,232.821182 464.664276,227.192383 
z"/>
<path fill="#111010" opacity="1.000000" stroke="none" 
	d="
M914.843994,230.002625 
	C918.515564,230.375168 918.515564,230.375168 918.759216,233.708923 
	C913.992615,233.708923 909.240723,233.708923 904.174011,233.708923 
	C904.174011,216.388245 904.174011,199.005875 904.174011,181.175919 
	C905.090149,181.042053 906.289185,180.866837 908.034058,180.611862 
	C908.034058,197.157379 908.034058,213.361679 908.034058,230.002594 
	C910.481995,230.002594 912.432373,230.002594 914.843994,230.002625 
z"/>
<path fill="#292828" opacity="1.000000" stroke="none" 
	d="
M493.026367,231.091721 
	C491.519836,234.565552 488.353424,235.316376 485.631531,233.909393 
	C483.712219,232.917267 481.690674,230.025040 481.615692,227.913681 
	C481.221008,216.796219 481.430817,205.657288 481.430817,194.232712 
	C482.898071,194.122971 484.158997,194.028656 485.570007,193.923111 
	C485.724213,194.731262 485.948151,195.362076 485.949646,195.993393 
	C485.973389,205.986526 485.916016,215.980133 485.992432,225.972748 
	C486.030426,230.942581 487.105377,231.570221 492.607849,230.234924 
	C493.026367,230.674118 493.026367,230.882919 493.026367,231.091721 
z"/>
<path fill="#131212" opacity="1.000000" stroke="none" 
	d="
M430.381042,224.973724 
	C430.381073,228.115829 430.381073,230.761047 430.381073,233.712143 
	C428.935242,233.797241 427.709167,233.869415 426.241455,233.955795 
	C426.241455,216.237259 426.241455,198.821136 426.241455,181.408615 
	C430.289001,180.749084 430.358948,180.748917 430.368134,184.514099 
	C430.400574,197.834946 430.380920,211.155914 430.381042,224.973724 
z"/>
<path fill="#131212" opacity="1.000000" stroke="none" 
	d="
M609.017395,224.954193 
	C609.017395,210.149429 609.017395,195.839828 609.017395,181.152679 
	C610.488281,181.152679 611.801086,181.152679 613.248596,181.152679 
	C613.248596,198.718506 613.248596,216.011719 613.248596,233.649094 
	C612.054993,233.769913 610.821655,233.894745 609.017395,234.077362 
	C609.017395,231.006088 609.017395,228.227722 609.017395,224.954193 
z"/>
<path fill="#171616" opacity="1.000000" stroke="none" 
	d="
M359.602020,60.581085 
	C359.597687,57.171513 359.597687,54.211960 359.597687,50.999859 
	C365.040131,50.999859 370.101990,50.999859 375.451111,50.999859 
	C375.451111,54.851189 375.451111,58.583443 375.451111,62.966141 
	C370.713409,62.966141 365.976715,63.030949 361.246826,62.880844 
	C360.681030,62.862892 360.152283,61.676113 359.602020,60.581085 
z"/>
<path fill="#171616" opacity="1.000000" stroke="none" 
	d="
M1030.680420,50.746216 
	C1031.880981,51.555649 1033.179077,52.316597 1033.250610,53.179268 
	C1033.508057,56.283825 1033.351685,59.422726 1033.351685,62.759689 
	C1027.925049,62.759689 1022.867371,62.759689 1017.518860,62.759689 
	C1017.518860,58.924530 1017.518860,55.200912 1017.518860,50.744396 
	C1021.752014,50.744396 1025.983643,50.744396 1030.680420,50.746216 
z"/>
<path fill="#181717" opacity="1.000000" stroke="none" 
	d="
M693.578247,198.636688 
	C693.042480,200.824310 692.084106,203.004242 692.044067,205.200882 
	C691.872314,214.629974 691.970764,224.064011 691.970764,233.749969 
	C690.471191,233.749969 689.239075,233.749969 687.767700,233.749969 
	C687.767700,220.671768 687.767700,207.620026 687.767700,194.499420 
	C690.889404,193.017593 692.230713,194.189285 692.704224,197.858978 
	C693.336975,198.379410 693.457581,198.508041 693.578247,198.636688 
z"/>
<path fill="#181717" opacity="1.000000" stroke="none" 
	d="
M855.578247,198.636688 
	C855.042480,200.824310 854.084106,203.004242 854.044067,205.200882 
	C853.872314,214.629974 853.970764,224.064011 853.970764,233.749969 
	C852.471191,233.749969 851.239075,233.749969 849.767700,233.749969 
	C849.767700,220.671768 849.767700,207.620026 849.767700,194.499420 
	C852.889404,193.017593 854.230713,194.189285 854.704224,197.858978 
	C855.336975,198.379410 855.457581,198.508041 855.578247,198.636688 
z"/>
<path fill="#151414" opacity="1.000000" stroke="none" 
	d="
M493.433838,231.076828 
	C493.026367,230.882919 493.026367,230.674118 492.980011,230.155563 
	C493.485168,227.659042 494.472778,225.480255 494.512909,223.284149 
	C494.688141,213.695969 494.588287,204.102768 494.588287,194.258041 
	C496.138184,194.258041 497.359528,194.258041 498.778870,194.258041 
	C498.778870,207.473892 498.778870,220.525360 498.778870,235.424850 
	C496.494629,233.406464 495.167969,232.234192 493.433838,231.076828 
z"/>
<path fill="#131212" opacity="1.000000" stroke="none" 
	d="
M510.982544,202.064499 
	C510.982544,212.815506 510.982544,223.077332 510.982544,233.685837 
	C509.617340,233.785751 508.408081,233.874268 506.898163,233.984772 
	C506.898163,220.678452 506.898163,207.661789 506.898163,194.307632 
	C508.002899,194.218826 509.228668,194.120285 510.982544,193.979294 
	C510.982544,196.705292 510.982544,199.140305 510.982544,202.064499 
z"/>
<path fill="#111010" opacity="1.000000" stroke="none" 
	d="
M537.887207,223.970749 
	C537.887207,213.845886 537.887207,204.214981 537.887207,194.235519 
	C539.317200,194.168549 540.520386,194.112183 541.938110,194.045776 
	C541.938110,207.352341 541.938110,220.291183 541.938110,233.630737 
	C540.889587,233.752731 539.681091,233.893341 537.887207,234.102051 
	C537.887207,230.684860 537.887207,227.574783 537.887207,223.970749 
z"/>
<path fill="#201F1F" opacity="1.000000" stroke="none" 
	d="
M543.398010,182.499359 
	C543.349670,189.030289 539.018372,184.771362 536.558228,186.215561 
	C536.558228,184.205307 536.558228,182.795135 536.558228,180.248596 
	C539.001465,180.914352 541.194702,181.511978 543.398010,182.499359 
z"/>
<path fill="#171616" opacity="1.000000" stroke="none" 
	d="
M506.310059,185.941071 
	C505.554626,184.382950 505.250977,182.884140 504.876129,181.033997 
	C507.501404,181.033997 509.553894,181.033997 511.941406,181.033997 
	C512.010681,182.487396 512.078796,183.915863 512.178162,186.000397 
	C510.248840,186.000397 508.505341,186.000397 506.310059,185.941071 
z"/>
<path fill="#181717" opacity="1.000000" stroke="none" 
	d="
M855.036865,198.056519 
	C856.724121,196.241089 858.590942,194.619904 860.457703,192.998718 
	C862.973938,199.419342 857.906738,196.764099 855.934265,198.447906 
	C855.457581,198.508041 855.336975,198.379410 855.036865,198.056519 
z"/>
<path fill="#181717" opacity="1.000000" stroke="none" 
	d="
M693.036865,198.056519 
	C694.724121,196.241074 696.590881,194.619888 698.457703,192.998703 
	C700.973938,199.419342 695.906738,196.764099 693.934265,198.447906 
	C693.457581,198.508041 693.336975,198.379410 693.036865,198.056519 
z"/>
<path fill="#FDFDFD" opacity="1.000000" stroke="none" 
	d="
M142.124756,240.082764 
	C129.818314,237.380676 120.482231,231.094559 113.501610,221.028519 
	C105.538826,209.546204 97.223511,198.308716 89.094711,186.941025 
	C85.651047,182.125244 86.077049,177.499466 90.113808,174.759735 
	C93.633026,172.371262 97.821625,173.607086 101.110626,178.059204 
	C103.186417,180.869064 104.898163,184.034760 107.363121,186.435043 
	C108.675690,187.713196 111.658501,188.691650 113.155106,188.062744 
	C116.036163,186.852020 115.549530,184.063110 113.913147,181.741653 
	C109.696068,175.759125 105.404793,169.828888 101.185005,163.848251 
	C97.860435,159.136383 98.206551,154.657074 102.021301,152.043335 
	C105.667900,149.544785 109.943336,150.605026 113.190468,155.003754 
	C116.944962,160.089752 120.595039,165.253754 124.235435,170.422638 
	C125.954613,172.863632 128.124725,174.506134 130.891281,172.577652 
	C133.752686,170.583038 132.690170,168.002319 130.970810,165.622345 
	C125.124863,157.530243 119.289391,149.430405 113.488289,141.306137 
	C109.902817,136.284775 110.216171,132.103531 114.308006,129.121078 
	C117.885696,126.513397 122.132835,127.786781 125.669884,132.676666 
	C130.934937,139.955444 136.124466,147.288849 141.340546,154.602982 
	C143.054260,157.005997 145.030624,159.570129 148.209641,157.410965 
	C151.696381,155.042770 149.793900,152.238312 147.960999,149.680313 
	C130.614456,125.471581 113.259560,101.268776 95.957947,77.027954 
	C92.956856,72.823204 93.430504,68.585403 96.906082,65.984924 
	C100.327797,63.424751 104.754494,64.256065 107.875748,68.069298 
	C108.507629,68.841263 109.068298,69.672218 109.650246,70.484261 
	C126.707550,94.285881 143.764587,118.087677 160.818436,141.891785 
	C164.306473,146.760437 167.586472,151.798386 171.376465,156.418625 
	C172.581161,157.887222 175.127457,158.255310 177.059845,159.126999 
	C177.870163,157.151794 179.463882,155.130844 179.351685,153.209488 
	C178.925217,145.906296 177.916016,138.638428 177.185608,131.351257 
	C176.588882,125.397858 179.260376,121.396019 183.968018,121.038940 
	C188.518692,120.693764 191.505157,123.871292 192.092285,129.777878 
	C194.150375,150.482529 196.705658,171.154541 198.096664,191.904327 
	C199.703201,215.869125 184.450134,235.431961 160.857376,240.143051 
	C154.989807,241.314697 148.665054,240.196823 142.124756,240.082764 
z"/>
<path fill="#F9F9F9" opacity="1.000000" stroke="none" 
	d="
M137.068207,88.019257 
	C136.480835,89.265091 136.026901,90.152443 135.571426,91.042801 
	C130.352310,87.190498 129.158585,84.126106 130.678955,78.514534 
	C134.387894,64.825081 128.952591,50.366867 117.210022,42.686390 
	C105.550407,35.060188 90.085724,36.010841 79.070854,45.030910 
	C68.555840,53.641651 64.521378,69.019783 70.053391,81.705231 
	C75.092445,93.260246 84.246452,99.814743 96.786392,101.561333 
	C104.475700,102.632309 104.472572,102.654755 109.095421,110.187096 
	C100.597008,111.927185 92.519897,111.637657 84.648132,108.567284 
	C65.371635,101.048485 54.622478,80.738625 59.047626,60.427620 
	C63.357029,40.647877 81.829079,26.854788 102.357765,28.087934 
	C131.746292,29.853283 149.299637,59.864346 137.068207,88.019257 
z"/>
<path fill="#F9F9F9" opacity="1.000000" stroke="none" 
	d="
M116.758453,66.256516 
	C112.571281,59.956860 107.532852,55.475048 99.798943,56.410992 
	C87.783386,57.865097 81.964989,69.803375 88.129341,80.250336 
	C90.648705,84.519997 93.767563,88.435905 96.680557,92.608536 
	C84.757980,92.590370 74.905319,80.344063 76.004707,67.165176 
	C77.121948,53.772358 90.139847,43.853313 103.585503,46.149868 
	C116.941589,48.431129 125.992409,61.495071 122.621567,74.389832 
	C120.600601,71.584145 118.785797,69.064682 116.758453,66.256516 
z"/>
<path fill="#FEFEFE" opacity="1.000000" stroke="none" 
	d="
M284.038849,95.486282 
	C282.571594,102.826035 280.850525,103.728592 270.042175,103.059746 
	C270.042175,89.896416 270.042175,76.703873 270.042175,62.916096 
	C272.017609,62.916096 274.112762,62.835220 276.199646,62.932068 
	C281.359497,63.171539 283.847595,65.429443 283.978882,70.631660 
	C284.184082,78.763344 284.049286,86.903603 284.038849,95.486282 
z"/>
<path fill="#F6F6F6" opacity="1.000000" stroke="none" 
	d="
M992.812073,120.995094 
	C992.811951,125.656418 992.902954,129.821472 992.789429,133.980942 
	C992.635681,139.611343 986.679749,144.378372 981.398376,142.601685 
	C979.538269,141.975937 977.145203,139.270462 977.106445,137.469040 
	C976.769409,121.834068 976.836975,106.188087 976.967834,90.546928 
	C977.000122,86.683144 979.595886,85.009430 983.317444,85.092682 
	C988.374207,85.205780 992.683777,88.871109 992.764221,93.523666 
	C992.919678,102.512146 992.811157,111.505188 992.812073,120.995094 
z"/>
<path fill="#F6F6F6" opacity="1.000000" stroke="none" 
	d="
M325.939514,85.864426 
	C333.728638,84.728928 335.873413,86.392502 336.082123,93.576065 
	C336.202271,97.711418 336.103943,101.853119 336.103943,106.371597 
	C331.425018,106.371597 326.913849,106.371597 322.139099,106.371597 
	C322.139099,101.198753 321.849792,96.075783 322.296051,91.017723 
	C322.452209,89.248215 324.419159,87.638474 325.939514,85.864426 
z"/>
<path fill="#F3F3F3" opacity="1.000000" stroke="none" 
	d="
M647.201538,106.760460 
	C644.576111,106.920296 642.813477,106.837456 643.027161,103.769890 
	C643.314941,99.637772 643.194885,95.478973 643.388611,91.338112 
	C643.594421,86.939148 646.424133,85.320831 650.396667,85.335777 
	C654.402832,85.350838 657.151367,87.011353 657.190247,91.475189 
	C657.233154,96.405807 657.200073,101.337090 657.200073,106.760536 
	C653.872559,106.760536 650.768005,106.760536 647.201538,106.760460 
z"/>
<path fill="#FAFAFA" opacity="1.000000" stroke="none" 
	d="
M1060.094727,140.840057 
	C1059.225098,138.527878 1058.165039,136.499634 1058.142578,134.459991 
	C1057.993042,120.827469 1057.975952,107.191681 1058.104004,93.558716 
	C1058.163940,87.184402 1061.280151,84.620956 1067.225586,85.445015 
	C1070.881714,85.951782 1073.033203,87.907082 1073.048706,91.660622 
	C1073.109741,106.453178 1073.264160,121.249123 1073.011475,136.037460 
	C1072.901611,142.460678 1067.860840,144.304688 1060.094727,140.840057 
z"/>
<path fill="#F9F9F9" opacity="1.000000" stroke="none" 
	d="
M512.619751,131.610748 
	C512.118713,140.677521 510.572540,142.797531 504.793640,142.667679 
	C500.591125,142.573288 497.530426,140.803558 497.487030,136.264862 
	C497.345764,121.483559 497.334045,106.699493 497.458282,91.918053 
	C497.498596,87.124687 500.699921,85.310890 505.115814,85.346848 
	C509.654480,85.383789 512.335999,87.514450 512.374451,92.282547 
	C512.479065,105.239319 512.554077,118.196320 512.619751,131.610748 
z"/>
<path fill="#FAFAFA" opacity="1.000000" stroke="none" 
	d="
M885.032715,208.432877 
	C884.974487,200.398239 884.974487,192.811676 884.974487,185.271301 
	C892.012207,184.286560 892.924622,184.991882 893.013733,191.441788 
	C893.070862,195.575195 893.087891,199.711929 892.990417,203.844040 
	C892.858337,209.443466 890.845459,210.688019 885.032715,208.432877 
z"/>
<path fill="#FAFAFA" opacity="1.000000" stroke="none" 
	d="
M583.011108,211.325531 
	C580.545654,211.389557 578.574036,211.389557 576.153442,211.389557 
	C576.153442,207.685638 575.790710,204.058258 576.338318,200.573959 
	C576.547058,199.245468 578.743591,197.535339 580.221252,197.327148 
	C581.336853,197.169998 583.751526,199.039383 583.847046,200.155685 
	C584.160461,203.821075 583.680237,207.554337 583.011108,211.325531 
z"/>
<path fill="#FDFDFD" opacity="1.000000" stroke="none" 
	d="
M779.947754,211.383636 
	C777.805115,211.392929 776.151672,211.392929 774.007141,211.392929 
	C774.007141,207.609070 773.796509,203.989517 774.129761,200.420761 
	C774.235962,199.282959 775.612244,197.710190 776.723328,197.370941 
	C777.903687,197.010544 779.762573,197.490280 780.786987,198.291382 
	C782.876099,199.925018 782.451355,208.894104 779.947754,211.383636 
z"/>
<path fill="#F9F9F9" opacity="1.000000" stroke="none" 
	d="
M732.978882,230.960815 
	C730.085876,230.521866 726.592346,231.380371 726.062988,226.641174 
	C725.361816,220.362488 727.394775,216.763809 735.253296,213.673676 
	C734.212524,219.718506 733.304932,224.990082 732.665039,230.648102 
	C732.932739,231.034531 732.944702,230.966370 732.978882,230.960815 
z"/>
<path fill="#F6F6F6" opacity="1.000000" stroke="none" 
	d="
M672.868958,211.424133 
	C669.932678,211.672974 668.161194,211.308533 668.514587,208.109573 
	C668.802917,205.500427 668.411804,202.782501 668.958618,200.250290 
	C669.219604,199.041718 670.861694,197.475388 672.055603,197.303436 
	C673.322998,197.120926 675.855835,198.216507 676.003662,199.070908 
	C676.639648,202.748169 676.706177,206.543228 676.656555,210.291107 
	C676.651306,210.683258 674.510254,211.047073 672.868958,211.424133 
z"/>
<path fill="#F6F6F6" opacity="1.000000" stroke="none" 
	d="
M831.518921,230.591858 
	C830.661133,229.774216 829.763123,229.145325 829.752319,228.501526 
	C829.593872,219.079697 829.412598,209.651932 829.675659,200.237823 
	C829.706299,199.140518 832.380432,197.250015 833.770752,197.301407 
	C835.163391,197.352890 837.609680,199.334900 837.655029,200.543518 
	C837.990295,209.477127 838.001587,218.433212 837.765320,227.373001 
	C837.669678,230.993271 834.793274,231.248276 831.518921,230.591858 
z"/>
</svg>